<svg xmlns="http://www.w3.org/2000/svg" width="740" height="460" viewBox="0 0 740 460"><style>text{font-family:Arial,sans-serif;fill:#e9ecef}.title{font-size:20px;font-weight:700}.axis{font-size:12px;fill:#adb5bd}.cell{font-size:11px;fill:#fff}</style><rect width="100%" height="100%" fill="#0b0f14"/><text x="24" y="28" class="title">Win Rate | Pyramid 0.75N</text>
<text x="20" y="162.5" class="axis">1.5</text>
<rect x="95.0" y="95.0" width="137.5" height="135.0" fill="#8e5a3f" stroke="#111"/>
<text x="163.8" y="162.5" text-anchor="middle" class="cell">0.34</text>
<rect x="232.5" y="95.0" width="137.5" height="135.0" fill="#94573e" stroke="#111"/>
<text x="301.2" y="162.5" text-anchor="middle" class="cell">0.30</text>
<rect x="370.0" y="95.0" width="137.5" height="135.0" fill="#91583e" stroke="#111"/>
<text x="438.8" y="162.5" text-anchor="middle" class="cell">0.32</text>
<rect x="507.5" y="95.0" width="137.5" height="135.0" fill="#c83c37" stroke="#111"/>
<text x="576.2" y="162.5" text-anchor="middle" class="cell">0.00</text>
<text x="20" y="297.5" class="axis">2.0</text>
<rect x="95.0" y="230.0" width="137.5" height="135.0" fill="#92583e" stroke="#111"/>
<text x="163.8" y="297.5" text-anchor="middle" class="cell">0.31</text>
<rect x="232.5" y="230.0" width="137.5" height="135.0" fill="#8f5a3f" stroke="#111"/>
<text x="301.2" y="297.5" text-anchor="middle" class="cell">0.33</text>
<rect x="370.0" y="230.0" width="137.5" height="135.0" fill="#1e9650" stroke="#111"/>
<text x="438.8" y="297.5" text-anchor="middle" class="cell">1.00</text>
<rect x="507.5" y="230.0" width="137.5" height="135.0" fill="#c83c37" stroke="#111"/>
<text x="576.2" y="297.5" text-anchor="middle" class="cell">0.00</text>
<text x="163.8" y="425" text-anchor="middle" class="axis">0.25%</text>
<text x="301.2" y="425" text-anchor="middle" class="axis">0.50%</text>
<text x="438.8" y="425" text-anchor="middle" class="axis">0.75%</text>
<text x="576.2" y="425" text-anchor="middle" class="axis">1.00%</text>
</svg>