<svg xmlns="http://www.w3.org/2000/svg" width="980" height="520" viewBox="0 0 980 520"><style>text{font-family:Arial,sans-serif;fill:#e9ecef}.title{font-size:20px;font-weight:700}.axis{font-size:12px;fill:#adb5bd}.cell{font-size:11px;fill:#fff}</style><rect width="100%" height="100%" fill="#0b0f14"/><text x="24" y="28" class="title">Monthly Return Distribution</text>
<text x="70" y="35" class="axis">Return</text>
<rect x="70.00" y="342.44" width="9.05" height="31.19" fill="#c92a2a" opacity="0.82"/>
<rect x="81.05" y="269.77" width="9.05" height="72.67" fill="#2f9e44" opacity="0.82"/>
<rect x="92.11" y="342.44" width="9.05" height="35.86" fill="#c92a2a" opacity="0.82"/>
<rect x="103.16" y="342.44" width="9.05" height="16.15" fill="#c92a2a" opacity="0.82"/>
<rect x="114.21" y="342.44" width="9.05" height="8.82" fill="#c92a2a" opacity="0.82"/>
<rect x="125.26" y="342.44" width="9.05" height="48.18" fill="#c92a2a" opacity="0.82"/>
<rect x="136.32" y="342.44" width="9.05" height="14.06" fill="#c92a2a" opacity="0.82"/>
<rect x="147.37" y="269.87" width="9.05" height="72.57" fill="#2f9e44" opacity="0.82"/>
<rect x="158.42" y="342.44" width="9.05" height="2.25" fill="#c92a2a" opacity="0.82"/>
<rect x="169.47" y="342.44" width="9.05" height="44.10" fill="#c92a2a" opacity="0.82"/>
<rect x="180.53" y="308.04" width="9.05" height="34.40" fill="#2f9e44" opacity="0.82"/>
<rect x="191.58" y="295.81" width="9.05" height="46.63" fill="#2f9e44" opacity="0.82"/>
<rect x="202.63" y="342.44" width="9.05" height="57.26" fill="#c92a2a" opacity="0.82"/>
<rect x="213.68" y="342.44" width="9.05" height="31.08" fill="#c92a2a" opacity="0.82"/>
<rect x="224.74" y="342.44" width="9.05" height="28.17" fill="#c92a2a" opacity="0.82"/>
<rect x="235.79" y="220.99" width="9.05" height="121.45" fill="#2f9e44" opacity="0.82"/>
<rect x="246.84" y="342.44" width="9.05" height="53.30" fill="#c92a2a" opacity="0.82"/>
<rect x="257.89" y="342.44" width="9.05" height="30.23" fill="#c92a2a" opacity="0.82"/>
<rect x="268.95" y="263.06" width="9.05" height="79.38" fill="#2f9e44" opacity="0.82"/>
<rect x="280.00" y="342.44" width="9.05" height="27.40" fill="#c92a2a" opacity="0.82"/>
<rect x="291.05" y="64.73" width="9.05" height="277.71" fill="#2f9e44" opacity="0.82"/>
<rect x="302.11" y="342.44" width="9.05" height="20.65" fill="#c92a2a" opacity="0.82"/>
<rect x="313.16" y="342.44" width="9.05" height="21.34" fill="#c92a2a" opacity="0.82"/>
<rect x="324.21" y="342.44" width="9.05" height="66.83" fill="#c92a2a" opacity="0.82"/>
<rect x="335.26" y="342.44" width="9.05" height="23.60" fill="#c92a2a" opacity="0.82"/>
<rect x="346.32" y="342.44" width="9.05" height="21.48" fill="#c92a2a" opacity="0.82"/>
<rect x="357.37" y="342.44" width="9.05" height="33.41" fill="#c92a2a" opacity="0.82"/>
<rect x="368.42" y="342.44" width="9.05" height="22.01" fill="#c92a2a" opacity="0.82"/>
<rect x="379.47" y="342.44" width="9.05" height="48.94" fill="#c92a2a" opacity="0.82"/>
<rect x="390.53" y="278.23" width="9.05" height="64.21" fill="#2f9e44" opacity="0.82"/>
<rect x="401.58" y="342.44" width="9.05" height="6.63" fill="#c92a2a" opacity="0.82"/>
<rect x="412.63" y="342.44" width="9.05" height="70.25" fill="#c92a2a" opacity="0.82"/>
<rect x="423.68" y="342.44" width="9.05" height="1.67" fill="#c92a2a" opacity="0.82"/>
<rect x="434.74" y="342.44" width="9.05" height="39.86" fill="#c92a2a" opacity="0.82"/>
<rect x="445.79" y="342.44" width="9.05" height="41.97" fill="#c92a2a" opacity="0.82"/>
<rect x="456.84" y="342.44" width="9.05" height="5.84" fill="#c92a2a" opacity="0.82"/>
<rect x="467.89" y="240.37" width="9.05" height="102.07" fill="#2f9e44" opacity="0.82"/>
<rect x="478.95" y="342.44" width="9.05" height="34.77" fill="#c92a2a" opacity="0.82"/>
<rect x="490.00" y="342.44" width="9.05" height="64.05" fill="#c92a2a" opacity="0.82"/>
<rect x="501.05" y="295.43" width="9.05" height="47.01" fill="#2f9e44" opacity="0.82"/>
<rect x="512.11" y="342.44" width="9.05" height="28.66" fill="#c92a2a" opacity="0.82"/>
<rect x="523.16" y="181.73" width="9.05" height="160.71" fill="#2f9e44" opacity="0.82"/>
<rect x="534.21" y="342.44" width="9.05" height="53.10" fill="#c92a2a" opacity="0.82"/>
<rect x="545.26" y="342.44" width="9.05" height="26.60" fill="#c92a2a" opacity="0.82"/>
<rect x="556.32" y="342.44" width="9.05" height="26.71" fill="#c92a2a" opacity="0.82"/>
<rect x="567.37" y="192.64" width="9.05" height="149.80" fill="#2f9e44" opacity="0.82"/>
<rect x="578.42" y="342.44" width="9.05" height="77.64" fill="#c92a2a" opacity="0.82"/>
<rect x="589.47" y="342.44" width="9.05" height="49.78" fill="#c92a2a" opacity="0.82"/>
<rect x="600.53" y="-37.56" width="9.05" height="380.00" fill="#2f9e44" opacity="0.82"/>
<rect x="611.58" y="342.44" width="9.05" height="24.68" fill="#c92a2a" opacity="0.82"/>
<rect x="622.63" y="342.44" width="9.05" height="17.76" fill="#c92a2a" opacity="0.82"/>
<rect x="633.68" y="287.76" width="9.05" height="54.68" fill="#2f9e44" opacity="0.82"/>
<rect x="644.74" y="272.82" width="9.05" height="69.62" fill="#2f9e44" opacity="0.82"/>
<rect x="655.79" y="183.43" width="9.05" height="159.01" fill="#2f9e44" opacity="0.82"/>
<rect x="666.84" y="-10.29" width="9.05" height="352.73" fill="#2f9e44" opacity="0.82"/>
<rect x="677.89" y="342.44" width="9.05" height="29.74" fill="#c92a2a" opacity="0.82"/>
<rect x="688.95" y="342.44" width="9.05" height="30.00" fill="#c92a2a" opacity="0.82"/>
<rect x="700.00" y="342.44" width="9.05" height="62.20" fill="#c92a2a" opacity="0.82"/>
<rect x="711.05" y="342.44" width="9.05" height="43.76" fill="#c92a2a" opacity="0.82"/>
<rect x="722.11" y="342.44" width="9.05" height="29.12" fill="#c92a2a" opacity="0.82"/>
<rect x="733.16" y="342.44" width="9.05" height="18.71" fill="#c92a2a" opacity="0.82"/>
<rect x="744.21" y="204.82" width="9.05" height="137.62" fill="#2f9e44" opacity="0.82"/>
<rect x="755.26" y="342.44" width="9.05" height="11.78" fill="#c92a2a" opacity="0.82"/>
<rect x="766.32" y="342.44" width="9.05" height="53.46" fill="#c92a2a" opacity="0.82"/>
<rect x="777.37" y="342.44" width="9.05" height="74.31" fill="#c92a2a" opacity="0.82"/>
<rect x="788.42" y="342.44" width="9.05" height="72.03" fill="#c92a2a" opacity="0.82"/>
<rect x="799.47" y="342.44" width="9.05" height="114.29" fill="#c92a2a" opacity="0.82"/>
<rect x="810.53" y="342.44" width="9.05" height="36.27" fill="#c92a2a" opacity="0.82"/>
<rect x="821.58" y="342.44" width="9.05" height="150.02" fill="#c92a2a" opacity="0.82"/>
<rect x="832.63" y="266.80" width="9.05" height="75.64" fill="#2f9e44" opacity="0.82"/>
<rect x="843.68" y="342.44" width="9.05" height="29.67" fill="#c92a2a" opacity="0.82"/>
<rect x="854.74" y="211.64" width="9.05" height="130.80" fill="#2f9e44" opacity="0.82"/>
<rect x="865.79" y="342.44" width="9.05" height="68.04" fill="#c92a2a" opacity="0.82"/>
<rect x="876.84" y="342.44" width="9.05" height="52.62" fill="#c92a2a" opacity="0.82"/>
<rect x="887.89" y="342.44" width="9.05" height="16.30" fill="#c92a2a" opacity="0.82"/>
<rect x="898.95" y="101.34" width="9.05" height="241.10" fill="#2f9e44" opacity="0.82"/>
<line x1="70" x2="910" y1="342.44" y2="342.44" stroke="#444"/>
</svg>