<svg xmlns="http://www.w3.org/2000/svg" width="980" height="520" viewBox="0 0 980 520"><style>text{font-family:Arial,sans-serif;fill:#e9ecef}.title{font-size:20px;font-weight:700}.axis{font-size:12px;fill:#adb5bd}.cell{font-size:11px;fill:#fff}</style><rect width="100%" height="100%" fill="#0b0f14"/><text x="24" y="28" class="title">Monte Carlo Max Drawdown</text>
<text x="70" y="35" class="axis">Count</text>
<rect x="70.00" y="446.58" width="26.00" height="3.42" fill="#2f9e44" opacity="0.82"/>
<rect x="98.00" y="436.71" width="26.00" height="13.29" fill="#2f9e44" opacity="0.82"/>
<rect x="126.00" y="386.22" width="26.00" height="63.78" fill="#2f9e44" opacity="0.82"/>
<rect x="154.00" y="324.73" width="26.00" height="125.27" fill="#2f9e44" opacity="0.82"/>
<rect x="182.00" y="223.37" width="26.00" height="226.63" fill="#2f9e44" opacity="0.82"/>
<rect x="210.00" y="129.22" width="26.00" height="320.78" fill="#2f9e44" opacity="0.82"/>
<rect x="238.00" y="92.40" width="26.00" height="357.60" fill="#2f9e44" opacity="0.82"/>
<rect x="266.00" y="70.00" width="26.00" height="380.00" fill="#2f9e44" opacity="0.82"/>
<rect x="294.00" y="70.76" width="26.00" height="379.24" fill="#2f9e44" opacity="0.82"/>
<rect x="322.00" y="106.82" width="26.00" height="343.18" fill="#2f9e44" opacity="0.82"/>
<rect x="350.00" y="167.94" width="26.00" height="282.06" fill="#2f9e44" opacity="0.82"/>
<rect x="378.00" y="196.41" width="26.00" height="253.59" fill="#2f9e44" opacity="0.82"/>
<rect x="406.00" y="228.68" width="26.00" height="221.32" fill="#2f9e44" opacity="0.82"/>
<rect x="434.00" y="249.18" width="26.00" height="200.82" fill="#2f9e44" opacity="0.82"/>
<rect x="462.00" y="304.61" width="26.00" height="145.39" fill="#2f9e44" opacity="0.82"/>
<rect x="490.00" y="341.05" width="26.00" height="108.95" fill="#2f9e44" opacity="0.82"/>
<rect x="518.00" y="356.61" width="26.00" height="93.39" fill="#2f9e44" opacity="0.82"/>
<rect x="546.00" y="369.14" width="26.00" height="80.86" fill="#2f9e44" opacity="0.82"/>
<rect x="574.00" y="399.51" width="26.00" height="50.49" fill="#2f9e44" opacity="0.82"/>
<rect x="602.00" y="410.14" width="26.00" height="39.86" fill="#2f9e44" opacity="0.82"/>
<rect x="630.00" y="423.81" width="26.00" height="26.19" fill="#2f9e44" opacity="0.82"/>
<rect x="658.00" y="425.32" width="26.00" height="24.68" fill="#2f9e44" opacity="0.82"/>
<rect x="686.00" y="430.64" width="26.00" height="19.36" fill="#2f9e44" opacity="0.82"/>
<rect x="714.00" y="437.47" width="26.00" height="12.53" fill="#2f9e44" opacity="0.82"/>
<rect x="742.00" y="441.27" width="26.00" height="8.73" fill="#2f9e44" opacity="0.82"/>
<rect x="770.00" y="443.93" width="26.00" height="6.07" fill="#2f9e44" opacity="0.82"/>
<rect x="798.00" y="446.96" width="26.00" height="3.04" fill="#2f9e44" opacity="0.82"/>
<rect x="826.00" y="448.48" width="26.00" height="1.52" fill="#2f9e44" opacity="0.82"/>
<rect x="854.00" y="448.10" width="26.00" height="1.90" fill="#2f9e44" opacity="0.82"/>
<rect x="882.00" y="447.72" width="26.00" height="2.28" fill="#2f9e44" opacity="0.82"/>
<line x1="70" x2="910" y1="450.00" y2="450.00" stroke="#444"/>
</svg>