<svg xmlns="http://www.w3.org/2000/svg" width="980" height="520" viewBox="0 0 980 520"><style>text{font-family:Arial,sans-serif;fill:#e9ecef}.title{font-size:20px;font-weight:700}.axis{font-size:12px;fill:#adb5bd}.cell{font-size:11px;fill:#fff}</style><rect width="100%" height="100%" fill="#0b0f14"/><text x="24" y="28" class="title">Underwater Drawdown</text>
<text x="70" y="35" class="axis">Drawdown</text>
<polyline points="70.00,70.00 70.34,70.00 70.69,70.00 71.03,70.00 71.37,70.00 71.71,70.00 72.06,70.00 72.40,70.00 72.74,70.00 73.09,70.00 73.43,70.00 73.77,70.00 74.11,70.00 74.46,70.00 74.80,70.00 75.14,70.00 75.49,70.00 75.83,70.00 76.17,70.00 76.51,70.00 76.86,70.00 77.20,70.00 77.54,70.13 77.89,70.50 78.23,73.63 78.57,74.62 78.91,70.00 79.26,70.00 79.60,70.00 79.94,83.02 80.29,84.90 80.63,80.01 80.97,92.26 81.31,92.18 81.66,92.22 82.00,88.99 82.34,89.67 82.69,88.92 83.03,88.86 83.37,86.76 83.71,86.70 84.06,84.99 84.40,80.72 84.74,80.87 85.09,75.04 85.43,70.00 85.77,70.00 86.11,70.00 86.46,74.81 86.80,82.08 87.14,74.04 87.49,73.48 87.83,72.91 88.17,70.00 88.51,70.00 88.86,76.93 89.20,76.44 89.54,80.31 89.89,71.64 90.23,70.00 90.57,81.21 90.91,79.58 91.26,70.00 91.60,77.78 91.94,78.68 92.29,77.75 92.63,71.29 92.97,70.00 93.31,70.00 93.66,70.00 94.00,70.00 94.34,83.59 94.69,91.51 95.03,109.55 95.37,110.86 95.71,110.86 96.06,110.86 96.40,110.98 96.74,111.52 97.09,109.99 97.43,105.91 97.77,107.38 98.11,108.24 98.46,102.52 98.80,99.01 99.14,106.57 99.49,104.33 99.83,115.69 100.17,114.54 100.51,111.73 100.86,119.57 101.20,119.57 101.54,119.57 101.89,119.57 102.23,119.70 102.57,119.64 102.91,126.30 103.26,126.30 103.60,126.30 103.94,126.30 104.29,126.30 104.63,126.30 104.97,126.30 105.31,126.30 105.66,126.30 106.00,126.30 106.34,126.30 106.69,126.30 107.03,126.30 107.37,126.30 107.71,126.30 108.06,126.30 108.40,126.30 108.74,126.43 109.09,126.96 109.43,131.13 109.77,131.23 110.11,131.52 110.46,133.25 110.80,133.25 111.14,133.25 111.49,133.25 111.83,133.25 112.17,133.25 112.51,133.25 112.86,133.25 113.20,133.25 113.54,133.25 113.89,133.25 114.23,133.25 114.57,133.25 114.91,133.25 115.26,133.38 115.60,131.83 115.94,131.55 116.29,129.92 116.63,128.93 116.97,125.94 117.31,126.68 117.66,125.97 118.00,132.69 118.34,132.44 118.69,132.54 119.03,131.74 119.37,137.05 119.71,137.05 120.06,137.05 120.40,137.05 120.74,137.05 121.09,137.05 121.43,137.05 121.77,137.05 122.11,137.18 122.46,138.45 122.80,138.70 123.14,137.83 123.49,137.63 123.83,137.42 124.17,138.01 124.51,138.12 124.86,138.23 125.20,136.75 125.54,137.41 125.89,137.15 126.23,142.16 126.57,141.45 126.91,143.04 127.26,141.93 127.60,142.37 127.94,136.43 128.29,130.94 128.63,129.27 128.97,128.66 129.31,151.73 129.66,151.85 130.00,153.05 130.34,157.80 130.69,157.80 131.03,157.80 131.37,157.80 131.71,157.80 132.06,157.80 132.40,157.80 132.74,157.80 133.09,157.80 133.43,157.80 133.77,157.80 134.11,157.80 134.46,157.93 134.80,160.50 135.14,160.37 135.49,159.22 135.83,159.35 136.17,163.85 136.51,163.85 136.86,163.85 137.20,163.85 137.54,163.85 137.89,163.85 138.23,163.85 138.57,163.85 138.91,163.85 139.26,163.85 139.60,163.85 139.94,163.85 140.29,163.85 140.63,164.11 140.97,166.13 141.31,163.95 141.66,164.16 142.00,166.13 142.34,166.84 142.69,170.05 143.03,168.88 143.37,168.48 143.71,168.91 144.06,157.46 144.40,161.49 144.74,154.43 145.09,160.71 145.43,160.83 145.77,148.70 146.11,148.70 146.46,143.40 146.80,135.20 147.14,124.87 147.49,122.69 147.83,128.21 148.17,130.44 148.51,119.20 148.86,120.80 149.20,111.89 149.54,111.45 149.89,111.43 150.23,119.05 150.57,113.22 150.91,117.44 151.26,114.40 151.60,113.35 151.94,112.13 152.29,105.03 152.63,110.34 152.97,110.93 153.31,89.11 153.66,84.54 154.00,104.19 154.34,105.79 154.69,116.93 155.03,119.99 155.37,119.99 155.71,119.99 156.06,120.11 156.40,120.80 156.74,119.72 157.09,121.20 157.43,121.56 157.77,122.27 158.11,117.44 158.46,116.69 158.80,120.16 159.14,124.44 159.49,124.81 159.83,126.04 160.17,126.87 160.51,125.92 160.86,132.61 161.20,132.73 161.54,123.39 161.89,118.07 162.23,117.48 162.57,119.45 162.91,99.95 163.26,100.95 163.60,126.12 163.94,121.02 164.29,107.66 164.63,116.43 164.97,115.36 165.31,115.29 165.66,133.58 166.00,133.58 166.34,133.58 166.69,133.58 167.03,133.58 167.37,133.58 167.71,133.58 168.06,133.58 168.40,133.58 168.74,133.58 169.09,133.58 169.43,133.58 169.77,133.58 170.11,133.58 170.46,133.70 170.80,136.83 171.14,134.20 171.49,135.16 171.83,138.18 172.17,138.75 172.51,135.63 172.86,128.42 173.20,130.59 173.54,130.05 173.89,132.27 174.23,132.51 174.57,145.87 174.91,144.14 175.26,148.32 175.60,146.26 175.94,146.88 176.29,146.87 176.63,152.56 176.97,152.56 177.31,152.56 177.66,152.56 178.00,152.56 178.34,152.56 178.69,152.56 179.03,152.56 179.37,152.56 179.71,152.56 180.06,152.56 180.40,152.56 180.74,152.56 181.09,152.69 181.43,154.39 181.77,154.82 182.11,151.47 182.46,150.89 182.80,148.75 183.14,149.97 183.49,150.87 183.83,135.20 184.17,127.08 184.51,127.62 184.86,128.55 185.20,120.13 185.54,121.00 185.89,116.94 186.23,120.54 186.57,119.19 186.91,126.52 187.26,121.43 187.60,125.13 187.94,137.75 188.29,137.75 188.63,137.75 188.97,137.75 189.31,137.75 189.66,137.75 190.00,137.75 190.34,137.88 190.69,138.94 191.03,139.07 191.37,137.81 191.71,134.50 192.06,135.75 192.40,139.52 192.74,139.23 193.09,139.95 193.43,130.20 193.77,131.43 194.11,128.82 194.46,126.45 194.80,126.96 195.14,126.52 195.49,125.82 195.83,128.05 196.17,130.11 196.51,131.72 196.86,132.36 197.20,128.89 197.54,127.32 197.89,125.89 198.23,124.94 198.57,110.59 198.91,111.86 199.26,110.52 199.60,108.08 199.94,105.08 200.29,104.32 200.63,106.53 200.97,105.98 201.31,104.84 201.66,102.40 202.00,110.87 202.34,112.45 202.69,117.67 203.03,117.67 203.37,117.67 203.71,117.67 204.06,117.80 204.40,116.29 204.74,119.16 205.09,119.34 205.43,124.93 205.77,126.10 206.11,116.57 206.46,117.24 206.80,117.60 207.14,111.24 207.49,112.50 207.83,116.34 208.17,120.96 208.51,126.20 208.86,117.35 209.20,117.47 209.54,123.48 209.89,128.63 210.23,124.11 210.57,125.98 210.91,123.33 211.26,123.37 211.60,127.20 211.94,124.28 212.29,131.27 212.63,128.14 212.97,135.68 213.31,135.68 213.66,135.68 214.00,135.81 214.34,137.48 214.69,142.33 215.03,142.33 215.37,142.33 215.71,142.33 216.06,142.33 216.40,142.33 216.74,142.33 217.09,142.33 217.43,142.33 217.77,142.33 218.11,142.33 218.46,142.46 218.80,142.58 219.14,141.16 219.49,140.66 219.83,140.55 220.17,148.72 220.51,147.85 220.86,149.50 221.20,149.27 221.54,150.23 221.89,149.09 222.23,155.71 222.57,155.71 222.91,155.71 223.26,155.71 223.60,155.71 223.94,155.71 224.29,155.71 224.63,155.71 224.97,155.84 225.31,155.88 225.66,155.36 226.00,156.93 226.34,158.21 226.69,162.48 227.03,160.61 227.37,160.44 227.71,162.44 228.06,162.60 228.40,160.58 228.74,162.22 229.09,167.84 229.43,167.84 229.77,167.84 230.11,167.84 230.46,167.84 230.80,167.84 231.14,167.84 231.49,167.84 231.83,167.84 232.17,167.84 232.51,167.84 232.86,167.84 233.20,168.09 233.54,169.28 233.89,171.94 234.23,170.02 234.57,162.31 234.91,165.26 235.26,166.15 235.60,170.27 235.94,169.63 236.29,165.06 236.63,163.03 236.97,157.04 237.31,153.33 237.66,143.29 238.00,140.94 238.34,108.13 238.69,112.40 239.03,106.00 239.37,102.71 239.71,110.78 240.06,107.60 240.40,105.76 240.74,107.26 241.09,108.44 241.43,100.77 241.77,107.50 242.11,106.71 242.46,99.11 242.80,99.89 243.14,97.56 243.49,101.81 243.83,105.80 244.17,104.47 244.51,115.54 244.86,115.54 245.20,115.67 245.54,117.82 245.89,117.81 246.23,117.93 246.57,117.27 246.91,117.27 247.26,113.70 247.60,103.67 247.94,97.72 248.29,95.76 248.63,101.67 248.97,111.87 249.31,122.35 249.66,122.61 250.00,116.05 250.34,117.08 250.69,115.57 251.03,111.91 251.37,116.23 251.71,122.17 252.06,125.40 252.40,125.29 252.74,126.64 253.09,125.89 253.43,132.19 253.77,132.19 254.11,132.19 254.46,132.19 254.80,132.19 255.14,132.19 255.49,132.19 255.83,132.19 256.17,132.19 256.51,132.19 256.86,132.19 257.20,132.19 257.54,132.19 257.89,132.32 258.23,134.22 258.57,134.02 258.91,137.43 259.26,138.49 259.60,138.49 259.94,138.49 260.29,138.49 260.63,138.49 260.97,138.49 261.31,138.49 261.66,138.49 262.00,138.49 262.34,138.49 262.69,138.49 263.03,138.62 263.37,137.66 263.71,131.65 264.06,132.86 264.40,137.23 264.74,137.72 265.09,141.34 265.43,137.67 265.77,143.83 266.11,144.75 266.46,145.82 266.80,146.54 267.14,146.71 267.49,144.08 267.83,151.51 268.17,151.64 268.51,150.78 268.86,151.69 269.20,148.33 269.54,139.18 269.89,132.44 270.23,129.70 270.57,119.65 270.91,120.19 271.26,121.38 271.60,119.68 271.94,117.44 272.29,116.58 272.63,115.61 272.97,119.65 273.31,115.03 273.66,106.32 274.00,106.53 274.34,114.57 274.69,111.54 275.03,110.37 275.37,105.55 275.71,109.74 276.06,106.88 276.40,107.45 276.74,98.05 277.09,97.45 277.43,102.30 277.77,105.45 278.11,94.73 278.46,100.57 278.80,117.33 279.14,117.33 279.49,117.33 279.83,117.33 280.17,117.33 280.51,117.33 280.86,117.33 281.20,117.33 281.54,117.33 281.89,117.33 282.23,117.33 282.57,117.33 282.91,117.33 283.26,117.33 283.60,117.33 283.94,117.33 284.29,117.33 284.63,117.33 284.97,117.33 285.31,117.33 285.66,117.33 286.00,117.33 286.34,117.33 286.69,117.33 287.03,117.33 287.37,117.33 287.71,117.58 288.06,108.06 288.40,112.27 288.74,109.73 289.09,121.67 289.43,128.94 289.77,122.22 290.11,136.40 290.46,131.84 290.80,130.69 291.14,131.48 291.49,132.28 291.83,126.14 292.17,126.01 292.51,127.41 292.86,127.25 293.20,122.77 293.54,115.71 293.89,111.49 294.23,120.83 294.57,118.06 294.91,117.96 295.26,108.20 295.60,107.80 295.94,95.32 296.29,83.27 296.63,71.51 296.97,74.12 297.31,70.00 297.66,70.00 298.00,70.00 298.34,70.00 298.69,77.80 299.03,81.89 299.37,104.24 299.71,112.32 300.06,104.84 300.40,84.43 300.74,86.05 301.09,89.18 301.43,104.81 301.77,89.38 302.11,86.49 302.46,82.75 302.80,90.37 303.14,92.90 303.49,77.63 303.83,83.54 304.17,76.34 304.51,70.00 304.86,72.78 305.20,70.23 305.54,70.00 305.89,75.28 306.23,82.94 306.57,70.00 306.91,89.67 307.26,103.55 307.60,103.55 307.94,103.55 308.29,103.55 308.63,103.55 308.97,103.55 309.31,103.55 309.66,103.68 310.00,103.04 310.34,102.98 310.69,104.06 311.03,108.69 311.37,104.79 311.71,106.55 312.06,104.25 312.40,102.71 312.74,106.23 313.09,104.26 313.43,108.31 313.77,108.17 314.11,112.27 314.46,112.27 314.80,112.27 315.14,112.27 315.49,112.27 315.83,112.27 316.17,112.27 316.51,112.27 316.86,112.27 317.20,112.27 317.54,112.27 317.89,112.27 318.23,112.27 318.57,112.27 318.91,112.39 319.26,112.71 319.60,113.86 319.94,115.46 320.29,115.90 320.63,113.46 320.97,119.06 321.31,118.61 321.66,115.98 322.00,119.06 322.34,116.97 322.69,116.68 323.03,115.65 323.37,120.24 323.71,121.28 324.06,121.28 324.40,121.28 324.74,121.40 325.09,120.73 325.43,119.74 325.77,118.13 326.11,114.53 326.46,119.28 326.80,118.08 327.14,117.17 327.49,132.38 327.83,132.76 328.17,132.76 328.51,132.76 328.86,132.89 329.20,131.92 329.54,129.50 329.89,128.64 330.23,126.70 330.57,135.60 330.91,121.91 331.26,128.01 331.60,142.76 331.94,144.09 332.29,149.48 332.63,149.48 332.97,149.48 333.31,149.48 333.66,149.48 334.00,149.48 334.34,149.48 334.69,149.48 335.03,149.48 335.37,149.61 335.71,150.24 336.06,148.91 336.40,151.43 336.74,156.41 337.09,154.33 337.43,155.97 337.77,155.46 338.11,157.51 338.46,156.68 338.80,159.44 339.14,159.44 339.49,159.44 339.83,159.44 340.17,159.44 340.51,159.44 340.86,159.44 341.20,159.44 341.54,159.44 341.89,159.57 342.23,160.78 342.57,160.12 342.91,165.78 343.26,165.97 343.60,164.76 343.94,163.40 344.29,165.18 344.63,165.76 344.97,165.05 345.31,163.56 345.66,162.96 346.00,162.14 346.34,164.61 346.69,165.13 347.03,165.47 347.37,168.51 347.71,168.63 348.06,168.55 348.40,168.99 348.74,166.70 349.09,165.69 349.43,167.89 349.77,172.64 350.11,173.77 350.46,182.61 350.80,182.61 351.14,182.61 351.49,182.61 351.83,182.61 352.17,182.61 352.51,182.61 352.86,182.61 353.20,182.61 353.54,182.61 353.89,182.61 354.23,182.61 354.57,182.61 354.91,182.61 355.26,182.61 355.60,182.61 355.94,182.61 356.29,182.61 356.63,182.61 356.97,182.61 357.31,182.73 357.66,182.35 358.00,179.12 358.34,183.20 358.69,184.93 359.03,180.30 359.37,182.06 359.71,183.84 360.06,179.72 360.40,181.88 360.74,187.01 361.09,191.90 361.43,191.90 361.77,191.90 362.11,191.90 362.46,191.90 362.80,191.90 363.14,191.90 363.49,191.90 363.83,191.90 364.17,192.02 364.51,190.58 364.86,188.15 365.20,186.98 365.54,197.50 365.89,200.17 366.23,208.77 366.57,212.55 366.91,212.68 367.26,211.45 367.60,213.32 367.94,212.50 368.29,212.09 368.63,208.36 368.97,210.84 369.31,209.87 369.66,198.59 370.00,197.25 370.34,197.16 370.69,201.29 371.03,199.16 371.37,192.11 371.71,191.52 372.06,194.00 372.40,190.95 372.74,190.69 373.09,192.53 373.43,191.10 373.77,185.32 374.11,187.30 374.46,185.53 374.80,178.71 375.14,171.87 375.49,174.56 375.83,176.63 376.17,173.59 376.51,173.53 376.86,172.00 377.20,174.28 377.54,176.83 377.89,177.97 378.23,185.45 378.57,185.45 378.91,185.45 379.26,185.45 379.60,185.58 379.94,187.31 380.29,185.38 380.63,183.96 380.97,183.27 381.31,183.48 381.66,182.07 382.00,178.37 382.34,169.07 382.69,177.92 383.03,177.11 383.37,173.87 383.71,168.28 384.06,174.47 384.40,180.61 384.74,188.25 385.09,188.25 385.43,188.25 385.77,188.25 386.11,188.25 386.46,188.25 386.80,188.25 387.14,188.37 387.49,188.82 387.83,186.99 388.17,190.18 388.51,188.74 388.86,190.67 389.20,189.94 389.54,188.98 389.89,187.58 390.23,188.46 390.57,187.89 390.91,188.32 391.26,187.94 391.60,184.60 391.94,181.15 392.29,183.94 392.63,187.10 392.97,186.31 393.31,196.53 393.66,197.79 394.00,201.76 394.34,205.53 394.69,205.66 395.03,203.95 395.37,206.47 395.71,206.22 396.06,203.84 396.40,212.93 396.74,215.90 397.09,216.58 397.43,217.90 397.77,217.90 398.11,217.90 398.46,217.90 398.80,217.90 399.14,218.03 399.49,218.63 399.83,218.28 400.17,220.47 400.51,219.25 400.86,218.32 401.20,217.58 401.54,217.81 401.89,218.57 402.23,222.06 402.57,222.19 402.91,209.06 403.26,200.48 403.60,199.87 403.94,199.20 404.29,194.62 404.63,204.30 404.97,202.20 405.31,199.55 405.66,207.66 406.00,218.61 406.34,218.61 406.69,218.61 407.03,218.61 407.37,218.61 407.71,218.61 408.06,218.73 408.40,216.00 408.74,216.13 409.09,215.43 409.43,213.74 409.77,212.14 410.11,216.11 410.46,218.60 410.80,219.71 411.14,224.38 411.49,235.43 411.83,235.43 412.17,235.43 412.51,235.43 412.86,235.43 413.20,235.43 413.54,235.43 413.89,235.68 414.23,235.92 414.57,237.54 414.91,234.98 415.26,236.40 415.60,229.80 415.94,228.97 416.29,215.91 416.63,222.32 416.97,229.70 417.31,239.80 417.66,241.48 418.00,240.91 418.34,244.96 418.69,253.14 419.03,253.14 419.37,253.27 419.71,253.17 420.06,253.91 420.40,254.87 420.74,256.25 421.09,253.51 421.43,254.07 421.77,254.55 422.11,253.70 422.46,252.83 422.80,244.75 423.14,246.18 423.49,249.28 423.83,247.30 424.17,236.25 424.51,237.70 424.86,240.77 425.20,243.28 425.54,240.64 425.89,250.67 426.23,255.61 426.57,255.61 426.91,255.61 427.26,255.61 427.60,255.86 427.94,255.67 428.29,258.05 428.63,253.31 428.97,256.33 429.31,246.85 429.66,247.01 430.00,247.48 430.34,249.50 430.69,247.83 431.03,256.64 431.37,257.48 431.71,254.61 432.06,239.87 432.40,231.72 432.74,228.99 433.09,235.46 433.43,245.15 433.77,234.57 434.11,230.16 434.46,233.86 434.80,226.66 435.14,232.77 435.49,227.59 435.83,231.61 436.17,227.16 436.51,210.18 436.86,210.87 437.20,211.49 437.54,199.65 437.89,196.72 438.23,188.54 438.57,182.92 438.91,188.24 439.26,174.37 439.60,177.02 439.94,194.42 440.29,190.73 440.63,198.20 440.97,192.27 441.31,200.66 441.66,212.53 442.00,212.53 442.34,212.53 442.69,212.65 443.03,213.93 443.37,216.95 443.71,213.22 444.06,210.59 444.40,213.25 444.74,209.85 445.09,206.29 445.43,206.75 445.77,208.85 446.11,204.07 446.46,209.91 446.80,215.10 447.14,217.88 447.49,220.18 447.83,221.48 448.17,227.20 448.51,227.20 448.86,227.20 449.20,227.20 449.54,227.20 449.89,227.20 450.23,227.20 450.57,227.20 450.91,227.20 451.26,227.20 451.60,227.20 451.94,227.20 452.29,227.20 452.63,227.20 452.97,227.20 453.31,227.20 453.66,227.20 454.00,227.20 454.34,227.20 454.69,227.20 455.03,227.20 455.37,227.20 455.71,227.20 456.06,227.20 456.40,227.20 456.74,227.45 457.09,235.34 457.43,233.65 457.77,228.45 458.11,228.90 458.46,230.03 458.80,227.36 459.14,227.60 459.49,232.36 459.83,236.24 460.17,233.87 460.51,235.66 460.86,238.57 461.20,238.57 461.54,238.70 461.89,239.01 462.23,237.54 462.57,241.13 462.91,249.07 463.26,247.03 463.60,248.93 463.94,253.38 464.29,253.38 464.63,254.23 464.97,254.23 465.31,254.23 465.66,254.48 466.00,252.79 466.34,247.83 466.69,240.76 467.03,226.92 467.37,231.52 467.71,222.52 468.06,225.05 468.40,224.71 468.74,231.67 469.09,228.09 469.43,222.86 469.77,208.55 470.11,207.25 470.46,208.31 470.80,218.95 471.14,218.56 471.49,214.51 471.83,212.41 472.17,205.81 472.51,190.50 472.86,199.41 473.20,197.86 473.54,206.57 473.89,208.13 474.23,202.37 474.57,199.28 474.91,213.46 475.26,207.21 475.60,221.06 475.94,221.18 476.29,223.80 476.63,222.57 476.97,225.85 477.31,228.60 477.66,234.39 478.00,234.39 478.34,234.39 478.69,234.39 479.03,234.39 479.37,234.39 479.71,234.39 480.06,234.39 480.40,234.39 480.74,234.39 481.09,234.39 481.43,234.39 481.77,234.39 482.11,234.39 482.46,234.39 482.80,234.39 483.14,234.39 483.49,234.39 483.83,234.39 484.17,234.39 484.51,234.39 484.86,234.39 485.20,234.39 485.54,234.39 485.89,234.39 486.23,234.39 486.57,234.39 486.91,234.52 487.26,233.14 487.60,235.14 487.94,239.61 488.29,239.56 488.63,235.94 488.97,237.86 489.31,237.71 489.66,239.27 490.00,237.84 490.34,237.07 490.69,236.38 491.03,234.53 491.37,242.82 491.71,238.18 492.06,237.95 492.40,237.23 492.74,236.30 493.09,237.89 493.43,242.53 493.77,246.49 494.11,246.49 494.46,246.49 494.80,246.62 495.14,248.05 495.49,246.15 495.83,243.18 496.17,243.64 496.51,246.90 496.86,248.01 497.20,247.83 497.54,248.00 497.89,246.99 498.23,250.91 498.57,249.53 498.91,247.36 499.26,236.03 499.60,235.85 499.94,236.00 500.29,237.17 500.63,237.16 500.97,236.18 501.31,237.63 501.66,245.16 502.00,242.70 502.34,240.63 502.69,241.37 503.03,243.32 503.37,241.08 503.71,237.70 504.06,236.76 504.40,239.85 504.74,239.53 505.09,240.04 505.43,241.32 505.77,242.51 506.11,239.23 506.46,241.90 506.80,243.80 507.14,228.82 507.49,227.50 507.83,224.93 508.17,220.27 508.51,220.03 508.86,221.37 509.20,218.73 509.54,214.06 509.89,209.52 510.23,207.06 510.57,210.19 510.91,202.55 511.26,210.23 511.60,212.18 511.94,213.19 512.29,211.42 512.63,213.34 512.97,212.35 513.31,203.02 513.66,206.25 514.00,202.26 514.34,202.08 514.69,192.90 515.03,193.04 515.37,189.90 515.71,195.83 516.06,190.97 516.40,190.98 516.74,195.82 517.09,189.89 517.43,189.87 517.77,188.84 518.11,190.64 518.46,185.34 518.80,179.62 519.14,183.35 519.49,179.28 519.83,181.57 520.17,183.47 520.51,182.64 520.86,182.26 521.20,170.11 521.54,170.27 521.89,157.18 522.23,156.75 522.57,163.62 522.91,167.85 523.26,171.78 523.60,171.28 523.94,164.39 524.29,178.66 524.63,178.66 524.97,178.66 525.31,178.66 525.66,178.66 526.00,178.66 526.34,178.66 526.69,178.66 527.03,178.66 527.37,178.66 527.71,178.66 528.06,178.66 528.40,178.66 528.74,178.66 529.09,178.66 529.43,178.66 529.77,178.66 530.11,178.66 530.46,178.66 530.80,178.66 531.14,178.66 531.49,178.66 531.83,178.66 532.17,178.66 532.51,178.91 532.86,182.85 533.20,181.67 533.54,189.44 533.89,189.44 534.23,189.44 534.57,189.44 534.91,189.44 535.26,189.44 535.60,189.44 535.94,189.56 536.29,191.16 536.63,189.10 536.97,189.62 537.31,190.15 537.66,189.35 538.00,189.18 538.34,190.22 538.69,190.22 539.03,188.24 539.37,189.25 539.71,188.11 540.06,190.87 540.40,195.27 540.74,201.07 541.09,201.07 541.43,201.07 541.77,201.07 542.11,201.07 542.46,201.07 542.80,201.07 543.14,201.32 543.49,197.34 543.83,198.92 544.17,206.72 544.51,208.65 544.86,217.91 545.20,219.07 545.54,218.01 545.89,219.97 546.23,220.60 546.57,218.52 546.91,218.33 547.26,214.85 547.60,217.82 547.94,219.18 548.29,218.13 548.63,223.57 548.97,223.82 549.31,224.48 549.66,224.18 550.00,219.23 550.34,222.75 550.69,223.88 551.03,221.57 551.37,224.65 551.71,228.22 552.06,221.22 552.40,217.97 552.74,223.77 553.09,208.65 553.43,212.30 553.77,200.31 554.11,202.22 554.46,194.34 554.80,189.75 555.14,188.07 555.49,186.06 555.83,177.71 556.17,185.86 556.51,182.39 556.86,185.72 557.20,178.55 557.54,184.73 557.89,183.38 558.23,180.00 558.57,182.10 558.91,178.07 559.26,179.56 559.60,189.12 559.94,190.22 560.29,185.77 560.63,188.05 560.97,189.54 561.31,169.49 561.66,169.47 562.00,161.89 562.34,154.41 562.69,153.09 563.03,156.03 563.37,161.31 563.71,158.71 564.06,166.35 564.40,163.13 564.74,159.65 565.09,164.85 565.43,162.56 565.77,166.76 566.11,161.10 566.46,153.00 566.80,148.40 567.14,134.90 567.49,137.54 567.83,151.05 568.17,147.16 568.51,147.50 568.86,146.17 569.20,154.38 569.54,160.34 569.89,160.59 570.23,158.98 570.57,159.81 570.91,158.70 571.26,157.99 571.60,169.58 571.94,165.15 572.29,172.26 572.63,178.86 572.97,172.97 573.31,175.70 573.66,176.28 574.00,177.64 574.34,182.15 574.69,182.15 575.03,182.15 575.37,182.40 575.71,185.53 576.06,187.96 576.40,193.12 576.74,193.12 577.09,193.12 577.43,193.12 577.77,193.12 578.11,193.12 578.46,193.12 578.80,193.12 579.14,193.12 579.49,193.12 579.83,193.12 580.17,193.12 580.51,193.12 580.86,193.36 581.20,192.05 581.54,192.80 581.89,192.46 582.23,193.16 582.57,196.25 582.91,197.74 583.26,205.64 583.60,199.89 583.94,203.30 584.29,197.22 584.63,191.71 584.97,199.35 585.31,200.52 585.66,204.14 586.00,205.24 586.34,206.54 586.69,207.57 587.03,214.13 587.37,214.13 587.71,214.13 588.06,214.13 588.40,214.13 588.74,214.13 589.09,214.13 589.43,214.13 589.77,214.13 590.11,214.13 590.46,214.13 590.80,214.13 591.14,214.13 591.49,214.13 591.83,214.38 592.17,200.87 592.51,199.89 592.86,195.82 593.20,190.96 593.54,186.62 593.89,197.84 594.23,198.96 594.57,193.01 594.91,185.31 595.26,185.94 595.60,187.31 595.94,180.96 596.29,169.16 596.63,143.17 596.97,133.63 597.31,115.30 597.66,111.62 598.00,124.76 598.34,124.33 598.69,123.61 599.03,147.26 599.37,116.31 599.71,115.93 600.06,118.78 600.40,134.11 600.74,136.83 601.09,134.80 601.43,116.35 601.77,129.16 602.11,118.99 602.46,120.14 602.80,127.34 603.14,108.80 603.49,91.29 603.83,109.96 604.17,110.22 604.51,116.63 604.86,109.83 605.20,119.78 605.54,115.79 605.89,108.48 606.23,104.82 606.57,121.46 606.91,91.95 607.26,95.95 607.60,74.91 607.94,70.00 608.29,70.00 608.63,70.26 608.97,73.70 609.31,70.00 609.66,79.27 610.00,70.00 610.34,70.00 610.69,79.69 611.03,94.76 611.37,84.39 611.71,88.87 612.06,92.75 612.40,70.00 612.74,70.00 613.09,70.00 613.43,71.37 613.77,84.01 614.11,89.58 614.46,82.44 614.80,70.00 615.14,70.00 615.49,100.03 615.83,111.14 616.17,118.00 616.51,118.13 616.86,120.59 617.20,121.15 617.54,118.80 617.89,121.01 618.23,121.66 618.57,119.86 618.91,121.03 619.26,125.03 619.60,126.29 619.94,128.36 620.29,128.36 620.63,128.36 620.97,128.36 621.31,128.49 621.66,130.05 622.00,134.62 622.34,138.61 622.69,138.61 623.03,138.61 623.37,138.61 623.71,138.61 624.06,138.61 624.40,138.61 624.74,138.61 625.09,138.61 625.43,138.61 625.77,138.61 626.11,138.61 626.46,138.61 626.80,138.61 627.14,138.61 627.49,138.61 627.83,138.61 628.17,138.61 628.51,138.61 628.86,138.61 629.20,138.61 629.54,138.61 629.89,138.61 630.23,138.61 630.57,138.61 630.91,138.74 631.26,136.57 631.60,136.32 631.94,136.60 632.29,139.69 632.63,143.11 632.97,141.49 633.31,143.04 633.66,143.70 634.00,143.17 634.34,140.15 634.69,139.10 635.03,135.99 635.37,138.82 635.71,135.53 636.06,136.19 636.40,139.78 636.74,139.39 637.09,145.99 637.43,145.99 637.77,145.99 638.11,145.99 638.46,145.99 638.80,145.99 639.14,145.99 639.49,145.99 639.83,145.99 640.17,145.99 640.51,145.99 640.86,145.99 641.20,145.99 641.54,145.99 641.89,145.99 642.23,146.23 642.57,139.83 642.91,140.18 643.26,136.34 643.60,134.44 643.94,124.10 644.29,103.84 644.63,91.22 644.97,84.47 645.31,99.42 645.66,103.31 646.00,94.52 646.34,106.60 646.69,108.45 647.03,99.60 647.37,102.94 647.71,98.96 648.06,95.71 648.40,98.00 648.74,97.47 649.09,93.68 649.43,86.46 649.77,76.72 650.11,89.25 650.46,80.98 650.80,83.87 651.14,70.63 651.49,81.68 651.83,102.67 652.17,99.46 652.51,90.47 652.86,87.31 653.20,85.69 653.54,89.38 653.89,91.16 654.23,82.02 654.57,74.86 654.91,79.10 655.26,70.00 655.60,70.00 655.94,70.00 656.29,70.00 656.63,70.00 656.97,90.48 657.31,85.76 657.66,82.34 658.00,134.94 658.34,130.39 658.69,86.63 659.03,90.06 659.37,70.00 659.71,70.00 660.06,70.00 660.40,96.06 660.74,105.96 661.09,142.76 661.43,164.65 661.77,130.28 662.11,125.69 662.46,113.09 662.80,115.74 663.14,124.99 663.49,137.35 663.83,157.14 664.17,159.79 664.51,158.55 664.86,160.55 665.20,160.55 665.54,152.32 665.89,151.07 666.23,150.85 666.57,160.64 666.91,158.65 667.26,171.68 667.60,171.68 667.94,171.68 668.29,171.68 668.63,171.68 668.97,172.47 669.31,174.63 669.66,174.19 670.00,177.03 670.34,175.91 670.69,179.31 671.03,177.59 671.37,176.42 671.71,176.47 672.06,176.71 672.40,177.09 672.74,175.95 673.09,178.72 673.43,178.76 673.77,180.10 674.11,178.78 674.46,179.59 674.80,175.66 675.14,174.73 675.49,174.37 675.83,174.82 676.17,173.76 676.51,171.50 676.86,161.45 677.20,155.59 677.54,148.67 677.89,144.80 678.23,152.79 678.57,150.90 678.91,153.12 679.26,152.43 679.60,149.85 679.94,147.67 680.29,139.03 680.63,131.09 680.97,135.45 681.31,143.14 681.66,141.83 682.00,147.36 682.34,141.07 682.69,144.85 683.03,134.49 683.37,143.01 683.71,145.94 684.06,148.09 684.40,146.43 684.74,145.72 685.09,147.78 685.43,144.09 685.77,141.81 686.11,134.94 686.46,147.13 686.80,140.74 687.14,138.71 687.49,135.70 687.83,125.98 688.17,134.16 688.51,132.87 688.86,132.53 689.20,123.08 689.54,118.75 689.89,104.46 690.23,108.50 690.57,109.02 690.91,100.73 691.26,95.00 691.60,90.90 691.94,101.36 692.29,92.57 692.63,79.07 692.97,70.00 693.31,70.00 693.66,72.46 694.00,70.00 694.34,70.00 694.69,70.00 695.03,70.00 695.37,89.41 695.71,70.00 696.06,70.76 696.40,70.00 696.74,70.00 697.09,70.00 697.43,93.37 697.77,80.92 698.11,202.32 698.46,190.20 698.80,157.05 699.14,174.93 699.49,156.95 699.83,153.69 700.17,170.72 700.51,161.25 700.86,170.30 701.20,171.94 701.54,173.50 701.89,157.60 702.23,165.24 702.57,156.33 702.91,145.09 703.26,145.29 703.60,157.51 703.94,172.30 704.29,167.27 704.63,167.81 704.97,170.34 705.31,164.98 705.66,167.24 706.00,169.37 706.34,162.82 706.69,162.94 707.03,162.11 707.37,164.24 707.71,168.34 708.06,205.16 708.40,205.16 708.74,205.61 709.09,213.82 709.43,211.09 709.77,218.35 710.11,223.64 710.46,219.29 710.80,221.72 711.14,221.63 711.49,224.58 711.83,218.09 712.17,221.87 712.51,222.00 712.86,228.16 713.20,228.16 713.54,228.16 713.89,228.16 714.23,228.16 714.57,228.16 714.91,228.16 715.26,228.16 715.60,228.16 715.94,228.16 716.29,228.16 716.63,228.16 716.97,228.16 717.31,228.16 717.66,228.16 718.00,228.16 718.34,228.16 718.69,228.16 719.03,228.16 719.37,228.72 719.71,227.34 720.06,235.80 720.40,235.09 720.74,234.74 721.09,234.83 721.43,232.65 721.77,232.03 722.11,233.67 722.46,234.51 722.80,235.97 723.14,235.46 723.49,239.77 723.83,239.77 724.17,239.77 724.51,239.77 724.86,240.43 725.20,244.64 725.54,261.23 725.89,261.85 726.23,261.58 726.57,263.82 726.91,263.82 727.26,263.82 727.60,263.82 727.94,263.82 728.29,263.82 728.63,263.82 728.97,263.82 729.31,264.49 729.66,259.75 730.00,263.63 730.34,258.29 730.69,271.92 731.03,266.77 731.37,263.32 731.71,257.52 732.06,258.12 732.40,252.35 732.74,255.71 733.09,244.17 733.43,238.55 733.77,248.69 734.11,251.97 734.46,280.75 734.80,280.75 735.14,280.75 735.49,280.75 735.83,280.75 736.17,280.75 736.51,280.75 736.86,280.75 737.20,280.75 737.54,280.75 737.89,280.75 738.23,280.75 738.57,280.75 738.91,280.75 739.26,280.75 739.60,280.75 739.94,281.24 740.29,292.01 740.63,292.01 740.97,292.01 741.31,292.01 741.66,292.01 742.00,292.01 742.34,292.01 742.69,292.01 743.03,292.01 743.37,292.01 743.71,292.01 744.06,292.01 744.40,292.01 744.74,292.01 745.09,292.01 745.43,292.01 745.77,292.01 746.11,292.01 746.46,292.01 746.80,292.01 747.14,292.01 747.49,292.01 747.83,292.55 748.17,291.91 748.51,291.33 748.86,295.63 749.20,297.28 749.54,296.79 749.89,295.69 750.23,297.39 750.57,295.83 750.91,297.73 751.26,296.47 751.60,297.38 751.94,294.75 752.29,290.94 752.63,291.26 752.97,293.92 753.31,293.90 753.66,289.14 754.00,281.66 754.34,286.10 754.69,292.77 755.03,291.89 755.37,295.03 755.71,294.99 756.06,299.36 756.40,302.03 756.74,304.34 757.09,301.62 757.43,303.68 757.77,298.69 758.11,295.26 758.46,298.15 758.80,294.88 759.14,282.61 759.49,292.56 759.83,298.15 760.17,292.86 760.51,293.95 760.86,293.13 761.20,298.29 761.54,302.81 761.89,277.74 762.23,289.07 762.57,285.78 762.91,262.24 763.26,253.42 763.60,253.91 763.94,248.74 764.29,266.41 764.63,260.60 764.97,249.50 765.31,227.65 765.66,226.44 766.00,233.10 766.34,229.49 766.69,230.71 767.03,227.61 767.37,217.03 767.71,222.76 768.06,220.54 768.40,216.48 768.74,213.13 769.09,218.35 769.43,210.43 769.77,237.42 770.11,231.93 770.46,230.58 770.80,234.58 771.14,232.02 771.49,228.64 771.83,229.90 772.17,230.91 772.51,234.05 772.86,246.13 773.20,235.68 773.54,231.70 773.89,240.65 774.23,237.16 774.57,238.08 774.91,237.11 775.26,240.81 775.60,240.04 775.94,229.96 776.29,236.28 776.63,238.45 776.97,246.60 777.31,248.41 777.66,250.58 778.00,250.58 778.34,250.58 778.69,250.58 779.03,250.58 779.37,250.58 779.71,250.69 780.06,250.42 780.40,254.09 780.74,254.83 781.09,252.99 781.43,257.77 781.77,258.38 782.11,257.09 782.46,258.07 782.80,253.40 783.14,257.02 783.49,263.01 783.83,265.62 784.17,264.19 784.51,267.24 784.86,269.24 785.20,268.75 785.54,265.71 785.89,248.99 786.23,246.79 786.57,255.37 786.91,248.99 787.26,264.73 787.60,266.91 787.94,263.40 788.29,260.49 788.63,255.19 788.97,250.92 789.31,262.84 789.66,267.35 790.00,266.81 790.34,261.16 790.69,271.36 791.03,272.98 791.37,272.15 791.71,272.24 792.06,273.06 792.40,271.68 792.74,273.72 793.09,289.33 793.43,294.19 793.77,292.44 794.11,296.93 794.46,295.78 794.80,293.46 795.14,295.76 795.49,300.92 795.83,296.47 796.17,294.26 796.51,297.83 796.86,301.78 797.20,298.28 797.54,296.48 797.89,300.72 798.23,297.61 798.57,278.77 798.91,297.35 799.26,304.25 799.60,308.99 799.94,306.00 800.29,307.14 800.63,304.52 800.97,310.77 801.31,309.22 801.66,309.15 802.00,318.70 802.34,327.32 802.69,333.21 803.03,333.79 803.37,333.81 803.71,324.45 804.06,326.78 804.40,325.53 804.74,315.04 805.09,328.27 805.43,327.34 805.77,327.58 806.11,337.27 806.46,330.36 806.80,342.57 807.14,351.04 807.49,351.04 807.83,351.15 808.17,349.84 808.51,348.30 808.86,341.86 809.20,337.46 809.54,335.93 809.89,338.70 810.23,346.19 810.57,336.80 810.91,342.84 811.26,349.88 811.60,370.94 811.94,372.05 812.29,372.05 812.63,372.05 812.97,372.98 813.31,370.83 813.66,372.16 814.00,364.34 814.34,362.80 814.69,368.73 815.03,364.88 815.37,367.93 815.71,366.34 816.06,356.26 816.40,361.85 816.74,365.48 817.09,355.08 817.43,362.93 817.77,379.16 818.11,377.27 818.46,375.24 818.80,379.80 819.14,386.08 819.49,387.11 819.83,385.50 820.17,390.02 820.51,393.84 820.86,389.15 821.20,383.88 821.54,398.04 821.89,392.39 822.23,398.18 822.57,415.24 822.91,415.24 823.26,415.24 823.60,415.24 823.94,415.24 824.29,415.24 824.63,415.24 824.97,415.24 825.31,416.27 825.66,407.18 826.00,401.13 826.34,406.24 826.69,409.94 827.03,412.88 827.37,424.99 827.71,444.10 828.06,444.10 828.40,444.10 828.74,444.10 829.09,444.10 829.43,444.10 829.77,444.10 830.11,444.10 830.46,444.10 830.80,444.10 831.14,444.10 831.49,444.21 831.83,441.61 832.17,450.00 832.51,443.50 832.86,431.29 833.20,431.70 833.54,429.11 833.89,432.36 834.23,424.43 834.57,432.45 834.91,438.75 835.26,425.95 835.60,392.38 835.94,401.86 836.29,400.04 836.63,376.07 836.97,365.46 837.31,329.66 837.66,365.53 838.00,361.39 838.34,367.09 838.69,396.85 839.03,414.85 839.37,414.85 839.71,414.85 840.06,414.85 840.40,414.85 840.74,414.85 841.09,414.85 841.43,414.85 841.77,414.85 842.11,414.85 842.46,414.85 842.80,414.85 843.14,414.85 843.49,414.85 843.83,414.85 844.17,414.85 844.51,414.85 844.86,414.85 845.20,414.85 845.54,414.85 845.89,414.85 846.23,414.85 846.57,414.85 846.91,415.65 847.26,421.37 847.60,421.06 847.94,426.32 848.29,426.32 848.63,427.11 848.97,426.50 849.31,424.67 849.66,424.50 850.00,418.19 850.34,416.53 850.69,415.33 851.03,422.23 851.37,414.23 851.71,411.65 852.06,402.77 852.40,394.53 852.74,399.45 853.09,385.35 853.43,392.09 853.77,400.31 854.11,400.17 854.46,397.04 854.80,404.91 855.14,402.35 855.49,402.94 855.83,407.91 856.17,406.22 856.51,406.65 856.86,407.77 857.20,405.85 857.54,399.10 857.89,403.53 858.23,411.25 858.57,405.08 858.91,407.57 859.26,409.86 859.60,406.95 859.94,401.09 860.29,404.64 860.63,391.81 860.97,391.05 861.31,401.11 861.66,405.51 862.00,401.00 862.34,399.77 862.69,401.36 863.03,396.99 863.37,389.44 863.71,392.63 864.06,392.66 864.40,387.44 864.74,386.31 865.09,378.71 865.43,371.90 865.77,373.29 866.11,362.20 866.46,354.57 866.80,355.53 867.14,357.97 867.49,350.99 867.83,345.13 868.17,353.10 868.51,330.51 868.86,333.39 869.20,334.22 869.54,335.88 869.89,328.60 870.23,341.66 870.57,340.08 870.91,334.37 871.26,336.39 871.60,351.17 871.94,375.73 872.29,376.78 872.63,375.56 872.97,386.03 873.31,383.39 873.66,371.93 874.00,381.14 874.34,367.95 874.69,367.40 875.03,370.19 875.37,376.42 875.71,361.76 876.06,381.94 876.40,385.24 876.74,397.49 877.09,402.05 877.43,403.09 877.77,401.26 878.11,407.61 878.46,409.32 878.80,412.94 879.14,401.29 879.49,402.19 879.83,390.06 880.17,375.45 880.51,366.60 880.86,377.47 881.20,378.72 881.54,372.17 881.89,388.50 882.23,385.62 882.57,395.10 882.91,416.58 883.26,407.38 883.60,405.14 883.94,391.64 884.29,396.38 884.63,396.22 884.97,391.90 885.31,395.70 885.66,394.64 886.00,383.71 886.34,374.85 886.69,377.18 887.03,389.75 887.37,390.00 887.71,390.26 888.06,406.79 888.40,405.52 888.74,412.27 889.09,412.08 889.43,420.15 889.77,426.73 890.11,428.70 890.46,428.70 890.80,428.70 891.14,428.70 891.49,428.70 891.83,428.70 892.17,428.70 892.51,428.70 892.86,428.70 893.20,428.70 893.54,428.70 893.89,428.70 894.23,428.70 894.57,428.70 894.91,428.70 895.26,428.70 895.60,428.70 895.94,428.70 896.29,429.52 896.63,430.89 896.97,420.32 897.31,425.26 897.66,406.79 898.00,403.27 898.34,403.29 898.69,384.39 899.03,387.39 899.37,391.05 899.71,403.55 900.06,408.17 900.40,414.12 900.74,410.46 901.09,400.20 901.43,398.40 901.77,398.78 902.11,412.41 902.46,403.69 902.80,382.96 903.14,360.65 903.49,356.80 903.83,381.94 904.17,381.67 904.51,367.94 904.86,361.53 905.20,352.98 905.54,361.63 905.89,343.61 906.23,342.15 906.57,367.24 906.91,358.39 907.26,363.87 907.60,334.61 907.94,338.71 908.29,353.34 908.63,348.83 908.97,337.88 909.31,349.09 909.66,339.69 910.00,335.45" fill="none" stroke="#1c7ed6" stroke-width="2"/>
<line x1="70" x2="70" y1="70" y2="450" stroke="#444"/>
<line x1="70" x2="910" y1="450" y2="450" stroke="#444"/>
</svg>