<svg xmlns="http://www.w3.org/2000/svg" width="980" height="520" viewBox="0 0 980 520"><style>text{font-family:Arial,sans-serif;fill:#e9ecef}.title{font-size:20px;font-weight:700}.axis{font-size:12px;fill:#adb5bd}.cell{font-size:11px;fill:#fff}</style><rect width="100%" height="100%" fill="#0b0f14"/><text x="24" y="28" class="title">Bootstrap Expectancy</text>
<text x="70" y="35" class="axis">Count</text>
<rect x="70.00" y="449.60" width="26.00" height="0.40" fill="#2f9e44" opacity="0.82"/>
<rect x="98.00" y="448.42" width="26.00" height="1.58" fill="#2f9e44" opacity="0.82"/>
<rect x="126.00" y="446.04" width="26.00" height="3.96" fill="#2f9e44" opacity="0.82"/>
<rect x="154.00" y="443.66" width="26.00" height="6.34" fill="#2f9e44" opacity="0.82"/>
<rect x="182.00" y="428.60" width="26.00" height="21.40" fill="#2f9e44" opacity="0.82"/>
<rect x="210.00" y="425.83" width="26.00" height="24.17" fill="#2f9e44" opacity="0.82"/>
<rect x="238.00" y="398.49" width="26.00" height="51.51" fill="#2f9e44" opacity="0.82"/>
<rect x="266.00" y="371.54" width="26.00" height="78.46" fill="#2f9e44" opacity="0.82"/>
<rect x="294.00" y="323.99" width="26.00" height="126.01" fill="#2f9e44" opacity="0.82"/>
<rect x="322.00" y="251.88" width="26.00" height="198.12" fill="#2f9e44" opacity="0.82"/>
<rect x="350.00" y="202.35" width="26.00" height="247.65" fill="#2f9e44" opacity="0.82"/>
<rect x="378.00" y="175.01" width="26.00" height="274.99" fill="#2f9e44" opacity="0.82"/>
<rect x="406.00" y="106.06" width="26.00" height="343.94" fill="#2f9e44" opacity="0.82"/>
<rect x="434.00" y="70.40" width="26.00" height="379.60" fill="#2f9e44" opacity="0.82"/>
<rect x="462.00" y="72.77" width="26.00" height="377.23" fill="#2f9e44" opacity="0.82"/>
<rect x="490.00" y="70.00" width="26.00" height="380.00" fill="#2f9e44" opacity="0.82"/>
<rect x="518.00" y="118.34" width="26.00" height="331.66" fill="#2f9e44" opacity="0.82"/>
<rect x="546.00" y="168.27" width="26.00" height="281.73" fill="#2f9e44" opacity="0.82"/>
<rect x="574.00" y="207.89" width="26.00" height="242.11" fill="#2f9e44" opacity="0.82"/>
<rect x="602.00" y="262.58" width="26.00" height="187.42" fill="#2f9e44" opacity="0.82"/>
<rect x="630.00" y="311.31" width="26.00" height="138.69" fill="#2f9e44" opacity="0.82"/>
<rect x="658.00" y="350.15" width="26.00" height="99.85" fill="#2f9e44" opacity="0.82"/>
<rect x="686.00" y="387.39" width="26.00" height="62.61" fill="#2f9e44" opacity="0.82"/>
<rect x="714.00" y="403.64" width="26.00" height="46.36" fill="#2f9e44" opacity="0.82"/>
<rect x="742.00" y="423.45" width="26.00" height="26.55" fill="#2f9e44" opacity="0.82"/>
<rect x="770.00" y="436.53" width="26.00" height="13.47" fill="#2f9e44" opacity="0.82"/>
<rect x="798.00" y="442.08" width="26.00" height="7.92" fill="#2f9e44" opacity="0.82"/>
<rect x="826.00" y="444.06" width="26.00" height="5.94" fill="#2f9e44" opacity="0.82"/>
<rect x="854.00" y="448.81" width="26.00" height="1.19" fill="#2f9e44" opacity="0.82"/>
<rect x="882.00" y="448.42" width="26.00" height="1.58" fill="#2f9e44" opacity="0.82"/>
<line x1="70" x2="910" y1="450.00" y2="450.00" stroke="#444"/>
</svg>