<svg xmlns="http://www.w3.org/2000/svg" width="980" height="520" viewBox="0 0 980 520"><style>text{font-family:Arial,sans-serif;fill:#e9ecef}.title{font-size:20px;font-weight:700}.axis{font-size:12px;fill:#adb5bd}.cell{font-size:11px;fill:#fff}</style><rect width="100%" height="100%" fill="#0b0f14"/><text x="24" y="28" class="title">Equity Curve</text>
<text x="70" y="35" class="axis">Equity</text>
<polyline points="70.00,424.02 70.34,424.02 70.69,424.02 71.03,424.02 71.37,424.02 71.71,424.02 72.06,424.02 72.40,424.02 72.74,424.02 73.09,424.02 73.43,424.02 73.77,424.02 74.11,424.02 74.46,424.02 74.80,424.02 75.14,424.02 75.49,424.02 75.83,424.02 76.17,424.02 76.51,424.02 76.86,424.02 77.20,424.02 77.54,424.09 77.89,424.31 78.23,426.17 78.57,426.76 78.91,423.04 79.26,422.04 79.60,420.70 79.94,428.43 80.29,429.55 80.63,426.65 80.97,433.93 81.31,433.88 81.66,433.90 82.00,431.98 82.34,432.39 82.69,431.94 83.03,431.91 83.37,430.66 83.71,430.62 84.06,429.61 84.40,427.07 84.74,427.16 85.09,423.69 85.43,417.29 85.77,414.93 86.11,412.83 86.46,415.69 86.80,420.02 87.14,415.24 87.49,414.90 87.83,414.56 88.17,409.44 88.51,407.92 88.86,412.06 89.20,411.77 89.54,414.08 89.89,408.90 90.23,403.77 90.57,410.47 90.91,409.49 91.26,403.67 91.60,408.32 91.94,408.86 92.29,408.30 92.63,404.44 92.97,396.98 93.31,395.57 93.66,390.51 94.00,388.72 94.34,396.89 94.69,401.65 95.03,412.49 95.37,413.28 95.71,413.28 96.06,413.28 96.40,413.36 96.74,413.67 97.09,412.76 97.43,410.31 97.77,411.19 98.11,411.71 98.46,408.27 98.80,406.16 99.14,410.70 99.49,409.35 99.83,416.19 100.17,415.49 100.51,413.80 100.86,418.52 101.20,418.52 101.54,418.52 101.89,418.52 102.23,418.59 102.57,418.56 102.91,422.56 103.26,422.56 103.60,422.56 103.94,422.56 104.29,422.56 104.63,422.56 104.97,422.56 105.31,422.56 105.66,422.56 106.00,422.56 106.34,422.56 106.69,422.56 107.03,422.56 107.37,422.56 107.71,422.56 108.06,422.56 108.40,422.56 108.74,422.64 109.09,422.96 109.43,425.47 109.77,425.53 110.11,425.70 110.46,426.74 110.80,426.74 111.14,426.74 111.49,426.74 111.83,426.74 112.17,426.74 112.51,426.74 112.86,426.74 113.20,426.74 113.54,426.74 113.89,426.74 114.23,426.74 114.57,426.74 114.91,426.74 115.26,426.82 115.60,425.88 115.94,425.72 116.29,424.74 116.63,424.14 116.97,422.35 117.31,422.79 117.66,422.36 118.00,426.40 118.34,426.26 118.69,426.31 119.03,425.83 119.37,429.02 119.71,429.02 120.06,429.02 120.40,429.02 120.74,429.02 121.09,429.02 121.43,429.02 121.77,429.02 122.11,429.10 122.46,429.86 122.80,430.01 123.14,429.49 123.49,429.37 123.83,429.24 124.17,429.60 124.51,429.67 124.86,429.73 125.20,428.85 125.54,429.24 125.89,429.08 126.23,432.10 126.57,431.67 126.91,432.62 127.26,431.96 127.60,432.22 127.94,428.65 128.29,425.35 128.63,424.35 128.97,423.98 129.31,437.85 129.66,437.92 130.00,438.64 130.34,441.50 130.69,441.50 131.03,441.50 131.37,441.50 131.71,441.50 132.06,441.50 132.40,441.50 132.74,441.50 133.09,441.50 133.43,441.50 133.77,441.50 134.11,441.50 134.46,441.57 134.80,443.12 135.14,443.04 135.49,442.35 135.83,442.43 136.17,445.14 136.51,445.14 136.86,445.14 137.20,445.14 137.54,445.14 137.89,445.14 138.23,445.14 138.57,445.14 138.91,445.14 139.26,445.14 139.60,445.14 139.94,445.14 140.29,445.14 140.63,445.29 140.97,446.51 141.31,445.20 141.66,445.32 142.00,446.50 142.34,446.93 142.69,448.86 143.03,448.16 143.37,447.92 143.71,448.18 144.06,441.29 144.40,443.71 144.74,439.47 145.09,443.25 145.43,443.32 145.77,436.03 146.11,436.03 146.46,432.84 146.80,427.91 147.14,421.70 147.49,420.39 147.83,423.71 148.17,425.05 148.51,418.29 148.86,419.26 149.20,413.90 149.54,413.64 149.89,413.62 150.23,418.21 150.57,414.70 150.91,417.23 151.26,415.41 151.60,414.78 151.94,414.04 152.29,409.78 152.63,412.97 152.97,413.32 153.31,400.21 153.66,397.46 154.00,409.27 154.34,410.23 154.69,416.93 155.03,418.77 155.37,418.77 155.71,418.77 156.06,418.84 156.40,419.26 156.74,418.60 157.09,419.50 157.43,419.71 157.77,420.14 158.11,417.23 158.46,416.79 158.80,418.87 159.14,421.44 159.49,421.67 159.83,422.40 160.17,422.91 160.51,422.33 160.86,426.35 161.20,426.43 161.54,420.81 161.89,417.61 162.23,417.26 162.57,418.44 162.91,406.72 163.26,407.33 163.60,422.46 163.94,419.39 164.29,411.36 164.63,416.63 164.97,415.99 165.31,415.94 165.66,426.94 166.00,426.94 166.34,426.94 166.69,426.94 167.03,426.94 167.37,426.94 167.71,426.94 168.06,426.94 168.40,426.94 168.74,426.94 169.09,426.94 169.43,426.94 169.77,426.94 170.11,426.94 170.46,427.01 170.80,428.89 171.14,427.31 171.49,427.89 171.83,429.70 172.17,430.04 172.51,428.17 172.86,423.84 173.20,425.14 173.54,424.82 173.89,426.15 174.23,426.30 174.57,434.33 174.91,433.28 175.26,435.80 175.60,434.56 175.94,434.93 176.29,434.92 176.63,438.35 176.97,438.35 177.31,438.35 177.66,438.35 178.00,438.35 178.34,438.35 178.69,438.35 179.03,438.35 179.37,438.35 179.71,438.35 180.06,438.35 180.40,438.35 180.74,438.35 181.09,438.43 181.43,439.45 181.77,439.71 182.11,437.69 182.46,437.34 182.80,436.06 183.14,436.79 183.49,437.33 183.83,427.91 184.17,423.03 184.51,423.36 184.86,423.92 185.20,418.85 185.54,419.38 185.89,416.94 186.23,419.10 186.57,418.29 186.91,422.70 187.26,419.64 187.60,421.86 187.94,429.44 188.29,429.44 188.63,429.44 188.97,429.44 189.31,429.44 189.66,429.44 190.00,429.44 190.34,429.52 190.69,430.16 191.03,430.24 191.37,429.48 191.71,427.49 192.06,428.24 192.40,430.51 192.74,430.34 193.09,430.77 193.43,424.91 193.77,425.65 194.11,424.08 194.46,422.65 194.80,422.96 195.14,422.69 195.49,422.28 195.83,423.61 196.17,424.85 196.51,425.82 196.86,426.21 197.20,424.12 197.54,423.17 197.89,422.32 198.23,421.75 198.57,413.12 198.91,413.88 199.26,413.07 199.60,411.61 199.94,409.81 200.29,409.35 200.63,410.68 200.97,410.35 201.31,409.66 201.66,408.19 202.00,413.29 202.34,414.24 202.69,417.37 203.03,417.37 203.37,417.37 203.71,417.37 204.06,417.45 204.40,416.54 204.74,418.27 205.09,418.38 205.43,421.74 205.77,422.44 206.11,416.71 206.46,417.12 206.80,417.33 207.14,413.51 207.49,414.27 207.83,416.58 208.17,419.35 208.51,422.50 208.86,417.18 209.20,417.26 209.54,420.87 209.89,423.96 210.23,421.25 210.57,422.37 210.91,420.78 211.26,420.80 211.60,423.10 211.94,421.35 212.29,425.55 212.63,423.67 212.97,428.20 213.31,428.20 213.66,428.20 214.00,428.28 214.34,429.28 214.69,432.20 215.03,432.20 215.37,432.20 215.71,432.20 216.06,432.20 216.40,432.20 216.74,432.20 217.09,432.20 217.43,432.20 217.77,432.20 218.11,432.20 218.46,432.27 218.80,432.35 219.14,431.49 219.49,431.19 219.83,431.13 220.17,436.04 220.51,435.51 220.86,436.51 221.20,436.37 221.54,436.95 221.89,436.26 222.23,440.24 222.57,440.24 222.91,440.24 223.26,440.24 223.60,440.24 223.94,440.24 224.29,440.24 224.63,440.24 224.97,440.32 225.31,440.34 225.66,440.03 226.00,440.97 226.34,441.75 226.69,444.31 227.03,443.18 227.37,443.09 227.71,444.29 228.06,444.38 228.40,443.17 228.74,444.16 229.09,447.53 229.43,447.53 229.77,447.53 230.11,447.53 230.46,447.53 230.80,447.53 231.14,447.53 231.49,447.53 231.83,447.53 232.17,447.53 232.51,447.53 232.86,447.53 233.20,447.69 233.54,448.40 233.89,450.00 234.23,448.84 234.57,444.21 234.91,445.98 235.26,446.52 235.60,448.99 235.94,448.61 236.29,445.86 236.63,444.64 236.97,441.04 237.31,438.81 237.66,432.78 238.00,431.37 238.34,411.64 238.69,414.21 239.03,410.36 239.37,408.38 239.71,413.23 240.06,411.32 240.40,410.21 240.74,411.12 241.09,411.82 241.43,407.22 241.77,411.26 242.11,410.79 242.46,406.22 242.80,406.68 243.14,405.28 243.49,407.84 243.83,410.24 244.17,409.44 244.51,416.09 244.86,416.09 245.20,416.17 245.54,417.47 245.89,417.46 246.23,417.53 246.57,417.13 246.91,417.13 247.26,414.99 247.60,408.96 247.94,405.38 248.29,404.21 248.63,407.75 248.97,413.89 249.31,420.19 249.66,420.34 250.00,416.40 250.34,417.02 250.69,416.11 251.03,413.91 251.37,416.51 251.71,420.08 252.06,422.02 252.40,421.96 252.74,422.77 253.09,422.32 253.43,426.10 253.77,426.10 254.11,426.10 254.46,426.10 254.80,426.10 255.14,426.10 255.49,426.10 255.83,426.10 256.17,426.10 256.51,426.10 256.86,426.10 257.20,426.10 257.54,426.10 257.89,426.18 258.23,427.32 258.57,427.20 258.91,429.25 259.26,429.89 259.60,429.89 259.94,429.89 260.29,429.89 260.63,429.89 260.97,429.89 261.31,429.89 261.66,429.89 262.00,429.89 262.34,429.89 262.69,429.89 263.03,429.97 263.37,429.39 263.71,425.78 264.06,426.51 264.40,429.13 264.74,429.43 265.09,431.60 265.43,429.40 265.77,433.10 266.11,433.66 266.46,434.30 266.80,434.73 267.14,434.83 267.49,433.25 267.83,437.72 268.17,437.79 268.51,437.28 268.86,437.83 269.20,435.80 269.54,430.31 269.89,426.25 270.23,424.60 270.57,418.57 270.91,418.89 271.26,419.60 271.60,418.58 271.94,417.23 272.29,416.72 272.63,416.14 272.97,418.56 273.31,415.78 273.66,410.55 274.00,410.68 274.34,415.51 274.69,413.69 275.03,412.99 275.37,410.09 275.71,412.61 276.06,410.89 276.40,411.23 276.74,405.58 277.09,405.22 277.43,408.13 277.77,410.03 278.11,403.59 278.46,407.10 278.80,417.17 279.14,417.17 279.49,417.17 279.83,417.17 280.17,417.17 280.51,417.17 280.86,417.17 281.20,417.17 281.54,417.17 281.89,417.17 282.23,417.17 282.57,417.17 282.91,417.17 283.26,417.17 283.60,417.17 283.94,417.17 284.29,417.17 284.63,417.17 284.97,417.17 285.31,417.17 285.66,417.17 286.00,417.17 286.34,417.17 286.69,417.17 287.03,417.17 287.37,417.17 287.71,417.32 288.06,411.60 288.40,414.13 288.74,412.60 289.09,419.78 289.43,424.15 289.77,420.11 290.11,428.63 290.46,425.89 290.80,425.20 291.14,425.68 291.49,426.16 291.83,422.46 292.17,422.39 292.51,423.23 292.86,423.13 293.20,420.44 293.54,416.19 293.89,413.66 294.23,419.27 294.57,417.61 294.91,417.55 295.26,411.68 295.60,411.44 295.94,403.94 296.29,396.69 296.63,389.63 296.97,391.19 297.31,378.10 297.66,378.06 298.00,373.43 298.34,345.96 298.69,350.72 299.03,353.22 299.37,366.86 299.71,371.78 300.06,367.22 300.40,354.76 300.74,355.75 301.09,357.66 301.43,367.20 301.77,357.79 302.11,356.02 302.46,353.74 302.80,358.39 303.14,359.93 303.49,350.62 303.83,354.22 304.17,349.83 304.51,336.33 304.86,338.04 305.20,336.47 305.54,334.55 305.89,337.79 306.23,342.48 306.57,331.79 306.91,343.86 307.26,352.37 307.60,352.37 307.94,352.37 308.29,352.37 308.63,352.37 308.97,352.37 309.31,352.37 309.66,352.45 310.00,352.06 310.34,352.02 310.69,352.68 311.03,355.52 311.37,353.13 311.71,354.21 312.06,352.80 312.40,351.86 312.74,354.01 313.09,352.81 313.43,355.29 313.77,355.20 314.11,357.72 314.46,357.72 314.80,357.72 315.14,357.72 315.49,357.72 315.83,357.72 316.17,357.72 316.51,357.72 316.86,357.72 317.20,357.72 317.54,357.72 317.89,357.72 318.23,357.72 318.57,357.72 318.91,357.79 319.26,357.99 319.60,358.69 319.94,359.67 320.29,359.94 320.63,358.45 320.97,361.88 321.31,361.60 321.66,359.99 322.00,361.88 322.34,360.60 322.69,360.42 323.03,359.79 323.37,362.61 323.71,363.24 324.06,363.24 324.40,363.24 324.74,363.32 325.09,362.90 325.43,362.30 325.77,361.31 326.11,359.10 326.46,362.01 326.80,361.28 327.14,360.72 327.49,370.05 327.83,370.29 328.17,370.29 328.51,370.29 328.86,370.36 329.20,369.77 329.54,368.28 329.89,367.76 330.23,366.56 330.57,372.03 330.91,363.63 331.26,367.37 331.60,376.41 331.94,377.23 332.29,380.54 332.63,380.54 332.97,380.54 333.31,380.54 333.66,380.54 334.00,380.54 334.34,380.54 334.69,380.54 335.03,380.54 335.37,380.62 335.71,381.00 336.06,380.19 336.40,381.73 336.74,384.79 337.09,383.51 337.43,384.52 337.77,384.20 338.11,385.46 338.46,384.95 338.80,386.65 339.14,386.65 339.49,386.65 339.83,386.65 340.17,386.65 340.51,386.65 340.86,386.65 341.20,386.65 341.54,386.65 341.89,386.72 342.23,387.47 342.57,387.06 342.91,390.53 343.26,390.65 343.60,389.91 343.94,389.07 344.29,390.17 344.63,390.53 344.97,390.09 345.31,389.17 345.66,388.81 346.00,388.30 346.34,389.82 346.69,390.13 347.03,390.34 347.37,392.21 347.71,392.28 348.06,392.23 348.40,392.50 348.74,391.10 349.09,390.48 349.43,391.83 349.77,394.74 350.11,395.43 350.46,400.86 350.80,400.86 351.14,400.86 351.49,400.86 351.83,400.86 352.17,400.86 352.51,400.86 352.86,400.86 353.20,400.86 353.54,400.86 353.89,400.86 354.23,400.86 354.57,400.86 354.91,400.86 355.26,400.86 355.60,400.86 355.94,400.86 356.29,400.86 356.63,400.86 356.97,400.86 357.31,400.93 357.66,400.70 358.00,398.72 358.34,401.22 358.69,402.28 359.03,399.44 359.37,400.52 359.71,401.61 360.06,399.08 360.40,400.41 360.74,403.56 361.09,406.55 361.43,406.55 361.77,406.55 362.11,406.55 362.46,406.55 362.80,406.55 363.14,406.55 363.49,406.55 363.83,406.55 364.17,406.63 364.51,405.74 364.86,404.26 365.20,403.54 365.54,409.99 365.89,411.63 366.23,416.90 366.57,419.22 366.91,419.30 367.26,418.54 367.60,419.69 367.94,419.19 368.29,418.94 368.63,416.65 368.97,418.17 369.31,417.57 369.66,410.66 370.00,409.84 370.34,409.78 370.69,412.31 371.03,411.00 371.37,406.68 371.71,406.32 372.06,407.84 372.40,405.97 372.74,405.81 373.09,406.94 373.43,406.06 373.77,402.52 374.11,403.73 374.46,402.65 374.80,398.47 375.14,394.27 375.49,395.92 375.83,397.19 376.17,395.32 376.51,395.29 376.86,394.35 377.20,395.75 377.54,397.31 377.89,398.01 378.23,402.60 378.57,402.60 378.91,402.60 379.26,402.60 379.60,402.68 379.94,403.74 380.29,402.55 380.63,401.68 380.97,401.26 381.31,401.39 381.66,400.52 382.00,398.25 382.34,392.55 382.69,397.98 383.03,397.48 383.37,395.50 383.71,392.07 384.06,395.86 384.40,399.63 384.74,404.32 385.09,404.32 385.43,404.32 385.77,404.32 386.11,404.32 386.46,404.32 386.80,404.32 387.14,404.39 387.49,404.67 387.83,403.54 388.17,405.50 388.51,404.62 388.86,405.80 389.20,405.35 389.54,404.77 389.89,403.91 390.23,404.44 390.57,404.10 390.91,404.36 391.26,404.12 391.60,402.08 391.94,399.96 392.29,401.67 392.63,403.61 392.97,403.13 393.31,409.39 393.66,410.17 394.00,412.60 394.34,414.92 394.69,414.99 395.03,413.94 395.37,415.49 395.71,415.34 396.06,413.87 396.40,419.45 396.74,421.27 397.09,421.69 397.43,422.50 397.77,422.50 398.11,422.50 398.46,422.50 398.80,422.50 399.14,422.58 399.49,422.95 399.83,422.73 400.17,424.08 400.51,423.33 400.86,422.76 401.20,422.30 401.54,422.44 401.89,422.91 402.23,425.05 402.57,425.13 402.91,417.08 403.26,411.81 403.60,411.44 403.94,411.03 404.29,408.22 404.63,414.16 404.97,412.87 405.31,411.25 405.66,416.22 406.00,422.93 406.34,422.93 406.69,422.93 407.03,422.93 407.37,422.93 407.71,422.93 408.06,423.01 408.40,421.34 408.74,421.41 409.09,420.98 409.43,419.95 409.77,418.97 410.11,421.40 410.46,422.93 410.80,423.61 411.14,426.47 411.49,433.25 411.83,433.25 412.17,433.25 412.51,433.25 412.86,433.25 413.20,433.25 413.54,433.25 413.89,433.40 414.23,433.55 414.57,434.55 414.91,432.98 415.26,433.85 415.60,429.80 415.94,429.29 416.29,421.28 416.63,425.21 416.97,429.74 417.31,435.93 417.66,436.96 418.00,436.61 418.34,439.10 418.69,444.12 419.03,444.12 419.37,444.19 419.71,444.13 420.06,444.59 420.40,445.17 420.74,446.02 421.09,444.34 421.43,444.69 421.77,444.98 422.11,444.46 422.46,443.92 422.80,438.97 423.14,439.84 423.49,441.75 423.83,440.53 424.17,433.76 424.51,434.65 424.86,436.53 425.20,438.07 425.54,436.45 425.89,442.60 426.23,445.63 426.57,445.63 426.91,445.63 427.26,445.63 427.60,445.78 427.94,445.66 428.29,447.13 428.63,444.22 428.97,446.07 429.31,440.26 429.66,440.35 430.00,440.64 430.34,441.88 430.69,440.86 431.03,446.26 431.37,446.77 431.71,445.01 432.06,435.98 432.40,430.97 432.74,429.30 433.09,433.27 433.43,439.21 433.77,432.72 434.11,430.02 434.46,432.29 434.80,427.87 435.14,431.62 435.49,428.44 435.83,430.91 436.17,428.18 436.51,417.77 436.86,418.19 437.20,418.57 437.54,411.31 437.89,409.51 438.23,404.49 438.57,401.05 438.91,404.31 439.26,395.81 439.60,397.43 439.94,408.10 440.29,405.84 440.63,410.42 440.97,406.78 441.31,411.93 441.66,419.21 442.00,419.21 442.34,419.21 442.69,419.28 443.03,420.06 443.37,421.92 443.71,419.63 444.06,418.01 444.40,419.65 444.74,417.56 445.09,415.38 445.43,415.66 445.77,416.95 446.11,414.02 446.46,417.60 446.80,420.78 447.14,422.49 447.49,423.90 447.83,424.69 448.17,428.21 448.51,428.21 448.86,428.21 449.20,428.21 449.54,428.21 449.89,428.21 450.23,428.21 450.57,428.21 450.91,428.21 451.26,428.21 451.60,428.21 451.94,428.21 452.29,428.21 452.63,428.21 452.97,428.21 453.31,428.21 453.66,428.21 454.00,428.21 454.34,428.21 454.69,428.21 455.03,428.21 455.37,428.21 455.71,428.21 456.06,428.21 456.40,428.21 456.74,428.36 457.09,433.20 457.43,432.16 457.77,428.97 458.11,429.25 458.46,429.94 458.80,428.30 459.14,428.45 459.49,431.37 459.83,433.75 460.17,432.30 460.51,433.39 460.86,435.18 461.20,435.18 461.54,435.25 461.89,435.44 462.23,434.55 462.57,436.75 462.91,441.62 463.26,440.36 463.60,441.53 463.94,444.26 464.29,444.26 464.63,444.78 464.97,444.78 465.31,444.78 465.66,444.94 466.00,443.90 466.34,440.86 466.69,436.52 467.03,428.03 467.37,430.85 467.71,425.34 468.06,426.88 468.40,426.67 468.74,430.94 469.09,428.75 469.43,425.54 469.77,416.76 470.11,415.97 470.46,416.62 470.80,423.14 471.14,422.90 471.49,420.42 471.83,419.13 472.17,415.08 472.51,405.69 472.86,411.16 473.20,410.21 473.54,415.55 473.89,416.51 474.23,412.97 474.57,411.08 474.91,419.78 475.26,415.94 475.60,424.44 475.94,424.51 476.29,426.12 476.63,425.36 476.97,427.38 477.31,429.06 477.66,432.62 478.00,432.62 478.34,432.62 478.69,432.62 479.03,432.62 479.37,432.62 479.71,432.62 480.06,432.62 480.40,432.62 480.74,432.62 481.09,432.62 481.43,432.62 481.77,432.62 482.11,432.62 482.46,432.62 482.80,432.62 483.14,432.62 483.49,432.62 483.83,432.62 484.17,432.62 484.51,432.62 484.86,432.62 485.20,432.62 485.54,432.62 485.89,432.62 486.23,432.62 486.57,432.62 486.91,432.69 487.26,431.85 487.60,433.07 487.94,435.81 488.29,435.78 488.63,433.56 488.97,434.74 489.31,434.65 489.66,435.60 490.00,434.73 490.34,434.26 490.69,433.83 491.03,432.70 491.37,437.78 491.71,434.94 492.06,434.79 492.40,434.36 492.74,433.78 493.09,434.76 493.43,437.61 493.77,440.04 494.11,440.04 494.46,440.04 494.80,440.11 495.14,440.99 495.49,439.82 495.83,438.01 496.17,438.28 496.51,440.28 496.86,440.97 497.20,440.86 497.54,440.96 497.89,440.34 498.23,442.75 498.57,441.90 498.91,440.57 499.26,433.62 499.60,433.51 499.94,433.60 500.29,434.32 500.63,434.31 500.97,433.71 501.31,434.60 501.66,439.22 502.00,437.71 502.34,436.44 502.69,436.89 503.03,438.09 503.37,436.71 503.71,434.64 504.06,434.07 504.40,435.96 504.74,435.77 505.09,436.08 505.43,436.86 505.77,437.59 506.11,435.58 506.46,437.22 506.80,438.38 507.14,429.20 507.49,428.39 507.83,426.81 508.17,423.96 508.51,423.81 508.86,424.63 509.20,423.01 509.54,420.15 509.89,417.36 510.23,415.85 510.57,417.77 510.91,413.09 511.26,417.80 511.60,418.99 511.94,419.61 512.29,418.53 512.63,419.71 512.97,419.10 513.31,413.37 513.66,415.35 514.00,412.91 514.34,412.80 514.69,407.17 515.03,407.25 515.37,405.33 515.71,408.96 516.06,405.98 516.40,405.99 516.74,408.96 517.09,405.32 517.43,405.31 517.77,404.67 518.11,405.78 518.46,402.53 518.80,399.02 519.14,401.31 519.49,398.81 519.83,400.22 520.17,401.39 520.51,400.88 520.86,400.64 521.20,393.19 521.54,393.29 521.89,385.26 522.23,384.99 522.57,389.21 522.91,391.81 523.26,394.21 523.60,393.91 523.94,389.68 524.29,398.43 524.63,398.43 524.97,398.43 525.31,398.43 525.66,398.43 526.00,398.43 526.34,398.43 526.69,398.43 527.03,398.43 527.37,398.43 527.71,398.43 528.06,398.43 528.40,398.43 528.74,398.43 529.09,398.43 529.43,398.43 529.77,398.43 530.11,398.43 530.46,398.43 530.80,398.43 531.14,398.43 531.49,398.43 531.83,398.43 532.17,398.43 532.51,398.59 532.86,401.00 533.20,400.28 533.54,405.05 533.89,405.05 534.23,405.05 534.57,405.05 534.91,405.05 535.26,405.05 535.60,405.05 535.94,405.12 536.29,406.10 536.63,404.84 536.97,405.16 537.31,405.48 537.66,404.99 538.00,404.89 538.34,405.52 538.69,405.53 539.03,404.31 539.37,404.93 539.71,404.23 540.06,405.92 540.40,408.62 540.74,412.18 541.09,412.18 541.43,412.18 541.77,412.18 542.11,412.18 542.46,412.18 542.80,412.18 543.14,412.33 543.49,409.89 543.83,410.86 544.17,415.64 544.51,416.83 544.86,422.50 545.20,423.22 545.54,422.57 545.89,423.77 546.23,424.16 546.57,422.88 546.91,422.76 547.26,420.63 547.60,422.45 547.94,423.29 548.29,422.64 548.63,425.98 548.97,426.13 549.31,426.54 549.66,426.35 550.00,423.31 550.34,425.47 550.69,426.17 551.03,424.75 551.37,426.64 551.71,428.83 552.06,424.53 552.40,422.54 552.74,426.10 553.09,416.83 553.43,419.07 553.77,411.71 554.11,412.88 554.46,408.05 554.80,405.24 555.14,404.21 555.49,402.97 555.83,397.85 556.17,402.85 556.51,400.72 556.86,402.76 557.20,398.36 557.54,402.16 557.89,401.33 558.23,399.25 558.57,400.54 558.91,398.07 559.26,398.99 559.60,404.85 559.94,405.53 560.29,402.80 560.63,404.19 560.97,405.10 561.31,392.81 561.66,392.80 562.00,388.15 562.34,383.56 562.69,382.75 563.03,384.55 563.37,387.80 563.71,386.20 564.06,390.88 564.40,388.91 564.74,386.77 565.09,389.97 565.43,388.56 565.77,391.14 566.11,387.67 566.46,382.70 566.80,379.87 567.14,371.60 567.49,373.22 567.83,381.50 568.17,379.11 568.51,379.32 568.86,378.51 569.20,383.54 569.54,387.20 569.89,387.35 570.23,386.36 570.57,386.87 570.91,386.19 571.26,385.76 571.60,392.86 571.94,390.15 572.29,394.51 572.63,398.56 572.97,394.95 573.31,396.62 573.66,396.97 574.00,397.81 574.34,400.58 574.69,400.58 575.03,400.58 575.37,400.73 575.71,402.65 576.06,404.14 576.40,407.30 576.74,407.30 577.09,407.30 577.43,407.30 577.77,407.30 578.11,407.30 578.46,407.30 578.80,407.30 579.14,407.30 579.49,407.30 579.83,407.30 580.17,407.30 580.51,407.30 580.86,407.45 581.20,406.65 581.54,407.11 581.89,406.90 582.23,407.33 582.57,409.22 582.91,410.14 583.26,414.98 583.60,411.45 583.94,413.55 584.29,409.82 584.63,406.44 584.97,411.13 585.31,411.84 585.66,414.06 586.00,414.74 586.34,415.53 586.69,416.17 587.03,420.19 587.37,420.19 587.71,420.19 588.06,420.19 588.40,420.19 588.74,420.19 589.09,420.19 589.43,420.19 589.77,420.19 590.11,420.19 590.46,420.19 590.80,420.19 591.14,420.19 591.49,420.19 591.83,420.34 592.17,412.06 592.51,411.45 592.86,408.96 593.20,405.98 593.54,403.31 593.89,410.20 594.23,410.89 594.57,407.23 594.91,402.51 595.26,402.90 595.60,403.74 595.94,399.84 596.29,392.61 596.63,376.67 596.97,370.82 597.31,359.57 597.66,357.32 598.00,365.38 598.34,365.11 598.69,364.67 599.03,379.18 599.37,360.20 599.71,359.96 600.06,361.71 600.40,371.11 600.74,372.78 601.09,371.53 601.43,360.22 601.77,368.07 602.11,361.84 602.46,362.54 602.80,366.96 603.14,355.59 603.49,344.85 603.83,356.30 604.17,356.46 604.51,360.39 604.86,356.22 605.20,362.32 605.54,359.87 605.89,355.39 606.23,353.15 606.57,363.36 606.91,345.25 607.26,347.71 607.60,334.80 607.94,328.94 608.29,314.00 608.63,314.16 608.97,316.28 609.31,308.19 609.66,313.92 610.00,305.66 610.34,301.65 610.69,307.65 611.03,316.99 611.37,310.56 611.71,313.34 612.06,315.75 612.40,300.14 612.74,299.45 613.09,291.00 613.43,291.85 613.77,299.71 614.11,303.18 614.46,298.74 614.80,287.60 615.14,285.45 615.49,304.16 615.83,311.08 616.17,315.36 616.51,315.44 616.86,316.97 617.20,317.32 617.54,315.86 617.89,317.23 618.23,317.64 618.57,316.52 618.91,317.25 619.26,319.74 619.60,320.52 619.94,321.82 620.29,321.82 620.63,321.82 620.97,321.82 621.31,321.90 621.66,322.87 622.00,325.72 622.34,328.21 622.69,328.21 623.03,328.21 623.37,328.21 623.71,328.21 624.06,328.21 624.40,328.21 624.74,328.21 625.09,328.21 625.43,328.21 625.77,328.21 626.11,328.21 626.46,328.21 626.80,328.21 627.14,328.21 627.49,328.21 627.83,328.21 628.17,328.21 628.51,328.21 628.86,328.21 629.20,328.21 629.54,328.21 629.89,328.21 630.23,328.21 630.57,328.21 630.91,328.28 631.26,326.93 631.60,326.78 631.94,326.95 632.29,328.88 632.63,331.01 632.97,330.00 633.31,330.97 633.66,331.38 634.00,331.05 634.34,329.16 634.69,328.51 635.03,326.57 635.37,328.33 635.71,326.28 636.06,326.70 636.40,328.94 636.74,328.69 637.09,332.80 637.43,332.80 637.77,332.80 638.11,332.80 638.46,332.80 638.80,332.80 639.14,332.80 639.49,332.80 639.83,332.80 640.17,332.80 640.51,332.80 640.86,332.80 641.20,332.80 641.54,332.80 641.89,332.80 642.23,332.96 642.57,328.96 642.91,329.19 643.26,326.79 643.60,325.60 643.94,319.17 644.29,306.54 644.63,298.67 644.97,294.46 645.31,303.78 645.66,306.21 646.00,300.73 646.34,308.26 646.69,309.41 647.03,303.89 647.37,305.97 647.71,303.49 648.06,301.47 648.40,302.89 648.74,302.57 649.09,300.21 649.43,295.70 649.77,289.63 650.11,297.44 650.46,292.29 650.80,294.09 651.14,285.84 651.49,292.72 651.83,305.81 652.17,303.80 652.51,298.20 652.86,296.23 653.20,295.23 653.54,297.53 653.89,298.64 654.23,292.93 654.57,288.48 654.91,291.12 655.26,278.85 655.60,273.30 655.94,268.88 656.29,255.32 656.63,247.09 656.97,260.02 657.31,257.04 657.66,254.88 658.00,288.09 658.34,285.22 658.69,257.59 659.03,259.76 659.37,239.81 659.71,238.36 660.06,236.19 660.40,252.70 660.74,258.97 661.09,282.30 661.43,296.17 661.77,274.39 662.11,271.48 662.46,263.49 662.80,265.18 663.14,271.04 663.49,278.87 663.83,291.41 664.17,293.10 664.51,292.31 664.86,293.57 665.20,293.57 665.54,288.36 665.89,287.57 666.23,287.43 666.57,293.63 666.91,292.37 667.26,300.63 667.60,300.63 667.94,300.63 668.29,300.63 668.63,300.63 668.97,301.13 669.31,302.50 669.66,302.22 670.00,304.02 670.34,303.31 670.69,305.46 671.03,304.37 671.37,303.63 671.71,303.66 672.06,303.81 672.40,304.05 672.74,303.33 673.09,305.09 673.43,305.11 673.77,305.96 674.11,305.13 674.46,305.64 674.80,303.15 675.14,302.56 675.49,302.33 675.83,302.62 676.17,301.95 676.51,300.51 676.86,294.14 677.20,290.43 677.54,286.04 677.89,283.59 678.23,288.66 678.57,287.46 678.91,288.87 679.26,288.43 679.60,286.79 679.94,285.41 680.29,279.94 680.63,274.90 680.97,277.67 681.31,282.54 681.66,281.71 682.00,285.21 682.34,281.23 682.69,283.62 683.03,277.06 683.37,282.46 683.71,284.32 684.06,285.67 684.40,284.63 684.74,284.18 685.09,285.48 685.43,283.14 685.77,281.70 686.11,277.34 686.46,285.07 686.80,281.02 687.14,279.74 687.49,277.83 687.83,271.67 688.17,276.85 688.51,276.03 688.86,275.81 689.20,269.83 689.54,267.08 689.89,258.03 690.23,260.58 690.57,260.91 690.91,255.66 691.26,252.03 691.60,249.43 691.94,256.06 692.29,250.49 692.63,241.94 692.97,219.37 693.31,190.78 693.66,192.36 694.00,185.65 694.34,154.10 694.69,151.70 695.03,148.91 695.37,161.58 695.71,146.46 696.06,146.96 696.40,116.54 696.74,98.90 697.09,70.00 697.43,85.64 697.77,77.31 698.11,158.56 698.46,150.45 698.80,128.26 699.14,140.23 699.49,128.19 699.83,126.02 700.17,137.41 700.51,131.07 700.86,137.13 701.20,138.23 701.54,139.27 701.89,128.63 702.23,133.74 702.57,127.78 702.91,120.26 703.26,120.39 703.60,128.57 703.94,138.47 704.29,135.10 704.63,135.46 704.97,137.15 705.31,133.57 705.66,135.08 706.00,136.51 706.34,132.12 706.69,132.20 707.03,131.65 707.37,133.08 707.71,135.82 708.06,160.46 708.40,160.46 708.74,160.76 709.09,166.26 709.43,164.43 709.77,169.29 710.11,172.83 710.46,169.92 710.80,171.54 711.14,171.48 711.49,173.46 711.83,169.12 712.17,171.64 712.51,171.74 712.86,175.86 713.20,175.86 713.54,175.86 713.89,175.86 714.23,175.86 714.57,175.86 714.91,175.86 715.26,175.86 715.60,175.86 715.94,175.86 716.29,175.86 716.63,175.86 716.97,175.86 717.31,175.86 717.66,175.86 718.00,175.86 718.34,175.86 718.69,175.86 719.03,175.86 719.37,176.23 719.71,175.31 720.06,180.97 720.40,180.49 720.74,180.26 721.09,180.32 721.43,178.86 721.77,178.45 722.11,179.54 722.46,180.11 722.80,181.08 723.14,180.74 723.49,183.62 723.83,183.62 724.17,183.62 724.51,183.62 724.86,184.07 725.20,186.88 725.54,197.99 725.89,198.40 726.23,198.22 726.57,199.72 726.91,199.72 727.26,199.72 727.60,199.72 727.94,199.72 728.29,199.72 728.63,199.72 728.97,199.72 729.31,200.17 729.66,197.00 730.00,199.59 730.34,196.02 730.69,205.14 731.03,201.70 731.37,199.39 731.71,195.51 732.06,195.91 732.40,192.04 732.74,194.29 733.09,186.57 733.43,182.81 733.77,189.59 734.11,191.79 734.46,211.05 734.80,211.05 735.14,211.05 735.49,211.05 735.83,211.05 736.17,211.05 736.51,211.05 736.86,211.05 737.20,211.05 737.54,211.05 737.89,211.05 738.23,211.05 738.57,211.05 738.91,211.05 739.26,211.05 739.60,211.05 739.94,211.38 740.29,218.59 740.63,218.59 740.97,218.59 741.31,218.59 741.66,218.59 742.00,218.59 742.34,218.59 742.69,218.59 743.03,218.59 743.37,218.59 743.71,218.59 744.06,218.59 744.40,218.59 744.74,218.59 745.09,218.59 745.43,218.59 745.77,218.59 746.11,218.59 746.46,218.59 746.80,218.59 747.14,218.59 747.49,218.59 747.83,218.95 748.17,218.52 748.51,218.14 748.86,221.01 749.20,222.11 749.54,221.78 749.89,221.05 750.23,222.19 750.57,221.14 750.91,222.42 751.26,221.57 751.60,222.19 751.94,220.42 752.29,217.87 752.63,218.09 752.97,219.86 753.31,219.86 753.66,216.67 754.00,211.66 754.34,214.64 754.69,219.10 755.03,218.51 755.37,220.61 755.71,220.58 756.06,223.51 756.40,225.29 756.74,226.84 757.09,225.02 757.43,226.40 757.77,223.06 758.11,220.77 758.46,222.70 758.80,220.51 759.14,212.30 759.49,218.95 759.83,222.70 760.17,219.16 760.51,219.89 760.86,219.34 761.20,222.79 761.54,225.82 761.89,209.04 762.23,216.62 762.57,214.42 762.91,198.67 763.26,192.76 763.60,193.09 763.94,189.63 764.29,201.46 764.63,197.56 764.97,190.14 765.31,175.51 765.66,174.71 766.00,179.16 766.34,176.74 766.69,177.56 767.03,175.49 767.37,168.41 767.71,172.24 768.06,170.75 768.40,168.04 768.74,165.79 769.09,169.29 769.43,163.99 769.77,182.05 770.11,178.38 770.46,177.47 770.80,180.15 771.14,178.44 771.49,176.18 771.83,177.02 772.17,177.70 772.51,179.79 772.86,187.88 773.20,180.89 773.54,178.23 773.89,184.22 774.23,181.88 774.57,182.49 774.91,181.84 775.26,184.32 775.60,183.81 775.94,177.06 776.29,181.29 776.63,182.74 776.97,188.20 777.31,189.41 777.66,190.86 778.00,190.86 778.34,190.86 778.69,190.86 779.03,190.86 779.37,190.86 779.71,190.93 780.06,190.75 780.40,193.21 780.74,193.70 781.09,192.47 781.43,195.67 781.77,196.08 782.11,195.21 782.46,195.87 782.80,192.75 783.14,195.17 783.49,199.18 783.83,200.93 784.17,199.97 784.51,202.01 784.86,203.35 785.20,203.02 785.54,200.99 785.89,189.79 786.23,188.32 786.57,194.07 786.91,189.80 787.26,200.33 787.60,201.79 787.94,199.44 788.29,197.49 788.63,193.94 788.97,191.09 789.31,199.07 789.66,202.09 790.00,201.73 790.34,197.94 790.69,204.77 791.03,205.85 791.37,205.29 791.71,205.36 792.06,205.90 792.40,204.98 792.74,206.34 793.09,216.80 793.43,220.05 793.77,218.88 794.11,221.88 794.46,221.11 794.80,219.56 795.14,221.10 795.49,224.55 795.83,221.57 796.17,220.10 796.51,222.48 796.86,225.13 797.20,222.78 797.54,221.58 797.89,224.42 798.23,222.33 798.57,209.73 798.91,222.16 799.26,226.78 799.60,229.95 799.94,227.95 800.29,228.72 800.63,226.96 800.97,231.15 801.31,230.11 801.66,230.06 802.00,236.46 802.34,242.22 802.69,246.16 803.03,246.55 803.37,246.57 803.71,240.30 804.06,241.86 804.40,241.02 804.74,234.01 805.09,242.86 805.43,242.23 805.77,242.40 806.11,248.88 806.46,244.26 806.80,252.43 807.14,258.10 807.49,258.10 807.83,258.17 808.17,257.30 808.51,256.26 808.86,251.95 809.20,249.01 809.54,247.99 809.89,249.84 810.23,254.85 810.57,248.56 810.91,252.61 811.26,257.32 811.60,271.42 811.94,272.16 812.29,272.16 812.63,272.16 812.97,272.78 813.31,271.34 813.66,272.23 814.00,267.00 814.34,265.96 814.69,269.94 815.03,267.36 815.37,269.40 815.71,268.34 816.06,261.59 816.40,265.33 816.74,267.76 817.09,260.80 817.43,266.05 817.77,276.92 818.11,275.66 818.46,274.30 818.80,277.35 819.14,281.55 819.49,282.24 819.83,281.16 820.17,284.19 820.51,286.74 820.86,283.61 821.20,280.07 821.54,289.55 821.89,285.77 822.23,289.65 822.57,301.06 822.91,301.06 823.26,301.06 823.60,301.06 823.94,301.06 824.29,301.06 824.63,301.06 824.97,301.06 825.31,301.76 825.66,295.67 826.00,291.62 826.34,295.04 826.69,297.52 827.03,299.49 827.37,307.59 827.71,320.38 828.06,320.38 828.40,320.38 828.74,320.38 829.09,320.38 829.43,320.38 829.77,320.38 830.11,320.38 830.46,320.38 830.80,320.38 831.14,320.38 831.49,320.46 831.83,318.71 832.17,324.33 832.51,319.98 832.86,311.81 833.20,312.08 833.54,310.35 833.89,312.52 834.23,307.22 834.57,312.58 834.91,316.80 835.26,308.24 835.60,285.77 835.94,292.11 836.29,290.89 836.63,274.85 836.97,267.75 837.31,243.78 837.66,267.79 838.00,265.03 838.34,268.84 838.69,288.76 839.03,300.80 839.37,300.80 839.71,300.80 840.06,300.80 840.40,300.80 840.74,300.80 841.09,300.80 841.43,300.80 841.77,300.80 842.11,300.80 842.46,300.80 842.80,300.80 843.14,300.80 843.49,300.80 843.83,300.80 844.17,300.80 844.51,300.80 844.86,300.80 845.20,300.80 845.54,300.80 845.89,300.80 846.23,300.80 846.57,300.80 846.91,301.34 847.26,305.17 847.60,304.96 847.94,308.48 848.29,308.48 848.63,309.01 848.97,308.60 849.31,307.37 849.66,307.26 850.00,303.04 850.34,301.93 850.69,301.13 851.03,305.75 851.37,300.39 851.71,298.66 852.06,292.72 852.40,287.20 852.74,290.50 853.09,281.06 853.43,285.57 853.77,291.07 854.11,290.98 854.46,288.88 854.80,294.15 855.14,292.44 855.49,292.84 855.83,296.16 856.17,295.03 856.51,295.31 856.86,296.06 857.20,294.78 857.54,290.26 857.89,293.23 858.23,298.39 858.57,294.27 858.91,295.93 859.26,297.46 859.60,295.52 859.94,291.60 860.29,293.97 860.63,285.39 860.97,284.87 861.31,291.61 861.66,294.56 862.00,291.53 862.34,290.71 862.69,291.78 863.03,288.85 863.37,283.79 863.71,285.93 864.06,285.95 864.40,282.46 864.74,281.70 865.09,276.61 865.43,272.06 865.77,272.99 866.11,265.57 866.46,260.46 866.80,261.10 867.14,262.74 867.49,258.06 867.83,254.14 868.17,259.48 868.51,244.35 868.86,246.28 869.20,246.84 869.54,247.95 869.89,243.08 870.23,251.82 870.57,250.76 870.91,246.94 871.26,248.29 871.60,258.18 871.94,274.62 872.29,275.32 872.63,274.51 872.97,281.52 873.31,279.75 873.66,272.08 874.00,278.24 874.34,269.42 874.69,269.04 875.03,270.92 875.37,275.08 875.71,265.27 876.06,278.78 876.40,280.99 876.74,289.19 877.09,292.24 877.43,292.94 877.77,291.71 878.11,295.96 878.46,297.10 878.80,299.53 879.14,291.73 879.49,292.33 879.83,284.21 880.17,274.43 880.51,268.51 880.86,275.79 881.20,276.63 881.54,272.24 881.89,283.17 882.23,281.24 882.57,287.58 882.91,301.96 883.26,295.80 883.60,294.31 883.94,285.27 884.29,288.44 884.63,288.34 884.97,285.45 885.31,287.99 885.66,287.27 886.00,279.96 886.34,274.03 886.69,275.59 887.03,284.00 887.37,284.17 887.71,284.35 888.06,295.41 888.40,294.56 888.74,299.08 889.09,298.95 889.43,304.35 889.77,308.76 890.11,310.08 890.46,310.08 890.80,310.08 891.14,310.08 891.49,310.08 891.83,310.08 892.17,310.08 892.51,310.08 892.86,310.08 893.20,310.08 893.54,310.08 893.89,310.08 894.23,310.08 894.57,310.08 894.91,310.08 895.26,310.08 895.60,310.08 895.94,310.08 896.29,310.62 896.63,311.54 896.97,304.47 897.31,307.77 897.66,295.41 898.00,293.06 898.34,293.07 898.69,280.42 899.03,282.42 899.37,284.87 899.71,293.24 900.06,296.34 900.40,300.31 900.74,297.87 901.09,291.00 901.43,289.79 901.77,290.05 902.11,299.17 902.46,293.33 902.80,279.46 903.14,264.53 903.49,261.95 903.83,278.78 904.17,278.59 904.51,269.41 904.86,265.12 905.20,259.39 905.54,265.18 905.89,253.13 906.23,252.15 906.57,268.94 906.91,263.01 907.26,266.68 907.60,247.10 907.94,249.85 908.29,259.64 908.63,256.62 908.97,249.29 909.31,256.79 909.66,250.50 910.00,247.67" fill="none" stroke="#1c7ed6" stroke-width="2"/>
<line x1="70" x2="70" y1="70" y2="450" stroke="#444"/>
<line x1="70" x2="910" y1="450" y2="450" stroke="#444"/>
</svg>