<svg xmlns="http://www.w3.org/2000/svg" width="980" height="520" viewBox="0 0 980 520"><style>text{font-family:Arial,sans-serif;fill:#e9ecef}.title{font-size:20px;font-weight:700}.axis{font-size:12px;fill:#adb5bd}.cell{font-size:11px;fill:#fff}</style><rect width="100%" height="100%" fill="#0b0f14"/><text x="24" y="28" class="title">Monte Carlo Max Drawdown</text>
<text x="70" y="35" class="axis">Count</text>
<rect x="70.00" y="443.20" width="26.00" height="6.80" fill="#2f9e44" opacity="0.82"/>
<rect x="98.00" y="402.71" width="26.00" height="47.29" fill="#2f9e44" opacity="0.82"/>
<rect x="126.00" y="333.65" width="26.00" height="116.35" fill="#2f9e44" opacity="0.82"/>
<rect x="154.00" y="239.08" width="26.00" height="210.92" fill="#2f9e44" opacity="0.82"/>
<rect x="182.00" y="132.94" width="26.00" height="317.06" fill="#2f9e44" opacity="0.82"/>
<rect x="210.00" y="75.78" width="26.00" height="374.22" fill="#2f9e44" opacity="0.82"/>
<rect x="238.00" y="70.00" width="26.00" height="380.00" fill="#2f9e44" opacity="0.82"/>
<rect x="266.00" y="100.62" width="26.00" height="349.38" fill="#2f9e44" opacity="0.82"/>
<rect x="294.00" y="139.74" width="26.00" height="310.26" fill="#2f9e44" opacity="0.82"/>
<rect x="322.00" y="164.57" width="26.00" height="285.43" fill="#2f9e44" opacity="0.82"/>
<rect x="350.00" y="209.14" width="26.00" height="240.86" fill="#2f9e44" opacity="0.82"/>
<rect x="378.00" y="254.39" width="26.00" height="195.61" fill="#2f9e44" opacity="0.82"/>
<rect x="406.00" y="315.96" width="26.00" height="134.04" fill="#2f9e44" opacity="0.82"/>
<rect x="434.00" y="341.82" width="26.00" height="108.18" fill="#2f9e44" opacity="0.82"/>
<rect x="462.00" y="362.57" width="26.00" height="87.43" fill="#2f9e44" opacity="0.82"/>
<rect x="490.00" y="390.13" width="26.00" height="59.87" fill="#2f9e44" opacity="0.82"/>
<rect x="518.00" y="399.65" width="26.00" height="50.35" fill="#2f9e44" opacity="0.82"/>
<rect x="546.00" y="413.60" width="26.00" height="36.40" fill="#2f9e44" opacity="0.82"/>
<rect x="574.00" y="424.83" width="26.00" height="25.17" fill="#2f9e44" opacity="0.82"/>
<rect x="602.00" y="427.55" width="26.00" height="22.45" fill="#2f9e44" opacity="0.82"/>
<rect x="630.00" y="435.03" width="26.00" height="14.97" fill="#2f9e44" opacity="0.82"/>
<rect x="658.00" y="441.50" width="26.00" height="8.50" fill="#2f9e44" opacity="0.82"/>
<rect x="686.00" y="443.54" width="26.00" height="6.46" fill="#2f9e44" opacity="0.82"/>
<rect x="714.00" y="443.54" width="26.00" height="6.46" fill="#2f9e44" opacity="0.82"/>
<rect x="742.00" y="446.94" width="26.00" height="3.06" fill="#2f9e44" opacity="0.82"/>
<rect x="770.00" y="447.28" width="26.00" height="2.72" fill="#2f9e44" opacity="0.82"/>
<rect x="798.00" y="449.66" width="26.00" height="0.34" fill="#2f9e44" opacity="0.82"/>
<rect x="826.00" y="449.32" width="26.00" height="0.68" fill="#2f9e44" opacity="0.82"/>
<rect x="854.00" y="449.66" width="26.00" height="0.34" fill="#2f9e44" opacity="0.82"/>
<rect x="882.00" y="449.66" width="26.00" height="0.34" fill="#2f9e44" opacity="0.82"/>
<line x1="70" x2="910" y1="450.00" y2="450.00" stroke="#444"/>
</svg>