<svg xmlns="http://www.w3.org/2000/svg" width="980" height="520" viewBox="0 0 980 520"><style>text{font-family:Arial,sans-serif;fill:#e9ecef}.title{font-size:20px;font-weight:700}.axis{font-size:12px;fill:#adb5bd}.cell{font-size:11px;fill:#fff}</style><rect width="100%" height="100%" fill="#0b0f14"/><text x="24" y="28" class="title">Rolling Profit Factor</text>
<text x="70" y="35" class="axis">Profit factor</text>
<polyline points="70.00,359.38 74.83,359.61 79.66,360.09 84.48,377.00 89.31,388.48 94.14,396.78 98.97,399.90 103.79,401.25 108.62,401.44 113.45,378.34 118.28,355.53 123.10,359.84 127.93,361.92 132.76,365.55 137.59,361.69 142.41,362.61 147.24,363.13 152.07,359.91 156.90,370.69 161.72,375.24 166.55,362.09 171.38,366.33 176.21,315.39 181.03,295.80 185.86,275.75 190.69,274.79 195.52,274.33 200.34,287.32 205.17,301.24 210.00,317.90 214.83,326.30 219.66,325.47 224.48,328.16 229.31,332.92 234.14,333.88 238.97,333.81 243.79,328.34 248.62,325.65 253.45,325.48 258.28,348.55 263.10,367.11 267.93,368.17 272.76,355.09 277.59,344.76 282.41,338.47 287.24,335.43 292.07,332.49 296.90,336.71 301.72,347.91 306.55,359.71 311.38,370.33 316.21,367.12 321.03,405.14 325.86,422.22 330.69,438.16 335.52,437.69 340.34,437.27 345.17,437.49 350.00,438.04 354.83,437.85 359.66,436.19 364.48,435.30 369.31,434.38 374.14,415.44 378.97,397.35 383.79,395.38 388.62,398.01 393.45,399.74 398.28,402.33 403.10,404.43 407.93,403.67 412.76,386.25 417.59,386.58 422.41,398.77 427.24,402.86 432.07,405.19 436.90,405.81 441.72,386.81 446.55,367.53 451.38,349.40 456.21,353.38 461.03,350.18 465.86,358.91 470.69,366.41 475.52,371.76 480.34,350.90 485.17,325.48 490.00,330.11 494.83,329.61 499.66,333.58 504.48,342.52 509.31,349.73 514.14,300.69 518.97,268.90 523.79,289.84 528.62,296.69 533.45,296.74 538.28,292.84 543.10,276.92 547.93,256.27 552.76,243.52 557.59,244.23 562.41,232.15 567.24,203.02 572.07,134.38 576.90,70.00 581.72,90.28 586.55,134.86 591.38,171.59 596.21,202.65 601.03,205.94 605.86,219.25 610.69,214.14 615.52,199.68 620.34,201.16 625.17,218.09 630.00,242.10 634.83,215.57 639.66,187.96 644.48,166.66 649.31,141.32 654.14,130.71 658.97,184.65 663.79,240.69 668.62,244.96 673.45,244.93 678.28,253.27 683.10,243.96 687.93,248.45 692.76,269.21 697.59,288.49 702.41,306.80 707.24,331.87 712.07,350.98 716.90,395.16 721.72,426.62 726.55,425.17 731.38,424.80 736.21,423.61 741.03,422.52 745.86,420.60 750.69,420.67 755.52,421.48 760.34,422.40 765.17,420.49 770.00,419.17 774.83,419.91 779.66,433.62 784.48,444.47 789.31,446.56 794.14,449.92 798.97,450.00 803.79,448.51 808.62,447.46 813.45,441.48 818.28,436.55 823.10,436.68 827.93,440.32 832.76,441.31 837.59,427.35 842.41,413.12 847.24,411.85 852.07,409.38 856.90,410.76 861.72,410.10 866.55,411.69 871.38,413.24 876.21,405.27 881.03,399.97 885.86,401.75 890.69,404.52 895.52,384.00 900.34,364.79 905.17,348.57 910.00,336.23" fill="none" stroke="#1c7ed6" stroke-width="2"/>
<line x1="70" x2="70" y1="70" y2="450" stroke="#444"/>
<line x1="70" x2="910" y1="450" y2="450" stroke="#444"/>
</svg>