<svg xmlns="http://www.w3.org/2000/svg" width="980" height="520" viewBox="0 0 980 520"><style>text{font-family:Arial,sans-serif;fill:#e9ecef}.title{font-size:20px;font-weight:700}.axis{font-size:12px;fill:#adb5bd}.cell{font-size:11px;fill:#fff}</style><rect width="100%" height="100%" fill="#0b0f14"/><text x="24" y="28" class="title">Rolling Win Rate</text>
<text x="70" y="35" class="axis">Win rate</text>
<polyline points="70.00,208.18 74.83,208.18 79.66,208.18 84.48,242.73 89.31,277.27 94.14,311.82 98.97,311.82 103.79,311.82 108.62,311.82 113.45,277.27 118.28,242.73 123.10,242.73 127.93,242.73 132.76,277.27 137.59,277.27 142.41,277.27 147.24,277.27 152.07,277.27 156.90,277.27 161.72,277.27 166.55,242.73 171.38,242.73 176.21,208.18 181.03,208.18 185.86,173.64 190.69,173.64 195.52,173.64 200.34,208.18 205.17,242.73 210.00,277.27 214.83,311.82 219.66,311.82 224.48,311.82 229.31,311.82 234.14,311.82 238.97,311.82 243.79,311.82 248.62,311.82 253.45,311.82 258.28,346.36 263.10,380.91 267.93,380.91 272.76,346.36 277.59,311.82 282.41,277.27 287.24,277.27 292.07,277.27 296.90,277.27 301.72,311.82 306.55,346.36 311.38,380.91 316.21,380.91 321.03,380.91 325.86,415.45 330.69,450.00 335.52,450.00 340.34,450.00 345.17,450.00 350.00,450.00 354.83,450.00 359.66,415.45 364.48,415.45 369.31,415.45 374.14,380.91 378.97,346.36 383.79,346.36 388.62,346.36 393.45,346.36 398.28,346.36 403.10,346.36 407.93,346.36 412.76,311.82 417.59,311.82 422.41,346.36 427.24,380.91 432.07,380.91 436.90,380.91 441.72,346.36 446.55,311.82 451.38,277.27 456.21,277.27 461.03,277.27 465.86,311.82 470.69,311.82 475.52,311.82 480.34,277.27 485.17,242.73 490.00,242.73 494.83,242.73 499.66,242.73 504.48,277.27 509.31,277.27 514.14,242.73 518.97,242.73 523.79,277.27 528.62,277.27 533.45,277.27 538.28,277.27 543.10,242.73 547.93,208.18 552.76,173.64 557.59,173.64 562.41,173.64 567.24,139.09 572.07,104.55 576.90,70.00 581.72,70.00 586.55,104.55 591.38,139.09 596.21,173.64 601.03,173.64 605.86,173.64 610.69,173.64 615.52,173.64 620.34,173.64 625.17,208.18 630.00,242.73 634.83,208.18 639.66,173.64 644.48,139.09 649.31,104.55 654.14,104.55 658.97,104.55 663.79,139.09 668.62,139.09 673.45,139.09 678.28,139.09 683.10,104.55 687.93,104.55 692.76,139.09 697.59,173.64 702.41,208.18 707.24,242.73 712.07,277.27 716.90,311.82 721.72,346.36 726.55,346.36 731.38,346.36 736.21,346.36 741.03,346.36 745.86,346.36 750.69,346.36 755.52,346.36 760.34,346.36 765.17,346.36 770.00,311.82 774.83,311.82 779.66,346.36 784.48,380.91 789.31,415.45 794.14,450.00 798.97,450.00 803.79,450.00 808.62,415.45 813.45,380.91 818.28,346.36 823.10,346.36 827.93,346.36 832.76,380.91 837.59,346.36 842.41,311.82 847.24,311.82 852.07,311.82 856.90,311.82 861.72,311.82 866.55,311.82 871.38,311.82 876.21,277.27 881.03,242.73 885.86,242.73 890.69,242.73 895.52,208.18 900.34,173.64 905.17,139.09 910.00,104.55" fill="none" stroke="#1c7ed6" stroke-width="2"/>
<line x1="70" x2="70" y1="70" y2="450" stroke="#444"/>
<line x1="70" x2="910" y1="450" y2="450" stroke="#444"/>
</svg>