<svg xmlns="http://www.w3.org/2000/svg" width="980" height="520" viewBox="0 0 980 520"><style>text{font-family:Arial,sans-serif;fill:#e9ecef}.title{font-size:20px;font-weight:700}.axis{font-size:12px;fill:#adb5bd}.cell{font-size:11px;fill:#fff}</style><rect width="100%" height="100%" fill="#0b0f14"/><text x="24" y="28" class="title">Rolling Expectancy</text>
<text x="70" y="35" class="axis">Expectancy</text>
<polyline points="70.00,323.01 74.83,323.14 79.66,323.43 84.48,334.80 89.31,343.51 94.14,350.75 98.97,354.47 103.79,356.21 108.62,356.45 113.45,336.74 118.28,319.25 123.10,322.17 127.93,323.68 132.76,326.50 137.59,323.56 142.41,324.23 147.24,324.62 152.07,322.27 156.90,330.65 161.72,334.17 166.55,324.24 171.38,327.27 176.21,288.95 181.03,274.20 185.86,259.29 190.69,258.95 195.52,258.78 200.34,266.21 205.17,273.74 210.00,284.81 214.83,291.29 219.66,290.79 224.48,292.42 229.31,295.48 234.14,296.12 238.97,296.07 243.79,292.53 248.62,290.90 253.45,290.80 258.28,310.38 263.10,327.52 267.93,328.54 272.76,316.28 277.59,307.19 282.41,302.67 287.24,300.75 292.07,298.98 296.90,301.54 301.72,310.31 306.55,320.69 311.38,330.64 316.21,327.59 321.03,363.25 325.86,379.39 330.69,395.42 335.52,393.34 340.34,391.55 345.17,392.49 350.00,394.87 354.83,394.01 359.66,391.12 364.48,387.78 369.31,384.56 374.14,365.80 378.97,350.17 383.79,348.09 388.62,350.90 393.45,352.89 398.28,356.09 403.10,358.92 407.93,357.86 412.76,342.61 417.59,342.87 422.41,353.55 427.24,358.37 432.07,361.78 436.90,362.74 441.72,344.76 446.55,328.12 451.38,313.78 456.21,316.46 461.03,314.28 465.86,320.67 470.69,326.93 475.52,332.09 480.34,312.04 485.17,289.40 490.00,292.35 494.83,292.02 499.66,294.70 504.48,301.69 509.31,307.88 514.14,255.13 518.97,220.59 523.79,237.89 528.62,242.23 533.45,242.27 538.28,239.75 543.10,227.86 547.93,213.43 552.76,203.91 557.59,204.62 562.41,192.54 567.24,170.66 572.07,115.29 576.90,70.00 581.72,74.21 586.55,95.78 591.38,116.05 596.21,135.30 601.03,136.64 605.86,142.46 610.69,140.15 615.52,134.12 620.34,134.70 625.17,152.75 630.00,175.62 634.83,154.50 639.66,135.88 644.48,127.65 649.31,117.51 654.14,114.86 658.97,163.41 663.79,212.45 668.62,214.06 673.45,214.05 678.28,217.39 683.10,210.14 687.93,214.42 692.76,227.91 697.59,241.49 702.41,257.29 707.24,283.83 712.07,306.36 716.90,364.92 721.72,410.33 726.55,404.65 731.38,403.30 736.21,399.09 741.03,395.52 745.86,389.74 750.69,389.94 755.52,392.32 760.34,395.15 765.17,389.44 770.00,387.37 774.83,389.41 779.66,409.36 784.48,429.25 789.31,438.61 794.14,448.48 798.97,450.00 803.79,447.78 808.62,445.36 813.45,430.17 818.28,418.71 823.10,419.50 827.93,424.34 832.76,426.76 837.59,404.26 842.41,382.70 847.24,379.69 852.07,374.29 856.90,377.23 861.72,375.82 866.55,379.31 871.38,382.98 876.21,370.89 881.03,363.74 885.86,366.88 890.69,372.24 895.52,346.19 900.34,324.90 905.17,308.45 910.00,296.31" fill="none" stroke="#1c7ed6" stroke-width="2"/>
<line x1="70" x2="70" y1="70" y2="450" stroke="#444"/>
<line x1="70" x2="910" y1="450" y2="450" stroke="#444"/>
</svg>