<svg xmlns="http://www.w3.org/2000/svg" width="980" height="520" viewBox="0 0 980 520"><style>text{font-family:Arial,sans-serif;fill:#e9ecef}.title{font-size:20px;font-weight:700}.axis{font-size:12px;fill:#adb5bd}.cell{font-size:11px;fill:#fff}</style><rect width="100%" height="100%" fill="#0b0f14"/><text x="24" y="28" class="title">OOS Monthly Returns</text>
<text x="70" y="35" class="axis">Return</text>
<rect x="70.00" y="388.37" width="24.25" height="16.69" fill="#c92a2a" opacity="0.82"/>
<rect x="96.25" y="353.14" width="24.25" height="35.23" fill="#2f9e44" opacity="0.82"/>
<rect x="122.50" y="388.37" width="24.25" height="32.43" fill="#c92a2a" opacity="0.82"/>
<rect x="148.75" y="388.37" width="24.25" height="43.65" fill="#c92a2a" opacity="0.82"/>
<rect x="175.00" y="388.37" width="24.25" height="27.27" fill="#c92a2a" opacity="0.82"/>
<rect x="201.25" y="388.37" width="24.25" height="32.83" fill="#c92a2a" opacity="0.82"/>
<rect x="227.50" y="388.37" width="24.25" height="54.29" fill="#c92a2a" opacity="0.82"/>
<rect x="253.75" y="388.37" width="24.25" height="31.48" fill="#c92a2a" opacity="0.82"/>
<rect x="280.00" y="388.37" width="24.25" height="31.87" fill="#c92a2a" opacity="0.82"/>
<rect x="306.25" y="388.37" width="24.25" height="12.00" fill="#c92a2a" opacity="0.82"/>
<rect x="332.50" y="256.92" width="24.25" height="131.46" fill="#2f9e44" opacity="0.82"/>
<rect x="358.75" y="388.37" width="24.25" height="15.38" fill="#c92a2a" opacity="0.82"/>
<rect x="385.00" y="388.37" width="24.25" height="50.63" fill="#c92a2a" opacity="0.82"/>
<rect x="411.25" y="388.37" width="24.25" height="11.92" fill="#c92a2a" opacity="0.82"/>
<rect x="437.50" y="388.37" width="24.25" height="24.09" fill="#c92a2a" opacity="0.82"/>
<rect x="463.75" y="388.37" width="24.25" height="22.85" fill="#c92a2a" opacity="0.82"/>
<rect x="490.00" y="388.37" width="24.25" height="61.57" fill="#c92a2a" opacity="0.82"/>
<rect x="516.25" y="388.37" width="24.25" height="30.43" fill="#c92a2a" opacity="0.82"/>
<rect x="542.50" y="388.37" width="24.25" height="6.28" fill="#c92a2a" opacity="0.82"/>
<rect x="568.75" y="388.37" width="24.25" height="0.43" fill="#c92a2a" opacity="0.82"/>
<rect x="595.00" y="388.37" width="24.25" height="15.30" fill="#c92a2a" opacity="0.82"/>
<rect x="621.25" y="388.37" width="24.25" height="73.55" fill="#c92a2a" opacity="0.82"/>
<rect x="647.50" y="307.01" width="24.25" height="81.36" fill="#2f9e44" opacity="0.82"/>
<rect x="673.75" y="144.83" width="24.25" height="243.55" fill="#2f9e44" opacity="0.82"/>
<rect x="700.00" y="388.37" width="24.25" height="14.34" fill="#c92a2a" opacity="0.82"/>
<rect x="726.25" y="8.37" width="24.25" height="380.00" fill="#2f9e44" opacity="0.82"/>
<rect x="752.50" y="388.37" width="24.25" height="21.32" fill="#c92a2a" opacity="0.82"/>
<rect x="778.75" y="388.37" width="24.25" height="8.56" fill="#c92a2a" opacity="0.82"/>
<rect x="805.00" y="388.37" width="24.25" height="18.99" fill="#c92a2a" opacity="0.82"/>
<rect x="831.25" y="388.37" width="24.25" height="28.35" fill="#c92a2a" opacity="0.82"/>
<rect x="857.50" y="388.37" width="24.25" height="14.48" fill="#c92a2a" opacity="0.82"/>
<rect x="883.75" y="365.17" width="24.25" height="23.21" fill="#2f9e44" opacity="0.82"/>
<line x1="70" x2="910" y1="388.37" y2="388.37" stroke="#444"/>
</svg>