<svg xmlns="http://www.w3.org/2000/svg" width="980" height="520" viewBox="0 0 980 520"><style>text{font-family:Arial,sans-serif;fill:#e9ecef}.title{font-size:20px;font-weight:700}.axis{font-size:12px;fill:#adb5bd}.cell{font-size:11px;fill:#fff}</style><rect width="100%" height="100%" fill="#0b0f14"/><text x="24" y="28" class="title">OOS Rolling Expectancy</text>
<text x="70" y="35" class="axis">Expectancy</text>
<polyline points="70.00,418.21 83.12,424.70 96.25,429.41 109.38,408.88 122.50,387.91 135.62,381.97 148.75,375.99 161.88,385.41 175.00,392.42 188.12,388.88 201.25,385.30 214.38,388.93 227.50,390.37 240.62,389.55 253.75,393.02 266.88,395.99 280.00,396.80 293.12,401.05 306.25,406.03 319.38,408.33 332.50,402.21 345.62,397.99 358.75,397.26 371.88,393.97 385.00,393.57 398.12,392.05 411.25,390.68 424.38,386.56 437.50,378.65 450.62,368.70 463.75,369.74 476.88,366.11 490.00,367.54 503.12,391.86 516.25,413.60 529.38,433.21 542.50,450.00 555.62,449.80 568.75,431.24 581.88,420.04 595.00,408.81 608.12,397.41 621.25,362.81 634.38,330.09 647.50,300.49 660.62,271.27 673.75,271.18 686.88,223.06 700.00,174.06 713.12,127.61 726.25,89.09 739.38,91.02 752.50,89.05 765.62,89.00 778.75,85.96 791.88,85.98 805.00,84.04 818.12,84.49 831.25,90.17 844.38,97.99 857.50,100.87 870.62,99.50 883.75,85.77 896.88,74.32 910.00,70.00" fill="none" stroke="#1c7ed6" stroke-width="2"/>
<line x1="70" x2="70" y1="70" y2="450" stroke="#444"/>
<line x1="70" x2="910" y1="450" y2="450" stroke="#444"/>
</svg>