<svg xmlns="http://www.w3.org/2000/svg" width="980" height="520" viewBox="0 0 980 520"><style>text{font-family:Arial,sans-serif;fill:#e9ecef}.title{font-size:20px;font-weight:700}.axis{font-size:12px;fill:#adb5bd}.cell{font-size:11px;fill:#fff}</style><rect width="100%" height="100%" fill="#0b0f14"/><text x="24" y="28" class="title">OOS Trade P/L Distribution</text>
<text x="70" y="35" class="axis">Count</text>
<rect x="70.00" y="70.00" width="26.00" height="380.00" fill="#2f9e44" opacity="0.82"/>
<rect x="98.00" y="260.00" width="26.00" height="190.00" fill="#2f9e44" opacity="0.82"/>
<rect x="126.00" y="247.33" width="26.00" height="202.67" fill="#2f9e44" opacity="0.82"/>
<rect x="154.00" y="374.00" width="26.00" height="76.00" fill="#2f9e44" opacity="0.82"/>
<rect x="182.00" y="399.33" width="26.00" height="50.67" fill="#2f9e44" opacity="0.82"/>
<rect x="210.00" y="424.67" width="26.00" height="25.33" fill="#2f9e44" opacity="0.82"/>
<rect x="238.00" y="412.00" width="26.00" height="38.00" fill="#2f9e44" opacity="0.82"/>
<rect x="266.00" y="437.33" width="26.00" height="12.67" fill="#2f9e44" opacity="0.82"/>
<rect x="294.00" y="412.00" width="26.00" height="38.00" fill="#2f9e44" opacity="0.82"/>
<rect x="322.00" y="437.33" width="26.00" height="12.67" fill="#2f9e44" opacity="0.82"/>
<rect x="350.00" y="437.33" width="26.00" height="12.67" fill="#2f9e44" opacity="0.82"/>
<rect x="378.00" y="424.67" width="26.00" height="25.33" fill="#2f9e44" opacity="0.82"/>
<rect x="406.00" y="450.00" width="26.00" height="0.00" fill="#2f9e44" opacity="0.82"/>
<rect x="434.00" y="437.33" width="26.00" height="12.67" fill="#2f9e44" opacity="0.82"/>
<rect x="462.00" y="437.33" width="26.00" height="12.67" fill="#2f9e44" opacity="0.82"/>
<rect x="490.00" y="450.00" width="26.00" height="0.00" fill="#2f9e44" opacity="0.82"/>
<rect x="518.00" y="450.00" width="26.00" height="0.00" fill="#2f9e44" opacity="0.82"/>
<rect x="546.00" y="437.33" width="26.00" height="12.67" fill="#2f9e44" opacity="0.82"/>
<rect x="574.00" y="437.33" width="26.00" height="12.67" fill="#2f9e44" opacity="0.82"/>
<rect x="602.00" y="450.00" width="26.00" height="0.00" fill="#2f9e44" opacity="0.82"/>
<rect x="630.00" y="437.33" width="26.00" height="12.67" fill="#2f9e44" opacity="0.82"/>
<rect x="658.00" y="437.33" width="26.00" height="12.67" fill="#2f9e44" opacity="0.82"/>
<rect x="686.00" y="450.00" width="26.00" height="0.00" fill="#2f9e44" opacity="0.82"/>
<rect x="714.00" y="450.00" width="26.00" height="0.00" fill="#2f9e44" opacity="0.82"/>
<rect x="742.00" y="450.00" width="26.00" height="0.00" fill="#2f9e44" opacity="0.82"/>
<rect x="770.00" y="450.00" width="26.00" height="0.00" fill="#2f9e44" opacity="0.82"/>
<rect x="798.00" y="437.33" width="26.00" height="12.67" fill="#2f9e44" opacity="0.82"/>
<rect x="826.00" y="437.33" width="26.00" height="12.67" fill="#2f9e44" opacity="0.82"/>
<rect x="854.00" y="437.33" width="26.00" height="12.67" fill="#2f9e44" opacity="0.82"/>
<rect x="882.00" y="437.33" width="26.00" height="12.67" fill="#2f9e44" opacity="0.82"/>
<line x1="70" x2="910" y1="450.00" y2="450.00" stroke="#444"/>
</svg>