<svg xmlns="http://www.w3.org/2000/svg" width="980" height="520" viewBox="0 0 980 520"><style>text{font-family:Arial,sans-serif;fill:#e9ecef}.title{font-size:20px;font-weight:700}.axis{font-size:12px;fill:#adb5bd}.cell{font-size:11px;fill:#fff}</style><rect width="100%" height="100%" fill="#0b0f14"/><text x="24" y="28" class="title">Bootstrap Expectancy</text>
<text x="70" y="35" class="axis">Count</text>
<rect x="70.00" y="446.61" width="26.00" height="3.39" fill="#2f9e44" opacity="0.82"/>
<rect x="98.00" y="441.53" width="26.00" height="8.47" fill="#2f9e44" opacity="0.82"/>
<rect x="126.00" y="436.87" width="26.00" height="13.13" fill="#2f9e44" opacity="0.82"/>
<rect x="154.00" y="416.53" width="26.00" height="33.47" fill="#2f9e44" opacity="0.82"/>
<rect x="182.00" y="405.94" width="26.00" height="44.06" fill="#2f9e44" opacity="0.82"/>
<rect x="210.00" y="349.60" width="26.00" height="100.40" fill="#2f9e44" opacity="0.82"/>
<rect x="238.00" y="306.81" width="26.00" height="143.19" fill="#2f9e44" opacity="0.82"/>
<rect x="266.00" y="257.67" width="26.00" height="192.33" fill="#2f9e44" opacity="0.82"/>
<rect x="294.00" y="199.21" width="26.00" height="250.79" fill="#2f9e44" opacity="0.82"/>
<rect x="322.00" y="152.19" width="26.00" height="297.81" fill="#2f9e44" opacity="0.82"/>
<rect x="350.00" y="103.47" width="26.00" height="346.53" fill="#2f9e44" opacity="0.82"/>
<rect x="378.00" y="86.95" width="26.00" height="363.05" fill="#2f9e44" opacity="0.82"/>
<rect x="406.00" y="71.69" width="26.00" height="378.31" fill="#2f9e44" opacity="0.82"/>
<rect x="434.00" y="70.00" width="26.00" height="380.00" fill="#2f9e44" opacity="0.82"/>
<rect x="462.00" y="94.99" width="26.00" height="355.01" fill="#2f9e44" opacity="0.82"/>
<rect x="490.00" y="147.10" width="26.00" height="302.90" fill="#2f9e44" opacity="0.82"/>
<rect x="518.00" y="198.36" width="26.00" height="251.64" fill="#2f9e44" opacity="0.82"/>
<rect x="546.00" y="240.30" width="26.00" height="209.70" fill="#2f9e44" opacity="0.82"/>
<rect x="574.00" y="265.30" width="26.00" height="184.70" fill="#2f9e44" opacity="0.82"/>
<rect x="602.00" y="318.25" width="26.00" height="131.75" fill="#2f9e44" opacity="0.82"/>
<rect x="630.00" y="356.38" width="26.00" height="93.62" fill="#2f9e44" opacity="0.82"/>
<rect x="658.00" y="391.96" width="26.00" height="58.04" fill="#2f9e44" opacity="0.82"/>
<rect x="686.00" y="413.57" width="26.00" height="36.43" fill="#2f9e44" opacity="0.82"/>
<rect x="714.00" y="426.28" width="26.00" height="23.72" fill="#2f9e44" opacity="0.82"/>
<rect x="742.00" y="434.33" width="26.00" height="15.67" fill="#2f9e44" opacity="0.82"/>
<rect x="770.00" y="441.10" width="26.00" height="8.90" fill="#2f9e44" opacity="0.82"/>
<rect x="798.00" y="446.19" width="26.00" height="3.81" fill="#2f9e44" opacity="0.82"/>
<rect x="826.00" y="448.31" width="26.00" height="1.69" fill="#2f9e44" opacity="0.82"/>
<rect x="854.00" y="448.73" width="26.00" height="1.27" fill="#2f9e44" opacity="0.82"/>
<rect x="882.00" y="447.46" width="26.00" height="2.54" fill="#2f9e44" opacity="0.82"/>
<line x1="70" x2="910" y1="450.00" y2="450.00" stroke="#444"/>
</svg>