<svg xmlns="http://www.w3.org/2000/svg" width="980" height="520" viewBox="0 0 980 520"><style>text{font-family:Arial,sans-serif;fill:#e9ecef}.title{font-size:20px;font-weight:700}.axis{font-size:12px;fill:#adb5bd}.cell{font-size:11px;fill:#fff}</style><rect width="100%" height="100%" fill="#0b0f14"/><text x="24" y="28" class="title">Equity Curve</text>
<text x="70" y="35" class="axis">Equity</text>
<polyline points="70.00,434.56 70.34,434.56 70.69,434.56 71.03,434.56 71.37,434.56 71.71,434.56 72.06,434.56 72.40,434.56 72.74,434.56 73.09,434.56 73.43,434.56 73.77,434.56 74.11,434.56 74.46,434.56 74.80,434.56 75.14,434.56 75.49,434.56 75.83,434.56 76.17,434.56 76.51,434.56 76.86,434.56 77.20,434.56 77.54,434.63 77.89,434.84 78.23,436.64 78.57,437.20 78.91,433.61 79.26,433.13 79.60,431.47 79.94,436.45 80.29,436.51 80.63,433.71 80.97,440.25 81.31,440.21 81.66,440.23 82.00,438.37 82.34,438.77 82.69,438.34 83.03,438.30 83.37,437.10 83.71,437.07 84.06,436.08 84.40,433.21 84.74,433.29 85.09,430.02 85.43,423.85 85.77,421.57 86.11,419.54 86.46,422.30 86.80,426.49 87.14,421.87 87.49,421.54 87.83,421.22 88.17,416.28 88.51,414.81 88.86,418.80 89.20,418.52 89.54,420.75 89.89,415.76 90.23,410.80 90.57,417.27 90.91,416.33 91.26,410.71 91.60,415.19 91.94,415.72 92.29,415.18 92.63,411.45 92.97,404.25 93.31,402.89 93.66,398.01 94.00,396.28 94.34,404.16 94.69,408.75 95.03,419.22 95.37,419.98 95.71,419.98 96.06,419.98 96.40,420.05 96.74,420.36 97.09,419.47 97.43,417.66 97.77,418.51 98.11,419.01 98.46,415.70 98.80,414.35 99.14,417.27 99.49,416.40 99.83,420.80 100.17,420.35 100.51,419.27 100.86,422.30 101.20,422.30 101.54,422.30 101.89,422.30 102.23,422.37 102.57,422.34 102.91,426.20 103.26,426.20 103.60,426.20 103.94,426.20 104.29,426.20 104.63,426.20 104.97,426.20 105.31,426.20 105.66,426.20 106.00,426.20 106.34,426.20 106.69,426.20 107.03,426.20 107.37,426.20 107.71,426.20 108.06,426.20 108.40,426.20 108.74,426.28 109.09,426.58 109.43,429.00 109.77,429.06 110.11,429.23 110.46,430.23 110.80,430.23 111.14,430.23 111.49,430.23 111.83,430.23 112.17,430.23 112.51,430.23 112.86,430.23 113.20,430.23 113.54,430.23 113.89,430.23 114.23,430.23 114.57,430.23 114.91,430.23 115.26,430.31 115.60,429.41 115.94,429.68 116.29,428.05 116.63,427.67 116.97,426.51 117.31,426.80 117.66,426.52 118.00,429.12 118.34,429.03 118.69,429.06 119.03,428.75 119.37,430.81 119.71,430.81 120.06,430.81 120.40,430.81 120.74,430.81 121.09,430.81 121.43,430.81 121.77,430.81 122.11,430.88 122.46,431.62 122.80,431.76 123.14,431.26 123.49,431.14 123.83,431.02 124.17,431.37 124.51,431.43 124.86,431.49 125.20,429.94 125.54,431.79 125.89,431.64 126.23,434.55 126.57,434.13 126.91,435.05 127.26,434.41 127.60,434.67 127.94,431.22 128.29,428.04 128.63,427.06 128.97,426.72 129.31,439.24 129.66,439.31 130.00,440.00 130.34,442.76 130.69,442.76 131.03,442.76 131.37,442.76 131.71,442.76 132.06,442.76 132.40,442.76 132.74,442.76 133.09,442.76 133.43,442.76 133.77,442.76 134.11,442.76 134.46,442.83 134.80,444.32 135.14,444.25 135.49,443.58 135.83,443.65 136.17,446.27 136.51,446.27 136.86,446.27 137.20,446.27 137.54,446.27 137.89,446.27 138.23,446.27 138.57,446.27 138.91,446.27 139.26,446.27 139.60,446.27 139.94,446.27 140.29,446.27 140.63,446.42 140.97,447.59 141.31,446.33 141.66,446.45 142.00,447.59 142.34,448.00 142.69,449.86 143.03,449.19 143.37,448.95 143.71,449.20 144.06,443.33 144.40,445.66 144.74,441.57 145.09,445.21 145.43,445.28 145.77,438.24 146.11,438.24 146.46,435.17 146.80,430.41 147.14,424.42 147.49,423.16 147.83,426.36 148.17,427.65 148.51,421.13 148.86,422.06 149.20,416.89 149.54,416.64 149.89,416.62 150.23,421.05 150.57,417.66 150.91,420.11 151.26,418.35 151.60,417.74 151.94,417.03 152.29,412.92 152.63,415.99 152.97,416.33 153.31,403.68 153.66,401.03 154.00,412.43 154.34,413.36 154.69,419.82 155.03,421.59 155.37,421.59 155.71,421.59 156.06,421.66 156.40,422.06 156.74,421.89 157.09,422.75 157.43,422.96 157.77,423.37 158.11,420.57 158.46,420.13 158.80,422.15 159.14,424.63 159.49,424.84 159.83,425.55 160.17,426.04 160.51,425.49 160.86,428.91 161.20,428.98 161.54,424.04 161.89,421.89 162.23,421.55 162.57,422.69 162.91,411.38 163.26,411.96 163.60,426.56 163.94,423.60 164.29,415.85 164.63,420.93 164.97,420.32 165.31,420.28 165.66,430.88 166.00,430.88 166.34,430.88 166.69,430.88 167.03,430.88 167.37,430.88 167.71,430.88 168.06,430.88 168.40,430.88 168.74,430.88 169.09,430.88 169.43,430.88 169.77,430.88 170.11,430.88 170.46,430.96 170.80,432.77 171.14,431.24 171.49,431.80 171.83,433.55 172.17,433.88 172.51,432.08 172.86,428.57 173.20,429.83 173.54,429.52 173.89,430.81 174.23,430.94 174.57,438.94 174.91,438.44 175.26,439.43 175.60,438.24 175.94,438.60 176.29,438.59 176.63,441.90 176.97,441.90 177.31,441.90 177.66,441.90 178.00,441.90 178.34,441.90 178.69,441.90 179.03,441.90 179.37,441.90 179.71,441.90 180.06,441.90 180.40,441.90 180.74,441.90 181.09,441.97 181.43,442.95 181.77,443.20 182.11,441.26 182.46,440.93 182.80,440.25 183.14,440.96 183.49,441.48 183.83,432.39 184.17,427.68 184.51,427.99 184.86,428.53 185.20,423.65 185.54,424.16 185.89,421.80 186.23,423.89 186.57,423.10 186.91,427.36 187.26,424.40 187.60,426.55 187.94,433.87 188.29,433.87 188.63,433.87 188.97,433.87 189.31,433.87 189.66,433.87 190.00,433.87 190.34,433.94 190.69,434.56 191.03,434.63 191.37,433.91 191.71,431.98 192.06,432.34 192.40,433.44 192.74,433.35 193.09,433.56 193.43,429.98 193.77,430.69 194.11,429.18 194.46,427.80 194.80,428.09 195.14,427.84 195.49,427.44 195.83,428.73 196.17,429.92 196.51,430.85 196.86,431.23 197.20,429.21 197.54,428.30 197.89,427.47 198.23,426.93 198.57,418.60 198.91,419.34 199.26,418.56 199.60,417.14 199.94,415.41 200.29,414.96 200.63,416.24 200.97,415.93 201.31,415.26 201.66,413.85 202.00,418.76 202.34,419.68 202.69,422.71 203.03,422.71 203.37,422.71 203.71,422.71 204.06,422.78 204.40,422.42 204.74,424.09 205.09,424.19 205.43,427.44 205.77,428.60 206.11,425.83 206.46,426.03 206.80,426.13 207.14,424.16 207.49,424.40 207.83,425.15 208.17,426.04 208.51,427.05 208.86,425.34 209.20,425.37 209.54,426.53 209.89,427.33 210.23,426.02 210.57,426.56 210.91,425.79 211.26,425.81 211.60,426.92 211.94,426.07 212.29,428.10 212.63,427.19 212.97,429.15 213.31,429.15 213.66,429.15 214.00,429.22 214.34,430.20 214.69,433.01 215.03,433.01 215.37,433.01 215.71,433.01 216.06,433.01 216.40,433.01 216.74,433.01 217.09,433.01 217.43,433.01 217.77,433.01 218.11,433.01 218.46,433.08 218.80,432.37 219.14,431.95 219.49,431.81 219.83,432.36 220.17,437.10 220.51,436.59 220.86,438.07 221.20,438.01 221.54,438.29 221.89,437.96 222.23,440.58 222.57,440.58 222.91,440.58 223.26,440.58 223.60,440.58 223.94,440.58 224.29,440.58 224.63,440.58 224.97,440.66 225.31,441.11 225.66,440.81 226.00,441.72 226.34,442.47 226.69,445.44 227.03,444.89 227.37,444.85 227.71,445.43 228.06,445.47 228.40,444.89 228.74,445.36 229.09,447.62 229.43,447.62 229.77,447.62 230.11,447.62 230.46,447.62 230.80,447.62 231.14,447.62 231.49,447.62 231.83,447.62 232.17,447.62 232.51,447.62 232.86,447.62 233.20,447.77 233.54,448.45 233.89,450.00 234.23,448.88 234.57,445.22 234.91,446.93 235.26,447.44 235.60,449.83 235.94,449.46 236.29,446.81 236.63,445.63 236.97,442.16 237.31,440.01 237.66,434.18 238.00,432.82 238.34,413.79 238.69,416.27 239.03,412.55 239.37,410.65 239.71,415.33 240.06,413.48 240.40,412.41 240.74,413.29 241.09,413.97 241.43,409.52 241.77,413.42 242.11,412.97 242.46,408.56 242.80,409.01 243.14,407.66 243.49,410.12 243.83,412.44 244.17,411.66 244.51,418.09 244.86,418.09 245.20,418.16 245.54,419.41 245.89,419.41 246.23,419.47 246.57,419.09 246.91,419.09 247.26,416.89 247.60,412.64 247.94,409.24 248.29,408.11 248.63,411.53 248.97,417.45 249.31,423.67 249.66,423.77 250.00,421.24 250.34,421.64 250.69,421.05 251.03,419.64 251.37,421.31 251.71,423.61 252.06,424.38 252.40,424.32 252.74,425.10 253.09,424.67 253.43,427.93 253.77,427.93 254.11,427.93 254.46,427.93 254.80,427.93 255.14,427.93 255.49,427.93 255.83,427.93 256.17,427.93 256.51,427.93 256.86,427.93 257.20,427.93 257.54,427.93 257.89,428.01 258.23,429.11 258.57,429.00 258.91,430.97 259.26,431.59 259.60,431.59 259.94,431.59 260.29,431.59 260.63,431.59 260.97,431.59 261.31,431.59 261.66,431.59 262.00,431.59 262.34,431.59 262.69,431.59 263.03,431.66 263.37,431.11 263.71,428.10 264.06,428.45 264.40,430.14 264.74,430.33 265.09,431.73 265.43,430.31 265.77,432.69 266.11,433.05 266.46,433.46 266.80,433.74 267.14,433.81 267.49,432.79 267.83,435.69 268.17,435.76 268.51,435.27 268.86,435.08 269.20,434.11 269.54,430.07 269.89,426.09 270.23,424.50 270.57,418.67 270.91,418.98 271.26,419.67 271.60,418.69 271.94,417.39 272.29,416.89 272.63,416.33 272.97,418.67 273.31,415.99 273.66,410.94 274.00,411.06 274.34,415.72 274.69,413.97 275.03,413.29 275.37,410.49 275.71,412.92 276.06,411.26 276.40,411.59 276.74,406.14 277.09,405.79 277.43,408.60 277.77,410.43 278.11,404.22 278.46,407.60 278.80,417.32 279.14,417.32 279.49,417.32 279.83,417.32 280.17,417.32 280.51,417.32 280.86,417.32 281.20,417.32 281.54,417.32 281.89,417.32 282.23,417.32 282.57,417.32 282.91,417.32 283.26,417.32 283.60,417.32 283.94,417.32 284.29,417.32 284.63,417.32 284.97,417.32 285.31,417.32 285.66,417.32 286.00,417.32 286.34,417.32 286.69,417.32 287.03,417.32 287.37,417.32 287.71,417.47 288.06,412.78 288.40,415.23 288.74,413.75 289.09,420.68 289.43,424.89 289.77,424.33 290.11,428.38 290.46,425.74 290.80,425.08 291.14,425.53 291.49,425.99 291.83,422.43 292.17,422.36 292.51,423.17 292.86,423.08 293.20,420.48 293.54,417.14 293.89,414.35 294.23,419.76 294.57,418.16 294.91,418.10 295.26,412.44 295.60,412.20 295.94,404.97 296.29,397.98 296.63,391.16 296.97,392.67 297.31,380.04 297.66,379.99 298.00,375.53 298.34,349.02 298.69,353.61 299.03,356.02 299.37,369.18 299.71,373.94 300.06,369.54 300.40,357.52 300.74,358.47 301.09,360.31 301.43,369.52 301.77,360.44 302.11,358.73 302.46,356.53 302.80,361.02 303.14,362.50 303.49,353.52 303.83,356.99 304.17,352.76 304.51,339.73 304.86,341.38 305.20,339.87 305.54,338.01 305.89,341.14 306.23,345.66 306.57,335.35 306.91,346.99 307.26,355.21 307.60,355.21 307.94,355.21 308.29,355.21 308.63,355.21 308.97,355.21 309.31,355.21 309.66,355.28 310.00,354.91 310.34,354.87 310.69,355.51 311.03,358.25 311.37,355.94 311.71,356.98 312.06,355.62 312.40,354.71 312.74,356.79 313.09,355.63 313.43,358.02 313.77,357.94 314.11,360.37 314.46,360.37 314.80,360.37 315.14,360.37 315.49,360.37 315.83,360.37 316.17,360.37 316.51,360.37 316.86,360.37 317.20,360.37 317.54,360.37 317.89,360.37 318.23,360.37 318.57,360.37 318.91,360.44 319.26,360.63 319.60,361.31 319.94,362.25 320.29,362.51 320.63,361.07 320.97,364.39 321.31,364.12 321.66,362.56 322.00,364.38 322.34,363.15 322.69,362.98 323.03,362.37 323.37,365.08 323.71,365.70 324.06,365.70 324.40,365.70 324.74,365.77 325.09,365.37 325.43,364.79 325.77,364.44 326.11,362.31 326.46,365.12 326.80,364.41 327.14,363.87 327.49,372.87 327.83,373.11 328.17,373.11 328.51,373.11 328.86,373.18 329.20,372.61 329.54,371.74 329.89,371.24 330.23,369.58 330.57,373.09 330.91,367.69 331.26,370.10 331.60,375.92 331.94,376.44 332.29,378.96 332.63,378.96 332.97,378.96 333.31,378.96 333.66,378.96 334.00,378.96 334.34,378.96 334.69,378.96 335.03,378.96 335.37,379.03 335.71,379.41 336.06,378.62 336.40,380.11 336.74,383.06 337.09,381.83 337.43,382.80 337.77,382.49 338.11,383.71 338.46,383.22 338.80,384.85 339.14,384.85 339.49,384.85 339.83,384.85 340.17,384.85 340.51,384.85 340.86,384.85 341.20,384.85 341.54,384.85 341.89,384.93 342.23,385.64 342.57,385.25 342.91,388.60 343.26,388.72 343.60,388.00 343.94,387.19 344.29,388.25 344.63,388.59 344.97,388.17 345.31,387.29 345.66,386.94 346.00,386.45 346.34,387.91 346.69,388.22 347.03,388.42 347.37,390.22 347.71,390.29 348.06,390.24 348.40,390.50 348.74,388.85 349.09,389.07 349.43,390.38 349.77,393.19 350.11,393.85 350.46,398.50 350.80,398.50 351.14,398.50 351.49,398.50 351.83,398.50 352.17,398.50 352.51,398.50 352.86,398.50 353.20,398.50 353.54,398.50 353.89,398.50 354.23,398.50 354.57,398.50 354.91,398.50 355.26,398.50 355.60,398.50 355.94,398.50 356.29,398.50 356.63,398.50 356.97,398.50 357.31,398.57 357.66,398.35 358.00,396.96 358.34,397.65 358.69,398.34 359.03,396.51 359.37,397.20 359.71,397.91 360.06,396.28 360.40,397.14 360.74,399.16 361.09,401.09 361.43,401.09 361.77,401.09 362.11,401.09 362.46,401.09 362.80,401.09 363.14,401.09 363.49,401.09 363.83,401.09 364.17,401.16 364.51,400.77 364.86,399.33 365.20,398.64 365.54,404.86 365.89,406.61 366.23,412.12 366.57,413.31 366.91,413.38 367.26,412.65 367.60,413.76 367.94,413.28 368.29,412.20 368.63,411.44 368.97,412.91 369.31,412.34 369.66,405.66 370.00,404.87 370.34,404.81 370.69,407.26 371.03,406.00 371.37,401.83 371.71,401.48 372.06,402.95 372.40,401.14 372.74,400.99 373.09,402.07 373.43,401.23 373.77,397.81 374.11,398.98 374.46,397.93 374.80,393.90 375.14,389.85 375.49,391.44 375.83,392.66 376.17,390.87 376.51,390.83 376.86,389.92 377.20,391.27 377.54,392.78 377.89,393.46 378.23,397.89 378.57,397.89 378.91,397.89 379.26,397.89 379.60,397.96 379.94,398.99 380.29,397.84 380.63,397.00 380.97,397.12 381.31,396.07 381.66,395.52 382.00,394.06 382.34,389.70 382.69,394.94 383.03,394.46 383.37,392.55 383.71,389.24 384.06,392.90 384.40,396.54 384.74,401.06 385.09,401.06 385.43,401.06 385.77,401.06 386.11,401.06 386.46,401.06 386.80,401.06 387.14,401.13 387.49,401.39 387.83,400.31 388.17,402.20 388.51,401.35 388.86,402.49 389.20,402.05 389.54,401.49 389.89,400.66 390.23,401.18 390.57,400.84 390.91,401.10 391.26,400.87 391.60,399.35 391.94,397.34 392.29,399.87 392.63,401.75 392.97,401.28 393.31,407.14 393.66,407.15 394.00,409.50 394.34,411.27 394.69,411.35 395.03,410.33 395.37,410.89 395.71,410.81 396.06,410.11 396.40,412.80 396.74,413.79 397.09,414.19 397.43,414.97 397.77,414.97 398.11,414.97 398.46,414.97 398.80,414.97 399.14,415.05 399.49,415.41 399.83,415.20 400.17,416.49 400.51,415.77 400.86,415.22 401.20,414.78 401.54,414.92 401.89,415.37 402.23,418.26 402.57,418.34 402.91,410.57 403.26,404.60 403.60,404.12 403.94,405.60 404.29,402.89 404.63,408.61 404.97,407.38 405.31,405.81 405.66,410.61 406.00,417.08 406.34,417.08 406.69,417.08 407.03,417.08 407.37,417.08 407.71,417.08 408.06,417.23 408.40,414.56 408.74,414.67 409.09,414.05 409.43,412.09 409.77,411.14 410.11,413.49 410.46,414.96 410.80,415.62 411.14,418.38 411.49,426.60 411.83,426.60 412.17,426.60 412.51,426.60 412.86,426.60 413.20,426.60 413.54,426.60 413.89,426.74 414.23,426.88 414.57,427.85 414.91,426.33 415.26,427.17 415.60,423.69 415.94,423.51 416.29,415.78 416.63,419.58 416.97,423.94 417.31,429.92 417.66,430.92 418.00,430.58 418.34,432.97 418.69,436.90 419.03,436.90 419.37,436.98 419.71,436.92 420.06,437.36 420.40,437.92 420.74,438.74 421.09,437.12 421.43,437.45 421.77,437.73 422.11,437.23 422.46,436.72 422.80,430.92 423.14,432.49 423.49,433.87 423.83,432.99 424.17,428.09 424.51,428.73 424.86,430.10 425.20,431.21 425.54,430.04 425.89,434.49 426.23,436.68 426.57,436.68 426.91,436.68 427.26,436.68 427.60,436.83 427.94,436.72 428.29,438.13 428.63,435.32 428.97,435.71 429.31,432.31 429.66,432.40 430.00,432.68 430.34,433.88 430.69,432.89 431.03,438.10 431.37,438.60 431.71,436.90 432.06,428.18 432.40,423.36 432.74,421.74 433.09,425.57 433.43,431.31 433.77,425.04 434.11,422.43 434.46,424.63 434.80,420.36 435.14,423.98 435.49,420.91 435.83,423.29 436.17,420.66 436.51,410.61 436.86,411.02 437.20,411.38 437.54,404.38 437.89,402.65 438.23,397.80 438.57,394.48 438.91,397.63 439.26,389.42 439.60,390.99 439.94,401.28 440.29,399.10 440.63,403.52 440.97,400.01 441.31,404.98 441.66,412.00 442.00,412.00 442.34,412.00 442.69,412.07 443.03,412.83 443.37,414.62 443.71,412.41 444.06,410.85 444.40,411.49 444.74,410.90 445.09,408.60 445.43,408.78 445.77,409.61 446.11,407.72 446.46,411.83 446.80,414.91 447.14,416.92 447.49,417.83 447.83,418.34 448.17,421.05 448.51,421.05 448.86,421.05 449.20,421.05 449.54,421.05 449.89,421.05 450.23,421.05 450.57,421.05 450.91,421.05 451.26,421.05 451.60,421.05 451.94,421.05 452.29,421.05 452.63,421.05 452.97,421.05 453.31,421.05 453.66,421.05 454.00,421.05 454.34,421.05 454.69,421.05 455.03,421.05 455.37,421.05 455.71,421.05 456.06,421.05 456.40,421.05 456.74,421.20 457.09,425.87 457.43,424.87 457.77,421.79 458.11,422.06 458.46,422.73 458.80,421.15 459.14,421.29 459.49,424.10 459.83,426.41 460.17,425.00 460.51,426.06 460.86,427.78 461.20,427.78 461.54,427.93 461.89,428.30 462.23,426.56 462.57,427.16 462.91,430.29 463.26,429.49 463.60,430.24 463.94,431.94 464.29,431.95 464.63,432.96 464.97,432.96 465.31,432.96 465.66,433.10 466.00,432.10 466.34,429.90 466.69,425.71 467.03,417.52 467.37,420.24 467.71,414.92 468.06,416.41 468.40,416.21 468.74,420.33 469.09,418.21 469.43,415.12 469.77,406.65 470.11,405.88 470.46,406.51 470.80,412.80 471.14,412.57 471.49,410.18 471.83,408.93 472.17,405.02 472.51,395.97 472.86,401.24 473.20,400.32 473.54,405.47 473.89,406.40 474.23,402.99 474.57,401.16 474.91,409.56 475.26,405.85 475.60,414.05 475.94,414.12 476.29,414.13 476.63,413.77 476.97,414.74 477.31,415.56 477.66,417.99 478.00,417.99 478.34,417.99 478.69,417.99 479.03,417.99 479.37,417.99 479.71,417.99 480.06,417.99 480.40,417.99 480.74,417.99 481.09,417.99 481.43,417.99 481.77,417.99 482.11,417.99 482.46,417.99 482.80,417.99 483.14,417.99 483.49,417.99 483.83,417.99 484.17,417.99 484.51,417.99 484.86,417.99 485.20,417.99 485.54,417.99 485.89,417.99 486.23,417.99 486.57,417.99 486.91,418.07 487.26,417.25 487.60,418.43 487.94,421.08 488.29,421.05 488.63,418.90 488.97,420.04 489.31,419.95 489.66,420.88 490.00,420.03 490.34,419.57 490.69,419.17 491.03,418.57 491.37,423.48 491.71,420.73 492.06,420.59 492.40,420.17 492.74,419.62 493.09,420.56 493.43,423.31 493.77,425.15 494.11,425.15 494.46,425.15 494.80,425.22 495.14,426.08 495.49,424.95 495.83,423.66 496.17,423.93 496.51,425.85 496.86,426.51 497.20,426.41 497.54,426.51 497.89,425.91 498.23,428.23 498.57,427.41 498.91,426.13 499.26,420.33 499.60,420.23 499.94,420.32 500.29,421.00 500.63,421.00 500.97,420.42 501.31,421.28 501.66,425.73 502.00,424.28 502.34,423.05 502.69,423.49 503.03,424.65 503.37,423.32 503.71,421.32 504.06,420.76 504.40,422.59 504.74,422.41 505.09,422.70 505.43,423.46 505.77,424.17 506.11,422.22 506.46,423.81 506.80,424.93 507.14,416.07 507.49,415.29 507.83,413.76 508.17,411.01 508.51,410.86 508.86,411.65 509.20,410.09 509.54,407.33 509.89,404.64 510.23,403.19 510.57,405.04 510.91,400.52 511.26,405.07 511.60,406.22 511.94,406.82 512.29,405.77 512.63,406.91 512.97,406.32 513.31,400.79 513.66,402.71 514.00,400.35 514.34,400.24 514.69,394.81 515.03,394.89 515.37,393.03 515.71,396.54 516.06,393.66 516.40,393.67 516.74,396.54 517.09,393.02 517.43,393.01 517.77,392.40 518.11,393.47 518.46,390.33 518.80,386.95 519.14,389.16 519.49,386.75 519.83,388.10 520.17,389.23 520.51,388.74 520.86,388.51 521.20,381.32 521.54,381.41 521.89,373.67 522.23,373.41 522.57,377.48 522.91,379.98 523.26,382.31 523.60,382.01 523.94,377.93 524.29,386.38 524.63,386.38 524.97,386.38 525.31,386.38 525.66,386.38 526.00,386.38 526.34,386.38 526.69,386.38 527.03,386.38 527.37,386.38 527.71,386.38 528.06,386.38 528.40,386.38 528.74,386.38 529.09,386.38 529.43,386.38 529.77,386.38 530.11,386.38 530.46,386.38 530.80,386.38 531.14,386.38 531.49,386.38 531.83,386.38 532.17,386.38 532.51,386.53 532.86,388.86 533.20,388.16 533.54,392.76 533.89,392.76 534.23,392.76 534.57,392.76 534.91,392.76 535.26,392.76 535.60,392.76 535.94,392.83 536.29,393.78 536.63,392.56 536.97,392.87 537.31,393.18 537.66,392.71 538.00,392.61 538.34,393.22 538.69,394.05 539.03,392.88 539.37,393.48 539.71,392.80 540.06,394.44 540.40,397.04 540.74,401.04 541.09,401.04 541.43,401.04 541.77,401.04 542.11,401.04 542.46,401.04 542.80,401.04 543.14,401.19 543.49,398.72 543.83,400.53 544.17,405.15 544.51,406.29 544.86,410.91 545.20,411.60 545.54,410.98 545.89,412.14 546.23,412.51 546.57,411.28 546.91,411.16 547.26,409.11 547.60,410.87 547.94,411.67 548.29,411.05 548.63,414.27 548.97,414.41 549.31,414.81 549.66,414.62 550.00,412.43 550.34,414.51 550.69,415.18 551.03,413.81 551.37,415.63 551.71,417.75 552.06,413.60 552.40,411.68 552.74,415.12 553.09,406.17 553.43,408.33 553.77,401.23 554.11,402.36 554.46,397.70 554.80,394.98 555.14,393.99 555.49,392.80 555.83,387.86 556.17,392.68 556.51,390.62 556.86,392.60 557.20,388.35 557.54,392.01 557.89,391.21 558.23,389.21 558.57,390.45 558.91,388.07 559.26,388.95 559.60,394.61 559.94,395.26 560.29,392.63 560.63,393.98 560.97,394.86 561.31,382.99 561.66,382.98 562.00,378.50 562.34,374.07 562.69,373.29 563.03,375.02 563.37,378.15 563.71,376.61 564.06,381.13 564.40,379.23 564.74,377.17 565.09,380.25 565.43,378.89 565.77,381.38 566.11,378.03 566.46,373.24 566.80,370.51 567.14,362.52 567.49,364.09 567.83,372.08 568.17,369.78 568.51,369.98 568.86,369.19 569.20,374.05 569.54,377.58 569.89,377.73 570.23,375.99 570.57,378.01 570.91,377.35 571.26,376.93 571.60,383.79 571.94,381.17 572.29,385.38 572.63,388.45 572.97,384.96 573.31,386.58 573.66,386.92 574.00,387.73 574.34,390.39 574.69,390.39 575.03,390.39 575.37,390.54 575.71,392.39 576.06,393.83 576.40,396.88 576.74,396.88 577.09,396.88 577.43,396.88 577.77,396.88 578.11,396.88 578.46,396.88 578.80,396.88 579.14,396.88 579.49,396.88 579.83,396.88 580.17,396.88 580.51,396.88 580.86,397.03 581.20,396.25 581.54,396.70 581.89,396.49 582.23,395.80 582.57,396.71 582.91,397.16 583.26,399.49 583.60,397.79 583.94,398.80 584.29,397.00 584.63,395.37 584.97,397.63 585.31,397.98 585.66,399.05 586.00,398.06 586.34,398.82 586.69,399.43 587.03,403.31 587.37,403.31 587.71,403.31 588.06,403.31 588.40,403.31 588.74,403.31 589.09,403.31 589.43,403.31 589.77,403.31 590.11,403.31 590.46,403.31 590.80,403.31 591.14,403.31 591.49,403.31 591.83,403.46 592.17,396.21 592.51,395.63 592.86,393.22 593.20,390.34 593.54,387.77 593.89,394.42 594.23,395.08 594.57,391.55 594.91,387.00 595.26,387.37 595.60,388.19 595.94,384.43 596.29,377.44 596.63,362.06 596.97,356.41 597.31,345.57 597.66,343.39 598.00,351.16 598.34,350.91 598.69,350.48 599.03,364.48 599.37,346.17 599.71,345.94 600.06,347.63 600.40,356.70 600.74,358.31 601.09,357.11 601.43,346.19 601.77,353.77 602.11,347.75 602.46,348.43 602.80,352.69 603.14,341.72 603.49,331.36 603.83,342.41 604.17,342.56 604.51,346.35 604.86,342.33 605.20,348.22 605.54,345.86 605.89,341.53 606.23,339.36 606.57,349.22 606.91,331.75 607.26,334.11 607.60,321.67 607.94,316.01 608.29,301.59 608.63,301.74 608.97,303.79 609.31,295.98 609.66,301.51 610.00,293.55 610.34,289.67 610.69,295.47 611.03,304.48 611.37,298.27 611.71,300.96 612.06,303.28 612.40,288.21 612.74,287.55 613.09,279.39 613.43,280.22 613.77,287.81 614.11,291.15 614.46,286.86 614.80,276.12 615.14,274.04 615.49,292.10 615.83,298.78 616.17,302.91 616.51,302.98 616.86,304.46 617.20,304.80 617.54,303.38 617.89,304.71 618.23,305.11 618.57,304.02 618.91,304.73 619.26,307.13 619.60,307.89 619.94,309.14 620.29,309.14 620.63,309.14 620.97,309.14 621.31,309.21 621.66,310.15 622.00,312.90 622.34,315.30 622.69,315.30 623.03,315.30 623.37,315.30 623.71,315.30 624.06,315.30 624.40,315.30 624.74,315.30 625.09,315.30 625.43,315.30 625.77,315.30 626.11,315.30 626.46,315.30 626.80,315.30 627.14,315.30 627.49,315.30 627.83,315.30 628.17,315.30 628.51,315.30 628.86,315.30 629.20,315.30 629.54,315.30 629.89,315.30 630.23,315.30 630.57,315.30 630.91,315.37 631.26,314.07 631.60,314.55 631.94,314.72 632.29,316.58 632.63,318.64 632.97,317.66 633.31,318.59 633.66,318.99 634.00,318.67 634.34,316.85 634.69,316.22 635.03,314.35 635.37,316.05 635.71,314.08 636.06,314.47 636.40,316.64 636.74,316.40 637.09,320.37 637.43,320.37 637.77,320.37 638.11,320.37 638.46,320.37 638.80,320.37 639.14,320.37 639.49,320.37 639.83,320.37 640.17,320.37 640.51,320.37 640.86,320.37 641.20,320.37 641.54,320.37 641.89,320.37 642.23,320.51 642.57,317.54 642.91,317.76 643.26,315.45 643.60,314.30 643.94,308.09 644.29,295.90 644.63,288.31 644.97,284.25 645.31,293.25 645.66,295.59 646.00,290.30 646.34,297.56 646.69,298.68 647.03,293.35 647.37,295.36 647.71,292.97 648.06,291.01 648.40,292.39 648.74,292.07 649.09,289.80 649.43,285.45 649.77,279.59 650.11,287.13 650.46,282.16 650.80,283.89 651.14,275.93 651.49,282.57 651.83,295.20 652.17,293.27 652.51,287.86 652.86,285.96 653.20,284.99 653.54,287.21 653.89,288.28 654.23,282.78 654.57,278.48 654.91,281.03 655.26,269.19 655.60,263.84 655.94,259.57 656.29,246.49 656.63,238.54 656.97,251.02 657.31,248.15 657.66,246.06 658.00,278.11 658.34,275.34 658.69,248.68 659.03,250.77 659.37,231.52 659.71,230.12 660.06,228.02 660.40,243.96 660.74,250.01 661.09,273.35 661.43,286.74 661.77,265.72 662.11,262.91 662.46,255.21 662.80,256.83 663.14,262.49 663.49,270.04 663.83,282.15 664.17,283.77 664.51,283.01 664.86,284.23 665.20,284.23 665.54,279.20 665.89,278.44 666.23,278.30 666.57,284.29 666.91,283.07 667.26,291.04 667.60,291.04 667.94,291.04 668.29,291.04 668.63,291.04 668.97,291.52 669.31,292.85 669.66,292.57 670.00,294.31 670.34,293.63 670.69,295.70 671.03,294.65 671.37,293.94 671.71,293.97 672.06,294.11 672.40,294.34 672.74,293.65 673.09,295.34 673.43,295.37 673.77,296.19 674.11,295.38 674.46,295.87 674.80,293.47 675.14,292.90 675.49,292.68 675.83,292.96 676.17,292.31 676.51,290.93 676.86,285.62 677.20,282.04 677.54,277.80 677.89,275.44 678.23,280.33 678.57,279.17 678.91,280.53 679.26,280.10 679.60,278.53 679.94,277.19 680.29,271.91 680.63,267.05 680.97,269.72 681.31,274.42 681.66,273.62 682.00,277.00 682.34,273.16 682.69,275.47 683.03,269.13 683.37,274.35 683.71,276.14 684.06,277.45 684.40,276.44 684.74,276.00 685.09,277.26 685.43,275.00 685.77,273.61 686.11,269.41 686.46,275.13 686.80,271.52 687.14,271.07 687.49,269.65 687.83,264.60 688.17,269.59 688.51,268.80 688.86,268.60 689.20,262.82 689.54,260.17 689.89,251.43 690.23,253.90 690.57,254.22 690.91,249.15 691.26,245.65 691.60,243.14 691.94,249.54 692.29,244.16 692.63,235.91 692.97,214.13 693.31,186.55 693.66,188.07 694.00,181.59 694.34,151.15 694.69,148.83 695.03,146.15 695.37,158.37 695.71,143.78 696.06,144.26 696.40,114.91 696.74,97.89 697.09,70.00 697.43,85.09 697.77,77.06 698.11,155.45 698.46,147.63 698.80,126.22 699.14,137.77 699.49,126.15 699.83,124.05 700.17,135.04 700.51,128.93 700.86,134.78 701.20,135.83 701.54,136.84 701.89,126.57 702.23,131.51 702.57,125.75 702.91,118.49 703.26,118.63 703.60,126.52 703.94,136.07 704.29,132.82 704.63,133.17 704.97,134.80 705.31,131.34 705.66,132.80 706.00,134.18 706.34,129.94 706.69,130.02 707.03,129.49 707.37,130.86 707.71,133.51 708.06,157.29 708.40,157.29 708.74,157.58 709.09,158.80 709.43,157.90 709.77,160.30 710.11,161.79 710.46,158.98 710.80,160.55 711.14,160.49 711.49,162.40 711.83,158.21 712.17,160.65 712.51,160.74 712.86,164.71 713.20,164.71 713.54,164.71 713.89,164.71 714.23,164.71 714.57,164.71 714.91,164.71 715.26,164.71 715.60,164.71 715.94,164.71 716.29,164.71 716.63,164.71 716.97,164.71 717.31,164.71 717.66,164.71 718.00,164.71 718.34,164.71 718.69,164.71 719.03,164.71 719.37,165.09 719.71,164.16 720.06,169.83 720.40,169.35 720.74,169.12 721.09,169.18 721.43,167.72 721.77,167.30 722.11,168.40 722.46,168.97 722.80,169.94 723.14,169.60 723.49,172.48 723.83,172.48 724.17,172.48 724.51,172.48 724.86,172.91 725.20,172.72 725.54,178.57 725.89,178.97 726.23,178.80 726.57,180.25 726.91,180.25 727.26,180.25 727.60,180.25 727.94,180.25 728.29,180.25 728.63,180.25 728.97,180.25 729.31,180.69 729.66,177.55 730.00,178.84 730.34,177.69 730.69,186.35 731.03,183.08 731.37,180.89 731.71,177.20 732.06,177.58 732.40,173.91 732.74,176.04 733.09,168.71 733.43,165.13 733.77,171.64 734.11,173.73 734.46,195.80 734.80,195.80 735.14,195.80 735.49,195.80 735.83,195.80 736.17,195.80 736.51,195.80 736.86,195.80 737.20,195.80 737.54,195.80 737.89,195.80 738.23,195.80 738.57,195.80 738.91,195.80 739.26,195.80 739.60,195.80 739.94,196.13 740.29,203.38 740.63,203.38 740.97,203.38 741.31,203.38 741.66,203.38 742.00,203.38 742.34,203.38 742.69,203.38 743.03,203.38 743.37,203.38 743.71,203.38 744.06,203.45 744.40,203.29 744.74,204.30 745.09,207.76 745.43,207.27 745.77,207.28 746.11,202.61 746.46,197.74 746.80,196.52 747.14,198.35 747.49,194.73 747.83,193.34 748.17,193.19 748.51,190.38 748.86,197.58 749.20,200.08 749.54,199.23 749.89,199.11 750.23,200.89 750.57,199.85 750.91,202.81 751.26,201.99 751.60,202.58 751.94,200.88 752.29,198.42 752.63,198.63 752.97,201.20 753.31,201.20 753.66,198.12 754.00,193.29 754.34,196.16 754.69,200.46 755.03,199.90 755.37,201.92 755.71,201.90 756.06,204.72 756.40,206.44 756.74,207.93 757.09,206.18 757.43,207.51 757.77,204.30 758.11,202.91 758.46,204.79 758.80,202.67 759.14,195.53 759.49,202.05 759.83,205.71 760.17,202.24 760.51,202.92 760.86,202.41 761.20,205.77 761.54,208.74 761.89,192.29 762.23,199.71 762.57,197.58 762.91,182.17 763.26,176.43 763.60,176.79 763.94,173.37 764.29,184.94 764.63,181.16 764.97,173.92 765.31,159.59 765.66,158.81 766.00,163.24 766.34,160.89 766.69,161.73 767.03,159.68 767.37,152.79 767.71,156.57 768.06,155.09 768.40,152.45 768.74,150.25 769.09,153.67 769.43,148.47 769.77,166.10 770.11,162.46 770.46,161.56 770.80,164.22 771.14,162.52 771.49,160.28 771.83,161.11 772.17,161.79 772.51,163.86 772.86,171.88 773.20,166.04 773.54,163.47 773.89,169.25 774.23,167.00 774.57,167.59 774.91,166.96 775.26,169.35 775.60,168.86 775.94,162.35 776.29,166.43 776.63,167.83 776.97,173.09 777.31,174.26 777.66,175.66 778.00,175.66 778.34,175.66 778.69,175.66 779.03,175.66 779.37,175.66 779.71,175.73 780.06,175.56 780.40,177.93 780.74,178.41 781.09,177.22 781.43,180.31 781.77,180.70 782.11,179.87 782.46,180.50 782.80,178.36 783.14,180.69 783.49,186.29 783.83,188.04 784.17,187.66 784.51,188.85 784.86,187.72 785.20,187.40 785.54,185.01 785.89,177.13 786.23,175.78 786.57,181.19 786.91,177.30 787.26,187.11 787.60,188.44 787.94,186.29 788.29,184.51 788.63,181.27 788.97,178.67 789.31,185.95 789.66,188.71 790.00,188.38 790.34,184.93 790.69,191.16 791.03,192.21 791.37,191.67 791.71,191.73 792.06,192.26 792.40,190.48 792.74,191.21 793.09,197.35 793.43,200.19 793.77,199.06 794.11,201.95 794.46,201.21 794.80,199.71 795.14,201.20 795.49,204.55 795.83,201.43 796.17,201.00 796.51,203.33 796.86,205.92 797.20,203.62 797.54,202.45 797.89,205.22 798.23,203.19 798.57,190.90 798.91,202.98 799.26,207.48 799.60,210.57 799.94,208.63 800.29,209.37 800.63,207.67 800.97,211.72 801.31,210.70 801.66,210.66 802.00,216.90 802.34,222.27 802.69,226.08 803.03,226.45 803.37,226.48 803.71,221.21 804.06,222.73 804.40,219.60 804.74,214.74 805.09,221.41 805.43,220.95 805.77,221.77 806.11,225.91 806.46,222.81 806.80,230.04 807.14,232.45 807.49,232.45 807.83,232.53 808.17,231.68 808.51,230.68 808.86,227.28 809.20,224.44 809.54,223.45 809.89,225.24 810.23,230.08 810.57,224.01 810.91,227.91 811.26,232.46 811.60,246.06 811.94,246.78 812.29,246.78 812.63,246.78 812.97,247.38 813.31,245.99 813.66,245.56 814.00,242.75 814.34,241.74 814.69,245.55 815.03,243.08 815.37,245.04 815.71,244.03 816.06,237.58 816.40,241.16 816.74,243.48 817.09,236.81 817.43,242.58 817.77,252.62 818.11,251.42 818.46,250.12 818.80,253.03 819.14,257.04 819.49,257.71 819.83,256.66 820.17,260.43 820.51,262.89 820.86,259.87 821.20,256.46 821.54,265.60 821.89,261.96 822.23,265.69 822.57,275.87 822.91,275.87 823.26,275.87 823.60,275.87 823.94,275.87 824.29,275.87 824.63,275.87 824.97,275.87 825.31,276.54 825.66,271.50 826.00,267.60 826.34,270.90 826.69,273.28 827.03,275.18 827.37,283.01 827.71,294.51 828.06,294.51 828.40,294.51 828.74,294.51 829.09,294.51 829.43,294.51 829.77,294.51 830.11,294.51 830.46,294.51 830.80,294.51 831.14,294.51 831.49,294.59 831.83,292.90 832.17,295.37 832.51,293.27 832.86,287.03 833.20,287.30 833.54,285.62 833.89,287.72 834.23,282.26 834.57,288.63 834.91,292.70 835.26,284.59 835.60,263.54 835.94,269.59 836.29,268.35 836.63,253.21 836.97,246.34 837.31,223.69 837.66,246.45 838.00,243.87 838.34,247.51 838.69,266.18 839.03,277.67 839.37,277.67 839.71,277.67 840.06,277.67 840.40,277.67 840.74,277.67 841.09,277.67 841.43,277.67 841.77,277.67 842.11,277.67 842.46,277.67 842.80,277.67 843.14,277.67 843.49,277.67 843.83,277.67 844.17,277.67 844.51,277.67 844.86,277.67 845.20,277.67 845.54,277.67 845.89,277.67 846.23,277.67 846.57,277.67 846.91,278.19 847.26,281.89 847.60,281.68 847.94,285.08 848.29,285.08 848.63,285.59 848.97,285.20 849.31,284.01 849.66,284.73 850.00,280.66 850.34,279.58 850.69,278.81 851.03,283.26 851.37,278.10 851.71,276.43 852.06,270.69 852.40,265.37 852.74,268.55 853.09,259.44 853.43,263.80 853.77,269.11 854.11,269.01 854.46,266.99 854.80,272.08 855.14,270.43 855.49,270.81 855.83,274.01 856.17,272.92 856.51,273.20 856.86,273.92 857.20,272.68 857.54,268.32 857.89,271.19 858.23,276.17 858.57,272.19 858.91,273.80 859.26,275.27 859.60,273.40 859.94,269.61 860.29,271.90 860.63,263.69 860.97,261.91 861.31,271.66 861.66,277.52 862.00,272.46 862.34,271.43 862.69,271.80 863.03,269.61 863.37,262.75 863.71,265.35 864.06,264.74 864.40,261.08 864.74,260.04 865.09,253.68 865.43,251.42 865.77,252.06 866.11,233.66 866.46,226.06 866.80,226.68 867.14,228.26 867.49,223.75 867.83,219.97 868.17,225.12 868.51,210.52 868.86,212.38 869.20,212.92 869.54,214.00 869.89,209.29 870.23,217.73 870.57,216.71 870.91,213.02 871.26,214.32 871.60,223.87 871.94,239.73 872.29,240.41 872.63,239.62 872.97,243.26 873.31,242.18 873.66,238.10 874.00,244.04 874.34,235.53 874.69,235.17 875.03,235.28 875.37,237.61 875.71,231.24 876.06,240.86 876.40,242.30 876.74,248.10 877.09,249.91 877.43,250.60 877.77,248.67 878.11,251.12 878.46,251.72 878.80,253.23 879.14,248.39 879.49,251.52 879.83,243.64 880.17,234.15 880.51,228.41 880.86,235.46 881.20,236.29 881.54,232.03 881.89,242.64 882.23,240.79 882.57,246.95 882.91,260.11 883.26,254.17 883.60,252.72 883.94,244.00 884.29,247.06 884.63,246.96 884.97,244.17 885.31,246.62 885.66,245.94 886.00,238.88 886.34,233.16 886.69,234.66 887.03,242.78 887.37,242.95 887.71,243.11 888.06,253.80 888.40,251.86 888.74,254.09 889.09,254.03 889.43,256.70 889.77,259.50 890.11,260.80 890.46,260.80 890.80,260.80 891.14,260.80 891.49,260.80 891.83,260.80 892.17,260.80 892.51,260.80 892.86,260.80 893.20,260.80 893.54,260.80 893.89,260.80 894.23,260.80 894.57,260.80 894.91,260.80 895.26,260.80 895.60,260.80 895.94,260.80 896.29,261.35 896.63,262.23 896.97,255.72 897.31,259.67 897.66,241.23 898.00,236.93 898.34,236.95 898.69,233.87 899.03,235.87 899.37,238.25 899.71,246.39 900.06,249.38 900.40,253.22 900.74,250.83 901.09,244.15 901.43,242.99 901.77,243.24 902.11,252.11 902.46,246.44 902.80,232.93 903.14,218.44 903.49,215.90 903.83,232.26 904.17,232.09 904.51,223.16 904.86,218.96 905.20,213.39 905.54,219.00 905.89,207.31 906.23,206.34 906.57,222.66 906.91,216.92 907.26,220.49 907.60,201.43 907.94,204.11 908.29,213.61 908.63,210.67 908.97,203.57 909.31,210.87 909.66,204.75 910.00,202.01" fill="none" stroke="#1c7ed6" stroke-width="2"/>
<line x1="70" x2="70" y1="70" y2="450" stroke="#444"/>
<line x1="70" x2="910" y1="450" y2="450" stroke="#444"/>
</svg>