<svg xmlns="http://www.w3.org/2000/svg" width="980" height="520" viewBox="0 0 980 520"><style>text{font-family:Arial,sans-serif;fill:#e9ecef}.title{font-size:20px;font-weight:700}.axis{font-size:12px;fill:#adb5bd}.cell{font-size:11px;fill:#fff}</style><rect width="100%" height="100%" fill="#0b0f14"/><text x="24" y="28" class="title">Monthly Returns</text>
<text x="70" y="35" class="axis">Return</text>
<rect x="70.00" y="342.26" width="8.91" height="15.75" fill="#c92a2a" opacity="0.82"/>
<rect x="80.91" y="268.01" width="8.91" height="74.25" fill="#2f9e44" opacity="0.82"/>
<rect x="91.82" y="342.26" width="8.91" height="24.97" fill="#c92a2a" opacity="0.82"/>
<rect x="102.73" y="342.26" width="8.91" height="16.18" fill="#c92a2a" opacity="0.82"/>
<rect x="113.64" y="342.26" width="8.91" height="2.30" fill="#c92a2a" opacity="0.82"/>
<rect x="124.55" y="342.26" width="8.91" height="47.95" fill="#c92a2a" opacity="0.82"/>
<rect x="135.45" y="342.26" width="8.91" height="14.09" fill="#c92a2a" opacity="0.82"/>
<rect x="146.36" y="272.60" width="8.91" height="69.66" fill="#2f9e44" opacity="0.82"/>
<rect x="157.27" y="342.26" width="8.91" height="7.91" fill="#c92a2a" opacity="0.82"/>
<rect x="168.18" y="342.26" width="8.91" height="44.20" fill="#c92a2a" opacity="0.82"/>
<rect x="179.09" y="310.06" width="8.91" height="32.20" fill="#2f9e44" opacity="0.82"/>
<rect x="190.00" y="314.42" width="8.91" height="27.85" fill="#2f9e44" opacity="0.82"/>
<rect x="200.91" y="342.26" width="8.91" height="24.38" fill="#c92a2a" opacity="0.82"/>
<rect x="211.82" y="342.26" width="8.91" height="30.41" fill="#c92a2a" opacity="0.82"/>
<rect x="222.73" y="342.26" width="8.91" height="28.23" fill="#c92a2a" opacity="0.82"/>
<rect x="233.64" y="239.05" width="8.91" height="103.22" fill="#2f9e44" opacity="0.82"/>
<rect x="244.55" y="342.26" width="8.91" height="38.89" fill="#c92a2a" opacity="0.82"/>
<rect x="255.45" y="342.26" width="8.91" height="16.46" fill="#c92a2a" opacity="0.82"/>
<rect x="266.36" y="268.56" width="8.91" height="73.71" fill="#2f9e44" opacity="0.82"/>
<rect x="277.27" y="342.26" width="8.91" height="27.46" fill="#c92a2a" opacity="0.82"/>
<rect x="288.18" y="65.56" width="8.91" height="276.70" fill="#2f9e44" opacity="0.82"/>
<rect x="299.09" y="342.26" width="8.91" height="20.69" fill="#c92a2a" opacity="0.82"/>
<rect x="310.00" y="342.26" width="8.91" height="21.39" fill="#c92a2a" opacity="0.82"/>
<rect x="320.91" y="342.26" width="8.91" height="53.22" fill="#c92a2a" opacity="0.82"/>
<rect x="331.82" y="342.26" width="8.91" height="23.65" fill="#c92a2a" opacity="0.82"/>
<rect x="342.73" y="342.26" width="8.91" height="21.53" fill="#c92a2a" opacity="0.82"/>
<rect x="353.64" y="342.26" width="8.91" height="33.23" fill="#c92a2a" opacity="0.82"/>
<rect x="364.55" y="342.26" width="8.91" height="10.38" fill="#c92a2a" opacity="0.82"/>
<rect x="375.45" y="342.26" width="8.91" height="49.05" fill="#c92a2a" opacity="0.82"/>
<rect x="386.36" y="280.37" width="8.91" height="61.89" fill="#2f9e44" opacity="0.82"/>
<rect x="397.27" y="342.26" width="8.91" height="12.72" fill="#c92a2a" opacity="0.82"/>
<rect x="408.18" y="342.26" width="8.91" height="55.84" fill="#c92a2a" opacity="0.82"/>
<rect x="419.09" y="342.26" width="8.91" height="8.47" fill="#c92a2a" opacity="0.82"/>
<rect x="430.00" y="342.26" width="8.91" height="38.18" fill="#c92a2a" opacity="0.82"/>
<rect x="440.91" y="342.26" width="8.91" height="41.35" fill="#c92a2a" opacity="0.82"/>
<rect x="451.82" y="341.38" width="8.91" height="0.89" fill="#2f9e44" opacity="0.82"/>
<rect x="462.73" y="243.22" width="8.91" height="99.04" fill="#2f9e44" opacity="0.82"/>
<rect x="473.64" y="342.26" width="8.91" height="36.33" fill="#c92a2a" opacity="0.82"/>
<rect x="484.55" y="342.26" width="8.91" height="47.76" fill="#c92a2a" opacity="0.82"/>
<rect x="495.45" y="282.22" width="8.91" height="60.05" fill="#2f9e44" opacity="0.82"/>
<rect x="506.36" y="342.26" width="8.91" height="28.73" fill="#c92a2a" opacity="0.82"/>
<rect x="517.27" y="186.69" width="8.91" height="155.58" fill="#2f9e44" opacity="0.82"/>
<rect x="528.18" y="342.26" width="8.91" height="58.82" fill="#c92a2a" opacity="0.82"/>
<rect x="539.09" y="342.26" width="8.91" height="26.31" fill="#c92a2a" opacity="0.82"/>
<rect x="550.00" y="342.26" width="8.91" height="26.77" fill="#c92a2a" opacity="0.82"/>
<rect x="560.91" y="195.05" width="8.91" height="147.21" fill="#2f9e44" opacity="0.82"/>
<rect x="571.82" y="342.26" width="8.91" height="77.45" fill="#c92a2a" opacity="0.82"/>
<rect x="582.73" y="342.26" width="8.91" height="25.80" fill="#c92a2a" opacity="0.82"/>
<rect x="593.64" y="-35.64" width="8.91" height="377.90" fill="#2f9e44" opacity="0.82"/>
<rect x="604.55" y="342.26" width="8.91" height="24.73" fill="#c92a2a" opacity="0.82"/>
<rect x="615.45" y="342.26" width="8.91" height="20.33" fill="#c92a2a" opacity="0.82"/>
<rect x="626.36" y="291.00" width="8.91" height="51.27" fill="#2f9e44" opacity="0.82"/>
<rect x="637.27" y="275.84" width="8.91" height="66.42" fill="#2f9e44" opacity="0.82"/>
<rect x="648.18" y="185.56" width="8.91" height="156.71" fill="#2f9e44" opacity="0.82"/>
<rect x="659.09" y="-37.74" width="8.91" height="380.00" fill="#2f9e44" opacity="0.82"/>
<rect x="670.00" y="342.26" width="8.91" height="29.80" fill="#c92a2a" opacity="0.82"/>
<rect x="680.91" y="342.26" width="8.91" height="31.18" fill="#c92a2a" opacity="0.82"/>
<rect x="691.82" y="342.26" width="8.91" height="31.15" fill="#c92a2a" opacity="0.82"/>
<rect x="702.73" y="342.26" width="8.91" height="62.41" fill="#c92a2a" opacity="0.82"/>
<rect x="713.64" y="342.26" width="8.91" height="30.40" fill="#c92a2a" opacity="0.82"/>
<rect x="724.55" y="325.15" width="8.91" height="17.12" fill="#2f9e44" opacity="0.82"/>
<rect x="735.45" y="342.26" width="8.91" height="22.21" fill="#c92a2a" opacity="0.82"/>
<rect x="746.36" y="210.50" width="8.91" height="131.76" fill="#2f9e44" opacity="0.82"/>
<rect x="757.27" y="342.26" width="8.91" height="47.11" fill="#c92a2a" opacity="0.82"/>
<rect x="768.18" y="342.26" width="8.91" height="30.25" fill="#c92a2a" opacity="0.82"/>
<rect x="779.09" y="342.26" width="8.91" height="51.53" fill="#c92a2a" opacity="0.82"/>
<rect x="790.00" y="342.26" width="8.91" height="74.97" fill="#c92a2a" opacity="0.82"/>
<rect x="800.91" y="342.26" width="8.91" height="96.97" fill="#c92a2a" opacity="0.82"/>
<rect x="811.82" y="342.26" width="8.91" height="41.17" fill="#c92a2a" opacity="0.82"/>
<rect x="822.73" y="342.26" width="8.91" height="150.37" fill="#c92a2a" opacity="0.82"/>
<rect x="833.64" y="274.69" width="8.91" height="67.57" fill="#2f9e44" opacity="0.82"/>
<rect x="844.55" y="342.26" width="8.91" height="29.74" fill="#c92a2a" opacity="0.82"/>
<rect x="855.45" y="160.28" width="8.91" height="181.99" fill="#2f9e44" opacity="0.82"/>
<rect x="866.36" y="342.26" width="8.91" height="40.86" fill="#c92a2a" opacity="0.82"/>
<rect x="877.27" y="342.26" width="8.91" height="53.22" fill="#c92a2a" opacity="0.82"/>
<rect x="888.18" y="332.75" width="8.91" height="9.51" fill="#2f9e44" opacity="0.82"/>
<rect x="899.09" y="106.36" width="8.91" height="235.91" fill="#2f9e44" opacity="0.82"/>
<line x1="70" x2="910" y1="342.26" y2="342.26" stroke="#444"/>
</svg>