<svg xmlns="http://www.w3.org/2000/svg" width="980" height="520" viewBox="0 0 980 520"><style>text{font-family:Arial,sans-serif;fill:#e9ecef}.title{font-size:20px;font-weight:700}.axis{font-size:12px;fill:#adb5bd}.cell{font-size:11px;fill:#fff}</style><rect width="100%" height="100%" fill="#0b0f14"/><text x="24" y="28" class="title">Rolling Profit Factor</text>
<text x="70" y="35" class="axis">Profit factor</text>
<polyline points="70.00,365.42 75.42,365.09 80.84,383.24 86.26,394.04 91.68,401.30 97.10,381.29 102.52,362.34 107.94,362.21 113.35,361.81 118.77,365.54 124.19,368.56 129.61,361.61 135.03,363.18 140.45,347.78 145.87,333.25 151.29,346.60 156.71,370.88 162.13,316.05 167.55,264.07 172.97,280.13 178.39,291.37 183.81,296.59 189.23,289.93 194.65,280.95 200.06,297.03 205.48,312.21 210.90,328.59 216.32,339.44 221.74,338.91 227.16,336.22 232.58,334.07 238.00,334.16 243.42,333.87 248.84,335.65 254.26,320.78 259.68,331.54 265.10,344.69 270.52,340.84 275.94,339.91 281.35,341.98 286.77,342.13 292.19,344.40 297.61,345.34 303.03,352.66 308.45,360.45 313.87,367.39 319.29,363.76 324.71,408.06 330.13,440.53 335.55,440.28 340.97,438.08 346.39,437.20 351.81,421.49 357.23,408.78 362.65,408.59 368.06,405.92 373.48,404.72 378.90,406.27 384.32,407.14 389.74,394.44 395.16,383.01 400.58,383.18 406.00,383.56 411.42,381.89 416.84,374.95 422.26,367.17 427.68,354.98 433.10,361.79 438.52,366.04 443.94,363.50 449.35,366.62 454.77,370.68 460.19,348.93 465.61,329.08 471.03,336.77 476.45,342.15 481.87,345.72 487.29,346.18 492.71,287.03 498.13,229.49 503.55,245.89 508.97,257.08 514.39,276.75 519.81,288.28 525.23,277.76 530.65,267.20 536.06,253.86 541.48,227.81 546.90,190.39 552.32,182.79 557.74,145.26 563.16,70.00 568.58,85.96 574.00,106.06 579.42,149.04 584.84,183.54 590.26,194.47 595.68,197.18 601.10,199.08 606.52,191.69 611.94,186.47 617.35,170.17 622.77,174.86 628.19,179.16 633.61,154.48 639.03,129.55 644.45,118.00 649.87,97.43 655.29,157.17 660.71,238.52 666.13,238.31 671.55,239.48 676.97,231.80 682.39,221.16 687.81,244.62 693.23,266.64 698.65,284.40 704.06,301.21 709.48,329.37 714.90,348.81 720.32,382.77 725.74,423.49 731.16,422.75 736.58,420.93 742.00,420.90 747.42,419.45 752.84,421.24 758.26,417.71 763.68,415.63 769.10,421.51 774.52,421.74 779.94,423.85 785.35,434.74 790.77,446.46 796.19,450.00 801.61,448.05 807.03,447.63 812.45,444.06 817.87,439.82 823.29,439.76 828.71,435.12 834.13,427.28 839.55,413.12 844.97,406.42 850.39,403.47 855.81,402.30 861.23,402.11 866.65,402.51 872.06,402.49 877.48,396.55 882.90,389.66 888.32,392.55 893.74,371.65 899.16,355.52 904.58,332.32 910.00,316.44" fill="none" stroke="#1c7ed6" stroke-width="2"/>
<line x1="70" x2="70" y1="70" y2="450" stroke="#444"/>
<line x1="70" x2="910" y1="450" y2="450" stroke="#444"/>
</svg>