<svg xmlns="http://www.w3.org/2000/svg" width="980" height="520" viewBox="0 0 980 520"><style>text{font-family:Arial,sans-serif;fill:#e9ecef}.title{font-size:20px;font-weight:700}.axis{font-size:12px;fill:#adb5bd}.cell{font-size:11px;fill:#fff}</style><rect width="100%" height="100%" fill="#0b0f14"/><text x="24" y="28" class="title">Rolling Expectancy</text>
<text x="70" y="35" class="axis">Expectancy</text>
<polyline points="70.00,327.63 75.42,327.40 80.84,340.68 86.26,349.69 91.68,356.64 97.10,340.31 102.52,324.98 107.94,324.89 113.35,324.59 118.77,327.47 124.19,329.94 129.61,324.48 135.03,325.64 140.45,314.24 145.87,304.66 151.29,314.18 156.71,331.73 162.13,290.54 167.55,255.90 172.97,262.24 178.39,266.88 183.81,269.25 189.23,266.25 194.65,262.56 200.06,271.72 205.48,280.44 210.90,292.50 216.32,301.30 221.74,300.90 227.16,298.94 232.58,297.44 238.00,297.50 243.42,297.30 248.84,298.54 254.26,286.12 259.68,296.01 265.10,308.09 270.52,305.37 275.94,304.74 281.35,306.16 286.77,306.26 292.19,307.88 297.61,308.57 303.03,315.33 308.45,322.44 313.87,328.93 319.29,325.59 324.71,369.20 330.13,406.67 335.55,405.25 340.97,398.77 346.39,394.84 351.81,378.52 357.23,366.06 362.65,365.74 368.06,361.56 373.48,359.82 378.90,362.08 384.32,363.42 389.74,352.33 395.16,342.05 400.58,342.23 406.00,342.61 411.42,340.94 416.84,335.21 422.26,328.78 427.68,318.72 433.10,324.00 438.52,327.70 443.94,325.44 449.35,328.22 454.77,332.14 460.19,311.68 465.61,293.13 471.03,298.47 476.45,302.64 481.87,305.62 487.29,306.02 492.71,248.10 498.13,195.96 503.55,203.33 508.97,208.50 514.39,226.13 519.81,238.08 525.23,229.75 530.65,219.96 536.06,210.04 541.48,193.23 546.90,167.06 552.32,160.11 557.74,125.78 563.16,70.00 568.58,73.35 574.00,77.99 579.42,100.37 584.84,120.81 590.26,132.31 595.68,133.37 601.10,134.13 606.52,128.43 611.94,126.47 617.35,120.78 622.77,125.74 628.19,130.27 633.61,119.40 639.03,111.87 644.45,109.10 649.87,104.59 655.29,154.24 660.71,210.52 666.13,210.44 671.55,210.88 676.97,208.07 682.39,200.65 687.81,211.97 693.23,226.12 698.65,238.56 704.06,253.37 709.48,282.18 714.90,304.99 720.32,348.88 725.74,403.89 731.16,401.33 736.58,395.42 742.00,395.31 747.42,391.02 752.84,396.36 758.26,387.79 763.68,382.51 769.10,392.54 774.52,393.24 779.94,399.97 785.35,419.40 790.77,439.79 796.19,450.00 801.61,447.15 807.03,443.23 812.45,436.53 817.87,430.58 823.29,430.10 828.71,418.99 834.13,404.16 839.55,385.88 844.97,377.52 850.39,371.38 855.81,369.13 861.23,368.77 866.65,369.53 872.06,369.49 877.48,360.99 882.90,353.01 888.32,357.35 893.74,333.50 899.16,316.36 904.58,294.86 910.00,281.34" fill="none" stroke="#1c7ed6" stroke-width="2"/>
<line x1="70" x2="70" y1="70" y2="450" stroke="#444"/>
<line x1="70" x2="910" y1="450" y2="450" stroke="#444"/>
</svg>