<svg xmlns="http://www.w3.org/2000/svg" width="980" height="520" viewBox="0 0 980 520"><style>text{font-family:Arial,sans-serif;fill:#e9ecef}.title{font-size:20px;font-weight:700}.axis{font-size:12px;fill:#adb5bd}.cell{font-size:11px;fill:#fff}</style><rect width="100%" height="100%" fill="#0b0f14"/><text x="24" y="28" class="title">Rolling Win Rate</text>
<text x="70" y="35" class="axis">Win rate</text>
<polyline points="70.00,208.18 75.42,208.18 80.84,242.73 86.26,277.27 91.68,311.82 97.10,277.27 102.52,242.73 107.94,242.73 113.35,242.73 118.77,277.27 124.19,277.27 129.61,277.27 135.03,277.27 140.45,242.73 145.87,208.18 151.29,208.18 156.71,242.73 162.13,208.18 167.55,173.64 172.97,208.18 178.39,208.18 183.81,208.18 189.23,208.18 194.65,208.18 200.06,242.73 205.48,277.27 210.90,311.82 216.32,346.36 221.74,346.36 227.16,346.36 232.58,346.36 238.00,346.36 243.42,346.36 248.84,346.36 254.26,311.82 259.68,311.82 265.10,311.82 270.52,311.82 275.94,311.82 281.35,311.82 286.77,311.82 292.19,311.82 297.61,311.82 303.03,311.82 308.45,346.36 313.87,380.91 319.29,380.91 324.71,415.45 330.13,450.00 335.55,450.00 340.97,415.45 346.39,415.45 351.81,380.91 357.23,346.36 362.65,346.36 368.06,346.36 373.48,346.36 378.90,346.36 384.32,346.36 389.74,311.82 395.16,277.27 400.58,277.27 406.00,277.27 411.42,277.27 416.84,277.27 422.26,277.27 427.68,277.27 433.10,277.27 438.52,277.27 443.94,277.27 449.35,277.27 454.77,277.27 460.19,242.73 465.61,242.73 471.03,242.73 476.45,242.73 481.87,242.73 487.29,242.73 492.71,208.18 498.13,173.64 503.55,208.18 508.97,208.18 514.39,242.73 519.81,277.27 525.23,242.73 530.65,208.18 536.06,173.64 541.48,139.09 546.90,104.55 552.32,104.55 557.74,104.55 563.16,70.00 568.58,70.00 574.00,70.00 579.42,104.55 584.84,139.09 590.26,173.64 595.68,173.64 601.10,173.64 606.52,139.09 611.94,139.09 617.35,139.09 622.77,139.09 628.19,139.09 633.61,104.55 639.03,70.00 644.45,70.00 649.87,70.00 655.29,70.00 660.71,104.55 666.13,104.55 671.55,104.55 676.97,104.55 682.39,70.00 687.81,104.55 693.23,139.09 698.65,173.64 704.06,208.18 709.48,242.73 714.90,277.27 720.32,311.82 725.74,346.36 731.16,346.36 736.58,346.36 742.00,346.36 747.42,346.36 752.84,346.36 758.26,311.82 763.68,311.82 769.10,346.36 774.52,346.36 779.94,346.36 785.35,380.91 790.77,415.45 796.19,450.00 801.61,450.00 807.03,415.45 812.45,380.91 817.87,380.91 823.29,380.91 828.71,346.36 834.13,311.82 839.55,277.27 844.97,277.27 850.39,277.27 855.81,277.27 861.23,277.27 866.65,277.27 872.06,277.27 877.48,242.73 882.90,208.18 888.32,208.18 893.74,173.64 899.16,139.09 904.58,104.55 910.00,70.00" fill="none" stroke="#1c7ed6" stroke-width="2"/>
<line x1="70" x2="70" y1="70" y2="450" stroke="#444"/>
<line x1="70" x2="910" y1="450" y2="450" stroke="#444"/>
</svg>