<svg xmlns="http://www.w3.org/2000/svg" width="980" height="520" viewBox="0 0 980 520"><style>text{font-family:Arial,sans-serif;fill:#e9ecef}.title{font-size:20px;font-weight:700}.axis{font-size:12px;fill:#adb5bd}.cell{font-size:11px;fill:#fff}</style><rect width="100%" height="100%" fill="#0b0f14"/><text x="24" y="28" class="title">Underwater Drawdown</text>
<text x="70" y="35" class="axis">Drawdown</text>
<polyline points="70.00,70.00 70.34,70.00 70.69,70.00 71.03,70.00 71.37,70.00 71.71,70.00 72.06,70.00 72.40,70.00 72.74,70.00 73.09,70.00 73.43,70.00 73.77,70.00 74.11,70.00 74.46,70.00 74.80,70.00 75.14,70.00 75.49,70.00 75.83,70.00 76.17,70.00 76.51,70.00 76.86,70.00 77.20,70.00 77.54,70.14 77.89,70.55 78.23,73.99 78.57,75.06 78.91,70.00 79.26,70.00 79.60,70.00 79.94,79.52 80.29,79.65 80.63,74.28 80.97,86.80 81.31,86.71 81.66,86.75 82.00,83.20 82.34,83.95 82.69,83.13 83.03,83.07 83.37,80.76 83.71,80.70 84.06,78.82 84.40,73.32 84.74,73.48 85.09,70.00 85.43,70.00 85.77,70.00 86.11,70.00 86.46,75.27 86.80,83.23 87.14,74.43 87.49,73.81 87.83,73.19 88.17,70.00 88.51,70.00 88.86,77.59 89.20,77.06 89.54,81.30 89.89,71.80 90.23,70.00 90.57,82.28 90.91,80.50 91.26,70.00 91.60,78.52 91.94,79.51 92.29,78.49 92.63,71.41 92.97,70.00 93.31,70.00 93.66,70.00 94.00,70.00 94.34,84.89 94.69,93.56 95.03,113.33 95.37,114.76 95.71,114.76 96.06,114.76 96.40,114.90 96.74,115.48 97.09,113.81 97.43,110.38 97.77,111.99 98.11,112.93 98.46,106.69 98.80,104.12 99.14,109.65 99.49,108.01 99.83,116.31 100.17,115.47 100.51,113.41 100.86,119.14 101.20,119.14 101.54,119.14 101.89,119.14 102.23,119.28 102.57,119.22 102.91,126.51 103.26,126.51 103.60,126.51 103.94,126.51 104.29,126.51 104.63,126.51 104.97,126.51 105.31,126.51 105.66,126.51 106.00,126.51 106.34,126.51 106.69,126.51 107.03,126.51 107.37,126.51 107.71,126.51 108.06,126.51 108.40,126.51 108.74,126.65 109.09,127.23 109.43,131.81 109.77,131.92 110.11,132.23 110.46,134.13 110.80,134.13 111.14,134.13 111.49,134.13 111.83,134.13 112.17,134.13 112.51,134.13 112.86,134.13 113.20,134.13 113.54,134.13 113.89,134.13 114.23,134.13 114.57,134.13 114.91,134.13 115.26,134.27 115.60,132.57 115.94,133.09 116.29,130.01 116.63,129.28 116.97,127.10 117.31,127.64 117.66,127.12 118.00,132.03 118.34,131.85 118.69,131.92 119.03,131.33 119.37,135.21 119.71,135.21 120.06,135.21 120.40,135.21 120.74,135.21 121.09,135.21 121.43,135.21 121.77,135.21 122.11,135.35 122.46,136.74 122.80,137.02 123.14,136.07 123.49,135.85 123.83,135.61 124.17,136.27 124.51,136.39 124.86,136.50 125.20,133.57 125.54,137.06 125.89,136.78 126.23,142.27 126.57,141.49 126.91,143.23 127.26,142.01 127.60,142.50 127.94,135.99 128.29,129.98 128.63,128.14 128.97,127.48 129.31,151.13 129.66,151.27 130.00,152.57 130.34,157.78 130.69,157.78 131.03,157.78 131.37,157.78 131.71,157.78 132.06,157.78 132.40,157.78 132.74,157.78 133.09,157.78 133.43,157.78 133.77,157.78 134.11,157.78 134.46,157.92 134.80,160.74 135.14,160.60 135.49,159.34 135.83,159.48 136.17,164.42 136.51,164.42 136.86,164.42 137.20,164.42 137.54,164.42 137.89,164.42 138.23,164.42 138.57,164.42 138.91,164.42 139.26,164.42 139.60,164.42 139.94,164.42 140.29,164.42 140.63,164.69 140.97,166.91 141.31,164.52 141.66,164.75 142.00,166.90 142.34,167.68 142.69,171.20 143.03,169.92 143.37,169.48 143.71,169.95 144.06,158.86 144.40,163.27 144.74,155.54 145.09,162.42 145.43,162.55 145.77,149.26 146.11,149.26 146.46,143.45 146.80,134.47 147.14,123.16 147.49,120.77 147.83,126.82 148.17,129.26 148.51,116.94 148.86,118.69 149.20,108.93 149.54,108.46 149.89,108.43 150.23,116.78 150.57,110.39 150.91,115.01 151.26,111.68 151.60,110.53 151.94,109.19 152.29,101.42 152.63,107.23 152.97,107.88 153.31,83.98 153.66,78.98 154.00,100.50 154.34,102.25 154.69,114.46 155.03,117.80 155.37,117.80 155.71,117.80 156.06,117.94 156.40,118.69 156.74,118.37 157.09,119.99 157.43,120.39 157.77,121.17 158.11,115.87 158.46,115.05 158.80,118.86 159.14,123.54 159.49,123.95 159.83,125.29 160.17,126.21 160.51,125.17 160.86,131.63 161.20,131.77 161.54,122.43 161.89,118.36 162.23,117.72 162.57,119.87 162.91,98.52 163.26,99.62 163.60,127.19 163.94,121.60 164.29,106.96 164.63,116.57 164.97,115.40 165.31,115.32 165.66,135.35 166.00,135.35 166.34,135.35 166.69,135.35 167.03,135.35 167.37,135.35 167.71,135.35 168.06,135.35 168.40,135.35 168.74,135.35 169.09,135.35 169.43,135.35 169.77,135.35 170.11,135.35 170.46,135.49 170.80,138.92 171.14,136.04 171.49,137.09 171.83,140.39 172.17,141.02 172.51,137.61 172.86,130.99 173.20,133.36 173.54,132.78 173.89,135.21 174.23,135.47 174.57,150.58 174.91,149.63 175.26,151.50 175.60,149.25 175.94,149.93 176.29,149.91 176.63,156.16 176.97,156.16 177.31,156.16 177.66,156.16 178.00,156.16 178.34,156.16 178.69,156.16 179.03,156.16 179.37,156.16 179.71,156.16 180.06,156.16 180.40,156.16 180.74,156.16 181.09,156.29 181.43,158.15 181.77,158.62 182.11,154.96 182.46,154.32 182.80,153.05 183.14,154.39 183.49,155.37 183.83,138.21 184.17,129.31 184.51,129.90 184.86,130.92 185.20,121.69 185.54,122.65 185.89,118.20 186.23,122.14 186.57,120.66 186.91,128.70 187.26,123.12 187.60,127.17 187.94,141.00 188.29,141.00 188.63,141.00 188.97,141.00 189.31,141.00 189.66,141.00 190.00,141.00 190.34,141.14 190.69,142.31 191.03,142.44 191.37,141.07 191.71,137.43 192.06,138.12 192.40,140.18 192.74,140.02 193.09,140.42 193.43,133.64 193.77,134.99 194.11,132.13 194.46,129.54 194.80,130.09 195.14,129.61 195.49,128.85 195.83,131.29 196.17,133.54 196.51,135.30 196.86,136.01 197.20,132.20 197.54,130.48 197.89,128.92 198.23,127.88 198.57,112.16 198.91,113.55 199.26,112.08 199.60,109.41 199.94,106.13 200.29,105.29 200.63,107.71 200.97,107.11 201.31,105.86 201.66,103.18 202.00,112.47 202.34,114.19 202.69,119.91 203.03,119.91 203.37,119.91 203.71,119.91 204.06,120.05 204.40,119.38 204.74,122.52 205.09,122.72 205.43,128.85 205.77,131.04 206.11,125.82 206.46,126.19 206.80,126.39 207.14,122.66 207.49,123.12 207.83,124.52 208.17,126.21 208.51,128.12 208.86,124.89 209.20,124.94 209.54,127.13 209.89,128.64 210.23,126.17 210.57,127.19 210.91,125.74 211.26,125.77 211.60,127.86 211.94,126.26 212.29,130.09 212.63,128.38 212.97,132.08 213.31,132.08 213.66,132.08 214.00,132.22 214.34,134.06 214.69,139.37 215.03,139.37 215.37,139.37 215.71,139.37 216.06,139.37 216.40,139.37 216.74,139.37 217.09,139.37 217.43,139.37 217.77,139.37 218.11,139.37 218.46,139.50 218.80,138.16 219.14,137.38 219.49,137.10 219.83,138.14 220.17,147.09 220.51,146.13 220.86,148.94 221.20,148.81 221.54,149.34 221.89,148.71 222.23,153.68 222.57,153.68 222.91,153.68 223.26,153.68 223.60,153.68 223.94,153.68 224.29,153.68 224.63,153.68 224.97,153.82 225.31,154.68 225.66,154.10 226.00,155.82 226.34,157.24 226.69,162.84 227.03,161.82 227.37,161.73 227.71,162.82 228.06,162.91 228.40,161.80 228.74,162.70 229.09,166.96 229.43,166.96 229.77,166.96 230.11,166.96 230.46,166.96 230.80,166.96 231.14,166.96 231.49,166.96 231.83,166.96 232.17,166.96 232.51,166.96 232.86,166.96 233.20,167.24 233.54,168.54 233.89,171.46 234.23,169.35 234.57,162.43 234.91,165.66 235.26,166.63 235.60,171.14 235.94,170.44 236.29,165.44 236.63,163.21 236.97,156.66 237.31,152.59 237.66,141.59 238.00,139.02 238.34,103.08 238.69,107.75 239.03,100.74 239.37,97.14 239.71,105.98 240.06,102.49 240.40,100.48 240.74,102.12 241.09,103.41 241.43,95.01 241.77,102.38 242.11,101.52 242.46,93.19 242.80,94.04 243.14,91.49 243.49,96.15 243.83,100.52 244.17,99.06 244.51,111.19 244.86,111.19 245.20,111.33 245.54,113.69 245.89,113.68 246.23,113.81 246.57,113.08 246.91,113.08 247.26,108.93 247.60,100.90 247.94,94.48 248.29,92.34 248.63,98.81 248.97,109.98 249.31,121.74 249.66,121.93 250.00,117.14 250.34,117.89 250.69,116.79 251.03,114.11 251.37,117.27 251.71,121.61 252.06,123.07 252.40,122.96 252.74,124.44 253.09,123.61 253.43,129.79 253.77,129.79 254.11,129.79 254.46,129.79 254.80,129.79 255.14,129.79 255.49,129.79 255.83,129.79 256.17,129.79 256.51,129.79 256.86,129.79 257.20,129.79 257.54,129.79 257.89,129.93 258.23,132.01 258.57,131.79 258.91,135.53 259.26,136.69 259.60,136.69 259.94,136.69 260.29,136.69 260.63,136.69 260.97,136.69 261.31,136.69 261.66,136.69 262.00,136.69 262.34,136.69 262.69,136.69 263.03,136.82 263.37,135.78 263.71,130.09 264.06,130.76 264.40,133.95 264.74,134.31 265.09,136.95 265.43,134.27 265.77,138.77 266.11,139.45 266.46,140.23 266.80,140.75 267.14,140.88 267.49,138.96 267.83,144.43 268.17,144.57 268.51,143.63 268.86,143.29 269.20,141.44 269.54,133.82 269.89,126.30 270.23,123.29 270.57,112.29 270.91,112.88 271.26,114.18 271.60,112.32 271.94,109.86 272.29,108.92 272.63,107.87 272.97,112.28 273.31,107.22 273.66,97.68 274.00,97.92 274.34,106.72 274.69,103.41 275.03,102.12 275.37,96.84 275.71,101.43 276.06,98.30 276.40,98.92 276.74,88.63 277.09,87.97 277.43,93.28 277.77,96.74 278.11,84.99 278.46,91.39 278.80,109.74 279.14,109.74 279.49,109.74 279.83,109.74 280.17,109.74 280.51,109.74 280.86,109.74 281.20,109.74 281.54,109.74 281.89,109.74 282.23,109.74 282.57,109.74 282.91,109.74 283.26,109.74 283.60,109.74 283.94,109.74 284.29,109.74 284.63,109.74 284.97,109.74 285.31,109.74 285.66,109.74 286.00,109.74 286.34,109.74 286.69,109.74 287.03,109.74 287.37,109.74 287.71,110.02 288.06,101.17 288.40,105.78 288.74,103.00 289.09,116.08 289.43,124.05 289.77,122.98 290.11,130.63 290.46,125.64 290.80,124.39 291.14,125.25 291.49,126.12 291.83,119.39 292.17,119.26 292.51,120.79 292.86,120.61 293.20,115.70 293.54,109.41 293.89,104.13 294.23,114.35 294.57,111.32 294.91,111.22 295.26,100.52 295.60,100.08 295.94,86.41 296.29,73.21 296.63,70.00 296.97,72.85 297.31,70.00 297.66,70.00 298.00,70.00 298.34,70.00 298.69,78.52 299.03,83.00 299.37,107.43 299.71,116.26 300.06,108.09 300.40,85.77 300.74,87.54 301.09,90.96 301.43,108.06 301.77,91.19 302.11,88.03 302.46,83.94 302.80,92.26 303.14,95.03 303.49,78.34 303.83,84.80 304.17,76.93 304.51,70.00 304.86,73.04 305.20,70.25 305.54,70.00 305.89,75.77 306.23,84.14 306.57,70.00 306.91,91.50 307.26,106.68 307.60,106.68 307.94,106.68 308.29,106.68 308.63,106.68 308.97,106.68 309.31,106.68 309.66,106.82 310.00,106.12 310.34,106.06 310.69,107.23 311.03,112.29 311.37,108.03 311.71,109.96 312.06,107.44 312.40,105.76 312.74,109.61 313.09,107.46 313.43,111.88 313.77,111.73 314.11,116.21 314.46,116.21 314.80,116.21 315.14,116.21 315.49,116.21 315.83,116.21 316.17,116.21 316.51,116.21 316.86,116.21 317.20,116.21 317.54,116.21 317.89,116.21 318.23,116.21 318.57,116.21 318.91,116.34 319.26,116.69 319.60,117.95 319.94,119.70 320.29,120.17 320.63,117.51 320.97,123.63 321.31,123.13 321.66,120.27 322.00,123.63 322.34,121.34 322.69,121.03 323.03,119.91 323.37,124.93 323.71,126.05 324.06,126.05 324.40,126.05 324.74,126.19 325.09,125.45 325.43,124.37 325.77,123.73 326.11,119.80 326.46,124.99 326.80,123.67 327.14,122.68 327.49,139.31 327.83,139.74 328.17,139.74 328.51,139.74 328.86,139.88 329.20,138.82 329.54,137.22 329.89,136.29 330.23,133.23 330.57,139.72 330.91,129.74 331.26,134.19 331.60,144.93 331.94,145.90 332.29,150.55 332.63,150.55 332.97,150.55 333.31,150.55 333.66,150.55 334.00,150.55 334.34,150.55 334.69,150.55 335.03,150.55 335.37,150.69 335.71,151.38 336.06,149.93 336.40,152.68 336.74,158.12 337.09,155.86 337.43,157.64 337.77,157.08 338.11,159.33 338.46,158.42 338.80,161.44 339.14,161.44 339.49,161.44 339.83,161.44 340.17,161.44 340.51,161.44 340.86,161.44 341.20,161.44 341.54,161.44 341.89,161.58 342.23,162.90 342.57,162.18 342.91,168.36 343.26,168.58 343.60,167.25 343.94,165.76 344.29,167.72 344.63,168.35 344.97,167.58 345.31,165.94 345.66,165.29 346.00,164.39 346.34,167.09 346.69,167.65 347.03,168.03 347.37,171.35 347.71,171.49 348.06,171.40 348.40,171.88 348.74,168.83 349.09,169.24 349.43,171.64 349.77,176.84 350.11,178.06 350.46,186.65 350.80,186.65 351.14,186.65 351.49,186.65 351.83,186.65 352.17,186.65 352.51,186.65 352.86,186.65 353.20,186.65 353.54,186.65 353.89,186.65 354.23,186.65 354.57,186.65 354.91,186.65 355.26,186.65 355.60,186.65 355.94,186.65 356.29,186.65 356.63,186.65 356.97,186.65 357.31,186.78 357.66,186.37 358.00,183.81 358.34,185.09 358.69,186.35 359.03,182.98 359.37,184.26 359.71,185.55 360.06,182.55 360.40,184.13 360.74,187.86 361.09,191.43 361.43,191.43 361.77,191.43 362.11,191.43 362.46,191.43 362.80,191.43 363.14,191.43 363.49,191.43 363.83,191.43 364.17,191.56 364.51,190.84 364.86,188.18 365.20,186.90 365.54,198.41 365.89,201.63 366.23,211.80 366.57,214.01 366.91,214.14 367.26,212.79 367.60,214.84 367.94,213.94 368.29,211.96 368.63,210.56 368.97,213.27 369.31,212.21 369.66,199.88 370.00,198.41 370.34,198.31 370.69,202.83 371.03,200.50 371.37,192.80 371.71,192.16 372.06,194.86 372.40,191.53 372.74,191.24 373.09,193.25 373.43,191.69 373.77,185.37 374.11,187.54 374.46,185.60 374.80,178.15 375.14,170.67 375.49,173.61 375.83,175.87 376.17,172.55 376.51,172.49 376.86,170.81 377.20,173.30 377.54,176.09 377.89,177.34 378.23,185.52 378.57,185.52 378.91,185.52 379.26,185.52 379.60,185.65 379.94,187.55 380.29,185.44 380.63,183.88 380.97,184.09 381.31,182.17 381.66,181.14 382.00,178.44 382.34,170.40 382.69,180.07 383.03,179.19 383.37,175.65 383.71,169.54 384.06,176.30 384.40,183.02 384.74,191.37 385.09,191.37 385.43,191.37 385.77,191.37 386.11,191.37 386.46,191.37 386.80,191.37 387.14,191.51 387.49,191.99 387.83,189.99 388.17,193.48 388.51,191.91 388.86,194.02 389.20,193.22 389.54,192.17 389.89,190.64 390.23,191.60 390.57,190.98 390.91,191.45 391.26,191.03 391.60,188.23 391.94,184.50 392.29,189.19 392.63,192.65 392.97,191.79 393.31,202.60 393.66,202.63 394.00,206.97 394.34,210.24 394.69,210.38 395.03,208.51 395.37,209.53 395.71,209.40 396.06,208.09 396.40,213.06 396.74,214.89 397.09,215.64 397.43,217.08 397.77,217.08 398.11,217.08 398.46,217.08 398.80,217.08 399.14,217.21 399.49,217.88 399.83,217.49 400.17,219.88 400.51,218.55 400.86,217.54 401.20,216.72 401.54,216.97 401.89,217.81 402.23,223.15 402.57,223.29 402.91,208.94 403.26,197.91 403.60,197.03 403.94,199.76 404.29,194.75 404.63,205.33 404.97,203.05 405.31,200.15 405.66,209.01 406.00,220.98 406.34,220.98 406.69,220.98 407.03,220.98 407.37,220.98 407.71,220.98 408.06,221.25 408.40,216.32 408.74,216.52 409.09,215.37 409.43,211.74 409.77,209.99 410.11,214.33 410.46,217.06 410.80,218.28 411.14,223.37 411.49,238.55 411.83,238.55 412.17,238.55 412.51,238.55 412.86,238.55 413.20,238.55 413.54,238.55 413.89,238.82 414.23,239.08 414.57,240.86 414.91,238.06 415.26,239.61 415.60,233.19 415.94,232.85 416.29,218.57 416.63,225.58 416.97,233.64 417.31,244.69 417.66,246.53 418.00,245.90 418.34,250.33 418.69,257.59 419.03,257.59 419.37,257.72 419.71,257.61 420.06,258.43 420.40,259.47 420.74,260.99 421.09,257.99 421.43,258.60 421.77,259.12 422.11,258.20 422.46,257.25 422.80,246.53 423.14,249.45 423.49,251.99 423.83,250.37 424.17,241.31 424.51,242.50 424.86,245.01 425.20,247.07 425.54,244.91 425.89,253.13 426.23,257.18 426.57,257.18 426.91,257.18 427.26,257.18 427.60,257.45 427.94,257.25 428.29,259.85 428.63,254.67 428.97,255.38 429.31,249.11 429.66,249.28 430.00,249.79 430.34,252.01 430.69,250.18 431.03,259.80 431.37,260.73 431.71,257.59 432.06,241.48 432.40,232.56 432.74,229.59 433.09,236.66 433.43,247.25 433.77,235.68 434.11,230.86 434.46,234.91 434.80,227.03 435.14,233.71 435.49,228.05 435.83,232.44 436.17,227.58 436.51,209.02 436.86,209.78 437.20,210.45 437.54,197.51 437.89,194.31 438.23,185.36 438.57,179.22 438.91,185.04 439.26,169.88 439.60,172.77 439.94,191.79 440.29,187.76 440.63,195.92 440.97,189.44 441.31,198.61 441.66,211.59 442.00,211.59 442.34,211.59 442.69,211.72 443.03,213.11 443.37,216.42 443.71,212.34 444.06,209.46 444.40,210.65 444.74,209.55 445.09,205.30 445.43,205.64 445.77,207.17 446.11,203.68 446.46,211.28 446.80,216.95 447.14,220.68 447.49,222.35 447.83,223.29 448.17,228.31 448.51,228.31 448.86,228.31 449.20,228.31 449.54,228.31 449.89,228.31 450.23,228.31 450.57,228.31 450.91,228.31 451.26,228.31 451.60,228.31 451.94,228.31 452.29,228.31 452.63,228.31 452.97,228.31 453.31,228.31 453.66,228.31 454.00,228.31 454.34,228.31 454.69,228.31 455.03,228.31 455.37,228.31 455.71,228.31 456.06,228.31 456.40,228.31 456.74,228.58 457.09,237.21 457.43,235.36 457.77,229.68 458.11,230.17 458.46,231.40 458.80,228.48 459.14,228.74 459.49,233.95 459.83,238.20 460.17,235.60 460.51,237.55 460.86,240.74 461.20,240.74 461.54,241.01 461.89,241.69 462.23,238.49 462.57,239.59 462.91,245.38 463.26,243.89 463.60,245.28 463.94,248.42 464.29,248.43 464.63,250.30 464.97,250.30 465.31,250.30 465.66,250.57 466.00,248.72 466.34,244.64 466.69,236.92 467.03,221.79 467.37,226.81 467.71,216.98 468.06,219.74 468.40,219.36 468.74,226.97 469.09,223.06 469.43,217.34 469.77,201.70 470.11,200.28 470.46,201.44 470.80,213.07 471.14,212.64 471.49,208.22 471.83,205.92 472.17,198.70 472.51,181.97 472.86,191.71 473.20,190.01 473.54,199.53 473.89,201.24 474.23,194.94 474.57,191.57 474.91,207.07 475.26,200.23 475.60,215.37 475.94,215.51 476.29,215.53 476.63,214.86 476.97,216.65 477.31,218.15 477.66,222.66 478.00,222.66 478.34,222.66 478.69,222.66 479.03,222.66 479.37,222.66 479.71,222.66 480.06,222.66 480.40,222.66 480.74,222.66 481.09,222.66 481.43,222.66 481.77,222.66 482.11,222.66 482.46,222.66 482.80,222.66 483.14,222.66 483.49,222.66 483.83,222.66 484.17,222.66 484.51,222.66 484.86,222.66 485.20,222.66 485.54,222.66 485.89,222.66 486.23,222.66 486.57,222.66 486.91,222.79 487.26,221.28 487.60,223.47 487.94,228.35 488.29,228.30 488.63,224.34 488.97,226.45 489.31,226.27 489.66,227.98 490.00,226.43 490.34,225.58 490.69,224.83 491.03,223.73 491.37,232.78 491.71,227.71 492.06,227.46 492.40,226.68 492.74,225.66 493.09,227.40 493.43,232.47 493.77,235.88 494.11,235.88 494.46,235.88 494.80,236.01 495.14,237.59 495.49,235.50 495.83,233.12 496.17,233.62 496.51,237.18 496.86,238.39 497.20,238.20 497.54,238.38 497.89,237.28 498.23,241.57 498.57,240.06 498.91,237.68 499.26,226.98 499.60,226.79 499.94,226.95 500.29,228.22 500.63,228.21 500.97,227.14 501.31,228.73 501.66,236.95 502.00,234.27 502.34,232.00 502.69,232.81 503.03,234.95 503.37,232.49 503.71,228.80 504.06,227.77 504.40,231.15 504.74,230.81 505.09,231.36 505.43,232.76 505.77,234.06 506.11,230.47 506.46,233.40 506.80,235.47 507.14,219.10 507.49,217.66 507.83,214.84 508.17,209.75 508.51,209.49 508.86,210.95 509.20,208.06 509.54,202.96 509.89,198.00 510.23,195.31 510.57,198.73 510.91,190.38 511.26,198.78 511.60,200.91 511.94,202.01 512.29,200.08 512.63,202.18 512.97,201.09 513.31,190.89 513.66,194.42 514.00,190.06 514.34,189.86 514.69,179.83 515.03,179.98 515.37,176.55 515.71,183.03 516.06,177.72 516.40,177.73 516.74,183.02 517.09,176.54 517.43,176.51 517.77,175.39 518.11,177.36 518.46,171.56 518.80,165.31 519.14,169.39 519.49,164.94 519.83,167.44 520.17,169.52 520.51,168.62 520.86,168.20 521.20,154.91 521.54,155.09 521.89,140.78 522.23,140.30 522.57,147.82 522.91,152.45 523.26,156.74 523.60,156.19 523.94,148.66 524.29,164.26 524.63,164.26 524.97,164.26 525.31,164.26 525.66,164.26 526.00,164.26 526.34,164.26 526.69,164.26 527.03,164.26 527.37,164.26 527.71,164.26 528.06,164.26 528.40,164.26 528.74,164.26 529.09,164.26 529.43,164.26 529.77,164.26 530.11,164.26 530.46,164.26 530.80,164.26 531.14,164.26 531.49,164.26 531.83,164.26 532.17,164.26 532.51,164.53 532.86,168.84 533.20,167.56 533.54,176.05 533.89,176.05 534.23,176.05 534.57,176.05 534.91,176.05 535.26,176.05 535.60,176.05 535.94,176.18 536.29,177.93 536.63,175.68 536.97,176.25 537.31,176.83 537.66,175.95 538.00,175.77 538.34,176.90 538.69,178.44 539.03,176.27 539.37,177.38 539.71,176.13 540.06,179.14 540.40,183.95 540.74,191.34 541.09,191.34 541.43,191.34 541.77,191.34 542.11,191.34 542.46,191.34 542.80,191.34 543.14,191.61 543.49,187.05 543.83,190.41 544.17,198.93 544.51,201.05 544.86,209.58 545.20,210.85 545.54,209.70 545.89,211.84 546.23,212.52 546.57,210.25 546.91,210.04 547.26,206.24 547.60,209.49 547.94,210.98 548.29,209.82 548.63,215.77 548.97,216.04 549.31,216.77 549.66,216.44 550.00,212.37 550.34,216.22 550.69,217.46 551.03,214.94 551.37,218.30 551.71,222.21 552.06,214.55 552.40,211.00 552.74,217.34 553.09,200.82 553.43,204.80 553.77,191.69 554.11,193.78 554.46,185.17 554.80,180.16 555.14,178.31 555.49,176.12 555.83,166.99 556.17,175.90 556.51,172.10 556.86,175.74 557.20,167.91 557.54,174.66 557.89,173.19 558.23,169.49 558.57,171.78 558.91,167.38 559.26,169.01 559.60,179.46 559.94,180.67 560.29,175.80 560.63,178.30 560.97,179.92 561.31,158.00 561.66,157.98 562.00,149.70 562.34,141.52 562.69,140.08 563.03,143.29 563.37,149.06 563.71,146.22 564.06,154.57 564.40,151.05 564.74,147.24 565.09,152.93 565.43,150.43 565.77,155.02 566.11,148.84 566.46,139.98 566.80,134.94 567.14,120.19 567.49,123.08 567.83,137.84 568.17,133.59 568.51,133.97 568.86,132.51 569.20,141.49 569.54,148.01 569.89,148.28 570.23,145.07 570.57,148.80 570.91,147.58 571.26,146.81 571.60,159.47 571.94,154.64 572.29,162.41 572.63,168.08 572.97,161.64 573.31,164.62 573.66,165.26 574.00,166.75 574.34,171.68 574.69,171.68 575.03,171.68 575.37,171.95 575.71,175.37 576.06,178.03 576.40,183.66 576.74,183.66 577.09,183.66 577.43,183.66 577.77,183.66 578.11,183.66 578.46,183.66 578.80,183.66 579.14,183.66 579.49,183.66 579.83,183.66 580.17,183.66 580.51,183.66 580.86,183.93 581.20,182.50 581.54,183.32 581.89,182.94 582.23,181.66 582.57,183.35 582.91,184.17 583.26,188.49 583.60,185.34 583.94,187.20 584.29,183.88 584.63,180.87 584.97,185.05 585.31,185.69 585.66,187.66 586.00,185.83 586.34,187.25 586.69,188.37 587.03,195.54 587.37,195.54 587.71,195.54 588.06,195.54 588.40,195.54 588.74,195.54 589.09,195.54 589.43,195.54 589.77,195.54 590.11,195.54 590.46,195.54 590.80,195.54 591.14,195.54 591.49,195.54 591.83,195.81 592.17,182.42 592.51,181.34 592.86,176.90 593.20,171.58 593.54,166.83 593.89,179.10 594.23,180.33 594.57,173.82 594.91,165.40 595.26,166.09 595.60,167.60 595.94,160.65 596.29,147.75 596.63,119.34 596.97,108.91 597.31,88.87 597.66,84.84 598.00,99.21 598.34,98.75 598.69,97.96 599.03,123.81 599.37,89.98 599.71,89.56 600.06,92.68 600.40,109.43 600.74,112.41 601.09,110.19 601.43,90.02 601.77,104.02 602.11,92.91 602.46,94.17 602.80,102.03 603.14,81.77 603.49,70.00 603.83,90.38 604.17,90.67 604.51,97.67 604.86,90.25 605.20,101.10 605.54,96.75 605.89,88.77 606.23,84.77 606.57,102.94 606.91,70.72 607.26,75.09 607.60,70.00 607.94,70.00 608.29,70.00 608.63,70.28 608.97,74.02 609.31,70.00 609.66,80.07 610.00,70.00 610.34,70.00 610.69,80.53 611.03,96.91 611.37,85.63 611.71,90.51 612.06,94.73 612.40,70.00 612.74,70.00 613.09,70.00 613.43,71.49 613.77,85.23 614.11,91.28 614.46,83.52 614.80,70.00 615.14,70.00 615.49,102.64 615.83,114.71 616.17,122.17 616.51,122.31 616.86,124.98 617.20,125.59 617.54,123.03 617.89,125.44 618.23,126.15 618.57,124.19 618.91,125.46 619.26,129.81 619.60,131.17 619.94,133.43 620.29,133.43 620.63,133.43 620.97,133.43 621.31,133.57 621.66,135.27 622.00,140.23 622.34,144.57 622.69,144.57 623.03,144.57 623.37,144.57 623.71,144.57 624.06,144.57 624.40,144.57 624.74,144.57 625.09,144.57 625.43,144.57 625.77,144.57 626.11,144.57 626.46,144.57 626.80,144.57 627.14,144.57 627.49,144.57 627.83,144.57 628.17,144.57 628.51,144.57 628.86,144.57 629.20,144.57 629.54,144.57 629.89,144.57 630.23,144.57 630.57,144.57 630.91,144.71 631.26,142.35 631.60,143.23 631.94,143.53 632.29,146.88 632.63,150.60 632.97,148.84 633.31,150.53 633.66,151.25 634.00,150.67 634.34,147.38 634.69,146.24 635.03,142.86 635.37,145.94 635.71,142.36 636.06,143.08 636.40,146.99 636.74,146.56 637.09,153.73 637.43,153.73 637.77,153.73 638.11,153.73 638.46,153.73 638.80,153.73 639.14,153.73 639.49,153.73 639.83,153.73 640.17,153.73 640.51,153.73 640.86,153.73 641.20,153.73 641.54,153.73 641.89,153.73 642.23,154.00 642.57,148.63 642.91,149.02 643.26,144.84 643.60,142.77 643.94,131.54 644.29,109.52 644.63,95.80 644.97,88.46 645.31,104.71 645.66,108.94 646.00,99.39 646.34,112.52 646.69,114.53 647.03,104.91 647.37,108.54 647.71,104.21 648.06,100.68 648.40,103.16 648.74,102.59 649.09,98.48 649.43,90.63 649.77,80.04 650.11,93.66 650.46,84.67 650.80,87.81 651.14,73.42 651.49,85.43 651.83,108.25 652.17,104.75 652.51,94.98 652.86,91.55 653.20,89.79 653.54,93.80 653.89,95.74 654.23,85.80 654.57,78.02 654.91,82.63 655.26,70.00 655.60,70.00 655.94,70.00 656.29,70.00 656.63,70.00 656.97,92.27 657.31,87.14 657.66,83.42 658.00,140.62 658.34,135.68 658.69,88.09 659.03,91.82 659.37,70.00 659.71,70.00 660.06,70.00 660.40,98.34 660.74,109.11 661.09,150.62 661.43,174.43 661.77,137.05 662.11,132.05 662.46,118.35 662.80,121.24 663.14,131.30 663.49,144.73 663.83,166.26 664.17,169.15 664.51,167.80 664.86,169.97 665.20,169.97 665.54,161.02 665.89,159.67 666.23,159.42 666.57,170.07 666.91,167.90 667.26,182.07 667.60,182.07 667.94,182.07 668.29,182.07 668.63,182.07 668.97,182.93 669.31,185.29 669.66,184.80 670.00,187.90 670.34,186.68 670.69,190.37 671.03,188.50 671.37,187.23 671.71,187.29 672.06,187.54 672.40,187.96 672.74,186.72 673.09,189.73 673.43,189.77 673.77,191.23 674.11,189.80 674.46,190.67 674.80,186.40 675.14,185.39 675.49,185.00 675.83,185.49 676.17,184.34 676.51,181.88 676.86,172.43 677.20,166.07 677.54,158.54 677.89,154.32 678.23,163.02 678.57,160.97 678.91,163.38 679.26,162.63 679.60,159.82 679.94,157.45 680.29,148.06 680.63,139.42 680.97,144.16 681.31,152.53 681.66,151.10 682.00,157.11 682.34,150.27 682.69,154.38 683.03,143.12 683.37,152.39 683.71,155.57 684.06,157.90 684.40,156.10 684.74,155.33 685.09,157.57 685.43,153.55 685.77,151.08 686.11,143.60 686.46,153.78 686.80,147.36 687.14,146.56 687.49,144.03 687.83,135.05 688.17,143.94 688.51,142.53 688.86,142.16 689.20,131.89 689.54,127.17 689.89,111.64 690.23,116.03 690.57,116.59 690.91,107.58 691.26,101.35 691.60,96.88 691.94,108.27 692.29,98.71 692.63,84.03 692.97,70.00 693.31,70.00 693.66,72.68 694.00,70.00 694.34,70.00 694.69,70.00 695.03,70.00 695.37,91.13 695.71,70.00 696.06,70.83 696.40,70.00 696.74,70.00 697.09,70.00 697.43,95.45 697.77,81.90 698.11,214.08 698.46,200.89 698.80,164.79 699.14,184.26 699.49,164.68 699.83,161.14 700.17,179.67 700.51,169.36 700.86,179.22 701.20,181.00 701.54,182.71 701.89,165.39 702.23,173.71 702.57,164.00 702.91,151.77 703.26,151.99 703.60,165.30 703.94,181.40 704.29,175.92 704.63,176.51 704.97,179.26 705.31,173.43 705.66,175.89 706.00,178.21 706.34,171.07 706.69,171.20 707.03,170.30 707.37,172.63 707.71,177.09 708.06,217.17 708.40,217.17 708.74,217.67 709.09,219.73 709.43,218.21 709.77,222.26 710.11,224.78 710.46,220.03 710.80,222.68 711.14,222.58 711.49,225.80 711.83,218.73 712.17,222.84 712.51,222.99 712.86,229.70 713.20,229.70 713.54,229.70 713.89,229.70 714.23,229.70 714.57,229.70 714.91,229.70 715.26,229.70 715.60,229.70 715.94,229.70 716.29,229.70 716.63,229.70 716.97,229.70 717.31,229.70 717.66,229.70 718.00,229.70 718.34,229.70 718.69,229.70 719.03,229.70 719.37,230.33 719.71,228.77 720.06,238.32 720.40,237.52 720.74,237.12 721.09,237.22 721.43,234.76 721.77,234.07 722.11,235.92 722.46,236.87 722.80,238.52 723.14,237.94 723.49,242.80 723.83,242.80 724.17,242.80 724.51,242.80 724.86,243.52 725.20,243.20 725.54,253.07 725.89,253.74 726.23,253.45 726.57,255.89 726.91,255.89 727.26,255.89 727.60,255.89 727.94,255.89 728.29,255.89 728.63,255.89 728.97,255.89 729.31,256.64 729.66,251.34 730.00,253.51 730.34,251.58 730.69,266.19 731.03,260.67 731.37,256.97 731.71,250.75 732.06,251.39 732.40,245.21 732.74,248.80 733.09,236.44 733.43,230.39 733.77,241.37 734.11,244.90 734.46,282.11 734.80,282.11 735.14,282.11 735.49,282.11 735.83,282.11 736.17,282.11 736.51,282.11 736.86,282.11 737.20,282.11 737.54,282.11 737.89,282.11 738.23,282.11 738.57,282.11 738.91,282.11 739.26,282.11 739.60,282.11 739.94,282.68 740.29,294.89 740.63,294.89 740.97,294.89 741.31,294.89 741.66,294.89 742.00,294.89 742.34,294.89 742.69,294.89 743.03,294.89 743.37,294.89 743.71,294.89 744.06,295.01 744.40,294.74 744.74,296.45 745.09,302.28 745.43,301.45 745.77,301.47 746.11,293.60 746.46,285.39 746.80,283.33 747.14,286.41 747.49,280.31 747.83,277.97 748.17,277.72 748.51,272.97 748.86,285.12 749.20,289.33 749.54,287.90 749.89,287.70 750.23,290.70 750.57,288.94 750.91,293.93 751.26,292.55 751.60,293.55 751.94,290.68 752.29,286.53 752.63,286.88 752.97,291.22 753.31,291.21 753.66,286.02 754.00,277.88 754.34,282.72 754.69,289.98 755.03,289.02 755.37,292.43 755.71,292.40 756.06,297.15 756.40,300.06 756.74,302.57 757.09,299.61 757.43,301.86 757.77,296.44 758.11,294.10 758.46,297.28 758.80,293.71 759.14,281.65 759.49,292.66 759.83,298.82 760.17,292.97 760.51,294.13 760.86,293.27 761.20,298.93 761.54,303.94 761.89,276.19 762.23,288.71 762.57,285.12 762.91,259.13 763.26,249.46 763.60,250.05 763.94,244.29 764.29,263.81 764.63,257.44 764.97,245.22 765.31,221.06 765.66,219.75 766.00,227.21 766.34,223.25 766.69,224.67 767.03,221.20 767.37,209.59 767.71,215.97 768.06,213.47 768.40,209.02 768.74,205.31 769.09,211.07 769.43,202.32 769.77,232.04 770.11,225.90 770.46,224.39 770.80,228.86 771.14,226.00 771.49,222.22 771.83,223.63 772.17,224.76 772.51,228.27 772.86,241.79 773.20,231.93 773.54,227.61 773.89,237.35 774.23,233.55 774.57,234.55 774.91,233.49 775.26,237.52 775.60,236.69 775.94,225.71 776.29,232.59 776.63,234.95 776.97,243.83 777.31,245.80 777.66,248.16 778.00,248.16 778.34,248.16 778.69,248.16 779.03,248.16 779.37,248.16 779.71,248.28 780.06,247.98 780.40,251.99 780.74,252.79 781.09,250.79 781.43,255.99 781.77,256.65 782.11,255.25 782.46,256.31 782.80,252.70 783.14,256.64 783.49,266.09 783.83,269.03 784.17,268.39 784.51,270.40 784.86,268.49 785.20,267.94 785.54,263.92 785.89,250.64 786.23,248.37 786.57,257.48 786.91,250.93 787.26,267.45 787.60,269.70 787.94,266.08 788.29,263.08 788.63,257.62 788.97,253.23 789.31,265.51 789.66,270.16 790.00,269.60 790.34,263.78 790.69,274.30 791.03,276.06 791.37,275.15 791.71,275.25 792.06,276.14 792.40,273.14 792.74,274.38 793.09,284.73 793.43,289.51 793.77,287.61 794.11,292.49 794.46,291.24 794.80,288.71 795.14,291.22 795.49,296.86 795.83,291.61 796.17,290.89 796.51,294.81 796.86,299.17 797.20,295.31 797.54,293.33 797.89,298.00 798.23,294.57 798.57,273.85 798.91,294.23 799.26,301.81 799.60,307.02 799.94,303.75 800.29,304.99 800.63,302.13 800.97,308.95 801.31,307.24 801.66,307.16 802.00,317.68 802.34,326.75 802.69,333.17 803.03,333.80 803.37,333.85 803.71,324.97 804.06,327.53 804.40,322.25 804.74,314.05 805.09,325.30 805.43,324.52 805.77,325.90 806.11,332.88 806.46,327.66 806.80,339.85 807.14,343.92 807.49,343.92 807.83,344.04 808.17,342.62 808.51,340.93 808.86,335.20 809.20,330.41 809.54,328.74 809.89,331.76 810.23,339.91 810.57,329.68 810.91,336.26 811.26,343.93 811.60,366.87 811.94,368.07 812.29,368.07 812.63,368.07 812.97,369.09 813.31,366.74 813.66,366.02 814.00,361.27 814.34,359.57 814.69,366.01 815.03,361.84 815.37,365.14 815.71,363.43 816.06,352.55 816.40,358.59 816.74,362.51 817.09,351.27 817.43,361.00 817.77,377.92 818.11,375.89 818.46,373.71 818.80,378.62 819.14,385.37 819.49,386.50 819.83,384.74 820.17,391.09 820.51,395.24 820.86,390.14 821.20,384.39 821.54,399.81 821.89,393.66 822.23,399.97 822.57,417.13 822.91,417.13 823.26,417.13 823.60,417.13 823.94,417.13 824.29,417.13 824.63,417.13 824.97,417.13 825.31,418.25 825.66,409.76 826.00,403.17 826.34,408.74 826.69,412.76 827.03,415.97 827.37,429.16 827.71,448.55 828.06,448.55 828.40,448.55 828.74,448.55 829.09,448.55 829.43,448.55 829.77,448.55 830.11,448.55 830.46,448.55 830.80,448.55 831.14,448.55 831.49,448.68 831.83,445.84 832.17,450.00 832.51,446.46 832.86,435.94 833.20,436.39 833.54,433.56 833.89,437.10 834.23,427.90 834.57,438.64 834.91,445.51 835.26,431.83 835.60,396.34 835.94,406.53 836.29,404.44 836.63,378.92 836.97,367.33 837.31,329.14 837.66,367.51 838.00,363.16 838.34,369.30 838.69,400.79 839.03,420.16 839.37,420.16 839.71,420.16 840.06,420.16 840.40,420.16 840.74,420.16 841.09,420.16 841.43,420.16 841.77,420.16 842.11,420.16 842.46,420.16 842.80,420.16 843.14,420.16 843.49,420.16 843.83,420.16 844.17,420.16 844.51,420.16 844.86,420.16 845.20,420.16 845.54,420.16 845.89,420.16 846.23,420.16 846.57,420.16 846.91,421.04 847.26,427.27 847.60,426.92 847.94,432.66 848.29,432.66 848.63,433.51 848.97,432.85 849.31,430.85 849.66,432.06 850.00,425.19 850.34,423.38 850.69,422.08 851.03,429.59 851.37,420.88 851.71,418.06 852.06,408.40 852.40,399.42 852.74,404.78 853.09,389.43 853.43,396.76 853.77,405.72 854.11,405.56 854.46,402.15 854.80,410.73 855.14,407.94 855.49,408.59 855.83,413.99 856.17,412.15 856.51,412.62 856.86,413.84 857.20,411.75 857.54,404.40 857.89,409.23 858.23,417.63 858.57,410.92 858.91,413.63 859.26,416.12 859.60,412.95 859.94,406.57 860.29,410.43 860.63,396.59 860.97,393.58 861.31,410.02 861.66,419.91 862.00,411.37 862.34,409.64 862.69,410.25 863.03,406.57 863.37,394.99 863.71,399.38 864.06,398.35 864.40,392.18 864.74,390.42 865.09,379.71 865.43,375.89 865.77,376.97 866.11,345.95 866.46,333.14 866.80,334.19 867.14,336.85 867.49,329.24 867.83,322.86 868.17,331.55 868.51,306.94 868.86,310.08 869.20,310.98 869.54,312.79 869.89,304.87 870.23,319.09 870.57,317.37 870.91,311.15 871.26,313.35 871.60,329.44 871.94,356.19 872.29,357.33 872.63,356.00 872.97,362.14 873.31,360.32 873.66,353.44 874.00,363.46 874.34,349.11 874.69,348.50 875.03,348.69 875.37,352.62 875.71,341.88 876.06,358.10 876.40,360.53 876.74,370.31 877.09,373.35 877.43,374.52 877.77,371.25 878.11,375.39 878.46,376.40 878.80,378.95 879.14,370.79 879.49,376.07 879.83,362.78 880.17,346.77 880.51,337.10 880.86,348.99 881.20,350.38 881.54,343.21 881.89,361.10 882.23,357.97 882.57,368.36 882.91,390.55 883.26,380.53 883.60,378.09 883.94,363.39 884.29,368.55 884.63,368.38 884.97,363.68 885.31,367.81 885.66,366.65 886.00,354.75 886.34,345.11 886.69,347.65 887.03,361.33 887.37,361.61 887.71,361.89 888.06,379.91 888.40,376.63 888.74,380.40 889.09,380.30 889.43,384.80 889.77,389.52 890.11,391.72 890.46,391.72 890.80,391.72 891.14,391.72 891.49,391.72 891.83,391.72 892.17,391.72 892.51,391.72 892.86,391.72 893.20,391.72 893.54,391.72 893.89,391.72 894.23,391.72 894.57,391.72 894.91,391.72 895.26,391.72 895.60,391.72 895.94,391.72 896.29,392.63 896.63,394.13 896.97,383.15 897.31,389.81 897.66,358.72 898.00,351.46 898.34,351.50 898.69,346.31 899.03,349.67 899.37,353.69 899.71,367.41 900.06,372.45 900.40,378.94 900.74,374.91 901.09,363.63 901.43,361.68 901.77,362.10 902.11,377.07 902.46,367.50 902.80,344.72 903.14,320.29 903.49,316.01 903.83,343.59 904.17,343.30 904.51,328.24 904.86,321.17 905.20,311.77 905.54,321.23 905.89,301.52 906.23,299.88 906.57,327.40 906.91,317.72 907.26,323.75 907.60,291.61 907.94,296.13 908.29,312.15 908.63,307.20 908.97,295.21 909.31,307.52 909.66,297.21 910.00,292.59" fill="none" stroke="#1c7ed6" stroke-width="2"/>
<line x1="70" x2="70" y1="70" y2="450" stroke="#444"/>
<line x1="70" x2="910" y1="450" y2="450" stroke="#444"/>
</svg>