<svg xmlns="http://www.w3.org/2000/svg" width="980" height="520" viewBox="0 0 980 520"><style>text{font-family:Arial,sans-serif;fill:#e9ecef}.title{font-size:20px;font-weight:700}.axis{font-size:12px;fill:#adb5bd}.cell{font-size:11px;fill:#fff}</style><rect width="100%" height="100%" fill="#0b0f14"/><text x="24" y="28" class="title">Equity Curve</text>
<text x="70" y="35" class="axis">Equity</text>
<polyline points="70.00,442.59 70.34,442.59 70.69,442.59 71.03,442.59 71.37,442.59 71.71,442.59 72.06,442.59 72.40,442.59 72.74,442.59 73.09,442.59 73.43,442.59 73.77,442.59 74.11,442.59 74.46,442.59 74.80,442.59 75.14,442.59 75.49,442.59 75.83,442.59 76.17,442.59 76.51,442.59 76.86,442.59 77.20,442.59 77.54,442.59 77.89,442.59 78.23,442.59 78.57,442.59 78.91,442.59 79.26,442.59 79.60,442.59 79.94,442.59 80.29,442.59 80.63,442.59 80.97,442.59 81.31,442.59 81.66,442.59 82.00,442.59 82.34,442.59 82.69,442.59 83.03,442.59 83.37,442.59 83.71,442.59 84.06,442.59 84.40,442.59 84.74,442.59 85.09,442.59 85.43,442.59 85.77,442.59 86.11,442.59 86.46,442.59 86.80,442.59 87.14,442.59 87.49,442.59 87.83,442.59 88.17,442.59 88.51,442.59 88.86,442.59 89.20,442.59 89.54,442.59 89.89,442.59 90.23,442.59 90.57,442.59 90.91,442.59 91.26,442.59 91.60,442.59 91.94,442.59 92.29,442.59 92.63,442.59 92.97,442.59 93.31,442.59 93.66,442.59 94.00,442.59 94.34,442.59 94.69,442.59 95.03,442.59 95.37,442.59 95.71,442.59 96.06,442.59 96.40,442.59 96.74,442.59 97.09,442.59 97.43,442.59 97.77,442.59 98.11,442.59 98.46,442.59 98.80,442.59 99.14,442.59 99.49,442.59 99.83,442.59 100.17,442.59 100.51,442.59 100.86,442.59 101.20,442.59 101.54,442.59 101.89,442.59 102.23,442.59 102.57,442.59 102.91,442.59 103.26,442.59 103.60,442.59 103.94,442.59 104.29,442.59 104.63,442.59 104.97,442.59 105.31,442.59 105.66,442.59 106.00,442.59 106.34,442.59 106.69,442.59 107.03,442.59 107.37,442.59 107.71,442.59 108.06,442.59 108.40,442.59 108.74,442.59 109.09,442.59 109.43,442.59 109.77,442.59 110.11,442.59 110.46,442.59 110.80,442.59 111.14,442.59 111.49,442.59 111.83,442.59 112.17,442.59 112.51,442.59 112.86,442.59 113.20,442.59 113.54,442.59 113.89,442.59 114.23,442.59 114.57,442.59 114.91,442.59 115.26,442.59 115.60,442.59 115.94,442.59 116.29,442.59 116.63,442.59 116.97,442.59 117.31,442.59 117.66,442.59 118.00,442.59 118.34,442.59 118.69,442.59 119.03,442.59 119.37,442.59 119.71,442.59 120.06,442.59 120.40,442.59 120.74,442.59 121.09,442.59 121.43,442.59 121.77,442.59 122.11,442.59 122.46,442.59 122.80,442.59 123.14,442.59 123.49,442.59 123.83,442.59 124.17,442.59 124.51,442.59 124.86,442.59 125.20,442.66 125.54,442.78 125.89,442.73 126.23,443.64 126.57,443.51 126.91,443.80 127.26,443.60 127.60,443.68 127.94,442.60 128.29,441.75 128.63,441.14 128.97,440.92 129.31,448.31 129.66,448.31 130.00,448.31 130.34,448.31 130.69,448.31 131.03,448.31 131.37,448.31 131.71,448.31 132.06,448.31 132.40,448.31 132.74,448.31 133.09,448.31 133.43,448.31 133.77,448.31 134.11,448.31 134.46,448.31 134.80,448.31 135.14,448.31 135.49,448.31 135.83,448.31 136.17,448.31 136.51,448.31 136.86,448.31 137.20,448.31 137.54,448.31 137.89,448.31 138.23,448.31 138.57,448.31 138.91,448.31 139.26,448.31 139.60,448.31 139.94,448.31 140.29,448.31 140.63,448.38 140.97,448.93 141.31,448.33 141.66,448.39 142.00,448.93 142.34,449.12 142.69,450.00 143.03,449.68 143.37,449.57 143.71,449.69 144.06,446.56 144.40,447.66 144.74,445.74 145.09,448.68 145.43,448.73 145.77,443.76 146.11,444.47 146.46,441.57 146.80,437.10 147.14,431.46 147.49,430.27 147.83,433.28 148.17,434.50 148.51,428.36 148.86,429.23 149.20,424.37 149.54,424.13 149.89,424.11 150.23,428.28 150.57,425.09 150.91,427.40 151.26,425.74 151.60,425.16 151.94,424.50 152.29,420.62 152.63,423.52 152.97,423.84 153.31,411.93 153.66,409.43 154.00,420.17 154.34,421.04 154.69,427.12 155.03,428.79 155.37,428.79 155.71,428.79 156.06,428.79 156.40,428.79 156.74,428.79 157.09,428.79 157.43,428.79 157.77,428.79 158.11,428.79 158.46,428.79 158.80,428.79 159.14,428.79 159.49,428.79 159.83,428.79 160.17,428.79 160.51,428.79 160.86,428.86 161.20,427.16 161.54,423.90 161.89,423.12 162.23,423.01 162.57,423.37 162.91,419.82 163.26,420.00 163.60,424.58 163.94,423.65 164.29,421.22 164.63,422.82 164.97,422.62 165.31,422.61 165.66,425.94 166.00,425.94 166.34,425.94 166.69,425.94 167.03,425.94 167.37,425.94 167.71,425.94 168.06,425.94 168.40,425.94 168.74,425.94 169.09,425.94 169.43,425.94 169.77,425.94 170.11,425.94 170.46,425.94 170.80,425.94 171.14,425.94 171.49,425.94 171.83,425.94 172.17,425.94 172.51,425.94 172.86,425.94 173.20,425.94 173.54,425.94 173.89,425.94 174.23,425.94 174.57,425.94 174.91,425.94 175.26,425.94 175.60,425.94 175.94,425.94 176.29,425.94 176.63,425.94 176.97,425.94 177.31,425.94 177.66,425.94 178.00,425.94 178.34,425.94 178.69,425.94 179.03,425.94 179.37,425.94 179.71,425.94 180.06,425.94 180.40,425.94 180.74,425.94 181.09,425.94 181.43,425.94 181.77,425.94 182.11,425.94 182.46,425.94 182.80,425.94 183.14,425.94 183.49,425.94 183.83,425.94 184.17,425.94 184.51,425.94 184.86,425.94 185.20,425.94 185.54,425.94 185.89,425.94 186.23,425.94 186.57,425.94 186.91,425.94 187.26,425.94 187.60,425.94 187.94,425.94 188.29,425.94 188.63,425.94 188.97,425.94 189.31,425.94 189.66,425.94 190.00,425.94 190.34,425.94 190.69,425.94 191.03,425.94 191.37,425.94 191.71,425.94 192.06,425.94 192.40,425.94 192.74,425.94 193.09,425.94 193.43,425.94 193.77,425.94 194.11,425.94 194.46,425.94 194.80,425.94 195.14,425.94 195.49,425.94 195.83,425.94 196.17,425.94 196.51,425.94 196.86,425.94 197.20,425.94 197.54,425.94 197.89,425.94 198.23,425.94 198.57,425.94 198.91,425.94 199.26,425.94 199.60,425.94 199.94,425.94 200.29,425.94 200.63,425.94 200.97,425.94 201.31,425.94 201.66,425.94 202.00,425.94 202.34,425.94 202.69,425.94 203.03,425.94 203.37,425.94 203.71,425.94 204.06,425.94 204.40,425.94 204.74,425.94 205.09,425.94 205.43,425.94 205.77,425.94 206.11,425.94 206.46,425.94 206.80,425.94 207.14,425.94 207.49,425.94 207.83,425.94 208.17,425.94 208.51,425.94 208.86,425.94 209.20,425.94 209.54,425.94 209.89,425.94 210.23,425.94 210.57,425.94 210.91,425.94 211.26,425.94 211.60,425.94 211.94,425.94 212.29,425.94 212.63,425.94 212.97,425.94 213.31,425.94 213.66,425.94 214.00,425.94 214.34,425.94 214.69,425.94 215.03,425.94 215.37,425.94 215.71,425.94 216.06,425.94 216.40,425.94 216.74,425.94 217.09,425.94 217.43,425.94 217.77,425.94 218.11,425.94 218.46,425.94 218.80,425.94 219.14,425.94 219.49,425.94 219.83,425.94 220.17,425.94 220.51,425.94 220.86,425.94 221.20,425.94 221.54,425.94 221.89,425.94 222.23,425.94 222.57,425.94 222.91,425.94 223.26,425.94 223.60,425.94 223.94,425.94 224.29,425.94 224.63,425.94 224.97,425.94 225.31,425.94 225.66,425.94 226.00,425.94 226.34,425.94 226.69,425.94 227.03,425.94 227.37,425.94 227.71,425.94 228.06,425.94 228.40,425.94 228.74,425.94 229.09,425.94 229.43,425.94 229.77,425.94 230.11,425.94 230.46,425.94 230.80,425.94 231.14,425.94 231.49,425.94 231.83,425.94 232.17,425.94 232.51,425.94 232.86,425.94 233.20,426.01 233.54,426.33 233.89,427.06 234.23,426.53 234.57,424.43 234.91,426.61 235.26,426.98 235.60,428.66 235.94,428.40 236.29,426.53 236.63,425.70 236.97,423.25 237.31,421.73 237.66,417.09 238.00,415.80 238.34,397.88 238.69,400.21 239.03,396.72 239.37,394.92 239.71,399.33 240.06,397.59 240.40,396.59 240.74,397.41 241.09,398.05 241.43,393.87 241.77,397.54 242.11,397.11 242.46,392.96 242.80,393.38 243.14,392.11 243.49,394.43 243.83,396.61 244.17,395.88 244.51,401.93 244.86,401.93 245.20,401.93 245.54,401.93 245.89,401.93 246.23,401.93 246.57,401.93 246.91,401.93 247.26,401.93 247.60,401.93 247.94,401.93 248.29,401.93 248.63,401.93 248.97,401.93 249.31,401.93 249.66,401.93 250.00,401.93 250.34,401.93 250.69,401.93 251.03,401.93 251.37,401.93 251.71,401.93 252.06,401.93 252.40,401.93 252.74,401.93 253.09,401.93 253.43,401.93 253.77,401.93 254.11,401.93 254.46,401.93 254.80,401.93 255.14,401.93 255.49,401.93 255.83,401.93 256.17,401.93 256.51,401.93 256.86,401.93 257.20,401.93 257.54,401.93 257.89,401.93 258.23,401.93 258.57,401.93 258.91,401.93 259.26,401.93 259.60,401.93 259.94,401.93 260.29,401.93 260.63,401.93 260.97,401.93 261.31,401.93 261.66,401.93 262.00,401.93 262.34,401.93 262.69,401.93 263.03,401.93 263.37,401.93 263.71,401.93 264.06,401.93 264.40,401.93 264.74,401.93 265.09,401.93 265.43,401.93 265.77,401.93 266.11,401.93 266.46,401.93 266.80,401.93 267.14,401.93 267.49,401.93 267.83,401.93 268.17,401.93 268.51,401.93 268.86,401.93 269.20,401.93 269.54,401.93 269.89,401.93 270.23,401.93 270.57,401.93 270.91,401.93 271.26,401.93 271.60,401.93 271.94,401.93 272.29,401.93 272.63,401.93 272.97,401.93 273.31,401.93 273.66,401.93 274.00,401.93 274.34,401.93 274.69,401.93 275.03,401.93 275.37,401.93 275.71,401.93 276.06,401.93 276.40,401.93 276.74,402.00 277.09,401.89 277.43,402.77 277.77,403.35 278.11,401.39 278.46,402.46 278.80,405.17 279.14,405.17 279.49,405.17 279.83,405.17 280.17,405.17 280.51,405.17 280.86,405.17 281.20,405.17 281.54,405.17 281.89,405.17 282.23,405.17 282.57,405.17 282.91,405.17 283.26,405.17 283.60,405.17 283.94,405.17 284.29,405.17 284.63,405.17 284.97,405.17 285.31,405.17 285.66,405.17 286.00,405.17 286.34,405.17 286.69,405.17 287.03,405.17 287.37,405.17 287.71,405.24 288.06,402.64 288.40,403.79 288.74,403.10 289.09,406.36 289.43,408.35 289.77,406.51 290.11,410.38 290.46,409.14 290.80,408.83 291.14,409.04 291.49,409.26 291.83,407.58 292.17,407.55 292.51,407.93 292.86,407.88 293.20,406.66 293.54,404.30 293.89,402.66 294.23,406.48 294.57,405.35 294.91,405.31 295.26,401.31 295.60,401.14 295.94,394.66 296.29,388.08 296.63,381.66 296.97,383.08 297.31,371.19 297.66,371.15 298.00,366.95 298.34,341.99 298.69,346.31 299.03,348.58 299.37,360.97 299.71,365.45 300.06,361.31 300.40,349.99 300.74,350.89 301.09,352.62 301.43,361.29 301.77,352.74 302.11,351.13 302.46,349.06 302.80,353.28 303.14,354.68 303.49,346.22 303.83,349.49 304.17,345.50 304.51,333.24 304.86,334.79 305.20,333.37 305.54,331.62 305.89,334.56 306.23,338.83 306.57,329.12 306.91,340.08 307.26,347.81 307.60,347.81 307.94,347.81 308.29,347.81 308.63,347.81 308.97,347.81 309.31,347.81 309.66,347.81 310.00,347.81 310.34,347.81 310.69,347.81 311.03,347.81 311.37,347.81 311.71,347.81 312.06,347.81 312.40,347.81 312.74,347.81 313.09,347.81 313.43,347.81 313.77,347.81 314.11,347.81 314.46,347.81 314.80,347.81 315.14,347.81 315.49,347.81 315.83,347.81 316.17,347.81 316.51,347.81 316.86,347.81 317.20,347.81 317.54,347.81 317.89,347.81 318.23,347.81 318.57,347.81 318.91,347.81 319.26,347.81 319.60,347.81 319.94,347.81 320.29,347.81 320.63,347.81 320.97,347.81 321.31,347.81 321.66,347.81 322.00,347.81 322.34,347.81 322.69,347.81 323.03,347.81 323.37,347.81 323.71,347.81 324.06,347.81 324.40,347.81 324.74,347.81 325.09,347.81 325.43,347.81 325.77,347.81 326.11,347.81 326.46,347.81 326.80,347.81 327.14,347.81 327.49,347.81 327.83,347.81 328.17,347.81 328.51,347.81 328.86,347.81 329.20,347.81 329.54,347.81 329.89,347.81 330.23,347.81 330.57,347.81 330.91,347.81 331.26,347.81 331.60,347.81 331.94,347.81 332.29,347.81 332.63,347.81 332.97,347.81 333.31,347.81 333.66,347.81 334.00,347.81 334.34,347.81 334.69,347.81 335.03,347.81 335.37,347.81 335.71,347.81 336.06,347.81 336.40,347.81 336.74,347.81 337.09,347.81 337.43,347.81 337.77,347.81 338.11,347.81 338.46,347.81 338.80,347.81 339.14,347.81 339.49,347.81 339.83,347.81 340.17,347.81 340.51,347.81 340.86,347.81 341.20,347.81 341.54,347.81 341.89,347.81 342.23,347.81 342.57,347.81 342.91,347.81 343.26,347.81 343.60,347.81 343.94,347.81 344.29,347.81 344.63,347.81 344.97,347.81 345.31,347.81 345.66,347.81 346.00,347.81 346.34,347.81 346.69,347.81 347.03,347.81 347.37,347.81 347.71,347.81 348.06,347.81 348.40,347.81 348.74,347.81 349.09,347.81 349.43,347.81 349.77,347.81 350.11,347.81 350.46,347.81 350.80,347.81 351.14,347.81 351.49,347.81 351.83,347.81 352.17,347.81 352.51,347.81 352.86,347.81 353.20,347.81 353.54,347.81 353.89,347.81 354.23,347.81 354.57,347.81 354.91,347.81 355.26,347.81 355.60,347.81 355.94,347.81 356.29,347.81 356.63,347.81 356.97,347.81 357.31,347.81 357.66,347.81 358.00,347.81 358.34,347.81 358.69,347.81 359.03,347.81 359.37,347.81 359.71,347.81 360.06,347.81 360.40,347.81 360.74,347.81 361.09,347.81 361.43,347.81 361.77,347.81 362.11,347.81 362.46,347.81 362.80,347.81 363.14,347.81 363.49,347.81 363.83,347.81 364.17,347.88 364.51,346.80 364.86,346.12 365.20,345.79 365.54,348.72 365.89,349.47 366.23,349.26 366.57,351.27 366.91,351.27 367.26,351.27 367.60,351.27 367.94,351.27 368.29,351.27 368.63,351.27 368.97,351.27 369.31,351.27 369.66,351.27 370.00,351.27 370.34,351.27 370.69,351.27 371.03,351.27 371.37,351.27 371.71,351.27 372.06,351.27 372.40,351.27 372.74,351.27 373.09,351.27 373.43,351.27 373.77,351.27 374.11,351.27 374.46,351.27 374.80,351.27 375.14,351.27 375.49,351.27 375.83,351.27 376.17,351.27 376.51,351.27 376.86,351.27 377.20,351.27 377.54,351.27 377.89,351.27 378.23,351.27 378.57,351.27 378.91,351.27 379.26,351.27 379.60,351.27 379.94,351.27 380.29,351.27 380.63,351.27 380.97,351.27 381.31,351.27 381.66,351.27 382.00,351.27 382.34,351.27 382.69,351.27 383.03,351.27 383.37,351.27 383.71,351.27 384.06,351.27 384.40,351.27 384.74,351.27 385.09,351.27 385.43,351.27 385.77,351.27 386.11,351.27 386.46,351.27 386.80,351.27 387.14,351.27 387.49,351.27 387.83,351.27 388.17,351.27 388.51,351.27 388.86,351.27 389.20,351.27 389.54,351.27 389.89,351.27 390.23,351.27 390.57,351.27 390.91,351.27 391.26,351.27 391.60,351.27 391.94,351.27 392.29,351.27 392.63,351.27 392.97,351.27 393.31,351.27 393.66,351.27 394.00,351.27 394.34,351.27 394.69,351.27 395.03,351.34 395.37,351.86 395.71,351.79 396.06,351.13 396.40,353.66 396.74,354.71 397.09,354.71 397.43,354.71 397.77,354.71 398.11,354.71 398.46,354.71 398.80,354.71 399.14,354.78 399.49,355.12 399.83,354.92 400.17,356.14 400.51,355.46 400.86,354.94 401.20,354.53 401.54,354.65 401.89,355.08 402.23,355.86 402.57,355.91 402.91,350.99 403.26,345.77 403.60,345.32 403.94,346.72 404.29,344.16 404.63,349.56 404.97,348.39 405.31,346.91 405.66,351.43 406.00,357.53 406.34,357.53 406.69,357.53 407.03,357.53 407.37,357.53 407.71,357.53 408.06,357.60 408.40,356.08 408.74,356.15 409.09,355.76 409.43,354.82 409.77,353.92 410.11,356.14 410.46,357.53 410.80,358.15 411.14,360.74 411.49,366.90 411.83,366.90 412.17,366.90 412.51,366.90 412.86,366.90 413.20,366.90 413.54,366.90 413.89,366.97 414.23,367.04 414.57,367.49 414.91,366.78 415.26,367.17 415.60,365.33 415.94,365.10 416.29,360.48 416.63,363.16 416.97,366.24 417.31,370.47 417.66,371.17 418.00,371.58 418.34,372.71 418.69,374.99 419.03,374.99 419.37,375.06 419.71,375.01 420.06,375.42 420.40,375.95 420.74,376.72 421.09,375.20 421.43,375.51 421.77,375.77 422.11,375.30 422.46,374.82 422.80,370.32 423.14,371.21 423.49,372.51 423.83,371.68 424.17,366.75 424.51,367.56 424.86,369.26 425.20,370.66 425.54,369.19 425.89,374.78 426.23,377.53 426.57,377.53 426.91,377.53 427.26,377.53 427.60,377.60 427.94,377.55 428.29,378.21 428.63,376.89 428.97,377.73 429.31,375.09 429.66,375.13 430.00,375.78 430.34,376.63 430.69,375.93 431.03,379.61 431.37,379.96 431.71,378.76 432.06,372.61 432.40,368.65 432.74,367.13 433.09,370.74 433.43,376.13 433.77,370.24 434.11,367.78 434.46,369.85 434.80,365.83 435.14,369.24 435.49,366.35 435.83,368.59 436.17,366.11 436.51,356.65 436.86,357.04 437.20,357.38 437.54,350.78 437.89,349.15 438.23,344.59 438.57,341.46 438.91,344.43 439.26,336.70 439.60,338.17 439.94,347.87 440.29,345.81 440.63,349.97 440.97,346.67 441.31,351.35 441.66,357.96 442.00,357.96 442.34,357.96 442.69,357.96 443.03,357.96 443.37,357.96 443.71,357.96 444.06,357.96 444.40,357.96 444.74,357.96 445.09,357.96 445.43,357.96 445.77,357.96 446.11,357.96 446.46,357.96 446.80,357.96 447.14,357.96 447.49,357.96 447.83,357.96 448.17,357.96 448.51,357.96 448.86,357.96 449.20,357.96 449.54,357.96 449.89,357.96 450.23,357.96 450.57,357.96 450.91,357.96 451.26,357.96 451.60,357.96 451.94,357.96 452.29,357.96 452.63,357.96 452.97,357.96 453.31,357.96 453.66,357.96 454.00,357.96 454.34,357.96 454.69,357.96 455.03,357.96 455.37,357.96 455.71,357.96 456.06,357.96 456.40,357.96 456.74,358.03 457.09,360.23 457.43,359.75 457.77,358.31 458.11,358.43 458.46,358.74 458.80,358.00 459.14,358.07 459.49,359.39 459.83,360.48 460.17,359.82 460.51,360.31 460.86,361.13 461.20,361.13 461.54,361.19 461.89,361.37 462.23,360.55 462.57,361.69 462.91,364.64 463.26,363.88 463.60,364.59 463.94,366.23 464.29,366.23 464.63,366.71 464.97,366.71 465.31,366.71 465.66,366.78 466.00,366.31 466.34,364.92 466.69,362.63 467.03,355.67 467.37,358.23 467.71,353.22 468.06,354.62 468.40,354.43 468.74,358.31 469.09,356.32 469.43,353.40 469.77,345.43 470.11,344.71 470.46,345.30 470.80,351.23 471.14,351.01 471.49,348.75 471.83,347.58 472.17,343.90 472.51,335.37 472.86,340.34 473.20,339.47 473.54,344.33 473.89,345.20 474.23,341.99 474.57,340.27 474.91,348.17 475.26,344.68 475.60,352.40 475.94,352.40 476.29,352.40 476.63,352.40 476.97,352.40 477.31,352.40 477.66,352.40 478.00,352.40 478.34,352.40 478.69,352.40 479.03,352.40 479.37,352.40 479.71,352.40 480.06,352.40 480.40,352.40 480.74,352.40 481.09,352.40 481.43,352.40 481.77,352.40 482.11,352.40 482.46,352.40 482.80,352.40 483.14,352.40 483.49,352.40 483.83,352.40 484.17,352.40 484.51,352.40 484.86,352.40 485.20,352.40 485.54,352.40 485.89,352.40 486.23,352.40 486.57,352.40 486.91,352.40 487.26,352.40 487.60,352.40 487.94,352.40 488.29,352.40 488.63,352.40 488.97,352.40 489.31,352.40 489.66,352.40 490.00,352.40 490.34,352.40 490.69,352.40 491.03,352.40 491.37,352.40 491.71,352.40 492.06,352.40 492.40,352.40 492.74,352.40 493.09,352.40 493.43,352.40 493.77,352.40 494.11,352.40 494.46,352.40 494.80,352.40 495.14,352.40 495.49,352.40 495.83,352.40 496.17,352.40 496.51,352.40 496.86,352.40 497.20,352.40 497.54,352.40 497.89,352.40 498.23,352.40 498.57,352.40 498.91,352.40 499.26,352.47 499.60,352.44 499.94,352.46 500.29,352.68 500.63,352.68 500.97,352.50 501.31,352.77 501.66,354.16 502.00,353.71 502.34,353.32 502.69,353.46 503.03,353.82 503.37,353.41 503.71,352.78 504.06,352.60 504.40,353.18 504.74,353.12 505.09,353.21 505.43,353.45 505.77,353.67 506.11,353.06 506.46,353.56 506.80,353.91 507.14,350.94 507.49,350.45 507.83,349.65 508.17,347.06 508.51,347.20 508.86,348.20 509.20,346.24 509.54,342.77 509.89,339.40 510.23,337.57 510.57,339.89 510.91,334.22 511.26,339.93 511.60,341.37 511.94,342.12 512.29,340.81 512.63,342.24 512.97,341.50 513.31,334.56 513.66,336.97 514.00,334.00 514.34,333.87 514.69,327.05 515.03,327.15 515.37,324.82 515.71,329.22 516.06,325.61 516.40,325.62 516.74,329.22 517.09,324.81 517.43,324.80 517.77,324.03 518.11,325.37 518.46,321.43 518.80,317.18 519.14,319.95 519.49,316.93 519.83,318.63 520.17,320.04 520.51,319.43 520.86,319.15 521.20,310.11 521.54,310.23 521.89,300.51 522.23,300.19 522.57,305.30 522.91,308.44 523.26,311.35 523.60,310.99 523.94,305.87 524.29,316.47 524.63,316.47 524.97,316.47 525.31,316.47 525.66,316.47 526.00,316.47 526.34,316.47 526.69,316.47 527.03,316.47 527.37,316.47 527.71,316.47 528.06,316.47 528.40,316.47 528.74,316.47 529.09,316.47 529.43,316.47 529.77,316.47 530.11,316.47 530.46,316.47 530.80,316.47 531.14,316.47 531.49,316.47 531.83,316.47 532.17,316.47 532.51,316.54 532.86,317.64 533.20,317.31 533.54,319.47 533.89,319.47 534.23,319.47 534.57,319.47 534.91,319.47 535.26,319.47 535.60,319.47 535.94,319.54 536.29,320.43 536.63,319.28 536.97,319.57 537.31,319.87 537.66,319.42 538.00,319.33 538.34,319.91 538.69,319.37 539.03,318.63 539.37,319.01 539.71,319.89 540.06,321.42 540.40,323.87 540.74,326.55 541.09,326.55 541.43,326.55 541.77,326.55 542.11,326.55 542.46,326.55 542.80,326.55 543.14,326.62 543.49,325.51 543.83,325.96 544.17,328.13 544.51,328.67 544.86,331.24 545.20,331.57 545.54,331.27 545.89,331.82 546.23,331.99 546.57,331.42 546.91,331.36 547.26,330.39 547.60,331.22 547.94,331.60 548.29,331.31 548.63,332.82 548.97,332.89 549.31,333.08 549.66,332.99 550.00,331.61 550.34,332.59 550.69,332.91 551.03,332.27 551.37,333.12 551.71,334.12 552.06,332.17 552.40,331.26 552.74,334.40 553.09,328.56 553.43,330.59 553.77,323.91 554.11,324.97 554.46,320.58 554.80,318.02 555.14,317.09 555.49,315.97 555.83,311.32 556.17,315.86 556.51,313.92 556.86,315.78 557.20,311.78 557.54,315.23 557.89,314.47 558.23,312.59 558.57,313.76 558.91,311.51 559.26,312.35 559.60,317.67 559.94,318.29 560.29,315.81 560.63,317.08 560.97,317.90 561.31,306.73 561.66,306.72 562.00,302.50 562.34,298.33 562.69,297.60 563.03,299.23 563.37,302.18 563.71,300.73 564.06,304.98 564.40,303.19 564.74,301.25 565.09,304.15 565.43,302.87 565.77,305.21 566.11,302.06 566.46,297.55 566.80,294.98 567.14,287.46 567.49,288.93 567.83,296.46 568.17,294.29 568.51,294.48 568.86,293.74 569.20,298.31 569.54,301.64 569.89,301.71 570.23,301.26 570.57,301.49 570.91,301.18 571.26,300.98 571.60,304.21 571.94,302.98 572.29,304.96 572.63,306.80 572.97,305.16 573.31,305.92 573.66,306.08 574.00,306.46 574.34,307.71 574.69,307.71 575.03,307.71 575.37,307.78 575.71,308.65 576.06,309.33 576.40,310.77 576.74,310.77 577.09,310.77 577.43,310.77 577.77,310.77 578.11,310.77 578.46,310.77 578.80,310.77 579.14,310.77 579.49,310.77 579.83,310.77 580.17,310.77 580.51,310.77 580.86,310.84 581.20,310.47 581.54,310.68 581.89,310.59 582.23,310.78 582.57,311.64 582.91,312.06 583.26,314.26 583.60,312.65 583.94,313.61 584.29,311.91 584.63,310.38 584.97,312.51 585.31,312.83 585.66,313.84 586.00,314.15 586.34,314.51 586.69,314.80 587.03,316.62 587.37,316.62 587.71,316.62 588.06,316.62 588.40,316.62 588.74,316.62 589.09,316.62 589.43,316.62 589.77,316.62 590.11,316.62 590.46,316.62 590.80,316.62 591.14,316.62 591.49,316.62 591.83,316.69 592.17,312.93 592.51,312.23 592.86,310.62 593.20,307.91 593.54,305.49 593.89,311.75 594.23,312.37 594.57,309.05 594.91,304.76 595.26,305.11 595.60,305.88 595.94,302.34 596.29,295.76 596.63,281.28 596.97,275.97 597.31,265.75 597.66,263.70 598.00,271.02 598.34,270.79 598.69,270.38 599.03,283.56 599.37,266.32 599.71,266.11 600.06,267.70 600.40,276.23 600.74,277.75 601.09,276.62 601.43,266.34 601.77,273.48 602.11,267.81 602.46,268.45 602.80,272.46 603.14,262.13 603.49,252.37 603.83,262.78 604.17,262.92 604.51,266.50 604.86,262.71 605.20,268.25 605.54,266.03 605.89,261.96 606.23,259.91 606.57,269.19 606.91,252.74 607.26,254.97 607.60,243.25 607.94,237.92 608.29,224.35 608.63,224.49 608.97,226.42 609.31,219.07 609.66,224.28 610.00,216.78 610.34,213.12 610.69,218.58 611.03,227.06 611.37,221.22 611.71,223.75 612.06,225.94 612.40,211.75 612.74,211.13 613.09,203.45 613.43,204.23 613.77,211.37 614.11,214.52 614.46,210.48 614.80,200.36 615.14,198.41 615.49,215.41 615.83,221.70 616.17,225.59 616.51,225.59 616.86,225.59 617.20,225.59 617.54,225.59 617.89,225.59 618.23,225.59 618.57,225.59 618.91,225.59 619.26,225.59 619.60,225.59 619.94,225.59 620.29,225.59 620.63,225.59 620.97,225.59 621.31,225.59 621.66,225.59 622.00,225.59 622.34,225.59 622.69,225.59 623.03,225.59 623.37,225.59 623.71,225.59 624.06,225.59 624.40,225.59 624.74,225.59 625.09,225.59 625.43,225.59 625.77,225.59 626.11,225.59 626.46,225.59 626.80,225.59 627.14,225.59 627.49,225.59 627.83,225.59 628.17,225.59 628.51,225.59 628.86,225.59 629.20,225.59 629.54,225.59 629.89,225.59 630.23,225.59 630.57,225.59 630.91,225.59 631.26,225.59 631.60,225.59 631.94,225.59 632.29,225.59 632.63,225.59 632.97,225.59 633.31,225.59 633.66,225.59 634.00,225.59 634.34,225.59 634.69,225.59 635.03,225.59 635.37,225.59 635.71,225.59 636.06,225.59 636.40,225.59 636.74,225.59 637.09,225.59 637.43,225.59 637.77,225.59 638.11,225.59 638.46,225.59 638.80,225.59 639.14,225.59 639.49,225.59 639.83,225.59 640.17,225.59 640.51,225.59 640.86,225.59 641.20,225.59 641.54,225.59 641.89,225.59 642.23,225.66 642.57,223.84 642.91,223.94 643.26,222.86 643.60,222.48 643.94,217.98 644.29,206.51 644.63,199.36 644.97,195.54 645.31,204.01 645.66,206.21 646.00,201.23 646.34,208.07 646.69,209.12 647.03,204.11 647.37,206.00 647.71,203.75 648.06,201.91 648.40,203.20 648.74,202.90 649.09,200.76 649.43,196.67 649.77,191.15 650.11,198.25 650.46,193.57 650.80,195.20 651.14,187.71 651.49,193.96 651.83,205.85 652.17,204.03 652.51,198.94 652.86,197.15 653.20,196.24 653.54,198.32 653.89,199.33 654.23,194.15 654.57,190.10 654.91,192.50 655.26,181.36 655.60,176.32 655.94,172.30 656.29,159.98 656.63,152.50 656.97,164.25 657.31,161.55 657.66,159.59 658.00,189.76 658.34,187.15 658.69,162.05 659.03,164.01 659.37,145.89 659.71,144.58 660.06,142.60 660.40,157.33 660.74,163.39 661.09,188.64 661.43,204.49 661.77,185.68 662.11,183.31 662.46,176.82 662.80,178.19 663.14,182.95 663.49,189.32 663.83,199.53 664.17,200.90 664.51,200.26 664.86,201.28 665.20,201.28 665.54,197.04 665.89,196.40 666.23,196.28 666.57,201.33 666.91,200.30 667.26,207.02 667.60,207.02 667.94,207.02 668.29,207.02 668.63,207.02 668.97,207.25 669.31,207.87 669.66,207.74 670.00,208.56 670.34,208.24 670.69,209.22 671.03,208.72 671.37,208.39 671.71,208.40 672.06,208.47 672.40,208.58 672.74,208.25 673.09,209.05 673.43,209.06 673.77,209.45 674.11,209.07 674.46,209.30 674.80,208.17 675.14,207.90 675.49,207.80 675.83,207.93 676.17,207.62 676.51,206.97 676.86,204.10 677.20,201.61 677.54,197.81 677.89,195.50 678.23,200.27 678.57,199.15 678.91,200.47 679.26,200.06 679.60,198.52 679.94,197.22 680.29,192.07 680.63,187.33 680.97,189.93 681.31,194.52 681.66,193.74 682.00,197.03 682.34,193.28 682.69,195.54 683.03,189.36 683.37,194.44 683.71,196.19 684.06,197.47 684.40,196.48 684.74,196.06 685.09,197.28 685.43,195.08 685.77,193.65 686.11,191.21 686.46,196.05 686.80,192.81 687.14,193.14 687.49,192.16 687.83,188.41 688.17,190.50 688.51,191.08 688.86,190.49 689.20,187.67 689.54,187.77 689.89,182.85 690.23,183.64 690.57,182.97 690.91,179.02 691.26,177.37 691.60,175.22 691.94,178.05 692.29,176.09 692.63,169.99 692.97,155.10 693.31,135.97 693.66,141.33 694.00,139.03 694.34,119.65 694.69,121.85 695.03,122.59 695.37,131.02 695.71,121.30 696.06,122.08 696.40,104.53 696.74,93.30 697.09,72.44 697.43,79.26 697.77,70.00 698.11,116.55 698.46,108.92 698.80,88.03 699.14,99.30 699.49,87.97 699.83,85.92 700.17,96.64 700.51,90.68 700.86,96.38 701.20,97.41 701.54,98.40 701.89,88.38 702.23,93.19 702.57,87.58 702.91,80.50 703.26,80.63 703.60,88.33 703.94,97.64 704.29,94.47 704.63,94.81 704.97,96.40 705.31,93.03 705.66,94.45 706.00,95.80 706.34,91.67 706.69,91.74 707.03,91.22 707.37,92.57 707.71,95.15 708.06,118.34 708.40,118.34 708.74,118.48 709.09,120.88 709.43,120.07 709.77,122.23 710.11,123.79 710.46,122.47 710.80,123.21 711.14,123.18 711.49,124.08 711.83,122.11 712.17,123.26 712.51,123.30 712.86,125.17 713.20,125.17 713.54,125.17 713.89,125.17 714.23,125.17 714.57,125.17 714.91,125.17 715.26,125.17 715.60,125.17 715.94,125.17 716.29,125.17 716.63,125.17 716.97,125.17 717.31,125.17 717.66,125.17 718.00,125.17 718.34,125.17 718.69,125.17 719.03,125.17 719.37,125.33 719.71,124.93 720.06,127.40 720.40,127.20 720.74,127.09 721.09,127.12 721.43,126.48 721.77,126.30 722.11,126.78 722.46,127.03 722.80,127.46 723.14,127.31 723.49,128.57 723.83,128.57 724.17,128.57 724.51,128.57 724.86,128.77 725.20,130.05 725.54,135.09 725.89,135.28 726.23,135.20 726.57,135.88 726.91,135.88 727.26,135.88 727.60,135.88 727.94,135.88 728.29,135.88 728.63,135.88 728.97,135.88 729.31,136.08 729.66,134.64 730.00,135.82 730.34,135.23 730.69,141.32 731.03,139.02 731.37,137.48 731.71,134.89 732.06,135.15 732.40,132.58 732.74,134.08 733.09,129.09 733.43,126.68 733.77,128.80 734.11,130.08 734.46,144.64 734.80,144.64 735.14,144.64 735.49,144.64 735.83,144.64 736.17,144.64 736.51,144.64 736.86,144.64 737.20,144.64 737.54,144.64 737.89,144.64 738.23,144.64 738.57,144.64 738.91,144.64 739.26,144.64 739.60,144.64 739.94,144.79 740.29,148.06 740.63,148.06 740.97,148.06 741.31,148.06 741.66,148.06 742.00,148.06 742.34,148.06 742.69,148.06 743.03,148.06 743.37,148.06 743.71,148.06 744.06,148.06 744.40,148.06 744.74,148.06 745.09,148.06 745.43,148.06 745.77,148.06 746.11,148.06 746.46,148.06 746.80,148.06 747.14,148.06 747.49,148.06 747.83,148.22 748.17,148.03 748.51,147.86 748.86,149.16 749.20,149.66 749.54,149.51 749.89,149.18 750.23,149.70 750.57,149.22 750.91,149.80 751.26,149.42 751.60,149.69 751.94,148.89 752.29,147.73 752.63,147.83 752.97,148.61 753.31,148.61 753.66,147.19 754.00,144.97 754.34,147.06 754.69,150.19 755.03,149.78 755.37,151.25 755.71,151.23 756.06,153.23 756.40,153.23 756.74,153.23 757.09,153.23 757.43,153.23 757.77,153.46 758.11,153.23 758.46,153.51 758.80,153.49 759.14,151.65 759.49,153.50 759.83,154.20 760.17,153.24 760.51,152.96 760.86,153.34 761.20,153.76 761.54,154.71 761.89,150.21 762.23,152.90 762.57,152.93 762.91,147.66 763.26,146.33 763.60,147.78 763.94,144.93 764.29,150.50 764.63,149.74 764.97,146.89 765.31,139.58 765.66,139.59 766.00,143.78 766.34,143.42 766.69,145.29 767.03,143.31 767.37,141.33 767.71,144.21 768.06,142.72 768.40,141.99 768.74,140.87 769.09,142.31 769.43,139.63 769.77,146.55 770.11,143.16 770.46,142.33 770.80,144.80 771.14,143.22 771.49,141.14 771.83,141.91 772.17,142.54 772.51,144.47 772.86,151.85 773.20,152.09 773.54,151.90 773.89,152.28 774.23,151.82 774.57,152.07 774.91,152.26 775.26,152.58 775.60,152.64 775.94,151.82 776.29,152.68 776.63,152.44 776.97,153.59 777.31,153.59 777.66,153.59 778.00,153.59 778.34,153.59 778.69,153.59 779.03,153.59 779.37,153.59 779.71,153.59 780.06,153.59 780.40,153.59 780.74,153.88 781.09,153.16 781.43,154.18 781.77,154.57 782.11,153.89 782.46,153.93 782.80,152.55 783.14,154.18 783.49,157.26 783.83,157.21 784.17,156.70 784.51,157.42 784.86,158.11 785.20,157.45 785.54,155.21 785.89,149.26 786.23,148.42 786.57,150.68 786.91,146.82 787.26,152.83 787.60,154.09 787.94,152.07 788.29,150.39 788.63,147.34 788.97,144.89 789.31,151.75 789.66,154.34 790.00,154.03 790.34,150.78 790.69,156.58 791.03,156.58 791.37,156.58 791.71,156.58 792.06,156.58 792.40,156.87 792.74,156.94 793.09,157.98 793.43,159.03 793.77,158.82 794.11,159.77 794.46,159.77 794.80,159.77 795.14,159.77 795.49,160.06 795.83,158.67 796.17,158.00 796.51,159.08 796.86,160.29 797.20,159.22 797.54,158.67 797.89,159.96 798.23,158.98 798.57,152.62 798.91,160.03 799.26,163.75 799.60,165.48 799.94,164.88 800.29,165.13 800.63,165.22 800.97,165.76 801.31,165.06 801.66,165.02 802.00,169.83 802.34,172.64 802.69,172.64 803.03,172.64 803.37,172.92 803.71,170.86 804.06,171.65 804.40,171.69 804.74,169.67 805.09,172.96 805.43,172.73 805.77,173.75 806.11,175.13 806.46,173.94 806.80,178.45 807.14,178.45 807.49,178.45 807.83,178.45 808.17,178.45 808.51,178.45 808.86,178.45 809.20,178.72 809.54,178.59 809.89,179.23 810.23,179.89 810.57,179.22 810.91,179.97 811.26,180.50 811.60,181.71 811.94,182.05 812.29,182.05 812.63,182.05 812.97,182.33 813.31,181.69 813.66,182.06 814.00,179.66 814.34,180.20 814.69,181.41 815.03,180.22 815.37,181.05 815.71,180.47 816.06,176.69 816.40,179.66 816.74,181.34 817.09,177.13 817.43,178.64 817.77,182.95 818.11,181.81 818.46,180.59 818.80,183.33 819.14,187.11 819.49,187.42 819.83,186.93 820.17,188.31 820.51,189.47 820.86,188.04 821.20,186.40 821.54,188.99 821.89,188.09 822.23,189.61 822.57,193.49 822.91,193.49 823.26,193.49 823.60,193.49 823.94,193.49 824.29,193.49 824.63,193.49 824.97,193.49 825.31,193.80 825.66,191.00 826.00,188.74 826.34,190.59 826.69,193.07 827.03,194.83 827.37,197.61 827.71,203.42 828.06,203.42 828.40,203.42 828.74,203.42 829.09,203.42 829.43,203.42 829.77,203.42 830.11,203.42 830.46,203.42 830.80,203.42 831.14,203.42 831.49,203.42 831.83,203.42 832.17,203.42 832.51,203.42 832.86,203.42 833.20,203.42 833.54,203.42 833.89,203.71 834.23,202.57 834.57,206.63 834.91,206.55 835.26,204.62 835.60,196.99 835.94,198.24 836.29,199.26 836.63,193.59 836.97,193.98 837.31,186.19 837.66,192.89 838.00,191.42 838.34,192.10 838.69,200.95 839.03,203.15 839.37,203.15 839.71,203.15 840.06,203.15 840.40,203.15 840.74,203.15 841.09,203.15 841.43,203.15 841.77,203.15 842.11,203.15 842.46,203.15 842.80,203.15 843.14,203.15 843.49,203.15 843.83,203.15 844.17,203.15 844.51,203.15 844.86,203.15 845.20,203.15 845.54,203.15 845.89,203.15 846.23,203.15 846.57,203.15 846.91,203.39 847.26,205.08 847.60,204.99 847.94,206.55 848.29,206.55 848.63,206.79 848.97,206.60 849.31,206.04 849.66,206.00 850.00,204.06 850.34,203.80 850.69,203.25 851.03,206.41 851.37,202.74 851.71,202.26 852.06,196.86 852.40,191.85 852.74,194.84 853.09,186.27 853.43,190.37 853.77,195.37 854.11,195.28 854.46,193.38 854.80,198.16 855.14,196.61 855.49,196.97 855.83,199.99 856.17,198.96 856.51,199.22 856.86,199.90 857.20,198.74 857.54,194.63 857.89,197.33 858.23,202.02 858.57,198.27 858.91,199.78 859.26,201.17 859.60,199.41 859.94,195.84 860.29,198.00 860.63,190.20 860.97,189.74 861.31,195.85 861.66,198.53 862.00,195.78 862.34,195.04 862.69,196.01 863.03,193.35 863.37,188.75 863.71,190.70 864.06,190.72 864.40,187.54 864.74,186.85 865.09,182.23 865.43,178.09 865.77,178.94 866.11,172.12 866.46,171.80 866.80,172.11 867.14,172.99 867.49,170.90 867.83,169.23 868.17,171.77 868.51,164.32 868.86,166.93 869.20,166.97 869.54,167.41 869.89,166.68 870.23,168.73 870.57,166.02 870.91,164.39 871.26,166.24 871.60,170.83 871.94,180.26 872.29,180.54 872.63,180.53 872.97,181.55 873.31,181.34 873.66,181.03 874.00,181.82 874.34,179.67 874.69,180.06 875.03,180.69 875.37,182.29 875.71,179.37 876.06,182.58 876.40,183.23 876.74,185.22 877.09,186.60 877.43,186.89 877.77,186.70 878.11,187.07 878.46,187.11 878.80,187.43 879.14,186.44 879.49,186.71 879.83,184.70 880.17,181.46 880.51,179.94 880.86,182.86 881.20,184.16 881.54,182.34 881.89,187.88 882.23,188.73 882.57,192.70 882.91,199.96 883.26,199.96 883.60,199.96 883.94,199.96 884.29,199.96 884.63,199.96 884.97,199.96 885.31,199.96 885.66,199.96 886.00,199.96 886.34,199.96 886.69,199.96 887.03,199.96 887.37,199.96 887.71,199.96 888.06,200.20 888.40,199.82 888.74,201.87 889.09,201.81 889.43,204.26 889.77,206.26 890.11,206.86 890.46,206.86 890.80,206.86 891.14,206.86 891.49,206.86 891.83,206.86 892.17,206.86 892.51,206.86 892.86,206.86 893.20,206.86 893.54,206.86 893.89,206.86 894.23,206.86 894.57,206.86 894.91,206.86 895.26,206.86 895.60,206.86 895.94,206.86 896.29,207.08 896.63,207.16 896.97,206.28 897.31,207.45 897.66,204.86 898.00,205.45 898.34,205.45 898.69,203.63 899.03,206.28 899.37,207.01 899.71,210.28 900.06,210.46 900.40,210.91 900.74,209.48 901.09,206.61 901.43,206.87 901.77,207.11 902.11,210.65 902.46,208.30 902.80,202.34 903.14,198.20 903.49,194.70 903.83,202.65 904.17,203.05 904.51,198.36 904.86,195.29 905.20,191.81 905.54,193.29 905.89,189.52 906.23,187.75 906.57,195.49 906.91,194.18 907.26,196.23 907.60,185.81 907.94,187.44 908.29,190.97 908.63,189.58 908.97,186.77 909.31,191.26 909.66,188.13 910.00,187.90" fill="none" stroke="#1c7ed6" stroke-width="2"/>
<line x1="70" x2="70" y1="70" y2="450" stroke="#444"/>
<line x1="70" x2="910" y1="450" y2="450" stroke="#444"/>
</svg>