<svg xmlns="http://www.w3.org/2000/svg" width="980" height="520" viewBox="0 0 980 520"><style>text{font-family:Arial,sans-serif;fill:#e9ecef}.title{font-size:20px;font-weight:700}.axis{font-size:12px;fill:#adb5bd}.cell{font-size:11px;fill:#fff}</style><rect width="100%" height="100%" fill="#0b0f14"/><text x="24" y="28" class="title">Monte Carlo Max Drawdown</text>
<text x="70" y="35" class="axis">Count</text>
<rect x="70.00" y="439.66" width="26.00" height="10.34" fill="#2f9e44" opacity="0.82"/>
<rect x="98.00" y="391.10" width="26.00" height="58.90" fill="#2f9e44" opacity="0.82"/>
<rect x="126.00" y="315.61" width="26.00" height="134.39" fill="#2f9e44" opacity="0.82"/>
<rect x="154.00" y="194.37" width="26.00" height="255.63" fill="#2f9e44" opacity="0.82"/>
<rect x="182.00" y="96.94" width="26.00" height="353.06" fill="#2f9e44" opacity="0.82"/>
<rect x="210.00" y="70.00" width="26.00" height="380.00" fill="#2f9e44" opacity="0.82"/>
<rect x="238.00" y="91.30" width="26.00" height="358.70" fill="#2f9e44" opacity="0.82"/>
<rect x="266.00" y="97.88" width="26.00" height="352.12" fill="#2f9e44" opacity="0.82"/>
<rect x="294.00" y="161.79" width="26.00" height="288.21" fill="#2f9e44" opacity="0.82"/>
<rect x="322.00" y="229.77" width="26.00" height="220.23" fill="#2f9e44" opacity="0.82"/>
<rect x="350.00" y="267.05" width="26.00" height="182.95" fill="#2f9e44" opacity="0.82"/>
<rect x="378.00" y="311.22" width="26.00" height="138.78" fill="#2f9e44" opacity="0.82"/>
<rect x="406.00" y="350.38" width="26.00" height="99.62" fill="#2f9e44" opacity="0.82"/>
<rect x="434.00" y="361.34" width="26.00" height="88.66" fill="#2f9e44" opacity="0.82"/>
<rect x="462.00" y="393.61" width="26.00" height="56.39" fill="#2f9e44" opacity="0.82"/>
<rect x="490.00" y="403.95" width="26.00" height="46.05" fill="#2f9e44" opacity="0.82"/>
<rect x="518.00" y="420.24" width="26.00" height="29.76" fill="#2f9e44" opacity="0.82"/>
<rect x="546.00" y="426.82" width="26.00" height="23.18" fill="#2f9e44" opacity="0.82"/>
<rect x="574.00" y="434.02" width="26.00" height="15.98" fill="#2f9e44" opacity="0.82"/>
<rect x="602.00" y="439.98" width="26.00" height="10.02" fill="#2f9e44" opacity="0.82"/>
<rect x="630.00" y="440.60" width="26.00" height="9.40" fill="#2f9e44" opacity="0.82"/>
<rect x="658.00" y="443.11" width="26.00" height="6.89" fill="#2f9e44" opacity="0.82"/>
<rect x="686.00" y="444.67" width="26.00" height="5.33" fill="#2f9e44" opacity="0.82"/>
<rect x="714.00" y="447.18" width="26.00" height="2.82" fill="#2f9e44" opacity="0.82"/>
<rect x="742.00" y="448.43" width="26.00" height="1.57" fill="#2f9e44" opacity="0.82"/>
<rect x="770.00" y="449.37" width="26.00" height="0.63" fill="#2f9e44" opacity="0.82"/>
<rect x="798.00" y="449.06" width="26.00" height="0.94" fill="#2f9e44" opacity="0.82"/>
<rect x="826.00" y="449.37" width="26.00" height="0.63" fill="#2f9e44" opacity="0.82"/>
<rect x="854.00" y="449.37" width="26.00" height="0.63" fill="#2f9e44" opacity="0.82"/>
<rect x="882.00" y="449.06" width="26.00" height="0.94" fill="#2f9e44" opacity="0.82"/>
<line x1="70" x2="910" y1="450.00" y2="450.00" stroke="#444"/>
</svg>