<svg xmlns="http://www.w3.org/2000/svg" width="980" height="520" viewBox="0 0 980 520"><style>text{font-family:Arial,sans-serif;fill:#e9ecef}.title{font-size:20px;font-weight:700}.axis{font-size:12px;fill:#adb5bd}.cell{font-size:11px;fill:#fff}</style><rect width="100%" height="100%" fill="#0b0f14"/><text x="24" y="28" class="title">Rolling Win Rate</text>
<text x="70" y="35" class="axis">Win rate</text>
<polyline points="70.00,188.75 77.57,188.75 85.14,188.75 92.70,212.50 100.27,212.50 107.84,212.50 115.41,212.50 122.97,212.50 130.54,236.25 138.11,260.00 145.68,283.75 153.24,283.75 160.81,260.00 168.38,236.25 175.95,236.25 183.51,236.25 191.08,236.25 198.65,236.25 206.22,212.50 213.78,212.50 221.35,236.25 228.92,236.25 236.49,236.25 244.05,236.25 251.62,236.25 259.19,212.50 266.76,188.75 274.32,165.00 281.89,141.25 289.46,141.25 297.03,165.00 304.59,165.00 312.16,165.00 319.73,165.00 327.30,165.00 334.86,165.00 342.43,165.00 350.00,165.00 357.57,141.25 365.14,117.50 372.70,93.75 380.27,93.75 387.84,93.75 395.41,93.75 402.97,93.75 410.54,93.75 418.11,93.75 425.68,93.75 433.24,93.75 440.81,70.00 448.38,70.00 455.95,70.00 463.51,70.00 471.08,70.00 478.65,70.00 486.22,93.75 493.78,117.50 501.35,141.25 508.92,165.00 516.49,165.00 524.05,165.00 531.62,165.00 539.19,165.00 546.76,141.25 554.32,165.00 561.89,165.00 569.46,188.75 577.03,212.50 584.59,236.25 592.16,236.25 599.73,236.25 607.30,260.00 614.86,283.75 622.43,307.50 630.00,331.25 637.57,355.00 645.14,378.75 652.70,402.50 660.27,426.25 667.84,450.00 675.41,450.00 682.97,450.00 690.54,426.25 698.11,426.25 705.68,426.25 713.24,426.25 720.81,426.25 728.38,426.25 735.95,426.25 743.51,426.25 751.08,426.25 758.65,402.50 766.22,378.75 773.78,402.50 781.35,402.50 788.92,426.25 796.49,402.50 804.05,378.75 811.62,355.00 819.19,355.00 826.76,378.75 834.32,378.75 841.89,378.75 849.46,378.75 857.03,378.75 864.59,378.75 872.16,378.75 879.73,378.75 887.30,355.00 894.86,331.25 902.43,307.50 910.00,283.75" fill="none" stroke="#1c7ed6" stroke-width="2"/>
<line x1="70" x2="70" y1="70" y2="450" stroke="#444"/>
<line x1="70" x2="910" y1="450" y2="450" stroke="#444"/>
</svg>