<svg xmlns="http://www.w3.org/2000/svg" width="980" height="520" viewBox="0 0 980 520"><style>text{font-family:Arial,sans-serif;fill:#e9ecef}.title{font-size:20px;font-weight:700}.axis{font-size:12px;fill:#adb5bd}.cell{font-size:11px;fill:#fff}</style><rect width="100%" height="100%" fill="#0b0f14"/><text x="24" y="28" class="title">Rolling Profit Factor</text>
<text x="70" y="35" class="axis">Profit factor</text>
<polyline points="70.00,326.57 77.57,316.16 85.14,310.75 92.70,327.77 100.27,327.78 107.84,325.01 115.41,325.00 122.97,323.15 130.54,342.00 138.11,356.93 145.68,367.45 153.24,366.63 160.81,355.65 168.38,344.21 175.95,362.69 183.51,368.37 191.08,373.91 198.65,379.33 206.22,362.86 213.78,361.78 221.35,366.48 228.92,371.83 236.49,375.47 244.05,376.60 251.62,376.34 259.19,358.74 266.76,340.65 274.32,319.66 281.89,295.82 289.46,302.31 297.03,317.07 304.59,327.97 312.16,333.16 319.73,335.12 327.30,312.73 334.86,292.90 342.43,270.34 350.00,250.41 357.57,227.93 365.14,203.14 372.70,181.43 380.27,188.88 387.84,187.84 395.41,187.34 402.97,187.45 410.54,202.92 418.11,186.98 425.68,162.74 433.24,140.28 440.81,70.00 448.38,94.84 455.95,105.73 463.51,108.43 471.08,114.18 478.65,119.57 486.22,164.55 493.78,200.88 501.35,218.20 508.92,226.58 516.49,228.61 524.05,213.72 531.62,205.03 539.19,206.33 546.76,183.47 554.32,218.21 561.89,246.90 569.46,283.92 577.03,317.96 584.59,334.18 592.16,333.81 599.73,334.84 607.30,337.28 614.86,347.64 622.43,358.14 630.00,366.68 637.57,372.95 645.14,392.68 652.70,415.19 660.27,432.84 667.84,450.00 675.41,449.98 682.97,449.99 690.54,449.29 698.11,449.00 705.68,448.80 713.24,448.76 720.81,448.76 728.38,448.90 735.95,449.24 743.51,449.26 751.08,449.46 758.65,448.77 766.22,446.91 773.78,447.91 781.35,447.94 788.92,449.90 796.49,443.41 804.05,437.13 811.62,430.95 819.19,429.40 826.76,431.38 834.32,432.10 841.89,432.67 849.46,432.81 857.03,432.82 864.59,432.41 872.16,432.85 879.73,432.89 887.30,429.57 894.86,423.78 902.43,417.82 910.00,412.45" fill="none" stroke="#1c7ed6" stroke-width="2"/>
<line x1="70" x2="70" y1="70" y2="450" stroke="#444"/>
<line x1="70" x2="910" y1="450" y2="450" stroke="#444"/>
</svg>