<svg xmlns="http://www.w3.org/2000/svg" width="980" height="520" viewBox="0 0 980 520"><style>text{font-family:Arial,sans-serif;fill:#e9ecef}.title{font-size:20px;font-weight:700}.axis{font-size:12px;fill:#adb5bd}.cell{font-size:11px;fill:#fff}</style><rect width="100%" height="100%" fill="#0b0f14"/><text x="24" y="28" class="title">Rolling Expectancy</text>
<text x="70" y="35" class="axis">Expectancy</text>
<polyline points="70.00,264.94 77.57,260.47 85.14,258.40 92.70,271.52 100.27,271.53 107.84,268.24 115.41,268.23 122.97,266.02 130.54,282.03 138.11,296.34 145.68,307.89 153.24,306.69 160.81,295.86 168.38,286.61 175.95,309.89 183.51,317.03 191.08,324.01 198.65,330.85 206.22,314.86 213.78,314.23 221.35,317.84 228.92,321.46 236.49,324.19 244.05,325.11 251.62,324.89 259.19,306.38 266.76,290.00 274.32,274.59 281.89,260.69 289.46,262.61 297.03,268.70 304.59,273.11 312.16,275.48 319.73,276.43 327.30,248.62 334.86,224.00 342.43,195.99 350.00,171.23 357.57,160.91 365.14,152.47 372.70,146.80 380.27,154.02 387.84,153.01 395.41,152.53 402.97,152.64 410.54,167.66 418.11,152.18 425.68,128.65 433.24,106.84 440.81,70.00 448.38,72.88 455.95,74.27 463.51,74.63 471.08,75.41 478.65,76.17 486.22,95.06 493.78,112.58 501.35,125.44 508.92,134.97 516.49,135.51 524.05,131.72 531.62,129.72 539.19,130.01 546.76,124.15 554.32,160.32 561.89,191.53 569.46,226.38 577.03,260.11 584.59,271.11 592.16,270.64 599.73,271.97 607.30,273.45 614.86,283.45 622.43,293.14 630.00,301.27 637.57,307.31 645.14,340.06 652.70,380.91 660.27,414.74 667.84,450.00 675.41,449.68 682.97,449.84 690.54,444.04 698.11,439.62 705.68,436.89 713.24,436.34 720.81,436.40 728.38,438.32 735.95,443.32 743.51,443.63 751.08,446.94 758.65,443.42 766.22,436.24 773.78,440.19 781.35,440.65 788.92,448.72 796.49,434.54 804.05,421.02 811.62,406.97 819.19,404.30 826.76,410.46 834.32,413.24 841.89,415.57 849.46,416.16 857.03,416.17 864.59,414.49 872.16,416.30 879.73,416.48 887.30,409.41 894.86,397.17 902.43,384.89 910.00,374.71" fill="none" stroke="#1c7ed6" stroke-width="2"/>
<line x1="70" x2="70" y1="70" y2="450" stroke="#444"/>
<line x1="70" x2="910" y1="450" y2="450" stroke="#444"/>
</svg>