<svg xmlns="http://www.w3.org/2000/svg" width="980" height="520" viewBox="0 0 980 520"><style>text{font-family:Arial,sans-serif;fill:#e9ecef}.title{font-size:20px;font-weight:700}.axis{font-size:12px;fill:#adb5bd}.cell{font-size:11px;fill:#fff}</style><rect width="100%" height="100%" fill="#0b0f14"/><text x="24" y="28" class="title">Underwater Drawdown</text>
<text x="70" y="35" class="axis">Drawdown</text>
<polyline points="70.00,70.00 70.34,70.00 70.69,70.00 71.03,70.00 71.37,70.00 71.71,70.00 72.06,70.00 72.40,70.00 72.74,70.00 73.09,70.00 73.43,70.00 73.77,70.00 74.11,70.00 74.46,70.00 74.80,70.00 75.14,70.00 75.49,70.00 75.83,70.00 76.17,70.00 76.51,70.00 76.86,70.00 77.20,70.00 77.54,70.00 77.89,70.00 78.23,70.00 78.57,70.00 78.91,70.00 79.26,70.00 79.60,70.00 79.94,70.00 80.29,70.00 80.63,70.00 80.97,70.00 81.31,70.00 81.66,70.00 82.00,70.00 82.34,70.00 82.69,70.00 83.03,70.00 83.37,70.00 83.71,70.00 84.06,70.00 84.40,70.00 84.74,70.00 85.09,70.00 85.43,70.00 85.77,70.00 86.11,70.00 86.46,70.00 86.80,70.00 87.14,70.00 87.49,70.00 87.83,70.00 88.17,70.00 88.51,70.00 88.86,70.00 89.20,70.00 89.54,70.00 89.89,70.00 90.23,70.00 90.57,70.00 90.91,70.00 91.26,70.00 91.60,70.00 91.94,70.00 92.29,70.00 92.63,70.00 92.97,70.00 93.31,70.00 93.66,70.00 94.00,70.00 94.34,70.00 94.69,70.00 95.03,70.00 95.37,70.00 95.71,70.00 96.06,70.00 96.40,70.00 96.74,70.00 97.09,70.00 97.43,70.00 97.77,70.00 98.11,70.00 98.46,70.00 98.80,70.00 99.14,70.00 99.49,70.00 99.83,70.00 100.17,70.00 100.51,70.00 100.86,70.00 101.20,70.00 101.54,70.00 101.89,70.00 102.23,70.00 102.57,70.00 102.91,70.00 103.26,70.00 103.60,70.00 103.94,70.00 104.29,70.00 104.63,70.00 104.97,70.00 105.31,70.00 105.66,70.00 106.00,70.00 106.34,70.00 106.69,70.00 107.03,70.00 107.37,70.00 107.71,70.00 108.06,70.00 108.40,70.00 108.74,70.00 109.09,70.00 109.43,70.00 109.77,70.00 110.11,70.00 110.46,70.00 110.80,70.00 111.14,70.00 111.49,70.00 111.83,70.00 112.17,70.00 112.51,70.00 112.86,70.00 113.20,70.00 113.54,70.00 113.89,70.00 114.23,70.00 114.57,70.00 114.91,70.00 115.26,70.00 115.60,70.00 115.94,70.00 116.29,70.00 116.63,70.00 116.97,70.00 117.31,70.00 117.66,70.00 118.00,70.00 118.34,70.00 118.69,70.00 119.03,70.00 119.37,70.00 119.71,70.00 120.06,70.00 120.40,70.00 120.74,70.00 121.09,70.00 121.43,70.00 121.77,70.00 122.11,70.00 122.46,70.00 122.80,70.00 123.14,70.00 123.49,70.00 123.83,70.00 124.17,70.00 124.51,70.00 124.86,70.00 125.20,70.21 125.54,70.58 125.89,70.44 126.23,73.26 126.57,72.86 126.91,73.75 127.26,73.13 127.60,73.38 127.94,70.03 128.29,70.00 128.63,70.00 128.97,70.00 129.31,92.86 129.66,92.86 130.00,92.86 130.34,92.86 130.69,92.86 131.03,92.86 131.37,92.86 131.71,92.86 132.06,92.86 132.40,92.86 132.74,92.86 133.09,92.86 133.43,92.86 133.77,92.86 134.11,92.86 134.46,92.86 134.80,92.86 135.14,92.86 135.49,92.86 135.83,92.86 136.17,92.86 136.51,92.86 136.86,92.86 137.20,92.86 137.54,92.86 137.89,92.86 138.23,92.86 138.57,92.86 138.91,92.86 139.26,92.86 139.60,92.86 139.94,92.86 140.29,92.86 140.63,93.07 140.97,94.78 141.31,92.94 141.66,93.12 142.00,94.78 142.34,95.38 142.69,98.09 143.03,97.11 143.37,96.77 143.71,97.13 144.06,87.46 144.40,90.86 144.74,84.90 145.09,94.03 145.43,94.18 145.77,78.80 146.11,80.99 146.46,72.03 146.80,70.00 147.14,70.00 147.49,70.00 147.83,79.29 148.17,83.03 148.51,70.00 148.86,72.69 149.20,70.00 149.54,70.00 149.89,70.00 150.23,82.80 150.57,73.01 150.91,80.09 151.26,74.99 151.60,73.22 151.94,71.18 152.29,70.00 152.63,78.88 152.97,79.87 153.31,70.00 153.66,70.00 154.00,102.79 154.34,105.45 154.69,124.04 155.03,129.14 155.37,129.14 155.71,129.14 156.06,129.14 156.40,129.14 156.74,129.14 157.09,129.14 157.43,129.14 157.77,129.14 158.11,129.14 158.46,129.14 158.80,129.14 159.14,129.14 159.49,129.14 159.83,129.14 160.17,129.14 160.51,129.14 160.86,129.35 161.20,124.15 161.54,114.21 161.89,111.80 162.23,111.48 162.57,112.57 162.91,101.73 163.26,102.28 163.60,116.28 163.94,113.44 164.29,106.01 164.63,110.89 164.97,110.30 165.31,110.26 165.66,120.43 166.00,120.43 166.34,120.43 166.69,120.43 167.03,120.43 167.37,120.43 167.71,120.43 168.06,120.43 168.40,120.43 168.74,120.43 169.09,120.43 169.43,120.43 169.77,120.43 170.11,120.43 170.46,120.43 170.80,120.43 171.14,120.43 171.49,120.43 171.83,120.43 172.17,120.43 172.51,120.43 172.86,120.43 173.20,120.43 173.54,120.43 173.89,120.43 174.23,120.43 174.57,120.43 174.91,120.43 175.26,120.43 175.60,120.43 175.94,120.43 176.29,120.43 176.63,120.43 176.97,120.43 177.31,120.43 177.66,120.43 178.00,120.43 178.34,120.43 178.69,120.43 179.03,120.43 179.37,120.43 179.71,120.43 180.06,120.43 180.40,120.43 180.74,120.43 181.09,120.43 181.43,120.43 181.77,120.43 182.11,120.43 182.46,120.43 182.80,120.43 183.14,120.43 183.49,120.43 183.83,120.43 184.17,120.43 184.51,120.43 184.86,120.43 185.20,120.43 185.54,120.43 185.89,120.43 186.23,120.43 186.57,120.43 186.91,120.43 187.26,120.43 187.60,120.43 187.94,120.43 188.29,120.43 188.63,120.43 188.97,120.43 189.31,120.43 189.66,120.43 190.00,120.43 190.34,120.43 190.69,120.43 191.03,120.43 191.37,120.43 191.71,120.43 192.06,120.43 192.40,120.43 192.74,120.43 193.09,120.43 193.43,120.43 193.77,120.43 194.11,120.43 194.46,120.43 194.80,120.43 195.14,120.43 195.49,120.43 195.83,120.43 196.17,120.43 196.51,120.43 196.86,120.43 197.20,120.43 197.54,120.43 197.89,120.43 198.23,120.43 198.57,120.43 198.91,120.43 199.26,120.43 199.60,120.43 199.94,120.43 200.29,120.43 200.63,120.43 200.97,120.43 201.31,120.43 201.66,120.43 202.00,120.43 202.34,120.43 202.69,120.43 203.03,120.43 203.37,120.43 203.71,120.43 204.06,120.43 204.40,120.43 204.74,120.43 205.09,120.43 205.43,120.43 205.77,120.43 206.11,120.43 206.46,120.43 206.80,120.43 207.14,120.43 207.49,120.43 207.83,120.43 208.17,120.43 208.51,120.43 208.86,120.43 209.20,120.43 209.54,120.43 209.89,120.43 210.23,120.43 210.57,120.43 210.91,120.43 211.26,120.43 211.60,120.43 211.94,120.43 212.29,120.43 212.63,120.43 212.97,120.43 213.31,120.43 213.66,120.43 214.00,120.43 214.34,120.43 214.69,120.43 215.03,120.43 215.37,120.43 215.71,120.43 216.06,120.43 216.40,120.43 216.74,120.43 217.09,120.43 217.43,120.43 217.77,120.43 218.11,120.43 218.46,120.43 218.80,120.43 219.14,120.43 219.49,120.43 219.83,120.43 220.17,120.43 220.51,120.43 220.86,120.43 221.20,120.43 221.54,120.43 221.89,120.43 222.23,120.43 222.57,120.43 222.91,120.43 223.26,120.43 223.60,120.43 223.94,120.43 224.29,120.43 224.63,120.43 224.97,120.43 225.31,120.43 225.66,120.43 226.00,120.43 226.34,120.43 226.69,120.43 227.03,120.43 227.37,120.43 227.71,120.43 228.06,120.43 228.40,120.43 228.74,120.43 229.09,120.43 229.43,120.43 229.77,120.43 230.11,120.43 230.46,120.43 230.80,120.43 231.14,120.43 231.49,120.43 231.83,120.43 232.17,120.43 232.51,120.43 232.86,120.43 233.20,120.64 233.54,121.63 233.89,123.85 234.23,122.25 234.57,115.82 234.91,122.49 235.26,123.60 235.60,128.75 235.94,127.96 236.29,122.24 236.63,119.69 236.97,112.20 237.31,107.56 237.66,93.38 238.00,89.47 238.34,70.00 238.69,77.09 239.03,70.00 239.37,70.00 239.71,83.39 240.06,78.10 240.40,75.06 240.74,77.55 241.09,79.50 241.43,70.00 241.77,81.15 242.11,79.85 242.46,70.00 242.80,71.29 243.14,70.00 243.49,77.04 243.83,83.65 244.17,81.45 244.51,99.80 244.86,99.80 245.20,99.80 245.54,99.80 245.89,99.80 246.23,99.80 246.57,99.80 246.91,99.80 247.26,99.80 247.60,99.80 247.94,99.80 248.29,99.80 248.63,99.80 248.97,99.80 249.31,99.80 249.66,99.80 250.00,99.80 250.34,99.80 250.69,99.80 251.03,99.80 251.37,99.80 251.71,99.80 252.06,99.80 252.40,99.80 252.74,99.80 253.09,99.80 253.43,99.80 253.77,99.80 254.11,99.80 254.46,99.80 254.80,99.80 255.14,99.80 255.49,99.80 255.83,99.80 256.17,99.80 256.51,99.80 256.86,99.80 257.20,99.80 257.54,99.80 257.89,99.80 258.23,99.80 258.57,99.80 258.91,99.80 259.26,99.80 259.60,99.80 259.94,99.80 260.29,99.80 260.63,99.80 260.97,99.80 261.31,99.80 261.66,99.80 262.00,99.80 262.34,99.80 262.69,99.80 263.03,99.80 263.37,99.80 263.71,99.80 264.06,99.80 264.40,99.80 264.74,99.80 265.09,99.80 265.43,99.80 265.77,99.80 266.11,99.80 266.46,99.80 266.80,99.80 267.14,99.80 267.49,99.80 267.83,99.80 268.17,99.80 268.51,99.80 268.86,99.80 269.20,99.80 269.54,99.80 269.89,99.80 270.23,99.80 270.57,99.80 270.91,99.80 271.26,99.80 271.60,99.80 271.94,99.80 272.29,99.80 272.63,99.80 272.97,99.80 273.31,99.80 273.66,99.80 274.00,99.80 274.34,99.80 274.69,99.80 275.03,99.80 275.37,99.80 275.71,99.80 276.06,99.80 276.40,99.80 276.74,100.01 277.09,99.68 277.43,102.35 277.77,104.10 278.11,98.18 278.46,101.40 278.80,109.65 279.14,109.65 279.49,109.65 279.83,109.65 280.17,109.65 280.51,109.65 280.86,109.65 281.20,109.65 281.54,109.65 281.89,109.65 282.23,109.65 282.57,109.65 282.91,109.65 283.26,109.65 283.60,109.65 283.94,109.65 284.29,109.65 284.63,109.65 284.97,109.65 285.31,109.65 285.66,109.65 286.00,109.65 286.34,109.65 286.69,109.65 287.03,109.65 287.37,109.65 287.71,109.86 288.06,101.97 288.40,105.46 288.74,103.35 289.09,113.25 289.43,119.27 289.77,113.70 290.11,125.45 290.46,121.67 290.80,120.72 291.14,121.37 291.49,122.03 291.83,116.95 292.17,116.84 292.51,118.00 292.86,117.87 293.20,114.15 293.54,106.99 293.89,102.01 294.23,113.61 294.57,110.17 294.91,110.05 295.26,97.92 295.60,97.41 295.94,77.75 296.29,70.00 296.63,70.00 296.97,74.30 297.31,70.00 297.66,70.00 298.00,70.00 298.34,70.00 298.69,82.87 299.03,89.62 299.37,126.51 299.71,139.84 300.06,127.50 300.40,93.81 300.74,96.48 301.09,101.65 301.43,127.45 301.77,101.99 302.11,97.22 302.46,91.05 302.80,103.61 303.14,107.79 303.49,82.60 303.83,92.34 304.17,80.46 304.51,70.00 304.86,74.59 305.20,70.37 305.54,70.00 305.89,78.72 306.23,91.35 306.57,70.00 306.91,102.46 307.26,125.38 307.60,125.38 307.94,125.38 308.29,125.38 308.63,125.38 308.97,125.38 309.31,125.38 309.66,125.38 310.00,125.38 310.34,125.38 310.69,125.38 311.03,125.38 311.37,125.38 311.71,125.38 312.06,125.38 312.40,125.38 312.74,125.38 313.09,125.38 313.43,125.38 313.77,125.38 314.11,125.38 314.46,125.38 314.80,125.38 315.14,125.38 315.49,125.38 315.83,125.38 316.17,125.38 316.51,125.38 316.86,125.38 317.20,125.38 317.54,125.38 317.89,125.38 318.23,125.38 318.57,125.38 318.91,125.38 319.26,125.38 319.60,125.38 319.94,125.38 320.29,125.38 320.63,125.38 320.97,125.38 321.31,125.38 321.66,125.38 322.00,125.38 322.34,125.38 322.69,125.38 323.03,125.38 323.37,125.38 323.71,125.38 324.06,125.38 324.40,125.38 324.74,125.38 325.09,125.38 325.43,125.38 325.77,125.38 326.11,125.38 326.46,125.38 326.80,125.38 327.14,125.38 327.49,125.38 327.83,125.38 328.17,125.38 328.51,125.38 328.86,125.38 329.20,125.38 329.54,125.38 329.89,125.38 330.23,125.38 330.57,125.38 330.91,125.38 331.26,125.38 331.60,125.38 331.94,125.38 332.29,125.38 332.63,125.38 332.97,125.38 333.31,125.38 333.66,125.38 334.00,125.38 334.34,125.38 334.69,125.38 335.03,125.38 335.37,125.38 335.71,125.38 336.06,125.38 336.40,125.38 336.74,125.38 337.09,125.38 337.43,125.38 337.77,125.38 338.11,125.38 338.46,125.38 338.80,125.38 339.14,125.38 339.49,125.38 339.83,125.38 340.17,125.38 340.51,125.38 340.86,125.38 341.20,125.38 341.54,125.38 341.89,125.38 342.23,125.38 342.57,125.38 342.91,125.38 343.26,125.38 343.60,125.38 343.94,125.38 344.29,125.38 344.63,125.38 344.97,125.38 345.31,125.38 345.66,125.38 346.00,125.38 346.34,125.38 346.69,125.38 347.03,125.38 347.37,125.38 347.71,125.38 348.06,125.38 348.40,125.38 348.74,125.38 349.09,125.38 349.43,125.38 349.77,125.38 350.11,125.38 350.46,125.38 350.80,125.38 351.14,125.38 351.49,125.38 351.83,125.38 352.17,125.38 352.51,125.38 352.86,125.38 353.20,125.38 353.54,125.38 353.89,125.38 354.23,125.38 354.57,125.38 354.91,125.38 355.26,125.38 355.60,125.38 355.94,125.38 356.29,125.38 356.63,125.38 356.97,125.38 357.31,125.38 357.66,125.38 358.00,125.38 358.34,125.38 358.69,125.38 359.03,125.38 359.37,125.38 359.71,125.38 360.06,125.38 360.40,125.38 360.74,125.38 361.09,125.38 361.43,125.38 361.77,125.38 362.11,125.38 362.46,125.38 362.80,125.38 363.14,125.38 363.49,125.38 363.83,125.38 364.17,125.58 364.51,122.36 364.86,120.36 365.20,119.39 365.54,128.07 365.89,130.27 366.23,129.65 366.57,135.62 366.91,135.62 367.26,135.62 367.60,135.62 367.94,135.62 368.29,135.62 368.63,135.62 368.97,135.62 369.31,135.62 369.66,135.62 370.00,135.62 370.34,135.62 370.69,135.62 371.03,135.62 371.37,135.62 371.71,135.62 372.06,135.62 372.40,135.62 372.74,135.62 373.09,135.62 373.43,135.62 373.77,135.62 374.11,135.62 374.46,135.62 374.80,135.62 375.14,135.62 375.49,135.62 375.83,135.62 376.17,135.62 376.51,135.62 376.86,135.62 377.20,135.62 377.54,135.62 377.89,135.62 378.23,135.62 378.57,135.62 378.91,135.62 379.26,135.62 379.60,135.62 379.94,135.62 380.29,135.62 380.63,135.62 380.97,135.62 381.31,135.62 381.66,135.62 382.00,135.62 382.34,135.62 382.69,135.62 383.03,135.62 383.37,135.62 383.71,135.62 384.06,135.62 384.40,135.62 384.74,135.62 385.09,135.62 385.43,135.62 385.77,135.62 386.11,135.62 386.46,135.62 386.80,135.62 387.14,135.62 387.49,135.62 387.83,135.62 388.17,135.62 388.51,135.62 388.86,135.62 389.20,135.62 389.54,135.62 389.89,135.62 390.23,135.62 390.57,135.62 390.91,135.62 391.26,135.62 391.60,135.62 391.94,135.62 392.29,135.62 392.63,135.62 392.97,135.62 393.31,135.62 393.66,135.62 394.00,135.62 394.34,135.62 394.69,135.62 395.03,135.83 395.37,137.37 395.71,137.17 396.06,135.20 396.40,142.70 396.74,145.80 397.09,145.80 397.43,145.80 397.77,145.80 398.11,145.80 398.46,145.80 398.80,145.80 399.14,146.00 399.49,147.01 399.83,146.42 400.17,150.03 400.51,148.01 400.86,146.49 401.20,145.27 401.54,145.64 401.89,146.90 402.23,149.21 402.57,149.36 402.91,134.78 403.26,119.33 403.60,118.00 403.94,122.12 404.29,114.57 404.63,130.53 404.97,127.08 405.31,122.71 405.66,136.09 406.00,154.15 406.34,154.15 406.69,154.15 407.03,154.15 407.37,154.15 407.71,154.15 408.06,154.36 408.40,149.86 408.74,150.06 409.09,148.91 409.43,146.12 409.77,143.48 410.11,150.03 410.46,154.14 410.80,155.98 411.14,163.68 411.49,181.92 411.83,181.92 412.17,181.92 412.51,181.92 412.86,181.92 413.20,181.92 413.54,181.92 413.89,182.13 414.23,182.32 414.57,183.66 414.91,181.55 415.26,182.72 415.60,177.27 415.94,176.59 416.29,162.90 416.63,170.84 416.97,179.97 417.31,192.47 417.66,194.56 418.00,195.79 418.34,199.12 418.69,205.88 419.03,205.88 419.37,206.08 419.71,205.92 420.06,207.15 420.40,208.72 420.74,211.01 421.09,206.49 421.43,207.41 421.77,208.19 422.11,206.80 422.46,205.36 422.80,192.03 423.14,194.67 423.49,198.52 423.83,196.06 424.17,181.46 424.51,183.85 424.86,188.91 425.20,193.05 425.54,188.70 425.89,205.26 426.23,213.40 426.57,213.40 426.91,213.40 427.26,213.40 427.60,213.60 427.94,213.45 428.29,215.42 428.63,211.51 428.97,213.99 429.31,206.17 429.66,206.30 430.00,208.22 430.34,210.73 430.69,208.66 431.03,219.56 431.37,220.60 431.71,217.05 432.06,198.81 432.40,187.09 432.74,182.60 433.09,193.28 433.43,209.26 433.77,191.80 434.11,184.52 434.46,190.63 434.80,178.74 435.14,188.83 435.49,180.28 435.83,186.91 436.17,179.56 436.51,151.55 436.86,152.69 437.20,153.71 437.54,134.17 437.89,129.34 438.23,115.84 438.57,106.56 438.91,115.34 439.26,92.46 439.60,96.82 439.94,125.53 440.29,119.45 440.63,131.78 440.97,121.99 441.31,135.84 441.66,155.42 442.00,155.42 442.34,155.42 442.69,155.42 443.03,155.42 443.37,155.42 443.71,155.42 444.06,155.42 444.40,155.42 444.74,155.42 445.09,155.42 445.43,155.42 445.77,155.42 446.11,155.42 446.46,155.42 446.80,155.42 447.14,155.42 447.49,155.42 447.83,155.42 448.17,155.42 448.51,155.42 448.86,155.42 449.20,155.42 449.54,155.42 449.89,155.42 450.23,155.42 450.57,155.42 450.91,155.42 451.26,155.42 451.60,155.42 451.94,155.42 452.29,155.42 452.63,155.42 452.97,155.42 453.31,155.42 453.66,155.42 454.00,155.42 454.34,155.42 454.69,155.42 455.03,155.42 455.37,155.42 455.71,155.42 456.06,155.42 456.40,155.42 456.74,155.63 457.09,162.14 457.43,160.74 457.77,156.45 458.11,156.83 458.46,157.75 458.80,155.55 459.14,155.75 459.49,159.68 459.83,162.89 460.17,160.93 460.51,162.40 460.86,164.81 461.20,164.81 461.54,165.01 461.89,165.52 462.23,163.11 462.57,166.48 462.91,175.22 463.26,172.97 463.60,175.06 463.94,179.92 464.29,179.93 464.63,181.34 464.97,181.34 465.31,181.34 465.66,181.54 466.00,180.15 466.34,176.06 466.69,169.27 467.03,148.64 467.37,156.23 467.71,141.38 468.06,145.55 468.40,144.98 468.74,156.47 469.09,150.57 469.43,141.93 469.77,118.32 470.11,116.18 470.46,117.93 470.80,135.48 471.14,134.84 471.49,128.16 471.83,124.70 472.17,113.79 472.51,88.53 472.86,103.23 473.20,100.67 473.54,115.05 473.89,117.63 474.23,108.11 474.57,103.02 474.91,126.43 475.26,116.11 475.60,138.96 475.94,138.96 476.29,138.96 476.63,138.96 476.97,138.96 477.31,138.96 477.66,138.96 478.00,138.96 478.34,138.96 478.69,138.96 479.03,138.96 479.37,138.96 479.71,138.96 480.06,138.96 480.40,138.96 480.74,138.96 481.09,138.96 481.43,138.96 481.77,138.96 482.11,138.96 482.46,138.96 482.80,138.96 483.14,138.96 483.49,138.96 483.83,138.96 484.17,138.96 484.51,138.96 484.86,138.96 485.20,138.96 485.54,138.96 485.89,138.96 486.23,138.96 486.57,138.96 486.91,138.96 487.26,138.96 487.60,138.96 487.94,138.96 488.29,138.96 488.63,138.96 488.97,138.96 489.31,138.96 489.66,138.96 490.00,138.96 490.34,138.96 490.69,138.96 491.03,138.96 491.37,138.96 491.71,138.96 492.06,138.96 492.40,138.96 492.74,138.96 493.09,138.96 493.43,138.96 493.77,138.96 494.11,138.96 494.46,138.96 494.80,138.96 495.14,138.96 495.49,138.96 495.83,138.96 496.17,138.96 496.51,138.96 496.86,138.96 497.20,138.96 497.54,138.96 497.89,138.96 498.23,138.96 498.57,138.96 498.91,138.96 499.26,139.17 499.60,139.07 499.94,139.15 500.29,139.79 500.63,139.79 500.97,139.25 501.31,140.05 501.66,144.19 502.00,142.84 502.34,141.70 502.69,142.10 503.03,143.18 503.37,141.94 503.71,140.09 504.06,139.57 504.40,141.27 504.74,141.09 505.09,141.37 505.43,142.08 505.77,142.73 506.11,140.93 506.46,142.40 506.80,143.44 507.14,134.64 507.49,133.19 507.83,130.82 508.17,123.13 508.51,123.57 508.86,126.51 509.20,120.70 509.54,110.44 509.89,100.44 510.23,95.04 510.57,101.91 510.91,85.10 511.26,102.01 511.60,106.30 511.94,108.53 512.29,104.63 512.63,108.85 512.97,106.67 513.31,86.13 513.66,93.24 514.00,84.48 514.34,84.07 514.69,70.00 515.03,70.30 515.37,70.00 515.71,83.02 516.06,72.34 516.40,72.37 516.74,83.01 517.09,70.00 517.43,70.00 517.77,70.00 518.11,73.97 518.46,70.00 518.80,70.00 519.14,78.16 519.49,70.00 519.83,75.01 520.17,79.19 520.51,77.38 520.86,76.54 521.20,70.00 521.54,70.36 521.89,70.00 522.23,70.00 522.57,84.97 522.91,94.17 523.26,102.72 523.60,101.64 523.94,86.64 524.29,117.70 524.63,117.70 524.97,117.70 525.31,117.70 525.66,117.70 526.00,117.70 526.34,117.70 526.69,117.70 527.03,117.70 527.37,117.70 527.71,117.70 528.06,117.70 528.40,117.70 528.74,117.70 529.09,117.70 529.43,117.70 529.77,117.70 530.11,117.70 530.46,117.70 530.80,117.70 531.14,117.70 531.49,117.70 531.83,117.70 532.17,117.70 532.51,117.90 532.86,121.12 533.20,120.16 533.54,126.50 533.89,126.50 534.23,126.50 534.57,126.50 534.91,126.50 535.26,126.50 535.60,126.50 535.94,126.70 536.29,129.31 536.63,125.95 536.97,126.80 537.31,127.66 537.66,126.36 538.00,126.08 538.34,127.77 538.69,126.20 539.03,124.04 539.37,125.14 539.71,127.71 540.06,132.21 540.40,139.39 540.74,147.25 541.09,147.25 541.43,147.25 541.77,147.25 542.11,147.25 542.46,147.25 542.80,147.25 543.14,147.45 543.49,144.20 543.83,145.50 544.17,151.86 544.51,153.44 544.86,160.99 545.20,161.94 545.54,161.08 545.89,162.68 546.23,163.19 546.57,161.49 546.91,161.33 547.26,158.49 547.60,160.92 547.94,162.03 548.29,161.17 548.63,165.61 548.97,165.81 549.31,166.36 549.66,166.11 550.00,162.07 550.34,164.94 550.69,165.86 551.03,163.98 551.37,166.49 551.71,169.41 552.06,163.69 552.40,161.04 552.74,170.25 553.09,153.11 553.43,159.07 553.77,139.49 554.11,142.61 554.46,129.75 554.80,122.26 555.14,119.51 555.49,116.23 555.83,102.61 556.17,115.90 556.51,110.23 556.86,115.67 557.20,103.96 557.54,114.06 557.89,111.86 558.23,106.33 558.57,109.76 558.91,103.18 559.26,105.62 559.60,121.22 559.94,123.03 560.29,115.76 560.63,119.48 560.97,121.90 561.31,89.17 561.66,89.14 562.00,76.78 562.34,70.00 562.69,70.00 563.03,74.78 563.37,83.40 563.71,79.15 564.06,91.61 564.40,86.37 564.74,80.69 565.09,89.18 565.43,85.44 565.77,92.29 566.11,83.06 566.46,70.00 566.80,70.00 567.14,70.00 567.49,74.29 567.83,96.24 568.17,89.91 568.51,90.47 568.86,88.31 569.20,101.65 569.54,111.34 569.89,111.54 570.23,110.23 570.57,110.90 570.91,110.00 571.26,109.43 571.60,118.84 571.94,115.24 572.29,121.02 572.63,126.38 572.97,121.60 573.31,123.81 573.66,124.28 574.00,125.39 574.34,129.05 574.69,129.05 575.03,129.05 575.37,129.26 575.71,131.80 576.06,133.78 576.40,137.96 576.74,137.96 577.09,137.96 577.43,137.96 577.77,137.96 578.11,137.96 578.46,137.96 578.80,137.96 579.14,137.96 579.49,137.96 579.83,137.96 580.17,137.96 580.51,137.96 580.86,138.16 581.20,137.10 581.54,137.71 581.89,137.43 582.23,138.00 582.57,140.51 582.91,141.72 583.26,148.14 583.60,143.46 583.94,146.23 584.29,141.29 584.63,136.82 584.97,143.03 585.31,143.98 585.66,146.92 586.00,147.81 586.34,148.87 586.69,149.70 587.03,155.03 587.37,155.03 587.71,155.03 588.06,155.03 588.40,155.03 588.74,155.03 589.09,155.03 589.43,155.03 589.77,155.03 590.11,155.03 590.46,155.03 590.80,155.03 591.14,155.03 591.49,155.03 591.83,155.23 592.17,144.26 592.51,142.23 592.86,137.53 593.20,129.63 593.54,122.58 593.89,140.81 594.23,142.63 594.57,132.96 594.91,120.44 595.26,121.47 595.60,123.71 595.94,113.38 596.29,94.21 596.63,70.00 596.97,70.00 597.31,70.00 597.66,70.00 598.00,91.17 598.34,90.48 598.69,89.31 599.03,127.40 599.37,77.57 599.71,76.95 600.06,81.54 600.40,106.22 600.74,110.61 601.09,107.33 601.43,77.62 601.77,98.25 602.11,81.88 602.46,83.73 602.80,95.32 603.14,70.00 603.49,70.00 603.83,99.95 604.17,100.37 604.51,110.64 604.86,99.74 605.20,115.70 605.54,109.29 605.89,97.58 606.23,91.70 606.57,118.40 606.91,71.06 607.26,77.48 607.60,70.00 607.94,70.00 608.29,70.00 608.63,70.42 608.97,75.91 609.31,70.00 609.66,84.80 610.00,70.00 610.34,70.00 610.69,85.48 611.03,109.55 611.37,92.98 611.71,100.15 612.06,106.34 612.40,70.00 612.74,70.00 613.09,70.00 613.43,72.20 613.77,92.39 614.11,101.28 614.46,89.88 614.80,70.00 615.14,70.00 615.49,117.98 615.83,135.73 616.17,146.70 616.51,146.70 616.86,146.70 617.20,146.70 617.54,146.70 617.89,146.70 618.23,146.70 618.57,146.70 618.91,146.70 619.26,146.70 619.60,146.70 619.94,146.70 620.29,146.70 620.63,146.70 620.97,146.70 621.31,146.70 621.66,146.70 622.00,146.70 622.34,146.70 622.69,146.70 623.03,146.70 623.37,146.70 623.71,146.70 624.06,146.70 624.40,146.70 624.74,146.70 625.09,146.70 625.43,146.70 625.77,146.70 626.11,146.70 626.46,146.70 626.80,146.70 627.14,146.70 627.49,146.70 627.83,146.70 628.17,146.70 628.51,146.70 628.86,146.70 629.20,146.70 629.54,146.70 629.89,146.70 630.23,146.70 630.57,146.70 630.91,146.70 631.26,146.70 631.60,146.70 631.94,146.70 632.29,146.70 632.63,146.70 632.97,146.70 633.31,146.70 633.66,146.70 634.00,146.70 634.34,146.70 634.69,146.70 635.03,146.70 635.37,146.70 635.71,146.70 636.06,146.70 636.40,146.70 636.74,146.70 637.09,146.70 637.43,146.70 637.77,146.70 638.11,146.70 638.46,146.70 638.80,146.70 639.14,146.70 639.49,146.70 639.83,146.70 640.17,146.70 640.51,146.70 640.86,146.70 641.20,146.70 641.54,146.70 641.89,146.70 642.23,146.90 642.57,141.78 642.91,142.06 643.26,138.99 643.60,137.94 643.94,125.24 644.29,92.87 644.63,72.70 644.97,70.00 645.31,93.87 645.66,100.09 646.00,86.05 646.34,105.33 646.69,108.29 647.03,94.16 647.37,99.49 647.71,93.13 648.06,87.94 648.40,91.60 648.74,90.76 649.09,84.72 649.43,73.18 649.77,70.00 650.11,89.97 650.46,76.80 650.80,81.40 651.14,70.00 651.49,87.58 651.83,121.00 652.17,115.88 652.51,101.57 652.86,96.54 653.20,93.97 653.54,99.84 653.89,102.68 654.23,88.12 654.57,76.73 654.91,83.48 655.26,70.00 655.60,70.00 655.94,70.00 656.29,70.00 656.63,70.00 656.97,102.61 657.31,95.10 657.66,89.66 658.00,173.41 658.34,166.17 658.69,96.49 659.03,101.95 659.37,70.00 659.71,70.00 660.06,70.00 660.40,110.74 660.74,127.52 661.09,197.36 661.43,241.19 661.77,189.18 662.11,182.62 662.46,164.66 662.80,168.44 663.14,181.63 663.49,199.25 663.83,227.47 664.17,231.26 664.51,229.49 664.86,232.33 665.20,232.33 665.54,220.60 665.89,218.83 666.23,218.50 666.57,232.47 666.91,229.62 667.26,248.21 667.60,248.21 667.94,248.21 668.29,248.21 668.63,248.21 668.97,248.83 669.31,250.56 669.66,250.20 670.00,252.47 670.34,251.58 670.69,254.28 671.03,252.91 671.37,251.99 671.71,252.02 672.06,252.21 672.40,252.51 672.74,251.61 673.09,253.81 673.43,253.84 673.77,254.91 674.11,253.86 674.46,254.50 674.80,251.38 675.14,250.64 675.49,250.35 675.83,250.71 676.17,249.86 676.51,248.06 676.86,240.12 677.20,233.23 677.54,222.73 677.89,216.34 678.23,229.54 678.57,226.42 678.91,230.08 679.26,228.94 679.60,224.68 679.94,221.08 680.29,206.84 680.63,193.73 680.97,200.93 681.31,213.61 681.66,211.45 682.00,220.57 682.34,210.19 682.69,216.43 683.03,199.34 683.37,213.40 683.71,218.23 684.06,221.77 684.40,219.04 684.74,217.87 685.09,221.26 685.43,215.17 685.77,211.21 686.11,204.47 686.46,217.84 686.80,208.91 687.14,209.80 687.49,207.11 687.83,196.73 688.17,202.52 688.51,204.11 688.86,202.49 689.20,194.69 689.54,194.96 689.89,181.34 690.23,183.53 690.57,181.67 690.91,170.75 691.26,166.19 691.60,160.22 691.94,168.05 692.29,162.65 692.63,145.77 692.97,104.58 693.31,70.00 693.66,84.78 694.00,78.44 694.34,70.00 694.69,76.04 695.03,78.06 695.37,101.18 695.71,74.52 696.06,76.66 696.40,70.00 696.74,70.00 697.09,70.00 697.43,88.41 697.77,70.00 698.11,195.54 698.46,174.95 698.80,118.63 699.14,149.01 699.49,118.46 699.83,112.93 700.17,141.85 700.51,125.77 700.86,141.15 701.20,143.93 701.54,146.59 701.89,119.57 702.23,132.55 702.57,117.40 702.91,98.31 703.26,98.66 703.60,119.42 703.94,144.54 704.29,136.00 704.63,136.91 704.97,141.21 705.31,132.11 705.66,135.94 706.00,139.57 706.34,128.43 706.69,128.63 707.03,127.23 707.37,130.85 707.71,137.81 708.06,200.36 708.40,200.36 708.74,200.74 709.09,207.22 709.43,205.03 709.77,210.85 710.11,215.07 710.46,211.50 710.80,213.49 711.14,213.42 711.49,215.84 711.83,210.52 712.17,213.62 712.51,213.73 712.86,218.78 713.20,218.78 713.54,218.78 713.89,218.78 714.23,218.78 714.57,218.78 714.91,218.78 715.26,218.78 715.60,218.78 715.94,218.78 716.29,218.78 716.63,218.78 716.97,218.78 717.31,218.78 717.66,218.78 718.00,218.78 718.34,218.78 718.69,218.78 719.03,218.78 719.37,219.22 719.71,218.13 720.06,224.81 720.40,224.25 720.74,223.97 721.09,224.04 721.43,222.32 721.77,221.83 722.11,223.13 722.46,223.79 722.80,224.95 723.14,224.54 723.49,227.94 723.83,227.94 724.17,227.94 724.51,227.94 724.86,228.48 725.20,231.93 725.54,245.54 725.89,246.05 726.23,245.82 726.57,247.66 726.91,247.66 727.26,247.66 727.60,247.66 727.94,247.66 728.29,247.66 728.63,247.66 728.97,247.66 729.31,248.21 729.66,244.33 730.00,247.50 730.34,245.91 730.69,262.33 731.03,256.13 731.37,251.97 731.71,244.99 732.06,245.71 732.40,238.75 732.74,242.80 733.09,229.34 733.43,222.85 733.77,228.56 734.11,232.02 734.46,271.28 734.80,271.28 735.14,271.28 735.49,271.28 735.83,271.28 736.17,271.28 736.51,271.28 736.86,271.28 737.20,271.28 737.54,271.28 737.89,271.28 738.23,271.28 738.57,271.28 738.91,271.28 739.26,271.28 739.60,271.28 739.94,271.69 740.29,280.51 740.63,280.51 740.97,280.51 741.31,280.51 741.66,280.51 742.00,280.51 742.34,280.51 742.69,280.51 743.03,280.51 743.37,280.51 743.71,280.51 744.06,280.51 744.40,280.51 744.74,280.51 745.09,280.51 745.43,280.51 745.77,280.51 746.11,280.51 746.46,280.51 746.80,280.51 747.14,280.51 747.49,280.51 747.83,280.95 748.17,280.43 748.51,279.96 748.86,283.48 749.20,284.83 749.54,284.43 749.89,283.53 750.23,284.93 750.57,283.64 750.91,285.21 751.26,284.17 751.60,284.92 751.94,282.76 752.29,279.63 752.63,279.90 752.97,282.00 753.31,281.99 753.66,278.15 754.00,272.19 754.34,277.81 754.69,286.25 755.03,285.14 755.37,289.11 755.71,289.06 756.06,294.45 756.40,294.45 756.74,294.45 757.09,294.45 757.43,294.45 757.77,295.06 758.11,294.44 758.46,295.20 758.80,295.16 759.14,290.18 759.49,295.18 759.83,297.08 760.17,294.47 760.51,293.72 760.86,294.74 761.20,295.87 761.54,298.44 761.89,286.31 762.23,293.56 762.57,293.64 762.91,279.44 763.26,275.84 763.60,279.76 763.94,272.06 764.29,287.09 764.63,285.05 764.97,277.35 765.31,257.65 765.66,257.67 766.00,268.97 766.34,267.99 766.69,273.05 767.03,267.71 767.37,262.35 767.71,270.13 768.06,266.10 768.40,264.14 768.74,261.12 769.09,264.99 769.43,257.77 769.77,276.44 770.11,267.31 770.46,265.07 770.80,271.71 771.14,267.46 771.49,261.85 771.83,263.94 772.17,265.62 772.51,270.83 772.86,290.73 773.20,291.38 773.54,290.86 773.89,291.88 774.23,290.64 774.57,291.33 774.91,291.83 775.26,292.69 775.60,292.86 775.94,290.64 776.29,292.98 776.63,292.33 776.97,295.43 777.31,295.43 777.66,295.43 778.00,295.43 778.34,295.43 778.69,295.43 779.03,295.43 779.37,295.43 779.71,295.43 780.06,295.43 780.40,295.43 780.74,296.21 781.09,294.28 781.43,297.02 781.77,298.07 782.11,296.23 782.46,296.34 782.80,292.62 783.14,297.00 783.49,305.32 783.83,305.18 784.17,303.82 784.51,305.76 784.86,307.61 785.20,305.85 785.54,299.80 785.89,283.74 786.23,281.47 786.57,287.58 786.91,277.16 787.26,293.38 787.60,296.76 787.94,291.32 788.29,286.80 788.63,278.57 788.97,271.96 789.31,290.45 789.66,297.45 790.00,296.61 790.34,287.85 790.69,303.50 791.03,303.50 791.37,303.50 791.71,303.50 792.06,303.50 792.40,304.28 792.74,304.47 793.09,307.26 793.43,310.10 793.77,309.53 794.11,312.08 794.46,312.08 794.80,312.08 795.14,312.08 795.49,312.86 795.83,309.12 796.17,307.31 796.51,310.24 796.86,313.48 797.20,310.60 797.54,309.14 797.89,312.61 798.23,309.96 798.57,292.81 798.91,312.79 799.26,322.81 799.60,327.48 799.94,325.86 800.29,326.55 800.63,326.78 800.97,328.24 801.31,326.35 801.66,326.26 802.00,339.21 802.34,346.80 802.69,346.80 803.03,346.80 803.37,347.55 803.71,341.99 804.06,344.14 804.40,344.24 804.74,338.78 805.09,347.66 805.43,347.05 805.77,349.79 806.11,353.51 806.46,350.32 806.80,362.46 807.14,362.46 807.49,362.46 807.83,362.46 808.17,362.46 808.51,362.46 808.86,362.46 809.20,363.21 809.54,362.86 809.89,364.58 810.23,366.36 810.57,364.54 810.91,366.57 811.26,367.99 811.60,371.26 811.94,372.17 812.29,372.17 812.63,372.17 812.97,372.92 813.31,371.19 813.66,372.20 814.00,365.73 814.34,367.19 814.69,370.46 815.03,367.23 815.37,369.49 815.71,367.92 816.06,357.73 816.40,365.73 816.74,370.25 817.09,358.91 817.43,362.98 817.77,374.59 818.11,371.54 818.46,368.25 818.80,375.64 819.14,385.81 819.49,386.66 819.83,385.34 820.17,389.05 820.51,392.18 820.86,388.33 821.20,383.91 821.54,390.88 821.89,388.45 822.23,392.55 822.57,403.01 822.91,403.01 823.26,403.01 823.60,403.01 823.94,403.01 824.29,403.01 824.63,403.01 824.97,403.01 825.31,403.86 825.66,396.32 826.00,390.23 826.34,395.19 826.69,401.90 827.03,406.64 827.37,414.13 827.71,429.80 828.06,429.80 828.40,429.80 828.74,429.80 829.09,429.80 829.43,429.80 829.77,429.80 830.11,429.80 830.46,429.80 830.80,429.80 831.14,429.80 831.49,429.80 831.83,429.80 832.17,429.80 832.51,429.80 832.86,429.80 833.20,429.80 833.54,429.80 833.89,430.58 834.23,427.52 834.57,438.47 834.91,438.25 835.26,433.03 835.60,412.47 835.94,415.84 836.29,418.59 836.63,403.30 836.97,404.34 837.31,383.33 837.66,401.41 838.00,397.44 838.34,399.28 838.69,423.15 839.03,429.07 839.37,429.07 839.71,429.07 840.06,429.07 840.40,429.07 840.74,429.07 841.09,429.07 841.43,429.07 841.77,429.07 842.11,429.07 842.46,429.07 842.80,429.07 843.14,429.07 843.49,429.07 843.83,429.07 844.17,429.07 844.51,429.07 844.86,429.07 845.20,429.07 845.54,429.07 845.89,429.07 846.23,429.07 846.57,429.07 846.91,429.71 847.26,434.28 847.60,434.03 847.94,438.23 848.29,438.23 848.63,438.88 848.97,438.38 849.31,436.88 849.66,436.76 850.00,431.52 850.34,430.82 850.69,429.34 851.03,437.86 851.37,427.98 851.71,426.68 852.06,412.12 852.40,398.61 852.74,406.67 853.09,383.55 853.43,394.60 853.77,408.09 854.11,407.85 854.46,402.72 854.80,415.63 855.14,411.44 855.49,412.41 855.83,420.55 856.17,417.77 856.51,418.48 856.86,420.31 857.20,417.17 857.54,406.10 857.89,413.38 858.23,426.02 858.57,415.91 858.91,420.00 859.26,423.74 859.60,418.98 859.94,409.37 860.29,415.18 860.63,394.16 860.97,392.90 861.31,409.40 861.66,416.62 862.00,409.21 862.34,407.20 862.69,409.81 863.03,402.64 863.37,390.26 863.71,395.49 864.06,395.54 864.40,386.98 864.74,385.12 865.09,372.66 865.43,361.51 865.77,363.79 866.11,345.41 866.46,344.54 866.80,345.38 867.14,347.74 867.49,342.11 867.83,337.60 868.17,344.46 868.51,324.35 868.86,331.40 869.20,331.50 869.54,332.68 869.89,330.72 870.23,336.24 870.57,328.94 870.91,324.54 871.26,329.54 871.60,341.92 871.94,367.35 872.29,368.09 872.63,368.07 872.97,370.83 873.31,370.27 873.66,369.42 874.00,371.54 874.34,365.75 874.69,366.82 875.03,368.51 875.37,372.81 875.71,364.95 876.06,373.61 876.40,375.37 876.74,380.72 877.09,384.44 877.43,385.22 877.77,384.71 878.11,385.71 878.46,385.83 878.80,386.68 879.14,384.00 879.49,384.73 879.83,379.33 880.17,370.57 880.51,366.47 880.86,374.36 881.20,377.88 881.54,372.97 881.89,387.89 882.23,390.18 882.57,400.89 882.91,420.48 883.26,420.48 883.60,420.48 883.94,420.48 884.29,420.48 884.63,420.48 884.97,420.48 885.31,420.48 885.66,420.48 886.00,420.48 886.34,420.48 886.69,420.48 887.03,420.48 887.37,420.48 887.71,420.48 888.06,421.12 888.40,420.09 888.74,425.62 889.09,425.46 889.43,432.08 889.77,437.47 890.11,439.09 890.46,439.09 890.80,439.09 891.14,439.09 891.49,439.09 891.83,439.09 892.17,439.09 892.51,439.09 892.86,439.09 893.20,439.09 893.54,439.09 893.89,439.09 894.23,439.09 894.57,439.09 894.91,439.09 895.26,439.09 895.60,439.09 895.94,439.09 896.29,439.67 896.63,439.89 896.97,437.53 897.31,440.66 897.66,433.68 898.00,435.28 898.34,435.28 898.69,430.37 899.03,437.51 899.37,439.47 899.71,448.32 900.06,448.79 900.40,450.00 900.74,446.15 901.09,438.42 901.43,439.11 901.77,439.75 902.11,449.29 902.46,442.98 902.80,426.88 903.14,415.74 903.49,406.29 903.83,427.74 904.17,428.81 904.51,416.17 904.86,407.88 905.20,398.48 905.54,402.48 905.89,392.32 906.23,387.56 906.57,408.43 906.91,404.89 907.26,410.41 907.60,382.32 907.94,386.70 908.29,396.22 908.63,392.48 908.97,384.92 909.31,397.01 909.66,388.58 910.00,387.94" fill="none" stroke="#1c7ed6" stroke-width="2"/>
<line x1="70" x2="70" y1="70" y2="450" stroke="#444"/>
<line x1="70" x2="910" y1="450" y2="450" stroke="#444"/>
</svg>