<svg xmlns="http://www.w3.org/2000/svg" width="980" height="520" viewBox="0 0 980 520"><style>text{font-family:Arial,sans-serif;fill:#e9ecef}.title{font-size:20px;font-weight:700}.axis{font-size:12px;fill:#adb5bd}.cell{font-size:11px;fill:#fff}</style><rect width="100%" height="100%" fill="#0b0f14"/><text x="24" y="28" class="title">Bootstrap Expectancy</text>
<text x="70" y="35" class="axis">Count</text>
<rect x="70.00" y="447.71" width="26.00" height="2.29" fill="#2f9e44" opacity="0.82"/>
<rect x="98.00" y="447.33" width="26.00" height="2.67" fill="#2f9e44" opacity="0.82"/>
<rect x="126.00" y="441.22" width="26.00" height="8.78" fill="#2f9e44" opacity="0.82"/>
<rect x="154.00" y="433.58" width="26.00" height="16.42" fill="#2f9e44" opacity="0.82"/>
<rect x="182.00" y="422.88" width="26.00" height="27.12" fill="#2f9e44" opacity="0.82"/>
<rect x="210.00" y="391.95" width="26.00" height="58.05" fill="#2f9e44" opacity="0.82"/>
<rect x="238.00" y="362.16" width="26.00" height="87.84" fill="#2f9e44" opacity="0.82"/>
<rect x="266.00" y="308.31" width="26.00" height="141.69" fill="#2f9e44" opacity="0.82"/>
<rect x="294.00" y="253.70" width="26.00" height="196.30" fill="#2f9e44" opacity="0.82"/>
<rect x="322.00" y="207.87" width="26.00" height="242.13" fill="#2f9e44" opacity="0.82"/>
<rect x="350.00" y="131.87" width="26.00" height="318.13" fill="#2f9e44" opacity="0.82"/>
<rect x="378.00" y="93.68" width="26.00" height="356.32" fill="#2f9e44" opacity="0.82"/>
<rect x="406.00" y="71.15" width="26.00" height="378.85" fill="#2f9e44" opacity="0.82"/>
<rect x="434.00" y="70.00" width="26.00" height="380.00" fill="#2f9e44" opacity="0.82"/>
<rect x="462.00" y="86.42" width="26.00" height="363.58" fill="#2f9e44" opacity="0.82"/>
<rect x="490.00" y="148.29" width="26.00" height="301.71" fill="#2f9e44" opacity="0.82"/>
<rect x="518.00" y="184.95" width="26.00" height="265.05" fill="#2f9e44" opacity="0.82"/>
<rect x="546.00" y="233.46" width="26.00" height="216.54" fill="#2f9e44" opacity="0.82"/>
<rect x="574.00" y="295.33" width="26.00" height="154.67" fill="#2f9e44" opacity="0.82"/>
<rect x="602.00" y="338.48" width="26.00" height="111.52" fill="#2f9e44" opacity="0.82"/>
<rect x="630.00" y="375.15" width="26.00" height="74.85" fill="#2f9e44" opacity="0.82"/>
<rect x="658.00" y="402.26" width="26.00" height="47.74" fill="#2f9e44" opacity="0.82"/>
<rect x="686.00" y="417.54" width="26.00" height="32.46" fill="#2f9e44" opacity="0.82"/>
<rect x="714.00" y="433.58" width="26.00" height="16.42" fill="#2f9e44" opacity="0.82"/>
<rect x="742.00" y="441.98" width="26.00" height="8.02" fill="#2f9e44" opacity="0.82"/>
<rect x="770.00" y="445.42" width="26.00" height="4.58" fill="#2f9e44" opacity="0.82"/>
<rect x="798.00" y="447.71" width="26.00" height="2.29" fill="#2f9e44" opacity="0.82"/>
<rect x="826.00" y="448.47" width="26.00" height="1.53" fill="#2f9e44" opacity="0.82"/>
<rect x="854.00" y="448.85" width="26.00" height="1.15" fill="#2f9e44" opacity="0.82"/>
<rect x="882.00" y="449.62" width="26.00" height="0.38" fill="#2f9e44" opacity="0.82"/>
<line x1="70" x2="910" y1="450.00" y2="450.00" stroke="#444"/>
</svg>