<svg xmlns="http://www.w3.org/2000/svg" width="980" height="520" viewBox="0 0 980 520"><style>text{font-family:Arial,sans-serif;fill:#e9ecef}.title{font-size:20px;font-weight:700}.axis{font-size:12px;fill:#adb5bd}.cell{font-size:11px;fill:#fff}</style><rect width="100%" height="100%" fill="#0b0f14"/><text x="24" y="28" class="title">Equity Curve</text>
<text x="70" y="35" class="axis">Equity</text>
<polyline points="70.00,423.59 70.34,423.59 70.69,423.59 71.03,423.59 71.37,423.59 71.71,423.59 72.06,423.59 72.40,423.59 72.74,423.59 73.09,423.59 73.43,423.59 73.77,423.59 74.11,423.59 74.46,423.59 74.80,423.59 75.14,423.59 75.49,423.59 75.83,423.59 76.17,423.59 76.51,423.59 76.86,423.59 77.20,423.59 77.54,423.65 77.89,423.85 78.23,425.48 78.57,425.99 78.91,426.52 79.26,426.59 79.60,425.84 79.94,428.10 80.29,428.13 80.63,426.85 80.97,429.66 81.31,429.66 81.66,429.66 82.00,429.66 82.34,429.66 82.69,429.66 83.03,429.66 83.37,429.66 83.71,429.66 84.06,429.66 84.40,429.72 84.74,429.76 85.09,428.41 85.43,424.28 85.77,422.20 86.11,420.36 86.46,422.87 86.80,426.68 87.14,422.47 87.49,422.18 87.83,421.88 88.17,417.39 88.51,416.06 88.86,419.69 89.20,419.43 89.54,421.46 89.89,416.92 90.23,412.41 90.57,418.29 90.91,417.44 91.26,412.33 91.60,416.41 91.94,416.88 92.29,416.39 92.63,413.00 92.97,406.46 93.31,405.22 93.66,400.78 94.00,399.21 94.34,406.37 94.69,410.55 95.03,420.07 95.37,420.76 95.71,420.76 96.06,420.76 96.40,420.82 96.74,421.10 97.09,420.30 97.43,418.15 97.77,418.92 98.11,419.38 98.46,416.36 98.80,414.51 99.14,418.50 99.49,417.31 99.83,423.31 100.17,422.70 100.51,421.22 100.86,425.78 101.20,425.78 101.54,425.78 101.89,425.78 102.23,425.85 102.57,425.82 102.91,428.90 103.26,428.90 103.60,428.90 103.94,428.90 104.29,428.90 104.63,428.90 104.97,428.90 105.31,428.90 105.66,428.90 106.00,428.90 106.34,428.90 106.69,428.90 107.03,428.90 107.37,428.90 107.71,428.90 108.06,428.90 108.40,428.90 108.74,428.96 109.09,429.24 109.43,431.44 109.77,431.50 110.11,431.65 110.46,432.11 110.80,432.11 111.14,432.11 111.49,432.11 111.83,432.11 112.17,432.11 112.51,432.11 112.86,432.11 113.20,432.11 113.54,432.11 113.89,432.11 114.23,432.11 114.57,432.11 114.91,432.11 115.26,432.18 115.60,431.36 115.94,431.21 116.29,430.36 116.63,429.83 116.97,428.26 117.31,428.65 117.66,428.27 118.00,431.81 118.34,431.69 118.69,431.74 119.03,431.31 119.37,434.12 119.71,434.12 120.06,434.12 120.40,434.12 120.74,434.12 121.09,434.12 121.43,434.12 121.77,434.12 122.11,434.18 122.46,434.85 122.80,434.98 123.14,434.53 123.49,434.42 123.83,434.31 124.17,434.62 124.51,434.68 124.86,434.74 125.20,433.96 125.54,434.30 125.89,434.17 126.23,436.81 126.57,436.44 126.91,437.27 127.26,436.69 127.60,436.92 127.94,433.79 128.29,430.89 128.63,430.01 128.97,429.69 129.31,441.12 129.66,441.18 130.00,441.81 130.34,443.93 130.69,443.93 131.03,443.93 131.37,443.93 131.71,443.93 132.06,443.93 132.40,443.93 132.74,443.93 133.09,443.93 133.43,443.93 133.77,443.93 134.11,443.93 134.46,443.99 134.80,445.35 135.14,445.29 135.49,444.68 135.83,444.74 136.17,446.73 136.51,446.73 136.86,446.73 137.20,446.73 137.54,446.73 137.89,446.73 138.23,446.73 138.57,446.73 138.91,446.73 139.26,446.73 139.60,446.73 139.94,446.73 140.29,446.73 140.63,446.87 140.97,447.93 141.31,446.78 141.66,446.89 142.00,447.93 142.34,448.30 142.69,450.00 143.03,449.38 143.37,449.17 143.71,449.40 144.06,443.36 144.40,445.48 144.74,441.76 145.09,445.07 145.43,445.14 145.77,438.74 146.11,438.74 146.46,435.94 146.80,431.62 147.14,426.17 147.49,425.02 147.83,427.93 148.17,429.11 148.51,423.18 148.86,424.02 149.20,419.32 149.54,419.09 149.89,419.08 150.23,423.10 150.57,420.02 150.91,422.25 151.26,420.65 151.60,420.09 151.94,419.45 152.29,415.71 152.63,418.50 152.97,418.81 153.31,407.31 153.66,404.90 154.00,415.26 154.34,416.11 154.69,421.98 155.03,423.59 155.37,423.59 155.71,423.59 156.06,423.66 156.40,424.02 156.74,423.45 157.09,424.23 157.43,424.42 157.77,424.80 158.11,422.25 158.46,421.86 158.80,423.69 159.14,425.94 159.49,426.14 159.83,426.79 160.17,427.23 160.51,426.72 160.86,429.44 161.20,429.50 161.54,424.57 161.89,421.77 162.23,421.33 162.57,422.71 162.91,409.00 163.26,409.71 163.60,427.41 163.94,423.82 164.29,414.42 164.63,420.59 164.97,419.84 165.31,419.79 165.66,432.95 166.00,432.95 166.34,432.95 166.69,432.95 167.03,432.95 167.37,432.95 167.71,432.95 168.06,432.95 168.40,432.95 168.74,432.95 169.09,432.95 169.43,432.95 169.77,432.95 170.11,432.95 170.46,433.02 170.80,434.67 171.14,433.28 171.49,433.79 171.83,435.38 172.17,435.68 172.51,434.04 172.86,430.24 173.20,431.38 173.54,431.10 173.89,432.27 174.23,432.39 174.57,439.67 174.91,439.21 175.26,440.11 175.60,439.03 175.94,439.36 176.29,439.35 176.63,441.74 176.97,441.74 177.31,441.74 177.66,441.74 178.00,441.74 178.34,441.74 178.69,441.74 179.03,441.74 179.37,441.74 179.71,441.74 180.06,441.74 180.40,441.74 180.74,441.74 181.09,441.80 181.43,442.70 181.77,442.93 182.11,441.16 182.46,440.85 182.80,439.72 183.14,442.01 183.49,442.72 183.83,430.32 184.17,423.90 184.51,424.32 184.86,425.06 185.20,418.40 185.54,419.09 185.89,415.88 186.23,418.72 186.57,417.65 186.91,423.46 187.26,419.43 187.60,422.35 187.94,432.34 188.29,432.34 188.63,432.34 188.97,432.34 189.31,432.34 189.66,432.34 190.00,432.34 190.34,432.40 190.69,432.97 191.03,433.03 191.37,432.37 191.71,430.62 192.06,431.28 192.40,433.27 192.74,433.12 193.09,433.50 193.43,428.85 193.77,429.82 194.11,427.75 194.46,425.88 194.80,426.28 195.14,425.93 195.49,425.38 195.83,427.14 196.17,428.77 196.51,430.05 196.86,430.56 197.20,427.81 197.54,426.56 197.89,425.43 198.23,424.69 198.57,413.33 198.91,414.34 199.26,413.27 199.60,411.34 199.94,408.97 200.29,408.37 200.63,410.12 200.97,409.69 201.31,408.78 201.66,406.85 202.00,413.55 202.34,414.80 202.69,418.93 203.03,418.93 203.37,418.93 203.71,418.93 204.06,419.00 204.40,418.20 204.74,419.72 205.09,419.81 205.43,422.76 205.77,423.82 206.11,421.30 206.46,421.48 206.80,421.58 207.14,420.02 207.49,420.46 207.83,421.81 208.17,423.43 208.51,425.28 208.86,422.16 209.20,422.21 209.54,424.32 209.89,425.86 210.23,424.67 210.57,425.16 210.91,424.46 211.26,424.47 211.60,425.48 211.94,424.71 212.29,426.56 212.63,425.73 212.97,427.51 213.31,427.51 213.66,427.51 214.00,427.58 214.34,428.47 214.69,430.59 215.03,430.59 215.37,430.59 215.71,430.59 216.06,430.59 216.40,430.59 216.74,430.59 217.09,430.59 217.43,430.59 217.77,430.59 218.11,430.59 218.46,430.66 218.80,430.73 219.14,429.98 219.49,429.71 219.83,429.65 220.17,433.96 220.51,433.50 220.86,434.93 221.20,434.87 221.54,435.13 221.89,434.83 222.23,436.79 222.57,436.79 222.91,436.79 223.26,436.79 223.60,436.79 223.94,436.79 224.29,436.79 224.63,436.79 224.97,436.85 225.31,436.87 225.66,436.60 226.00,437.43 226.34,438.11 226.69,440.81 227.03,440.31 227.37,440.27 227.71,440.80 228.06,440.84 228.40,440.30 228.74,440.74 229.09,442.40 229.43,442.40 229.77,442.40 230.11,442.40 230.46,442.40 230.80,442.40 231.14,442.40 231.49,442.40 231.83,442.40 232.17,442.40 232.51,442.40 232.86,442.40 233.20,442.54 233.54,443.16 233.89,444.57 234.23,443.55 234.57,439.49 234.91,441.04 235.26,441.51 235.60,443.68 235.94,443.35 236.29,440.93 236.63,439.86 236.97,436.71 237.31,434.75 237.66,429.45 238.00,428.22 238.34,410.91 238.69,413.16 239.03,409.78 239.37,408.05 239.71,412.31 240.06,410.63 240.40,409.66 240.74,410.45 241.09,411.07 241.43,407.03 241.77,410.57 242.11,410.16 242.46,406.15 242.80,406.56 243.14,405.33 243.49,407.57 243.83,409.68 244.17,408.98 244.51,414.82 244.86,414.82 245.20,414.88 245.54,416.02 245.89,416.02 246.23,416.08 246.57,415.73 246.91,415.73 247.26,413.85 247.60,408.55 247.94,404.79 248.29,403.41 248.63,407.56 248.97,414.74 249.31,422.00 249.66,422.09 250.00,419.78 250.34,420.15 250.69,419.61 251.03,418.33 251.37,419.85 251.71,421.94 252.06,422.64 252.40,422.59 252.74,423.30 253.09,422.90 253.43,425.82 253.77,425.82 254.11,425.82 254.46,425.82 254.80,425.82 255.14,425.82 255.49,425.82 255.83,425.82 256.17,425.82 256.51,425.82 256.86,425.82 257.20,425.82 257.54,425.82 257.89,425.89 258.23,426.89 258.57,426.79 258.91,428.74 259.26,428.74 259.60,428.74 259.94,428.74 260.29,428.74 260.63,428.74 260.97,428.74 261.31,428.74 261.66,428.74 262.00,428.74 262.34,428.74 262.69,428.74 263.03,428.80 263.37,428.30 263.71,425.13 264.06,425.77 264.40,428.07 264.74,428.33 265.09,430.24 265.43,428.31 265.77,431.55 266.11,432.04 266.46,433.14 266.80,433.39 267.14,433.46 267.49,432.53 267.83,435.17 268.17,435.23 268.51,434.78 268.86,435.27 269.20,433.49 269.54,428.67 269.89,424.23 270.23,422.31 270.57,415.24 270.91,415.62 271.26,416.46 271.60,415.26 271.94,413.68 272.29,413.08 272.63,412.40 272.97,415.24 273.31,411.99 273.66,405.87 274.00,406.02 274.34,411.67 274.69,409.54 275.03,408.72 275.37,405.33 275.71,408.27 276.06,406.26 276.40,406.66 276.74,400.05 277.09,399.63 277.43,403.04 277.77,405.26 278.11,397.72 278.46,401.82 278.80,413.61 279.14,413.61 279.49,413.61 279.83,413.61 280.17,413.61 280.51,413.61 280.86,413.61 281.20,413.61 281.54,413.61 281.89,413.61 282.23,413.61 282.57,413.61 282.91,413.61 283.26,413.61 283.60,413.61 283.94,413.61 284.29,413.61 284.63,413.61 284.97,413.61 285.31,413.61 285.66,413.61 286.00,413.61 286.34,413.61 286.69,413.61 287.03,413.61 287.37,413.61 287.71,413.74 288.06,408.72 288.40,410.94 288.74,409.60 289.09,415.90 289.43,419.73 289.77,419.22 290.11,424.39 290.46,424.39 290.80,424.39 291.14,424.39 291.49,424.39 291.83,424.39 292.17,424.39 292.51,424.39 292.86,424.39 293.20,424.39 293.54,424.46 293.89,423.83 294.23,425.06 294.57,424.69 294.91,424.68 295.26,423.60 295.60,423.44 295.94,418.50 296.29,413.74 296.63,405.57 296.97,406.94 297.31,395.46 297.66,395.42 298.00,391.36 298.34,367.25 298.69,371.43 299.03,373.62 299.37,385.59 299.71,389.91 300.06,385.91 300.40,374.98 300.74,375.85 301.09,377.52 301.43,385.90 301.77,377.64 302.11,376.09 302.46,374.08 302.80,378.16 303.14,379.52 303.49,371.34 303.83,374.50 304.17,370.65 304.51,358.81 304.86,360.30 305.20,358.93 305.54,357.24 305.89,360.08 306.23,364.20 306.57,354.82 306.91,365.41 307.26,372.88 307.60,372.88 307.94,372.88 308.29,372.88 308.63,372.88 308.97,372.88 309.31,372.88 309.66,372.95 310.00,372.61 310.34,372.57 310.69,373.15 311.03,375.64 311.37,373.55 311.71,374.49 312.06,373.25 312.40,372.43 312.74,374.32 313.09,373.26 313.43,375.44 313.77,375.37 314.11,377.53 314.46,377.53 314.80,377.53 315.14,377.53 315.49,377.53 315.83,377.53 316.17,377.53 316.51,377.53 316.86,377.53 317.20,377.53 317.54,377.53 317.89,377.53 318.23,377.53 318.57,377.53 318.91,377.60 319.26,377.77 319.60,378.39 319.94,379.25 320.29,379.49 320.63,378.17 320.97,381.19 321.31,381.78 321.66,381.78 322.00,381.78 322.34,381.78 322.69,381.78 323.03,381.78 323.37,381.78 323.71,381.78 324.06,381.78 324.40,381.78 324.74,381.85 325.09,381.49 325.43,380.96 325.77,380.09 326.11,378.79 326.46,382.62 326.80,381.66 327.14,380.93 327.49,391.64 327.83,391.85 328.17,391.85 328.51,391.85 328.86,391.91 329.20,391.39 329.54,390.09 329.89,389.63 330.23,388.58 330.57,393.37 330.91,386.01 331.26,389.29 331.60,397.56 331.94,398.04 332.29,400.33 332.63,400.33 332.97,400.33 333.31,400.33 333.66,400.33 334.00,400.33 334.34,400.33 334.69,400.33 335.03,400.33 335.37,400.39 335.71,400.73 336.06,400.02 336.40,401.37 336.74,404.05 337.09,402.94 337.43,405.03 337.77,405.03 338.11,405.03 338.46,405.03 338.80,405.03 339.14,405.03 339.49,405.03 339.83,405.03 340.17,405.03 340.51,405.03 340.86,405.03 341.20,405.03 341.54,405.03 341.89,405.09 342.23,405.75 342.57,405.39 342.91,408.44 343.26,408.54 343.60,407.89 343.94,407.15 344.29,408.12 344.63,408.43 344.97,408.05 345.31,407.24 345.66,406.92 346.00,406.48 346.34,407.81 346.69,408.09 347.03,408.27 347.37,409.34 347.71,409.41 348.06,409.36 348.40,409.60 348.74,408.37 349.09,407.82 349.43,409.01 349.77,411.56 350.11,412.17 350.46,416.54 350.80,416.54 351.14,416.54 351.49,416.54 351.83,416.54 352.17,416.54 352.51,416.54 352.86,416.54 353.20,416.54 353.54,416.54 353.89,416.54 354.23,416.54 354.57,416.54 354.91,416.54 355.26,416.54 355.60,416.54 355.94,416.54 356.29,416.54 356.63,416.54 356.97,416.54 357.31,416.61 357.66,416.41 358.00,414.67 358.34,416.86 358.69,417.79 359.03,415.30 359.37,416.25 359.71,417.21 360.06,414.99 360.40,416.15 360.74,418.91 361.09,421.92 361.43,421.92 361.77,421.92 362.11,421.92 362.46,421.92 362.80,421.92 363.14,421.92 363.49,421.92 363.83,421.92 364.17,421.99 364.51,421.21 364.86,419.91 365.20,419.28 365.54,424.94 365.89,426.53 366.23,430.58 366.57,431.68 366.91,431.74 367.26,431.08 367.60,432.09 367.94,431.64 368.29,431.43 368.63,429.42 368.97,430.75 369.31,430.23 369.66,424.16 370.00,423.44 370.34,423.39 370.69,425.61 371.03,424.47 371.37,420.68 371.71,420.36 372.06,421.69 372.40,420.05 372.74,419.91 373.09,420.90 373.43,416.86 373.77,412.19 374.11,413.80 374.46,412.36 374.80,406.86 375.14,401.34 375.49,403.51 375.83,405.18 376.17,402.73 376.51,402.68 376.86,401.44 377.20,403.28 377.54,405.34 377.89,406.27 378.23,412.30 378.57,412.30 378.91,412.30 379.26,412.30 379.60,412.37 379.94,413.30 380.29,412.26 380.63,411.50 380.97,411.13 381.31,411.24 381.66,410.48 382.00,408.49 382.34,403.48 382.69,408.25 383.03,407.81 383.37,406.07 383.71,403.06 384.06,406.39 384.40,409.70 384.74,413.81 385.09,413.81 385.43,413.81 385.77,413.81 386.11,413.81 386.46,413.81 386.80,413.81 387.14,413.88 387.49,414.12 387.83,413.13 388.17,414.85 388.51,414.07 388.86,415.11 389.20,414.72 389.54,414.20 389.89,413.45 390.23,413.92 390.57,413.62 390.91,413.85 391.26,413.64 391.60,411.84 391.94,409.98 392.29,411.49 392.63,413.19 392.97,412.77 393.31,418.51 393.66,418.53 394.00,420.66 394.34,422.27 394.69,422.34 395.03,421.42 395.37,422.78 395.71,422.65 396.06,421.36 396.40,426.55 396.74,428.12 397.09,428.12 397.43,428.12 397.77,428.12 398.11,428.12 398.46,428.12 398.80,428.12 399.14,428.18 399.49,428.51 399.83,428.32 400.17,429.50 400.51,428.84 400.86,428.34 401.20,427.94 401.54,428.07 401.89,428.48 402.23,430.35 402.57,430.42 402.91,423.31 403.26,417.15 403.60,416.72 403.94,418.06 404.29,415.60 404.63,420.81 404.97,419.68 405.31,418.25 405.66,422.62 406.00,428.51 406.34,428.51 406.69,428.51 407.03,428.51 407.37,428.51 407.71,428.51 408.06,428.57 408.40,427.11 408.74,427.17 409.09,426.80 409.43,425.89 409.77,425.03 410.11,427.16 410.46,428.50 410.80,429.10 411.14,431.61 411.49,436.80 411.83,436.80 412.17,436.80 412.51,436.80 412.86,436.80 413.20,436.80 413.54,436.80 413.89,436.87 414.23,436.93 414.57,437.37 414.91,436.68 415.26,437.06 415.60,435.09 415.94,434.76 416.29,429.49 416.63,432.07 416.97,435.98 417.31,441.42 417.66,442.54 418.00,442.31 418.34,443.94 418.69,446.62 419.03,446.62 419.37,446.69 419.71,446.63 420.06,447.03 420.40,447.55 420.74,448.29 421.09,446.82 421.43,447.12 421.77,447.37 422.11,446.92 422.46,446.45 422.80,442.10 423.14,442.87 423.49,444.54 423.83,443.47 424.17,437.53 424.51,438.31 424.86,439.96 425.20,441.31 425.54,439.89 425.89,445.29 426.23,447.94 426.57,447.94 426.91,447.94 427.26,447.94 427.60,448.08 427.94,447.98 428.29,449.26 428.63,446.71 428.97,448.33 429.31,443.23 429.66,443.32 430.00,443.57 430.34,444.66 430.69,443.76 431.03,448.50 431.37,448.95 431.71,447.41 432.06,439.48 432.40,435.09 432.74,433.62 433.09,437.10 433.43,442.32 433.77,436.62 434.11,434.25 434.46,436.24 434.80,432.36 435.14,435.65 435.49,432.87 435.83,435.03 436.17,432.63 436.51,423.50 436.86,423.87 437.20,424.20 437.54,417.83 437.89,416.26 438.23,411.85 438.57,408.83 438.91,411.69 439.26,404.23 439.60,405.65 439.94,415.01 440.29,413.03 440.63,417.05 440.97,413.86 441.31,418.38 441.66,424.76 442.00,424.76 442.34,424.76 442.69,424.83 443.03,425.51 443.37,427.14 443.71,425.13 444.06,423.72 444.40,425.15 444.74,423.32 445.09,421.40 445.43,421.65 445.77,422.78 446.11,420.21 446.46,423.35 446.80,426.15 447.14,427.64 447.49,428.88 447.83,429.76 448.17,432.23 448.51,432.23 448.86,432.23 449.20,432.23 449.54,432.23 449.89,432.23 450.23,432.23 450.57,432.23 450.91,432.23 451.26,432.23 451.60,432.23 451.94,432.23 452.29,432.23 452.63,432.23 452.97,432.23 453.31,432.23 453.66,432.23 454.00,432.23 454.34,432.23 454.69,432.23 455.03,432.23 455.37,432.23 455.71,432.23 456.06,432.23 456.40,432.23 456.74,432.36 457.09,436.61 457.43,435.70 457.77,432.90 458.11,433.14 458.46,433.75 458.80,432.31 459.14,432.44 459.49,435.00 459.83,437.60 460.17,437.60 460.51,437.60 460.86,437.67 461.20,437.36 461.54,434.27 461.89,435.02 462.23,431.86 462.57,432.95 462.91,438.65 463.26,437.18 463.60,438.55 463.94,441.64 464.29,441.65 464.63,443.49 464.97,443.49 465.31,443.49 465.66,443.63 466.00,442.71 466.34,440.05 466.69,436.24 467.03,428.79 467.37,431.27 467.71,426.43 468.06,427.79 468.40,427.60 468.74,431.35 469.09,429.42 469.43,426.61 469.77,418.91 470.11,418.21 470.46,418.78 470.80,424.50 471.14,424.29 471.49,422.12 471.83,420.99 472.17,417.43 472.51,409.19 472.86,408.27 473.20,407.22 473.54,413.08 473.89,414.13 474.23,410.26 474.57,408.18 474.91,417.72 475.26,413.51 475.60,422.83 475.94,422.90 476.29,424.30 476.63,423.64 476.97,425.41 477.31,426.89 477.66,429.13 478.00,429.13 478.34,429.13 478.69,429.13 479.03,429.13 479.37,429.13 479.71,429.13 480.06,429.13 480.40,429.13 480.74,429.13 481.09,429.13 481.43,429.13 481.77,429.13 482.11,429.13 482.46,429.13 482.80,429.13 483.14,429.13 483.49,429.13 483.83,429.13 484.17,429.13 484.51,429.13 484.86,429.13 485.20,429.13 485.54,429.13 485.89,429.13 486.23,429.13 486.57,429.13 486.91,429.20 487.26,428.45 487.60,429.53 487.94,431.93 488.29,432.22 488.63,432.22 488.97,432.22 489.31,432.22 489.66,432.22 490.00,432.22 490.34,432.22 490.69,432.22 491.03,432.22 491.37,432.22 491.71,432.22 492.06,432.22 492.40,432.22 492.74,432.22 493.09,432.22 493.43,432.22 493.77,432.22 494.11,432.22 494.46,432.22 494.80,432.29 495.14,433.06 495.49,432.04 495.83,430.44 496.17,430.69 496.51,432.44 496.86,433.04 497.20,432.95 497.54,433.04 497.89,432.49 498.23,434.60 498.57,433.86 498.91,432.69 499.26,426.59 499.60,427.02 499.94,427.13 500.29,427.96 500.63,427.96 500.97,427.25 501.31,428.30 501.66,433.69 502.00,431.94 502.34,430.44 502.69,430.98 503.03,432.38 503.37,430.77 503.71,428.35 504.06,427.67 504.40,429.88 504.74,429.66 505.09,430.02 505.43,430.94 505.77,431.79 506.11,429.44 506.46,431.36 506.80,432.72 507.14,421.97 507.49,421.03 507.83,419.18 508.17,415.84 508.51,415.67 508.86,416.63 509.20,414.73 509.54,411.38 509.89,408.13 510.23,406.36 510.57,408.60 510.91,403.12 511.26,408.64 511.60,410.04 511.94,410.76 512.29,409.49 512.63,410.87 512.97,410.16 513.31,403.46 513.66,405.78 514.00,402.92 514.34,402.79 514.69,396.20 515.03,396.30 515.37,394.05 515.71,398.30 516.06,394.81 516.40,394.82 516.74,398.30 517.09,394.04 517.43,394.02 517.77,393.28 518.11,394.58 518.46,390.77 518.80,386.67 519.14,389.35 519.49,386.43 519.83,388.07 520.17,389.44 520.51,388.84 520.86,388.57 521.20,379.84 521.54,379.96 521.89,370.57 522.23,370.26 522.57,375.19 522.91,378.23 523.26,381.04 523.60,380.69 523.94,375.74 524.29,385.98 524.63,385.98 524.97,385.98 525.31,385.98 525.66,385.98 526.00,385.98 526.34,385.98 526.69,385.98 527.03,385.98 527.37,385.98 527.71,385.98 528.06,385.98 528.40,385.98 528.74,385.98 529.09,385.98 529.43,385.98 529.77,385.98 530.11,385.98 530.46,385.98 530.80,385.98 531.14,385.98 531.49,385.98 531.83,385.98 532.17,385.98 532.51,386.12 532.86,388.24 533.20,387.60 533.54,391.08 533.89,391.08 534.23,391.08 534.57,391.08 534.91,391.08 535.26,391.08 535.60,391.08 535.94,391.14 536.29,392.00 536.63,390.89 536.97,391.17 537.31,391.46 537.66,391.03 538.00,390.94 538.34,391.50 538.69,391.50 539.03,390.43 539.37,390.97 539.71,390.36 540.06,391.84 540.40,394.21 540.74,397.85 541.09,397.85 541.43,397.85 541.77,397.85 542.11,397.85 542.46,397.85 542.80,397.85 543.14,397.98 543.49,395.84 543.83,396.69 544.17,400.89 544.51,401.93 544.86,406.17 545.20,406.80 545.54,406.23 545.89,407.28 546.23,407.62 546.57,406.50 546.91,406.40 547.26,404.53 547.60,406.13 547.94,406.86 548.29,406.29 548.63,408.48 548.97,408.61 549.31,408.97 549.66,408.80 550.00,406.14 550.34,408.04 550.69,408.64 551.03,407.40 551.37,409.06 551.71,410.98 552.06,407.21 552.40,405.46 552.74,408.59 553.09,400.45 553.43,402.41 553.77,395.96 554.11,396.99 554.46,392.75 554.80,390.28 555.14,389.37 555.49,388.29 555.83,383.80 556.17,388.19 556.51,386.32 556.86,388.11 557.20,384.25 557.54,387.58 557.89,386.85 558.23,385.03 558.57,386.16 558.91,383.99 559.26,384.80 559.60,389.94 559.94,390.53 560.29,388.14 560.63,389.36 560.97,390.16 561.31,379.37 561.66,379.36 562.00,375.29 562.34,371.26 562.69,370.55 563.03,372.13 563.37,374.98 563.71,373.57 564.06,377.68 564.40,375.95 564.74,374.08 565.09,376.88 565.43,375.65 565.77,377.91 566.11,374.86 566.46,370.50 566.80,368.02 567.14,360.76 567.49,362.18 567.83,369.45 568.17,367.36 568.51,367.54 568.86,366.83 569.20,371.24 569.54,374.45 569.89,374.59 570.23,373.72 570.57,374.17 570.91,373.57 571.26,373.19 571.60,379.42 571.94,377.04 572.29,380.87 572.63,383.70 572.97,380.53 573.31,382.00 573.66,382.31 574.00,383.04 574.34,384.76 574.69,384.76 575.03,384.76 575.37,384.89 575.71,386.58 576.06,387.89 576.40,389.94 576.74,389.94 577.09,389.94 577.43,389.94 577.77,389.94 578.11,389.94 578.46,389.94 578.80,389.94 579.14,389.94 579.49,389.94 579.83,389.94 580.17,389.94 580.51,389.94 580.86,390.07 581.20,389.37 581.54,389.77 581.89,389.59 582.23,389.96 582.57,391.63 582.91,392.43 583.26,397.11 583.60,395.56 583.94,396.48 584.29,394.84 584.63,393.36 584.97,395.42 585.31,395.73 585.66,396.71 586.00,395.80 586.34,396.50 586.69,397.05 587.03,399.87 587.37,399.87 587.71,399.87 588.06,399.87 588.40,399.87 588.74,399.87 589.09,399.87 589.43,399.87 589.77,399.87 590.11,399.87 590.46,399.87 590.80,399.87 591.14,399.87 591.49,399.87 591.83,400.00 592.17,392.74 592.51,392.21 592.86,390.02 593.20,387.40 593.54,385.07 593.89,391.11 594.23,391.71 594.57,388.51 594.91,384.36 595.26,384.70 595.60,385.44 595.94,382.02 596.29,375.67 596.63,353.92 596.97,347.50 597.31,335.17 597.66,332.69 598.00,341.54 598.34,341.25 598.69,340.76 599.03,356.67 599.37,335.85 599.71,335.60 600.06,337.52 600.40,347.83 600.74,349.66 601.09,348.29 601.43,335.88 601.77,344.49 602.11,337.66 602.46,338.43 602.80,343.27 603.14,330.80 603.49,319.02 603.83,331.58 604.17,331.76 604.51,336.07 604.86,331.50 605.20,338.19 605.54,335.50 605.89,330.59 606.23,328.12 606.57,339.32 606.91,319.46 607.26,322.15 607.60,308.00 607.94,301.57 608.29,285.18 608.63,285.36 608.97,287.69 609.31,278.81 609.66,285.10 610.00,276.04 610.34,271.64 610.69,278.22 611.03,288.47 611.37,281.41 611.71,284.47 612.06,287.10 612.40,269.98 612.74,269.22 613.09,259.96 613.43,260.90 613.77,269.52 614.11,273.32 614.46,268.45 614.80,256.23 615.14,253.87 615.49,274.39 615.83,281.99 616.17,286.68 616.51,286.75 616.86,288.09 617.20,288.40 617.54,287.11 617.89,288.32 618.23,288.68 618.57,287.70 618.91,288.34 619.26,290.52 619.60,291.65 619.94,291.65 620.29,291.65 620.63,291.65 620.97,291.65 621.31,291.71 621.66,292.57 622.00,295.07 622.34,296.56 622.69,296.56 623.03,296.56 623.37,296.56 623.71,296.56 624.06,296.56 624.40,296.56 624.74,296.56 625.09,296.56 625.43,296.56 625.77,296.56 626.11,296.56 626.46,296.56 626.80,296.56 627.14,296.56 627.49,296.56 627.83,296.56 628.17,296.56 628.51,296.56 628.86,296.56 629.20,296.56 629.54,296.56 629.89,296.56 630.23,296.56 630.57,296.56 630.91,296.63 631.26,295.44 631.60,295.31 631.94,295.46 632.29,297.15 632.63,299.02 632.97,298.13 633.31,298.98 633.66,299.34 634.00,299.05 634.34,297.40 634.69,296.83 635.03,295.12 635.37,296.67 635.71,294.87 636.06,295.24 636.40,297.20 636.74,296.99 637.09,300.59 637.43,300.59 637.77,300.59 638.11,300.59 638.46,300.59 638.80,300.59 639.14,300.59 639.49,300.59 639.83,300.59 640.17,300.59 640.51,300.59 640.86,300.59 641.20,300.59 641.54,300.59 641.89,300.59 642.23,300.73 642.57,297.22 642.91,297.42 643.26,295.32 643.60,294.28 643.94,288.63 644.29,277.55 644.63,270.64 644.97,266.95 645.31,275.13 645.66,277.26 646.00,272.45 646.34,279.06 646.69,280.07 647.03,275.23 647.37,277.05 647.71,274.88 648.06,273.10 648.40,274.35 648.74,274.06 649.09,271.99 649.43,268.04 649.77,262.71 650.11,269.57 650.46,265.05 650.80,266.62 651.14,259.39 651.49,265.43 651.83,276.91 652.17,275.15 652.51,270.23 652.86,268.50 653.20,267.62 653.54,269.64 653.89,270.61 654.23,265.61 654.57,261.70 654.91,264.02 655.26,253.25 655.60,248.39 655.94,244.51 656.29,232.61 656.63,225.39 656.97,236.73 657.31,234.12 657.66,232.23 658.00,261.36 658.34,258.85 658.69,234.60 659.03,236.50 659.37,219.00 659.71,217.73 660.06,215.82 660.40,230.31 660.74,235.81 661.09,256.28 661.43,268.45 661.77,249.34 662.11,246.79 662.46,239.78 662.80,241.26 663.14,246.40 663.49,253.27 663.83,264.28 664.17,265.75 664.51,265.06 664.86,266.17 665.20,266.17 665.54,261.59 665.89,260.90 666.23,260.78 666.57,266.22 666.91,265.11 667.26,272.36 667.60,272.36 667.94,272.36 668.29,272.36 668.63,272.36 668.97,272.80 669.31,274.00 669.66,273.75 670.00,275.34 670.34,274.71 670.69,276.60 671.03,275.65 671.37,275.00 671.71,275.03 672.06,275.16 672.40,275.37 672.74,274.74 673.09,276.28 673.43,276.30 673.77,277.04 674.11,276.31 674.46,276.76 674.80,274.57 675.14,274.06 675.49,273.86 675.83,274.11 676.17,273.52 676.51,272.26 676.86,266.67 677.20,263.42 677.54,259.56 677.89,257.41 678.23,261.86 678.57,260.81 678.91,262.04 679.26,261.66 679.60,260.22 679.94,259.01 680.29,254.21 680.63,249.79 680.97,252.22 681.31,256.49 681.66,255.76 682.00,258.84 682.34,255.34 682.69,257.44 683.03,251.68 683.37,256.42 683.71,258.05 684.06,259.24 684.40,258.32 684.74,257.93 685.09,259.07 685.43,257.02 685.77,255.75 686.11,251.93 686.46,258.71 686.80,255.16 687.14,254.03 687.49,252.36 687.83,246.95 688.17,251.50 688.51,250.78 688.86,250.59 689.20,245.34 689.54,242.93 689.89,234.98 690.23,237.23 690.57,237.52 690.91,232.91 691.26,229.72 691.60,227.44 691.94,233.26 692.29,228.37 692.63,220.86 692.97,201.06 693.31,175.98 693.66,177.37 694.00,171.47 694.34,143.79 694.69,141.69 695.03,139.24 695.37,150.35 695.71,137.09 696.06,137.53 696.40,110.84 696.74,95.36 697.09,70.00 697.43,83.73 697.77,76.42 698.11,147.70 698.46,140.59 698.80,121.12 699.14,131.62 699.49,121.06 699.83,119.15 700.17,129.15 700.51,123.59 700.86,128.90 701.20,129.86 701.54,130.78 701.89,121.44 702.23,125.93 702.57,120.70 702.91,114.10 703.26,114.22 703.60,121.39 703.94,130.08 704.29,127.12 704.63,127.44 704.97,128.92 705.31,125.78 705.66,127.10 706.00,128.36 706.34,124.51 706.69,124.58 707.03,124.09 707.37,125.35 707.71,127.75 708.06,149.37 708.40,149.37 708.74,149.64 709.09,154.46 709.43,152.86 709.77,157.12 710.11,159.43 710.46,156.87 710.80,158.30 711.14,158.25 711.49,159.98 711.83,156.17 712.17,158.39 712.51,158.47 712.86,161.47 713.20,161.47 713.54,161.47 713.89,161.47 714.23,161.47 714.57,161.47 714.91,161.47 715.26,161.47 715.60,161.47 715.94,161.47 716.29,161.47 716.63,161.47 716.97,161.47 717.31,161.47 717.66,161.54 718.00,162.92 718.34,164.96 718.69,166.67 719.03,165.96 719.37,167.89 719.71,167.08 720.06,173.59 720.40,173.59 720.74,173.59 721.09,173.59 721.43,173.59 721.77,173.59 722.11,173.59 722.46,173.59 722.80,173.59 723.14,173.59 723.49,173.59 723.83,173.59 724.17,173.59 724.51,173.59 724.86,173.98 725.20,176.45 725.54,185.38 725.89,186.09 726.23,186.09 726.57,186.09 726.91,186.09 727.26,186.09 727.60,186.09 727.94,186.09 728.29,186.09 728.63,186.09 728.97,186.09 729.31,186.48 729.66,183.70 730.00,185.98 730.34,182.85 730.69,190.85 731.03,187.83 731.37,185.80 731.71,182.39 732.06,182.74 732.40,179.35 732.74,181.33 733.09,174.55 733.43,171.25 733.77,177.21 734.11,179.13 734.46,198.54 734.80,198.54 735.14,198.54 735.49,198.54 735.83,198.54 736.17,198.54 736.51,198.54 736.86,198.54 737.20,198.54 737.54,198.54 737.89,198.54 738.23,198.54 738.57,198.54 738.91,198.54 739.26,198.54 739.60,198.54 739.94,198.84 740.29,204.39 740.63,204.39 740.97,204.39 741.31,204.39 741.66,204.39 742.00,204.39 742.34,204.39 742.69,204.39 743.03,204.39 743.37,204.39 743.71,204.39 744.06,204.45 744.40,204.31 744.74,205.23 745.09,208.37 745.43,207.92 745.77,207.94 746.11,203.69 746.46,199.26 746.80,198.15 747.14,199.81 747.49,196.52 747.83,195.26 748.17,195.13 748.51,192.57 748.86,199.12 749.20,201.39 749.54,200.62 749.89,200.51 750.23,202.13 750.57,198.32 750.91,202.58 751.26,201.83 751.60,202.37 751.94,200.82 752.29,198.59 752.63,198.78 752.97,200.34 753.31,200.33 753.66,197.53 754.00,193.14 754.34,195.75 754.69,199.66 755.03,199.15 755.37,200.99 755.71,200.97 756.06,203.53 756.40,205.10 756.74,206.46 757.09,204.86 757.43,206.07 757.77,203.14 758.11,201.13 758.46,202.83 758.80,200.90 759.14,193.70 759.49,199.54 759.83,202.82 760.17,199.72 760.51,200.36 760.86,199.87 761.20,202.91 761.54,205.56 761.89,190.84 762.23,197.49 762.57,195.56 762.91,181.74 763.26,176.56 763.60,176.84 763.94,173.81 764.29,184.19 764.63,180.77 764.97,174.26 765.31,161.42 765.66,160.71 766.00,164.62 766.34,162.50 766.69,163.22 767.03,161.40 767.37,155.19 767.71,158.55 768.06,157.24 768.40,154.86 768.74,152.89 769.09,155.96 769.43,151.31 769.77,167.16 770.11,163.93 770.46,163.14 770.80,165.49 771.14,163.99 771.49,162.00 771.83,162.74 772.17,163.34 772.51,165.18 772.86,172.28 773.20,166.14 773.54,163.80 773.89,169.06 774.23,167.01 774.57,167.54 774.91,166.98 775.26,169.15 775.60,168.70 775.94,162.78 776.29,166.49 776.63,167.76 776.97,172.55 777.31,173.61 777.66,174.88 778.00,174.88 778.34,174.88 778.69,174.88 779.03,174.88 779.37,174.88 779.71,174.95 780.06,174.79 780.40,176.95 780.74,177.38 781.09,176.30 781.43,179.11 781.77,179.47 782.11,178.71 782.46,179.28 782.80,176.55 783.14,178.67 783.49,183.76 783.83,185.35 784.17,185.00 784.51,186.09 784.86,185.06 785.20,184.77 785.54,182.29 785.89,172.47 786.23,171.18 786.57,176.22 786.91,172.47 787.26,180.98 787.60,182.26 787.94,180.20 788.29,178.49 788.63,175.37 788.97,172.87 789.31,179.87 789.66,182.52 790.00,182.20 790.34,178.88 790.69,184.87 791.03,185.82 791.37,185.33 791.71,185.39 792.06,185.87 792.40,185.06 792.74,186.25 793.09,195.06 793.43,197.64 793.77,196.61 794.11,199.24 794.46,198.57 794.80,197.20 795.14,198.56 795.49,200.91 795.83,198.29 796.17,197.00 796.51,199.09 796.86,201.41 797.20,199.35 797.54,198.30 797.89,200.79 798.23,198.96 798.57,187.90 798.91,198.81 799.26,202.86 799.60,205.65 799.94,203.89 800.29,204.56 800.63,203.02 800.97,206.00 801.31,205.09 801.66,205.05 802.00,210.66 802.34,215.52 802.69,218.98 803.03,219.32 803.37,219.33 803.71,213.84 804.06,215.20 804.40,214.47 804.74,208.31 805.09,216.08 805.43,215.53 805.77,215.67 806.11,221.36 806.46,217.31 806.80,224.48 807.14,228.77 807.49,228.77 807.83,228.84 808.17,228.07 808.51,227.16 808.86,223.38 809.20,220.80 809.54,219.90 809.89,221.52 810.23,225.92 810.57,220.41 810.91,223.96 811.26,228.09 811.60,240.34 811.94,240.34 812.29,240.34 812.63,240.34 812.97,240.89 813.31,239.62 813.66,240.40 814.00,235.81 814.34,234.91 814.69,238.39 815.03,236.13 815.37,237.92 815.71,236.99 816.06,231.07 816.40,234.35 816.74,236.48 817.09,230.37 817.43,234.99 817.77,244.16 818.11,243.05 818.46,241.86 818.80,244.54 819.14,248.22 819.49,248.83 819.83,247.88 820.17,250.54 820.51,252.78 820.86,250.03 821.20,246.93 821.54,255.25 821.89,251.93 822.23,255.33 822.57,265.00 822.91,265.00 823.26,265.00 823.60,265.00 823.94,265.00 824.29,265.00 824.63,265.00 824.97,265.00 825.31,265.61 825.66,260.27 826.00,256.72 826.34,259.72 826.69,261.89 827.03,263.62 827.37,270.73 827.71,281.67 828.06,281.67 828.40,281.67 828.74,281.67 829.09,281.67 829.43,281.67 829.77,281.67 830.11,281.67 830.46,281.67 830.80,281.67 831.14,281.67 831.49,281.74 831.83,280.21 832.17,285.14 832.51,281.32 832.86,273.31 833.20,273.67 833.54,271.39 833.89,273.96 834.23,268.10 834.57,273.31 834.91,278.92 835.26,268.96 835.60,244.76 835.94,252.46 836.29,250.32 836.63,232.16 836.97,222.62 837.31,195.14 837.66,223.25 838.00,220.37 838.34,225.03 838.69,246.63 839.03,261.34 839.37,261.34 839.71,261.34 840.06,261.34 840.40,261.34 840.74,261.34 841.09,261.34 841.43,261.34 841.77,261.34 842.11,261.34 842.46,261.34 842.80,261.34 843.14,261.34 843.49,261.34 843.83,261.34 844.17,261.34 844.51,261.34 844.86,261.34 845.20,261.34 845.54,261.34 845.89,261.34 846.23,261.34 846.57,261.34 846.91,261.81 847.26,265.17 847.60,264.98 847.94,267.32 848.29,267.32 848.63,267.79 848.97,267.43 849.31,266.35 849.66,266.25 850.00,262.55 850.34,261.57 850.69,260.87 851.03,264.92 851.37,260.22 851.71,258.70 852.06,253.49 852.40,248.65 852.74,251.54 853.09,243.26 853.43,247.22 853.77,252.05 854.11,251.96 854.46,250.12 854.80,254.75 855.14,253.25 855.49,253.59 855.83,256.51 856.17,255.52 856.51,255.77 856.86,256.43 857.20,255.30 857.54,251.33 857.89,253.94 858.23,258.47 858.57,254.85 858.91,256.31 859.26,257.65 859.60,255.95 859.94,252.51 860.29,254.59 860.63,247.13 860.97,245.50 861.31,254.37 861.66,259.70 862.00,255.10 862.34,254.17 862.69,254.49 863.03,252.51 863.37,246.26 863.71,248.63 864.06,248.07 864.40,244.75 864.74,243.80 865.09,238.02 865.43,235.21 865.77,235.80 866.11,219.07 866.46,212.16 866.80,212.72 867.14,214.16 867.49,210.06 867.83,206.62 868.17,211.30 868.51,198.03 868.86,199.72 869.20,200.21 869.54,201.19 869.89,196.91 870.23,204.58 870.57,203.65 870.91,200.30 871.26,201.49 871.60,210.16 871.94,224.59 872.29,225.20 872.63,224.49 872.97,230.64 873.31,229.08 873.66,222.36 874.00,227.76 874.34,220.02 874.69,219.69 875.03,221.37 875.37,225.06 875.71,216.39 876.06,228.31 876.40,230.26 876.74,237.77 877.09,239.41 877.43,240.04 877.77,238.96 878.11,242.70 878.46,243.71 878.80,245.85 879.14,238.96 879.49,239.47 879.83,232.31 880.17,223.68 880.51,218.46 880.86,224.87 881.20,225.05 881.54,220.13 881.89,231.93 882.23,228.99 882.57,235.67 882.91,248.48 883.26,240.37 883.60,238.40 883.94,226.51 884.29,230.68 884.63,230.54 884.97,226.74 885.31,230.08 885.66,229.14 886.00,219.52 886.34,211.71 886.69,213.77 887.03,224.84 887.37,225.06 887.71,225.29 888.06,239.63 888.40,238.87 888.74,245.97 889.09,245.91 889.43,248.34 889.77,251.31 890.11,251.31 890.46,251.31 890.80,251.31 891.14,251.31 891.49,251.31 891.83,251.31 892.17,251.31 892.51,251.31 892.86,251.31 893.20,251.31 893.54,251.31 893.89,251.31 894.23,251.31 894.57,251.31 894.91,251.31 895.26,251.31 895.60,251.31 895.94,251.31 896.29,251.79 896.63,252.59 896.97,245.13 897.31,248.69 897.66,231.99 898.00,228.08 898.34,228.11 898.69,225.34 899.03,227.10 899.37,229.25 899.71,236.59 900.06,239.31 900.40,242.80 900.74,240.65 901.09,234.63 901.43,233.57 901.77,233.79 902.11,241.80 902.46,236.68 902.80,224.51 903.14,211.40 903.49,209.14 903.83,223.91 904.17,223.74 904.51,215.69 904.86,211.92 905.20,206.89 905.54,211.98 905.89,201.40 906.23,200.54 906.57,215.27 906.91,210.07 907.26,213.29 907.60,196.11 907.94,198.52 908.29,207.11 908.63,204.46 908.97,198.03 909.31,204.61 909.66,199.09 910.00,196.60" fill="none" stroke="#1c7ed6" stroke-width="2"/>
<line x1="70" x2="70" y1="70" y2="450" stroke="#444"/>
<line x1="70" x2="910" y1="450" y2="450" stroke="#444"/>
</svg>