<svg xmlns="http://www.w3.org/2000/svg" width="980" height="520" viewBox="0 0 980 520"><style>text{font-family:Arial,sans-serif;fill:#e9ecef}.title{font-size:20px;font-weight:700}.axis{font-size:12px;fill:#adb5bd}.cell{font-size:11px;fill:#fff}</style><rect width="100%" height="100%" fill="#0b0f14"/><text x="24" y="28" class="title">Monte Carlo Max Drawdown</text>
<text x="70" y="35" class="axis">Count</text>
<rect x="70.00" y="440.43" width="26.00" height="9.57" fill="#2f9e44" opacity="0.82"/>
<rect x="98.00" y="399.59" width="26.00" height="50.41" fill="#2f9e44" opacity="0.82"/>
<rect x="126.00" y="314.40" width="26.00" height="135.60" fill="#2f9e44" opacity="0.82"/>
<rect x="154.00" y="213.58" width="26.00" height="236.42" fill="#2f9e44" opacity="0.82"/>
<rect x="182.00" y="136.68" width="26.00" height="313.32" fill="#2f9e44" opacity="0.82"/>
<rect x="210.00" y="70.00" width="26.00" height="380.00" fill="#2f9e44" opacity="0.82"/>
<rect x="238.00" y="85.31" width="26.00" height="364.69" fill="#2f9e44" opacity="0.82"/>
<rect x="266.00" y="113.07" width="26.00" height="336.93" fill="#2f9e44" opacity="0.82"/>
<rect x="294.00" y="155.51" width="26.00" height="294.49" fill="#2f9e44" opacity="0.82"/>
<rect x="322.00" y="210.39" width="26.00" height="239.61" fill="#2f9e44" opacity="0.82"/>
<rect x="350.00" y="253.14" width="26.00" height="196.86" fill="#2f9e44" opacity="0.82"/>
<rect x="378.00" y="283.13" width="26.00" height="166.87" fill="#2f9e44" opacity="0.82"/>
<rect x="406.00" y="335.14" width="26.00" height="114.86" fill="#2f9e44" opacity="0.82"/>
<rect x="434.00" y="350.45" width="26.00" height="99.55" fill="#2f9e44" opacity="0.82"/>
<rect x="462.00" y="378.53" width="26.00" height="71.47" fill="#2f9e44" opacity="0.82"/>
<rect x="490.00" y="397.67" width="26.00" height="52.33" fill="#2f9e44" opacity="0.82"/>
<rect x="518.00" y="412.35" width="26.00" height="37.65" fill="#2f9e44" opacity="0.82"/>
<rect x="546.00" y="421.28" width="26.00" height="28.72" fill="#2f9e44" opacity="0.82"/>
<rect x="574.00" y="431.18" width="26.00" height="18.82" fill="#2f9e44" opacity="0.82"/>
<rect x="602.00" y="436.92" width="26.00" height="13.08" fill="#2f9e44" opacity="0.82"/>
<rect x="630.00" y="439.15" width="26.00" height="10.85" fill="#2f9e44" opacity="0.82"/>
<rect x="658.00" y="441.70" width="26.00" height="8.30" fill="#2f9e44" opacity="0.82"/>
<rect x="686.00" y="446.17" width="26.00" height="3.83" fill="#2f9e44" opacity="0.82"/>
<rect x="714.00" y="447.13" width="26.00" height="2.87" fill="#2f9e44" opacity="0.82"/>
<rect x="742.00" y="448.40" width="26.00" height="1.60" fill="#2f9e44" opacity="0.82"/>
<rect x="770.00" y="449.36" width="26.00" height="0.64" fill="#2f9e44" opacity="0.82"/>
<rect x="798.00" y="449.36" width="26.00" height="0.64" fill="#2f9e44" opacity="0.82"/>
<rect x="826.00" y="449.68" width="26.00" height="0.32" fill="#2f9e44" opacity="0.82"/>
<rect x="854.00" y="450.00" width="26.00" height="0.00" fill="#2f9e44" opacity="0.82"/>
<rect x="882.00" y="449.68" width="26.00" height="0.32" fill="#2f9e44" opacity="0.82"/>
<line x1="70" x2="910" y1="450.00" y2="450.00" stroke="#444"/>
</svg>