<svg xmlns="http://www.w3.org/2000/svg" width="980" height="520" viewBox="0 0 980 520"><style>text{font-family:Arial,sans-serif;fill:#e9ecef}.title{font-size:20px;font-weight:700}.axis{font-size:12px;fill:#adb5bd}.cell{font-size:11px;fill:#fff}</style><rect width="100%" height="100%" fill="#0b0f14"/><text x="24" y="28" class="title">Monthly Returns</text>
<text x="70" y="35" class="axis">Return</text>
<rect x="70.00" y="360.28" width="8.63" height="21.31" fill="#c92a2a" opacity="0.82"/>
<rect x="80.63" y="329.03" width="8.63" height="31.25" fill="#2f9e44" opacity="0.82"/>
<rect x="91.27" y="360.28" width="8.63" height="28.58" fill="#c92a2a" opacity="0.82"/>
<rect x="101.90" y="360.28" width="8.63" height="11.30" fill="#c92a2a" opacity="0.82"/>
<rect x="112.53" y="360.28" width="8.63" height="7.03" fill="#c92a2a" opacity="0.82"/>
<rect x="123.16" y="360.28" width="8.63" height="34.45" fill="#c92a2a" opacity="0.82"/>
<rect x="133.80" y="360.28" width="8.63" height="9.84" fill="#c92a2a" opacity="0.82"/>
<rect x="144.43" y="299.55" width="8.63" height="60.73" fill="#2f9e44" opacity="0.82"/>
<rect x="155.06" y="360.28" width="8.63" height="12.36" fill="#c92a2a" opacity="0.82"/>
<rect x="165.70" y="360.28" width="8.63" height="30.84" fill="#c92a2a" opacity="0.82"/>
<rect x="176.33" y="327.27" width="8.63" height="33.00" fill="#2f9e44" opacity="0.82"/>
<rect x="186.96" y="325.03" width="8.63" height="35.24" fill="#2f9e44" opacity="0.82"/>
<rect x="197.59" y="360.28" width="8.63" height="29.11" fill="#c92a2a" opacity="0.82"/>
<rect x="208.23" y="360.28" width="8.63" height="21.75" fill="#c92a2a" opacity="0.82"/>
<rect x="218.86" y="360.28" width="8.63" height="19.72" fill="#c92a2a" opacity="0.82"/>
<rect x="229.49" y="284.55" width="8.63" height="75.73" fill="#2f9e44" opacity="0.82"/>
<rect x="240.13" y="360.28" width="8.63" height="27.75" fill="#c92a2a" opacity="0.82"/>
<rect x="250.76" y="360.28" width="8.63" height="22.58" fill="#c92a2a" opacity="0.82"/>
<rect x="261.39" y="284.57" width="8.63" height="75.71" fill="#2f9e44" opacity="0.82"/>
<rect x="272.03" y="360.28" width="8.63" height="37.88" fill="#c92a2a" opacity="0.82"/>
<rect x="282.66" y="179.40" width="8.63" height="180.88" fill="#2f9e44" opacity="0.82"/>
<rect x="293.29" y="360.28" width="8.63" height="16.34" fill="#c92a2a" opacity="0.82"/>
<rect x="303.92" y="360.28" width="8.63" height="14.93" fill="#c92a2a" opacity="0.82"/>
<rect x="314.56" y="360.28" width="8.63" height="65.11" fill="#c92a2a" opacity="0.82"/>
<rect x="325.19" y="360.28" width="8.63" height="16.50" fill="#c92a2a" opacity="0.82"/>
<rect x="335.82" y="360.28" width="8.63" height="15.14" fill="#c92a2a" opacity="0.82"/>
<rect x="346.46" y="360.28" width="8.63" height="25.30" fill="#c92a2a" opacity="0.82"/>
<rect x="357.09" y="360.28" width="8.63" height="18.88" fill="#c92a2a" opacity="0.82"/>
<rect x="367.72" y="360.28" width="8.63" height="34.25" fill="#c92a2a" opacity="0.82"/>
<rect x="378.35" y="292.25" width="8.63" height="68.03" fill="#2f9e44" opacity="0.82"/>
<rect x="388.99" y="360.28" width="8.63" height="5.29" fill="#c92a2a" opacity="0.82"/>
<rect x="399.62" y="360.28" width="8.63" height="50.24" fill="#c92a2a" opacity="0.82"/>
<rect x="410.25" y="360.28" width="8.63" height="1.37" fill="#c92a2a" opacity="0.82"/>
<rect x="420.89" y="360.28" width="8.63" height="29.13" fill="#c92a2a" opacity="0.82"/>
<rect x="431.52" y="360.28" width="8.63" height="34.46" fill="#c92a2a" opacity="0.82"/>
<rect x="442.15" y="360.28" width="8.63" height="4.66" fill="#c92a2a" opacity="0.82"/>
<rect x="452.78" y="278.88" width="8.63" height="81.40" fill="#2f9e44" opacity="0.82"/>
<rect x="463.42" y="360.28" width="8.63" height="26.22" fill="#c92a2a" opacity="0.82"/>
<rect x="474.05" y="360.28" width="8.63" height="18.86" fill="#c92a2a" opacity="0.82"/>
<rect x="484.68" y="360.28" width="8.63" height="20.69" fill="#c92a2a" opacity="0.82"/>
<rect x="495.32" y="309.84" width="8.63" height="50.43" fill="#2f9e44" opacity="0.82"/>
<rect x="505.95" y="360.28" width="8.63" height="10.87" fill="#c92a2a" opacity="0.82"/>
<rect x="516.58" y="197.91" width="8.63" height="162.37" fill="#2f9e44" opacity="0.82"/>
<rect x="527.22" y="360.28" width="8.63" height="41.66" fill="#c92a2a" opacity="0.82"/>
<rect x="537.85" y="360.28" width="8.63" height="18.63" fill="#c92a2a" opacity="0.82"/>
<rect x="548.48" y="360.28" width="8.63" height="18.70" fill="#c92a2a" opacity="0.82"/>
<rect x="559.11" y="240.81" width="8.63" height="119.47" fill="#2f9e44" opacity="0.82"/>
<rect x="569.75" y="360.28" width="8.63" height="54.38" fill="#c92a2a" opacity="0.82"/>
<rect x="580.38" y="360.28" width="8.63" height="16.84" fill="#c92a2a" opacity="0.82"/>
<rect x="591.01" y="360.28" width="8.63" height="18.03" fill="#c92a2a" opacity="0.82"/>
<rect x="601.65" y="-19.72" width="8.63" height="380.00" fill="#2f9e44" opacity="0.82"/>
<rect x="612.28" y="360.28" width="8.63" height="17.25" fill="#c92a2a" opacity="0.82"/>
<rect x="622.91" y="360.28" width="8.63" height="14.16" fill="#c92a2a" opacity="0.82"/>
<rect x="633.54" y="316.67" width="8.63" height="43.61" fill="#2f9e44" opacity="0.82"/>
<rect x="644.18" y="304.75" width="8.63" height="55.53" fill="#2f9e44" opacity="0.82"/>
<rect x="654.81" y="233.46" width="8.63" height="126.81" fill="#2f9e44" opacity="0.82"/>
<rect x="665.44" y="76.17" width="8.63" height="284.11" fill="#2f9e44" opacity="0.82"/>
<rect x="676.08" y="360.28" width="8.63" height="21.55" fill="#c92a2a" opacity="0.82"/>
<rect x="686.71" y="360.28" width="8.63" height="42.55" fill="#c92a2a" opacity="0.82"/>
<rect x="697.34" y="360.28" width="8.63" height="43.92" fill="#c92a2a" opacity="0.82"/>
<rect x="707.97" y="360.28" width="8.63" height="43.72" fill="#c92a2a" opacity="0.82"/>
<rect x="718.61" y="360.28" width="8.63" height="20.51" fill="#c92a2a" opacity="0.82"/>
<rect x="729.24" y="342.12" width="8.63" height="18.15" fill="#2f9e44" opacity="0.82"/>
<rect x="739.87" y="360.28" width="8.63" height="14.93" fill="#c92a2a" opacity="0.82"/>
<rect x="750.51" y="250.52" width="8.63" height="109.76" fill="#2f9e44" opacity="0.82"/>
<rect x="761.14" y="360.28" width="8.63" height="31.81" fill="#c92a2a" opacity="0.82"/>
<rect x="771.77" y="360.28" width="8.63" height="12.41" fill="#c92a2a" opacity="0.82"/>
<rect x="782.41" y="360.28" width="8.63" height="54.62" fill="#c92a2a" opacity="0.82"/>
<rect x="793.04" y="360.28" width="8.63" height="54.32" fill="#c92a2a" opacity="0.82"/>
<rect x="803.67" y="360.28" width="8.63" height="86.07" fill="#c92a2a" opacity="0.82"/>
<rect x="814.30" y="360.28" width="8.63" height="27.68" fill="#c92a2a" opacity="0.82"/>
<rect x="824.94" y="360.28" width="8.63" height="117.46" fill="#c92a2a" opacity="0.82"/>
<rect x="835.57" y="288.87" width="8.63" height="71.41" fill="#2f9e44" opacity="0.82"/>
<rect x="846.20" y="360.28" width="8.63" height="21.02" fill="#c92a2a" opacity="0.82"/>
<rect x="856.84" y="210.22" width="8.63" height="150.05" fill="#2f9e44" opacity="0.82"/>
<rect x="867.47" y="360.28" width="8.63" height="52.06" fill="#c92a2a" opacity="0.82"/>
<rect x="878.10" y="360.28" width="8.63" height="39.63" fill="#c92a2a" opacity="0.82"/>
<rect x="888.73" y="360.28" width="8.63" height="2.12" fill="#c92a2a" opacity="0.82"/>
<rect x="899.37" y="168.21" width="8.63" height="192.07" fill="#2f9e44" opacity="0.82"/>
<line x1="70" x2="910" y1="360.28" y2="360.28" stroke="#444"/>
</svg>