<svg xmlns="http://www.w3.org/2000/svg" width="980" height="520" viewBox="0 0 980 520"><style>text{font-family:Arial,sans-serif;fill:#e9ecef}.title{font-size:20px;font-weight:700}.axis{font-size:12px;fill:#adb5bd}.cell{font-size:11px;fill:#fff}</style><rect width="100%" height="100%" fill="#0b0f14"/><text x="24" y="28" class="title">Rolling Expectancy</text>
<text x="70" y="35" class="axis">Expectancy</text>
<polyline points="70.00,351.49 74.40,342.29 78.80,334.63 83.19,336.19 87.59,342.61 91.99,347.43 96.39,346.02 100.79,349.08 105.18,350.64 109.58,350.62 113.98,350.22 118.38,353.59 122.77,337.86 127.17,323.11 131.57,320.73 135.97,322.11 140.37,322.19 144.76,321.48 149.16,337.19 153.56,351.01 157.96,349.12 162.36,348.44 166.75,340.55 171.15,334.37 175.55,328.09 179.95,323.06 184.35,324.14 188.74,325.09 193.14,314.08 197.54,289.56 201.94,282.47 206.34,293.41 210.73,302.20 215.13,308.97 219.53,309.53 223.93,308.59 228.32,310.27 232.72,308.80 237.12,308.88 241.52,310.50 245.92,312.01 250.31,312.82 254.71,331.54 259.11,347.93 263.51,345.14 267.91,343.74 272.30,343.85 276.70,344.70 281.10,345.61 285.50,334.17 289.90,326.67 294.29,319.50 298.69,326.28 303.09,332.67 307.49,339.27 311.88,345.86 316.28,343.37 320.68,340.49 325.08,357.60 329.48,386.70 333.87,397.48 338.27,392.95 342.67,389.91 347.07,388.78 351.47,387.63 355.86,388.13 360.26,387.16 364.66,390.98 369.06,389.48 373.46,383.63 377.85,379.33 382.25,378.06 386.65,361.59 391.05,347.41 395.45,350.30 399.84,350.19 404.24,350.02 408.64,352.49 413.04,353.34 417.43,361.65 421.83,369.35 426.23,366.17 430.63,361.39 435.03,352.27 439.42,354.95 443.82,355.12 448.22,355.21 452.62,339.13 457.02,323.91 461.41,309.86 465.81,301.05 470.21,306.03 474.61,306.11 479.01,308.83 483.40,311.38 487.80,313.97 492.20,295.01 496.60,271.33 500.99,274.86 505.39,281.13 509.79,286.32 514.19,288.80 518.59,306.81 522.98,295.98 527.38,247.35 531.78,198.24 536.18,200.39 540.58,199.92 544.97,196.39 549.37,199.25 553.77,190.54 558.17,193.50 562.57,189.71 566.96,190.38 571.36,167.73 575.76,147.46 580.16,105.20 584.55,70.00 588.95,88.33 593.35,105.60 597.75,121.62 602.15,122.56 606.54,127.55 610.94,128.37 615.34,129.01 619.74,129.81 624.14,146.42 628.53,170.55 632.93,164.00 637.33,154.89 641.73,150.53 646.13,149.10 650.52,132.18 654.92,139.62 659.32,183.32 663.72,226.80 668.12,225.18 672.51,218.60 676.91,218.35 681.31,221.89 685.71,234.36 690.10,244.75 694.50,245.69 698.90,254.04 703.30,278.12 707.70,301.42 712.09,345.45 716.49,399.18 720.89,397.40 725.29,397.64 729.69,392.94 734.08,390.69 738.48,389.23 742.88,385.82 747.28,386.08 751.68,381.56 756.07,384.93 760.47,382.09 764.87,388.09 769.27,390.94 773.66,391.35 778.06,394.26 782.46,410.24 786.86,430.64 791.26,436.71 795.65,447.04 800.05,450.00 804.45,447.90 808.85,445.61 813.25,435.95 817.64,423.88 822.04,413.36 826.44,425.12 830.84,418.49 835.24,397.84 839.63,386.24 844.03,367.15 848.43,368.59 852.83,367.09 857.23,361.18 861.62,365.04 866.02,366.23 870.42,367.74 874.82,358.94 879.21,348.82 883.61,345.20 888.01,347.58 892.41,350.66 896.81,328.35 901.20,314.39 905.60,300.61 910.00,284.07" fill="none" stroke="#1c7ed6" stroke-width="2"/>
<line x1="70" x2="70" y1="70" y2="450" stroke="#444"/>
<line x1="70" x2="910" y1="450" y2="450" stroke="#444"/>
</svg>