<svg xmlns="http://www.w3.org/2000/svg" width="980" height="520" viewBox="0 0 980 520"><style>text{font-family:Arial,sans-serif;fill:#e9ecef}.title{font-size:20px;font-weight:700}.axis{font-size:12px;fill:#adb5bd}.cell{font-size:11px;fill:#fff}</style><rect width="100%" height="100%" fill="#0b0f14"/><text x="24" y="28" class="title">Rolling Profit Factor</text>
<text x="70" y="35" class="axis">Profit factor</text>
<polyline points="70.00,395.95 74.40,383.29 78.80,371.35 83.19,373.77 87.59,383.76 91.99,390.31 96.39,388.52 100.79,392.29 105.18,394.06 109.58,394.03 113.98,393.59 118.38,397.26 122.77,377.85 127.17,358.68 131.57,354.37 135.97,356.93 140.37,357.07 144.76,355.77 149.16,376.95 153.56,393.76 157.96,391.75 162.36,391.00 166.75,381.06 171.15,372.94 175.55,364.64 179.95,357.31 184.35,359.26 188.74,360.93 193.14,346.58 197.54,314.64 201.94,305.40 206.34,324.69 210.73,338.49 215.13,348.24 219.53,349.11 223.93,347.64 228.32,350.25 232.72,347.97 237.12,348.09 241.52,350.60 245.92,352.83 250.31,354.00 254.71,373.24 259.11,388.60 263.51,386.15 267.91,384.85 272.30,384.96 276.70,385.75 281.10,386.58 285.50,375.53 289.90,367.99 294.29,360.13 298.69,367.51 303.09,373.87 307.49,380.46 311.88,386.85 316.28,384.51 320.68,381.60 325.08,398.46 329.48,425.31 333.87,435.46 338.27,434.18 342.67,433.23 347.07,432.85 351.47,432.46 355.86,432.63 360.26,432.29 364.66,433.57 369.06,433.09 373.46,430.16 377.85,428.30 382.25,427.70 386.65,408.86 391.05,390.54 395.45,394.05 399.84,393.92 404.24,393.73 408.64,396.46 413.04,397.35 417.43,407.87 421.83,416.91 426.23,412.96 430.63,407.84 435.03,396.15 439.42,398.86 443.82,399.03 448.22,399.12 452.62,379.33 457.02,358.66 461.41,337.21 465.81,324.70 470.21,336.42 474.61,336.59 479.01,342.14 483.40,346.89 487.80,351.34 492.20,327.41 496.60,291.06 500.99,300.93 505.39,314.69 509.79,325.25 514.19,329.76 518.59,350.27 522.98,340.13 527.38,290.85 531.78,239.91 536.18,246.14 540.58,244.83 544.97,234.23 549.37,242.89 553.77,231.83 558.17,234.79 562.57,231.00 566.96,231.67 571.36,200.96 575.76,169.87 580.16,110.51 584.55,70.00 588.95,116.83 593.35,155.62 597.75,187.25 602.15,190.33 606.54,205.56 610.94,207.90 615.34,209.69 619.74,211.90 624.14,226.03 628.53,254.00 632.93,241.23 637.33,224.82 641.73,212.33 646.13,207.93 650.52,179.15 654.92,186.39 659.32,228.87 663.72,271.16 668.12,267.01 672.51,251.39 676.91,250.60 681.31,260.89 685.71,280.81 690.10,296.81 694.50,297.64 698.90,305.07 703.30,329.55 707.70,351.49 712.09,385.89 716.49,423.82 720.89,423.25 725.29,423.33 729.69,421.73 734.08,420.91 738.48,420.35 742.88,418.98 747.28,419.09 751.68,417.12 756.07,418.61 760.47,417.36 764.87,420.43 769.27,422.73 773.66,422.88 778.06,423.91 782.46,434.02 786.86,445.14 791.26,446.78 795.65,449.85 800.05,450.00 804.45,448.71 808.85,447.79 813.25,445.21 817.64,439.81 822.04,435.18 826.44,440.27 830.84,435.73 835.24,423.33 839.63,417.08 844.03,403.53 848.43,404.36 852.83,403.50 857.23,399.79 861.62,402.27 866.02,402.99 870.42,403.87 874.82,397.27 879.21,389.30 883.61,386.13 888.01,388.16 892.41,390.62 896.81,370.92 901.20,358.34 905.60,345.30 910.00,325.45" fill="none" stroke="#1c7ed6" stroke-width="2"/>
<line x1="70" x2="70" y1="70" y2="450" stroke="#444"/>
<line x1="70" x2="910" y1="450" y2="450" stroke="#444"/>
</svg>