<svg xmlns="http://www.w3.org/2000/svg" width="980" height="520" viewBox="0 0 980 520"><style>text{font-family:Arial,sans-serif;fill:#e9ecef}.title{font-size:20px;font-weight:700}.axis{font-size:12px;fill:#adb5bd}.cell{font-size:11px;fill:#fff}</style><rect width="100%" height="100%" fill="#0b0f14"/><text x="24" y="28" class="title">Rolling Win Rate</text>
<text x="70" y="35" class="axis">Win rate</text>
<polyline points="70.00,260.00 74.40,228.33 78.80,196.67 83.19,196.67 87.59,228.33 91.99,260.00 96.39,260.00 100.79,260.00 105.18,260.00 109.58,260.00 113.98,260.00 118.38,291.67 122.77,260.00 127.17,228.33 131.57,228.33 135.97,228.33 140.37,228.33 144.76,228.33 149.16,260.00 153.56,291.67 157.96,291.67 162.36,291.67 166.75,260.00 171.15,260.00 175.55,228.33 179.95,196.67 184.35,196.67 188.74,196.67 193.14,196.67 197.54,196.67 201.94,196.67 206.34,228.33 210.73,260.00 215.13,291.67 219.53,291.67 223.93,291.67 228.32,291.67 232.72,291.67 237.12,291.67 241.52,291.67 245.92,291.67 250.31,291.67 254.71,323.33 259.11,355.00 263.51,355.00 267.91,355.00 272.30,355.00 276.70,355.00 281.10,355.00 285.50,323.33 289.90,291.67 294.29,260.00 298.69,291.67 303.09,291.67 307.49,323.33 311.88,355.00 316.28,355.00 320.68,355.00 325.08,386.67 329.48,418.33 333.87,418.33 338.27,418.33 342.67,418.33 347.07,418.33 351.47,418.33 355.86,418.33 360.26,418.33 364.66,418.33 369.06,418.33 373.46,386.67 377.85,386.67 382.25,386.67 386.65,355.00 391.05,323.33 395.45,323.33 399.84,323.33 404.24,323.33 408.64,323.33 413.04,323.33 417.43,355.00 421.83,386.67 426.23,386.67 430.63,355.00 435.03,355.00 439.42,355.00 443.82,355.00 448.22,355.00 452.62,323.33 457.02,291.67 461.41,260.00 465.81,260.00 470.21,260.00 474.61,260.00 479.01,260.00 483.40,260.00 487.80,260.00 492.20,228.33 496.60,196.67 500.99,196.67 505.39,228.33 509.79,228.33 514.19,228.33 518.59,260.00 522.98,260.00 527.38,228.33 531.78,196.67 536.18,196.67 540.58,196.67 544.97,196.67 549.37,196.67 553.77,165.00 558.17,165.00 562.57,165.00 566.96,165.00 571.36,133.33 575.76,101.67 580.16,70.00 584.55,70.00 588.95,101.67 593.35,133.33 597.75,165.00 602.15,165.00 606.54,165.00 610.94,165.00 615.34,165.00 619.74,165.00 624.14,196.67 628.53,228.33 632.93,196.67 637.33,165.00 641.73,165.00 646.13,165.00 650.52,133.33 654.92,133.33 659.32,133.33 663.72,133.33 668.12,133.33 672.51,101.67 676.91,101.67 681.31,101.67 685.71,133.33 690.10,165.00 694.50,165.00 698.90,165.00 703.30,196.67 707.70,228.33 712.09,260.00 716.49,291.67 720.89,291.67 725.29,291.67 729.69,291.67 734.08,291.67 738.48,291.67 742.88,291.67 747.28,291.67 751.68,291.67 756.07,291.67 760.47,291.67 764.87,323.33 769.27,323.33 773.66,323.33 778.06,323.33 782.46,355.00 786.86,386.67 791.26,418.33 795.65,450.00 800.05,450.00 804.45,450.00 808.85,418.33 813.25,386.67 817.64,355.00 822.04,323.33 826.44,355.00 830.84,355.00 835.24,323.33 839.63,291.67 844.03,260.00 848.43,260.00 852.83,260.00 857.23,260.00 861.62,260.00 866.02,260.00 870.42,260.00 874.82,228.33 879.21,196.67 883.61,165.00 888.01,165.00 892.41,165.00 896.81,133.33 901.20,133.33 905.60,101.67 910.00,70.00" fill="none" stroke="#1c7ed6" stroke-width="2"/>
<line x1="70" x2="70" y1="70" y2="450" stroke="#444"/>
<line x1="70" x2="910" y1="450" y2="450" stroke="#444"/>
</svg>