<svg xmlns="http://www.w3.org/2000/svg" width="980" height="520" viewBox="0 0 980 520"><style>text{font-family:Arial,sans-serif;fill:#e9ecef}.title{font-size:20px;font-weight:700}.axis{font-size:12px;fill:#adb5bd}.cell{font-size:11px;fill:#fff}</style><rect width="100%" height="100%" fill="#0b0f14"/><text x="24" y="28" class="title">Underwater Drawdown</text>
<text x="70" y="35" class="axis">Drawdown</text>
<polyline points="70.00,70.00 70.34,70.00 70.69,70.00 71.03,70.00 71.37,70.00 71.71,70.00 72.06,70.00 72.40,70.00 72.74,70.00 73.09,70.00 73.43,70.00 73.77,70.00 74.11,70.00 74.46,70.00 74.80,70.00 75.14,70.00 75.49,70.00 75.83,70.00 76.17,70.00 76.51,70.00 76.86,70.00 77.20,70.00 77.54,70.14 77.89,70.53 78.23,73.83 78.57,74.86 78.91,75.94 79.26,76.08 79.60,74.55 79.94,79.13 80.29,79.19 80.63,76.61 80.97,82.28 81.31,82.28 81.66,82.28 82.00,82.28 82.34,82.28 82.69,82.28 83.03,82.28 83.37,82.28 83.71,82.28 84.06,82.28 84.40,82.41 84.74,82.49 85.09,79.76 85.43,71.39 85.77,70.00 86.11,70.00 86.46,75.08 86.80,82.76 87.14,74.27 87.49,73.68 87.83,73.08 88.17,70.00 88.51,70.00 88.86,77.32 89.20,76.81 89.54,80.90 89.89,71.73 90.23,70.00 90.57,81.84 90.91,80.12 91.26,70.00 91.60,78.22 91.94,79.17 92.29,78.19 92.63,71.36 92.97,70.00 93.31,70.00 93.66,70.00 94.00,70.00 94.34,84.35 94.69,92.72 95.03,111.78 95.37,113.16 95.71,113.16 96.06,113.16 96.40,113.29 96.74,113.85 97.09,112.24 97.43,107.93 97.77,109.49 98.11,110.40 98.46,104.35 98.80,100.64 99.14,108.63 99.49,106.26 99.83,118.27 100.17,117.05 100.51,114.08 100.86,123.22 101.20,123.22 101.54,123.22 101.89,123.22 102.23,123.35 102.57,123.30 102.91,129.46 103.26,129.46 103.60,129.46 103.94,129.46 104.29,129.46 104.63,129.46 104.97,129.46 105.31,129.46 105.66,129.46 106.00,129.46 106.34,129.46 106.69,129.46 107.03,129.46 107.37,129.46 107.71,129.46 108.06,129.46 108.40,129.46 108.74,129.59 109.09,130.15 109.43,134.56 109.77,134.67 110.11,134.97 110.46,135.90 110.80,135.90 111.14,135.90 111.49,135.90 111.83,135.90 112.17,135.90 112.51,135.90 112.86,135.90 113.20,135.90 113.54,135.90 113.89,135.90 114.23,135.90 114.57,135.90 114.91,135.90 115.26,136.04 115.60,134.39 115.94,134.10 116.29,132.38 116.63,131.34 116.97,128.18 117.31,128.96 117.66,128.21 118.00,135.30 118.34,135.05 118.69,135.15 119.03,134.30 119.37,139.91 119.71,139.91 120.06,139.91 120.40,139.91 120.74,139.91 121.09,139.91 121.43,139.91 121.77,139.91 122.11,140.05 122.46,141.39 122.80,141.65 123.14,140.73 123.49,140.53 123.83,140.30 124.17,140.93 124.51,141.04 124.86,141.16 125.20,139.60 125.54,140.29 125.89,140.02 126.23,145.31 126.57,144.56 126.91,146.24 127.26,145.07 127.60,145.53 127.94,139.26 128.29,133.46 128.63,131.69 128.97,131.05 129.31,153.93 129.66,154.07 130.00,155.33 130.34,159.56 130.69,159.56 131.03,159.56 131.37,159.56 131.71,159.56 132.06,159.56 132.40,159.56 132.74,159.56 133.09,159.56 133.43,159.56 133.77,159.56 134.11,159.56 134.46,159.70 134.80,162.42 135.14,162.28 135.49,161.07 135.83,161.20 136.17,165.18 136.51,165.18 136.86,165.18 137.20,165.18 137.54,165.18 137.89,165.18 138.23,165.18 138.57,165.18 138.91,165.18 139.26,165.18 139.60,165.18 139.94,165.18 140.29,165.18 140.63,165.45 140.97,167.58 141.31,165.28 141.66,165.51 142.00,167.58 142.34,168.33 142.69,171.72 143.03,170.49 143.37,170.07 143.71,170.52 144.06,158.43 144.40,162.68 144.74,155.23 145.09,161.86 145.43,161.99 145.77,149.17 146.11,149.17 146.46,143.57 146.80,134.91 147.14,124.00 147.49,121.70 147.83,127.53 148.17,129.88 148.51,118.01 148.86,119.70 149.20,110.28 149.54,109.83 149.89,109.80 150.23,117.85 150.57,111.69 150.91,116.15 151.26,112.94 151.60,111.83 151.94,110.54 152.29,103.05 152.63,108.64 152.97,109.27 153.31,86.23 153.66,81.40 154.00,102.16 154.34,103.85 154.69,115.61 155.03,118.84 155.37,118.84 155.71,118.84 156.06,118.97 156.40,119.70 156.74,118.55 157.09,120.12 157.43,120.50 157.77,121.26 158.11,116.14 158.46,115.36 158.80,119.03 159.14,123.54 159.49,123.93 159.83,125.23 160.17,126.11 160.51,125.11 160.86,130.54 161.20,130.67 161.54,120.81 161.89,115.18 162.23,114.30 162.57,117.08 162.91,89.61 163.26,91.03 163.60,126.48 163.94,119.29 164.29,100.47 164.63,112.82 164.97,111.32 165.31,111.22 165.66,137.59 166.00,137.59 166.34,137.59 166.69,137.59 167.03,137.59 167.37,137.59 167.71,137.59 168.06,137.59 168.40,137.59 168.74,137.59 169.09,137.59 169.43,137.59 169.77,137.59 170.11,137.59 170.46,137.72 170.80,141.02 171.14,138.25 171.49,139.26 171.83,142.45 172.17,143.05 172.51,139.76 172.86,132.14 173.20,134.43 173.54,133.87 173.89,136.21 174.23,136.47 174.57,151.03 174.91,150.12 175.26,151.92 175.60,149.75 175.94,150.41 176.29,150.39 176.63,155.18 176.97,155.18 177.31,155.18 177.66,155.18 178.00,155.18 178.34,155.18 178.69,155.18 179.03,155.18 179.37,155.18 179.71,155.18 180.06,155.18 180.40,155.18 180.74,155.18 181.09,155.31 181.43,157.10 181.77,157.56 182.11,154.02 182.46,153.41 182.80,151.14 183.14,155.72 183.49,157.15 183.83,132.31 184.17,119.45 184.51,120.30 184.86,121.78 185.20,108.43 185.54,109.82 185.89,103.38 186.23,109.08 186.57,106.94 186.91,118.57 187.26,110.50 187.60,116.35 187.94,136.35 188.29,136.35 188.63,136.35 188.97,136.35 189.31,136.35 189.66,136.35 190.00,136.35 190.34,136.49 190.69,137.61 191.03,137.74 191.37,136.42 191.71,132.92 192.06,134.24 192.40,138.22 192.74,137.92 193.09,138.68 193.43,129.36 193.77,131.31 194.11,127.17 194.46,123.42 194.80,124.22 195.14,123.52 195.49,122.42 195.83,125.95 196.17,129.21 196.51,131.76 196.86,132.78 197.20,127.28 197.54,124.79 197.89,122.53 198.23,121.03 198.57,98.28 198.91,100.30 199.26,98.17 199.60,94.31 199.94,89.56 200.29,88.35 200.63,91.85 200.97,90.99 201.31,89.17 201.66,85.30 202.00,98.73 202.34,101.23 202.69,109.50 203.03,109.50 203.37,109.50 203.71,109.50 204.06,109.64 204.40,108.05 204.74,111.07 205.09,111.26 205.43,117.18 205.77,119.29 206.11,114.26 206.46,114.61 206.80,114.80 207.14,111.67 207.49,112.56 207.83,115.27 208.17,118.52 208.51,122.21 208.86,115.98 209.20,116.06 209.54,120.29 209.89,123.38 210.23,120.99 210.57,121.98 210.91,120.58 211.26,120.60 211.60,122.62 211.94,121.08 212.29,124.78 212.63,123.12 212.97,126.69 213.31,126.69 213.66,126.69 214.00,126.83 214.34,128.60 214.69,132.86 215.03,132.86 215.37,132.86 215.71,132.86 216.06,132.86 216.40,132.86 216.74,132.86 217.09,132.86 217.43,132.86 217.77,132.86 218.11,132.86 218.46,132.99 218.80,133.12 219.14,131.62 219.49,131.09 219.83,130.98 220.17,139.61 220.51,138.68 220.86,141.55 221.20,141.43 221.54,141.94 221.89,141.34 222.23,145.26 222.57,145.26 222.91,145.26 223.26,145.26 223.60,145.26 223.94,145.26 224.29,145.26 224.63,145.26 224.97,145.39 225.31,145.44 225.66,144.89 226.00,146.54 226.34,147.90 226.69,153.31 227.03,152.32 227.37,152.24 227.71,153.29 228.06,153.38 228.40,152.31 228.74,153.18 229.09,156.51 229.43,156.51 229.77,156.51 230.11,156.51 230.46,156.51 230.80,156.51 231.14,156.51 231.49,156.51 231.83,156.51 232.17,156.51 232.51,156.51 232.86,156.51 233.20,156.78 233.54,158.03 233.89,160.84 234.23,158.81 234.57,150.67 234.91,153.78 235.26,154.72 235.60,159.07 235.94,158.40 236.29,153.57 236.63,151.42 236.97,145.10 237.31,141.18 237.66,130.58 238.00,128.10 238.34,93.44 238.69,97.94 239.03,91.18 239.37,87.71 239.71,96.24 240.06,92.87 240.40,90.93 240.74,92.52 241.09,93.76 241.43,85.66 241.77,92.76 242.11,91.94 242.46,83.91 242.80,84.73 243.14,82.27 243.49,86.76 243.83,90.97 244.17,89.56 244.51,101.26 244.86,101.26 245.20,101.40 245.54,103.68 245.89,103.66 246.23,103.79 246.57,103.09 246.91,103.09 247.26,99.32 247.60,88.72 247.94,81.18 248.29,78.43 248.63,86.74 248.97,101.11 249.31,115.65 249.66,115.83 250.00,111.21 250.34,111.94 250.69,110.87 251.03,108.29 251.37,111.34 251.71,115.52 252.06,116.93 252.40,116.82 252.74,118.25 253.09,117.45 253.43,123.30 253.77,123.30 254.11,123.30 254.46,123.30 254.80,123.30 255.14,123.30 255.49,123.30 255.83,123.30 256.17,123.30 256.51,123.30 256.86,123.30 257.20,123.30 257.54,123.30 257.89,123.44 258.23,125.44 258.57,125.23 258.91,129.14 259.26,129.14 259.60,129.14 259.94,129.14 260.29,129.14 260.63,129.14 260.97,129.14 261.31,129.14 261.66,129.14 262.00,129.14 262.34,129.14 262.69,129.14 263.03,129.28 263.37,128.27 263.71,121.92 264.06,123.20 264.40,127.81 264.74,128.33 265.09,132.15 265.43,128.28 265.77,134.78 266.11,135.76 266.46,137.96 266.80,138.47 267.14,138.59 267.49,136.74 267.83,142.02 268.17,142.15 268.51,141.25 268.86,142.21 269.20,138.66 269.54,129.00 269.89,120.12 270.23,116.26 270.57,102.12 270.91,102.87 271.26,104.54 271.60,102.15 271.94,98.99 272.29,97.78 272.63,96.43 272.97,102.11 273.31,95.60 273.66,83.34 274.00,83.64 274.34,94.96 274.69,90.69 275.03,89.04 275.37,82.25 275.71,88.16 276.06,84.13 276.40,84.93 276.74,71.69 277.09,70.85 277.43,77.67 277.77,82.12 278.11,70.00 278.46,78.22 278.80,101.80 279.14,101.80 279.49,101.80 279.83,101.80 280.17,101.80 280.51,101.80 280.86,101.80 281.20,101.80 281.54,101.80 281.89,101.80 282.23,101.80 282.57,101.80 282.91,101.80 283.26,101.80 283.60,101.80 283.94,101.80 284.29,101.80 284.63,101.80 284.97,101.80 285.31,101.80 285.66,101.80 286.00,101.80 286.34,101.80 286.69,101.80 287.03,101.80 287.37,101.80 287.71,102.07 288.06,92.02 288.40,96.47 288.74,93.79 289.09,106.39 289.43,114.07 289.77,113.04 290.11,123.39 290.46,123.39 290.80,123.39 291.14,123.39 291.49,123.39 291.83,123.39 292.17,123.39 292.51,123.39 292.86,123.39 293.20,123.39 293.54,123.53 293.89,122.26 294.23,124.72 294.57,123.99 294.91,123.96 295.26,121.81 295.60,121.48 295.94,111.61 296.29,102.06 296.63,85.72 296.97,88.47 297.31,70.00 297.66,70.00 298.00,70.00 298.34,70.00 298.69,78.25 299.03,82.59 299.37,106.25 299.71,114.80 300.06,106.88 300.40,85.27 300.74,86.99 301.09,90.30 301.43,106.85 301.77,90.52 302.11,87.46 302.46,83.50 302.80,91.56 303.14,94.24 303.49,78.08 303.83,84.33 304.17,76.71 304.51,70.00 304.86,72.95 305.20,70.24 305.54,70.00 305.89,75.59 306.23,83.70 306.57,70.00 306.91,90.82 307.26,105.52 307.60,105.52 307.94,105.52 308.29,105.52 308.63,105.52 308.97,105.52 309.31,105.52 309.66,105.65 310.00,104.98 310.34,104.92 310.69,106.06 311.03,110.95 311.37,106.83 311.71,108.69 312.06,106.26 312.40,104.63 312.74,108.36 313.09,106.27 313.43,110.55 313.77,110.41 314.11,114.67 314.46,114.67 314.80,114.67 315.14,114.67 315.49,114.67 315.83,114.67 316.17,114.67 316.51,114.67 316.86,114.67 317.20,114.67 317.54,114.67 317.89,114.67 318.23,114.67 318.57,114.67 318.91,114.81 319.26,115.14 319.60,116.36 319.94,118.05 320.29,118.52 320.63,115.94 320.97,121.87 321.31,123.04 321.66,123.04 322.00,123.04 322.34,123.04 322.69,123.04 323.03,123.04 323.37,123.04 323.71,123.04 324.06,123.04 324.40,123.04 324.74,123.17 325.09,122.45 325.43,121.41 325.77,119.71 326.11,117.15 326.46,124.69 326.80,122.78 327.14,121.35 327.49,142.42 327.83,142.83 328.17,142.83 328.51,142.83 328.86,142.96 329.20,141.94 329.54,139.37 329.89,138.47 330.23,136.41 330.57,145.84 330.91,131.34 331.26,137.80 331.60,154.07 331.94,155.01 332.29,159.52 332.63,159.52 332.97,159.52 333.31,159.52 333.66,159.52 334.00,159.52 334.34,159.52 334.69,159.52 335.03,159.52 335.37,159.65 335.71,160.32 336.06,158.91 336.40,161.57 336.74,166.85 337.09,164.65 337.43,168.76 337.77,168.76 338.11,168.76 338.46,168.76 338.80,168.76 339.14,168.76 339.49,168.76 339.83,168.76 340.17,168.76 340.51,168.76 340.86,168.76 341.20,168.76 341.54,168.76 341.89,168.89 342.23,170.17 342.57,169.48 342.91,175.46 343.26,175.67 343.60,174.39 343.94,172.94 344.29,174.84 344.63,175.45 344.97,174.70 345.31,173.11 345.66,172.48 346.00,171.62 346.34,174.23 346.69,174.78 347.03,175.14 347.37,177.24 347.71,177.37 348.06,177.29 348.40,177.75 348.74,175.33 349.09,174.26 349.43,176.59 349.77,181.62 350.11,182.81 350.46,191.42 350.80,191.42 351.14,191.42 351.49,191.42 351.83,191.42 352.17,191.42 352.51,191.42 352.86,191.42 353.20,191.42 353.54,191.42 353.89,191.42 354.23,191.42 354.57,191.42 354.91,191.42 355.26,191.42 355.60,191.42 355.94,191.42 356.29,191.42 356.63,191.42 356.97,191.42 357.31,191.55 357.66,191.14 358.00,187.73 358.34,192.04 358.69,193.88 359.03,188.97 359.37,190.84 359.71,192.72 360.06,188.36 360.40,190.65 360.74,196.08 361.09,202.00 361.43,202.00 361.77,202.00 362.11,202.00 362.46,202.00 362.80,202.00 363.14,202.00 363.49,202.00 363.83,202.00 364.17,202.13 364.51,200.60 364.86,198.03 365.20,196.79 365.54,207.93 365.89,211.06 366.23,219.03 366.57,221.18 366.91,221.32 367.26,220.01 367.60,221.99 367.94,221.12 368.29,220.69 368.63,216.74 368.97,219.37 369.31,218.34 369.66,206.40 370.00,204.98 370.34,204.88 370.69,209.26 371.03,207.00 371.37,199.54 371.71,198.92 372.06,201.54 372.40,198.32 372.74,198.04 373.09,199.98 373.43,192.04 373.77,182.86 374.11,186.01 374.46,183.19 374.80,172.37 375.14,161.51 375.49,165.77 375.83,169.06 376.17,164.23 376.51,164.15 376.86,161.70 377.20,165.33 377.54,169.38 377.89,171.20 378.23,183.07 378.57,183.07 378.91,183.07 379.26,183.07 379.60,183.20 379.94,185.04 380.29,182.99 380.63,181.49 380.97,180.76 381.31,180.98 381.66,179.49 382.00,175.57 382.34,165.72 382.69,175.10 383.03,174.24 383.37,170.81 383.71,164.90 384.06,171.44 384.40,177.95 384.74,186.03 385.09,186.03 385.43,186.03 385.77,186.03 386.11,186.03 386.46,186.03 386.80,186.03 387.14,186.17 387.49,186.64 387.83,184.70 388.17,188.08 388.51,186.56 388.86,188.60 389.20,187.82 389.54,186.81 389.89,185.33 390.23,186.25 390.57,185.66 390.91,186.11 391.26,185.70 391.60,182.17 391.94,178.51 392.29,181.47 392.63,184.82 392.97,183.98 393.31,195.29 393.66,195.31 394.00,199.52 394.34,202.69 394.69,202.82 395.03,201.01 395.37,203.68 395.71,203.42 396.06,200.89 396.40,211.10 396.74,214.18 397.09,214.18 397.43,214.18 397.77,214.18 398.11,214.18 398.46,214.18 398.80,214.18 399.14,214.31 399.49,214.96 399.83,214.58 400.17,216.90 400.51,215.60 400.86,214.63 401.20,213.84 401.54,214.08 401.89,214.89 402.23,218.58 402.57,218.72 402.91,204.74 403.26,192.61 403.60,191.76 403.94,194.41 404.29,189.56 404.63,199.80 404.97,197.59 405.31,194.78 405.66,203.37 406.00,214.95 406.34,214.95 406.69,214.95 407.03,214.95 407.37,214.95 407.71,214.95 408.06,215.08 408.40,212.20 408.74,212.33 409.09,211.59 409.43,209.80 409.77,208.10 410.11,212.31 410.46,214.94 410.80,216.12 411.14,221.06 411.49,231.27 411.83,231.27 412.17,231.27 412.51,231.27 412.86,231.27 413.20,231.27 413.54,231.27 413.89,231.40 414.23,231.53 414.57,232.39 414.91,231.03 415.26,231.78 415.60,227.90 415.94,227.25 416.29,216.88 416.63,221.97 416.97,229.65 417.31,240.35 417.66,242.55 418.00,242.09 418.34,245.31 418.69,250.58 419.03,250.58 419.37,250.71 419.71,250.60 420.06,251.39 420.40,252.40 420.74,253.87 421.09,250.97 421.43,251.56 421.77,252.06 422.11,251.17 422.46,250.25 422.80,241.70 423.14,243.20 423.49,246.49 423.83,244.39 424.17,232.70 424.51,234.23 424.86,237.48 425.20,240.13 425.54,237.35 425.89,247.96 426.23,253.19 426.57,253.19 426.91,253.19 427.26,253.19 427.60,253.45 427.94,253.25 428.29,255.77 428.63,250.76 428.97,253.95 429.31,243.92 429.66,244.08 430.00,244.58 430.34,246.72 430.69,244.95 431.03,254.28 431.37,255.17 431.71,252.13 432.06,236.53 432.40,227.90 432.74,225.01 433.09,231.86 433.43,242.12 433.77,230.91 434.11,226.25 434.46,230.17 434.80,222.54 435.14,229.01 435.49,223.53 435.83,227.78 436.17,223.07 436.51,205.10 436.86,205.83 437.20,206.48 437.54,193.95 437.89,190.85 438.23,182.19 438.57,176.24 438.91,181.87 439.26,167.19 439.60,169.99 439.94,188.41 440.29,184.51 440.63,192.41 440.97,186.14 441.31,195.02 441.66,207.58 442.00,207.58 442.34,207.58 442.69,207.71 443.03,209.06 443.37,212.26 443.71,208.31 444.06,205.53 444.40,208.34 444.74,204.75 445.09,200.98 445.43,201.47 445.77,203.69 446.11,198.63 446.46,204.81 446.80,210.30 447.14,213.25 447.49,215.68 447.83,217.41 448.17,222.27 448.51,222.27 448.86,222.27 449.20,222.27 449.54,222.27 449.89,222.27 450.23,222.27 450.57,222.27 450.91,222.27 451.26,222.27 451.60,222.27 451.94,222.27 452.29,222.27 452.63,222.27 452.97,222.27 453.31,222.27 453.66,222.27 454.00,222.27 454.34,222.27 454.69,222.27 455.03,222.27 455.37,222.27 455.71,222.27 456.06,222.27 456.40,222.27 456.74,222.53 457.09,230.88 457.43,229.09 457.77,223.59 458.11,224.07 458.46,225.26 458.80,222.44 459.14,222.69 459.49,227.73 459.83,232.84 460.17,232.84 460.51,232.84 460.86,232.97 461.20,232.37 461.54,226.29 461.89,227.75 462.23,221.55 462.57,223.69 462.91,234.90 463.26,232.02 463.60,234.70 463.94,240.79 464.29,240.81 464.63,244.43 464.97,244.43 465.31,244.43 465.66,244.69 466.00,242.90 466.34,237.65 466.69,230.16 467.03,215.51 467.37,220.38 467.71,210.86 468.06,213.53 468.40,213.17 468.74,220.53 469.09,216.75 469.43,211.21 469.77,196.06 470.11,194.69 470.46,195.81 470.80,207.07 471.14,206.66 471.49,202.38 471.83,200.15 472.17,193.16 472.51,176.95 472.86,175.13 473.20,173.08 473.54,184.60 473.89,186.68 474.23,179.05 474.57,174.96 474.91,193.73 475.26,185.45 475.60,203.78 475.94,203.91 476.29,206.68 476.63,205.38 476.97,208.85 477.31,211.76 477.66,216.17 478.00,216.17 478.34,216.17 478.69,216.17 479.03,216.17 479.37,216.17 479.71,216.17 480.06,216.17 480.40,216.17 480.74,216.17 481.09,216.17 481.43,216.17 481.77,216.17 482.11,216.17 482.46,216.17 482.80,216.17 483.14,216.17 483.49,216.17 483.83,216.17 484.17,216.17 484.51,216.17 484.86,216.17 485.20,216.17 485.54,216.17 485.89,216.17 486.23,216.17 486.57,216.17 486.91,216.30 487.26,214.84 487.60,216.96 487.94,221.69 488.29,222.26 488.63,222.26 488.97,222.26 489.31,222.26 489.66,222.26 490.00,222.26 490.34,222.26 490.69,222.26 491.03,222.26 491.37,222.26 491.71,222.26 492.06,222.26 492.40,222.26 492.74,222.26 493.09,222.26 493.43,222.26 493.77,222.26 494.11,222.26 494.46,222.26 494.80,222.39 495.14,223.92 495.49,221.90 495.83,218.76 496.17,219.24 496.51,222.69 496.86,223.87 497.20,223.68 497.54,223.86 497.89,222.79 498.23,226.94 498.57,225.48 498.91,223.18 499.26,211.19 499.60,212.03 499.94,212.24 500.29,213.87 500.63,213.86 500.97,212.49 501.31,214.54 501.66,225.15 502.00,221.69 502.34,218.76 502.69,219.81 503.03,222.57 503.37,219.39 503.71,214.63 504.06,213.30 504.40,217.66 504.74,217.22 505.09,217.93 505.43,219.74 505.77,221.42 506.11,216.79 506.46,220.56 506.80,223.24 507.14,202.10 507.49,200.24 507.83,196.61 508.17,190.03 508.51,189.69 508.86,191.58 509.20,187.85 509.54,181.27 509.89,174.86 510.23,171.39 510.57,175.79 510.91,165.01 511.26,175.86 511.60,178.61 511.94,180.04 512.29,177.54 512.63,180.25 512.97,178.85 513.31,165.68 513.66,170.24 514.00,164.61 514.34,164.35 514.69,151.40 515.03,151.59 515.37,147.16 515.71,155.53 516.06,148.67 516.40,148.69 516.74,155.52 517.09,147.14 517.43,147.11 517.77,145.66 518.11,148.21 518.46,140.72 518.80,132.65 519.14,137.92 519.49,132.17 519.83,135.40 520.17,138.09 520.51,136.92 520.86,136.38 521.20,119.22 521.54,119.45 521.89,100.98 522.23,100.36 522.57,110.07 522.91,116.04 523.26,121.58 523.60,120.88 523.94,111.15 524.29,131.29 524.63,131.29 524.97,131.29 525.31,131.29 525.66,131.29 526.00,131.29 526.34,131.29 526.69,131.29 527.03,131.29 527.37,131.29 527.71,131.29 528.06,131.29 528.40,131.29 528.74,131.29 529.09,131.29 529.43,131.29 529.77,131.29 530.11,131.29 530.46,131.29 530.80,131.29 531.14,131.29 531.49,131.29 531.83,131.29 532.17,131.29 532.51,131.56 532.86,135.73 533.20,134.48 533.54,141.32 533.89,141.32 534.23,141.32 534.57,141.32 534.91,141.32 535.26,141.32 535.60,141.32 535.94,141.45 536.29,143.14 536.63,140.96 536.97,141.51 537.31,142.07 537.66,141.22 538.00,141.05 538.34,142.14 538.69,142.14 539.03,140.05 539.37,141.12 539.71,139.91 540.06,142.83 540.40,147.48 540.74,154.64 541.09,154.64 541.43,154.64 541.77,154.64 542.11,154.64 542.46,154.64 542.80,154.64 543.14,154.90 543.49,150.69 543.83,152.36 544.17,160.61 544.51,162.66 544.86,171.01 545.20,172.24 545.54,171.12 545.89,173.20 546.23,173.86 546.57,171.66 546.91,171.45 547.26,167.77 547.60,170.92 547.94,172.36 548.29,171.24 548.63,175.55 548.97,175.81 549.31,176.52 549.66,176.19 550.00,170.95 550.34,174.68 550.69,175.88 551.03,173.43 551.37,176.69 551.71,180.47 552.06,173.06 552.40,169.62 552.74,175.76 553.09,159.76 553.43,163.62 553.77,150.92 554.11,152.94 554.46,144.61 554.80,139.75 555.14,137.97 555.49,135.84 555.83,127.01 556.17,135.63 556.51,131.95 556.86,135.48 557.20,127.89 557.54,134.43 557.89,133.00 558.23,129.42 558.57,131.64 558.91,127.38 559.26,128.96 559.60,139.08 559.94,140.25 560.29,135.53 560.63,137.95 560.97,139.52 561.31,118.30 561.66,118.28 562.00,110.26 562.34,102.33 562.69,100.94 563.03,104.05 563.37,109.64 563.71,106.88 564.06,114.97 564.40,111.57 564.74,107.88 565.09,113.39 565.43,110.96 565.77,115.41 566.11,109.42 566.46,100.85 566.80,95.97 567.14,81.68 567.49,84.48 567.83,98.78 568.17,94.66 568.51,95.02 568.86,93.61 569.20,102.30 569.54,108.62 569.89,108.88 570.23,107.17 570.57,108.05 570.91,106.87 571.26,106.12 571.60,118.39 571.94,113.70 572.29,121.24 572.63,126.81 572.97,120.57 573.31,123.46 573.66,124.07 574.00,125.51 574.34,128.89 574.69,128.89 575.03,128.89 575.37,129.15 575.71,132.46 576.06,135.04 576.40,139.08 576.74,139.08 577.09,139.08 577.43,139.08 577.77,139.08 578.11,139.08 578.46,139.08 578.80,139.08 579.14,139.08 579.49,139.08 579.83,139.08 580.17,139.08 580.51,139.08 580.86,139.34 581.20,137.95 581.54,138.75 581.89,138.39 582.23,139.13 582.57,142.40 582.91,143.98 583.26,153.19 583.60,150.14 583.94,151.95 584.29,148.73 584.63,145.81 584.97,149.86 585.31,150.47 585.66,152.39 586.00,150.61 586.34,151.99 586.69,153.08 587.03,158.61 587.37,158.61 587.71,158.61 588.06,158.61 588.40,158.61 588.74,158.61 589.09,158.61 589.43,158.61 589.77,158.61 590.11,158.61 590.46,158.61 590.80,158.61 591.14,158.61 591.49,158.61 591.83,158.88 592.17,144.59 592.51,143.54 592.86,139.24 593.20,134.09 593.54,129.49 593.89,141.38 594.23,142.56 594.57,136.26 594.91,128.10 595.26,128.77 595.60,130.23 595.94,123.50 596.29,111.01 596.63,70.00 596.97,70.00 597.31,70.00 597.66,70.00 598.00,87.24 598.34,86.68 598.69,85.73 599.03,116.76 599.37,76.16 599.71,75.66 600.06,79.40 600.40,99.50 600.74,103.08 601.09,100.41 601.43,76.21 601.77,93.01 602.11,79.68 602.46,81.18 602.80,90.62 603.14,70.00 603.49,70.00 603.83,94.36 604.17,94.70 604.51,103.07 604.86,94.20 605.20,107.18 605.54,101.97 605.89,92.44 606.23,87.65 606.57,109.37 606.91,70.86 607.26,76.08 607.60,70.00 607.94,70.00 608.29,70.00 608.63,70.34 608.97,74.79 609.31,70.00 609.66,82.00 610.00,70.00 610.34,70.00 610.69,82.54 611.03,102.04 611.37,88.62 611.71,94.43 612.06,99.45 612.40,70.00 612.74,70.00 613.09,70.00 613.43,71.78 613.77,88.12 614.11,95.32 614.46,86.09 614.80,70.00 615.14,70.00 615.49,108.81 615.83,123.17 616.17,132.05 616.51,132.17 616.86,134.72 617.20,135.30 617.54,132.87 617.89,135.15 618.23,135.83 618.57,133.97 618.91,135.18 619.26,139.32 619.60,141.44 619.94,141.44 620.29,141.44 620.63,141.44 620.97,141.44 621.31,141.57 621.66,143.19 622.00,147.91 622.34,150.73 622.69,150.73 623.03,150.73 623.37,150.73 623.71,150.73 624.06,150.73 624.40,150.73 624.74,150.73 625.09,150.73 625.43,150.73 625.77,150.73 626.11,150.73 626.46,150.73 626.80,150.73 627.14,150.73 627.49,150.73 627.83,150.73 628.17,150.73 628.51,150.73 628.86,150.73 629.20,150.73 629.54,150.73 629.89,150.73 630.23,150.73 630.57,150.73 630.91,150.86 631.26,148.62 631.60,148.36 631.94,148.65 632.29,151.84 632.63,155.38 632.97,153.70 633.31,155.31 633.66,155.99 634.00,155.45 634.34,152.31 634.69,151.23 635.03,148.01 635.37,150.94 635.71,147.54 636.06,148.22 636.40,151.94 636.74,151.54 637.09,158.36 637.43,158.36 637.77,158.36 638.11,158.36 638.46,158.36 638.80,158.36 639.14,158.36 639.49,158.36 639.83,158.36 640.17,158.36 640.51,158.36 640.86,158.36 641.20,158.36 641.54,158.36 641.89,158.36 642.23,158.61 642.57,151.98 642.91,152.35 643.26,148.38 643.60,146.41 643.94,135.73 644.29,114.77 644.63,101.72 644.97,94.74 645.31,110.20 645.66,114.23 646.00,105.14 646.34,117.63 646.69,119.54 647.03,110.39 647.37,113.84 647.71,109.72 648.06,106.36 648.40,108.73 648.74,108.19 649.09,104.27 649.43,96.80 649.77,86.72 650.11,99.68 650.46,91.14 650.80,94.12 651.14,80.43 651.49,91.85 651.83,113.57 652.17,110.24 652.51,100.95 652.86,97.68 653.20,96.01 653.54,99.82 653.89,101.66 654.23,92.20 654.57,84.81 654.91,89.19 655.26,70.00 655.60,70.00 655.94,70.00 656.29,70.00 656.63,70.00 656.97,91.22 657.31,86.34 657.66,82.79 658.00,137.30 658.34,132.59 658.69,87.24 659.03,90.79 659.37,70.00 659.71,70.00 660.06,70.00 660.40,97.01 660.74,107.26 661.09,145.41 661.43,168.10 661.77,132.48 662.11,127.71 662.46,114.66 662.80,117.41 663.14,126.99 663.49,139.80 663.83,160.31 664.17,163.06 664.51,161.77 664.86,163.84 665.20,163.84 665.54,155.31 665.89,154.03 666.23,153.79 666.57,163.94 666.91,161.87 667.26,175.38 667.60,175.38 667.94,175.38 668.29,175.38 668.63,175.38 668.97,176.20 669.31,178.44 669.66,177.98 670.00,180.93 670.34,179.77 670.69,183.29 671.03,181.51 671.37,180.30 671.71,180.35 672.06,180.59 672.40,180.98 672.74,179.81 673.09,182.67 673.43,182.72 673.77,184.10 674.11,182.74 674.46,183.57 674.80,179.50 675.14,178.54 675.49,178.16 675.83,178.64 676.17,177.54 676.51,175.19 676.86,164.77 677.20,158.71 677.54,151.53 677.89,147.52 678.23,155.81 678.57,153.85 678.91,156.15 679.26,155.43 679.60,152.75 679.94,150.49 680.29,141.55 680.63,133.31 680.97,137.83 681.31,145.80 681.66,144.45 682.00,150.17 682.34,143.66 682.69,147.57 683.03,136.84 683.37,145.67 683.71,148.70 684.06,150.93 684.40,149.21 684.74,148.48 685.09,150.61 685.43,146.78 685.77,144.42 686.11,137.30 686.46,149.94 686.80,143.31 687.14,141.21 687.49,138.09 687.83,128.02 688.17,136.49 688.51,135.15 688.86,134.80 689.20,125.01 689.54,120.52 689.89,105.72 690.23,109.90 690.57,110.44 690.91,101.84 691.26,95.91 691.60,91.66 691.94,102.50 692.29,93.39 692.63,79.40 692.97,70.00 693.31,70.00 693.66,72.55 694.00,70.00 694.34,70.00 694.69,70.00 695.03,70.00 695.37,90.13 695.71,70.00 696.06,70.79 696.40,70.00 696.74,70.00 697.09,70.00 697.43,94.24 697.77,81.33 698.11,207.25 698.46,194.68 698.80,160.30 699.14,178.84 699.49,160.19 699.83,156.81 700.17,174.47 700.51,164.65 700.86,174.04 701.20,175.74 701.54,177.36 701.89,160.87 702.23,168.79 702.57,159.55 702.91,147.89 703.26,148.10 703.60,160.78 703.94,176.11 704.29,170.90 704.63,171.45 704.97,174.08 705.31,168.53 705.66,170.86 706.00,173.08 706.34,166.28 706.69,166.40 707.03,165.54 707.37,167.76 707.71,172.01 708.06,210.19 708.40,210.19 708.74,210.67 709.09,219.18 709.43,216.35 709.77,223.88 710.11,227.96 710.46,223.44 710.80,225.97 711.14,225.88 711.49,228.94 711.83,222.21 712.17,226.12 712.51,226.26 712.86,231.56 713.20,231.56 713.54,231.56 713.89,231.56 714.23,231.56 714.57,231.56 714.91,231.56 715.26,231.56 715.60,231.56 715.94,231.56 716.29,231.56 716.63,231.56 716.97,231.56 717.31,231.56 717.66,231.68 718.00,234.13 718.34,237.72 718.69,240.75 719.03,239.50 719.37,242.91 719.71,241.47 720.06,252.97 720.40,252.97 720.74,252.97 721.09,252.97 721.43,252.97 721.77,252.97 722.11,252.97 722.46,252.97 722.80,252.97 723.14,252.97 723.49,252.97 723.83,252.97 724.17,252.97 724.51,252.97 724.86,253.65 725.20,258.02 725.54,273.80 725.89,275.06 726.23,275.06 726.57,275.06 726.91,275.06 727.26,275.06 727.60,275.06 727.94,275.06 728.29,275.06 728.63,275.06 728.97,275.06 729.31,275.75 729.66,270.84 730.00,274.86 730.34,269.32 730.69,283.46 731.03,278.12 731.37,274.54 731.71,268.52 732.06,269.14 732.40,263.15 732.74,266.64 733.09,254.67 733.43,248.84 733.77,259.36 734.11,262.76 734.46,297.05 734.80,297.05 735.14,297.05 735.49,297.05 735.83,297.05 736.17,297.05 736.51,297.05 736.86,297.05 737.20,297.05 737.54,297.05 737.89,297.05 738.23,297.05 738.57,297.05 738.91,297.05 739.26,297.05 739.60,297.05 739.94,297.57 740.29,307.37 740.63,307.37 740.97,307.37 741.31,307.37 741.66,307.37 742.00,307.37 742.34,307.37 742.69,307.37 743.03,307.37 743.37,307.37 743.71,307.37 744.06,307.49 744.40,307.23 744.74,308.86 745.09,314.41 745.43,313.62 745.77,313.64 746.11,306.14 746.46,298.32 746.80,296.36 747.14,299.29 747.49,293.48 747.83,291.26 748.17,291.02 748.51,286.49 748.86,298.06 749.20,302.07 749.54,300.71 749.89,300.52 750.23,303.37 750.57,296.65 750.91,304.18 751.26,302.86 751.60,303.81 751.94,301.08 752.29,297.12 752.63,297.46 752.97,300.22 753.31,300.20 753.66,295.26 754.00,287.50 754.34,292.11 754.69,299.03 755.03,298.12 755.37,301.37 755.71,301.33 756.06,305.86 756.40,308.63 756.74,311.03 757.09,308.21 757.43,310.34 757.77,305.16 758.11,301.61 758.46,304.61 758.80,301.21 759.14,288.49 759.49,298.80 759.83,304.61 760.17,299.13 760.51,300.25 760.86,299.40 761.20,304.76 761.54,309.44 761.89,283.44 762.23,295.19 762.57,291.78 762.91,267.36 763.26,258.21 763.60,258.71 763.94,253.35 764.29,271.69 764.63,265.65 764.97,254.15 765.31,231.48 765.66,230.23 766.00,237.14 766.34,233.38 766.69,234.65 767.03,231.44 767.37,220.47 767.71,226.41 768.06,224.10 768.40,219.89 768.74,216.41 769.09,221.83 769.43,213.62 769.77,241.61 770.11,235.91 770.46,234.52 770.80,238.66 771.14,236.01 771.49,232.51 771.83,233.81 772.17,234.86 772.51,238.11 772.86,250.65 773.20,239.80 773.54,235.68 773.89,244.97 774.23,241.34 774.57,242.29 774.91,241.29 775.26,245.13 775.60,244.33 775.94,233.88 776.29,240.43 776.63,242.68 776.97,251.13 777.31,253.01 777.66,255.26 778.00,255.26 778.34,255.26 778.69,255.26 779.03,255.26 779.37,255.26 779.71,255.38 780.06,255.09 780.40,258.91 780.74,259.67 781.09,257.76 781.43,262.72 781.77,263.35 782.11,262.01 782.46,263.03 782.80,258.19 783.14,261.95 783.49,270.94 783.83,273.74 784.17,273.13 784.51,275.05 784.86,273.23 785.20,272.71 785.54,268.34 785.89,251.00 786.23,248.72 786.57,257.62 786.91,251.00 787.26,266.02 787.60,268.28 787.94,264.64 788.29,261.62 788.63,256.12 788.97,251.70 789.31,264.06 789.66,268.74 790.00,268.18 790.34,262.32 790.69,272.90 791.03,274.58 791.37,273.71 791.71,273.81 792.06,274.66 792.40,273.23 792.74,275.34 793.09,290.89 793.43,295.45 793.77,293.63 794.11,298.29 794.46,297.09 794.80,294.68 795.14,297.08 795.49,301.22 795.83,296.60 796.17,294.32 796.51,298.01 796.86,302.12 797.20,298.48 797.54,296.62 797.89,301.01 798.23,297.78 798.57,278.25 798.91,297.52 799.26,304.67 799.60,309.59 799.94,306.49 800.29,307.67 800.63,304.96 800.97,310.22 801.31,308.62 801.66,308.54 802.00,318.45 802.34,327.04 802.69,333.14 803.03,333.75 803.37,333.77 803.71,324.06 804.06,326.47 804.40,325.17 804.74,314.30 805.09,328.01 805.43,327.05 805.77,327.30 806.11,337.35 806.46,330.19 806.80,342.85 807.14,350.44 807.49,350.44 807.83,350.56 808.17,349.20 808.51,347.59 808.86,340.92 809.20,336.35 809.54,334.77 809.89,337.64 810.23,345.41 810.57,335.66 810.91,341.93 811.26,349.24 811.60,370.87 811.94,370.87 812.29,370.87 812.63,370.87 812.97,371.84 813.31,369.61 813.66,370.98 814.00,362.88 814.34,361.28 814.69,367.43 815.03,363.43 815.37,366.60 815.71,364.96 816.06,354.50 816.40,360.30 816.74,364.06 817.09,353.27 817.43,361.41 817.77,377.62 818.11,375.66 818.46,373.56 818.80,378.29 819.14,384.80 819.49,385.87 819.83,384.19 820.17,388.89 820.51,392.85 820.86,387.99 821.20,382.51 821.54,397.20 821.89,391.34 822.23,397.35 822.57,414.43 822.91,414.43 823.26,414.43 823.60,414.43 823.94,414.43 824.29,414.43 824.63,414.43 824.97,414.43 825.31,415.51 825.66,406.08 826.00,399.80 826.34,405.10 826.69,408.93 827.03,411.99 827.37,424.55 827.71,443.88 828.06,443.88 828.40,443.88 828.74,443.88 829.09,443.88 829.43,443.88 829.77,443.88 830.11,443.88 830.46,443.88 830.80,443.88 831.14,443.88 831.49,444.00 831.83,441.30 832.17,450.00 832.51,443.26 832.86,429.11 833.20,429.75 833.54,425.71 833.89,430.26 834.23,419.91 834.57,429.11 834.91,439.02 835.26,421.42 835.60,378.69 835.94,392.28 836.29,388.50 836.63,356.43 836.97,339.57 837.31,291.04 837.66,340.68 838.00,335.60 838.34,343.84 838.69,381.98 839.03,407.96 839.37,407.96 839.71,407.96 840.06,407.96 840.40,407.96 840.74,407.96 841.09,407.96 841.43,407.96 841.77,407.96 842.11,407.96 842.46,407.96 842.80,407.96 843.14,407.96 843.49,407.96 843.83,407.96 844.17,407.96 844.51,407.96 844.86,407.96 845.20,407.96 845.54,407.96 845.89,407.96 846.23,407.96 846.57,407.96 846.91,408.80 847.26,414.73 847.60,414.40 847.94,418.53 848.29,418.53 848.63,419.35 848.97,418.72 849.31,416.82 849.66,416.64 850.00,410.10 850.34,408.38 850.69,407.14 851.03,414.29 851.37,405.99 851.71,403.31 852.06,394.10 852.40,385.56 852.74,390.66 853.09,376.03 853.43,383.02 853.77,391.55 854.11,391.40 854.46,388.16 854.80,396.32 855.14,393.67 855.49,394.28 855.83,399.44 856.17,397.68 856.51,398.13 856.86,399.29 857.20,397.30 857.54,390.29 857.89,394.90 858.23,402.90 858.57,396.50 858.91,399.09 859.26,401.46 859.60,398.44 859.94,392.36 860.29,396.04 860.63,382.86 860.97,379.99 861.31,395.65 861.66,405.07 862.00,396.94 862.34,395.29 862.69,395.87 863.03,392.36 863.37,381.34 863.71,385.51 864.06,384.54 864.40,378.66 864.74,376.98 865.09,366.78 865.43,361.82 865.77,362.85 866.11,333.30 866.46,321.10 866.80,322.09 867.14,324.63 867.49,317.38 867.83,311.31 868.17,319.58 868.51,296.14 868.86,299.13 869.20,299.99 869.54,301.72 869.89,294.16 870.23,307.71 870.57,306.07 870.91,300.15 871.26,302.24 871.60,317.57 871.94,343.05 872.29,344.14 872.63,342.87 872.97,353.73 873.31,350.99 873.66,339.11 874.00,348.66 874.34,334.98 874.69,334.40 875.03,337.36 875.37,343.88 875.71,328.57 876.06,349.62 876.40,353.07 876.74,366.33 877.09,369.24 877.43,370.34 877.77,368.43 878.11,375.04 878.46,376.82 878.80,380.60 879.14,368.44 879.49,369.35 879.83,356.69 880.17,341.44 880.51,332.23 880.86,343.55 881.20,343.87 881.54,335.17 881.89,356.02 882.23,350.83 882.57,362.63 882.91,385.25 883.26,370.93 883.60,367.44 883.94,346.44 884.29,353.81 884.63,353.57 884.97,346.84 885.31,352.75 885.66,351.10 886.00,334.09 886.34,320.31 886.69,323.94 887.03,343.49 887.37,343.89 887.71,344.30 888.06,369.62 888.40,368.27 888.74,380.82 889.09,380.71 889.43,385.01 889.77,390.24 890.11,390.24 890.46,390.24 890.80,390.24 891.14,390.24 891.49,390.24 891.83,390.24 892.17,390.24 892.51,390.24 892.86,390.24 893.20,390.24 893.54,390.24 893.89,390.24 894.23,390.24 894.57,390.24 894.91,390.24 895.26,390.24 895.60,390.24 895.94,390.24 896.29,391.09 896.63,392.51 896.97,379.33 897.31,385.61 897.66,356.13 898.00,349.22 898.34,349.27 898.69,344.38 899.03,347.49 899.37,351.29 899.71,364.26 900.06,369.05 900.40,375.22 900.74,371.42 901.09,360.78 901.43,358.91 901.77,359.31 902.11,373.44 902.46,364.40 902.80,342.91 903.14,319.76 903.49,315.77 903.83,341.85 904.17,341.56 904.51,327.33 904.86,320.67 905.20,311.80 905.54,320.77 905.89,302.09 906.23,300.57 906.57,326.60 906.91,317.41 907.26,323.10 907.60,292.74 907.94,297.00 908.29,312.18 908.63,307.49 908.97,296.14 909.31,307.76 909.66,298.02 910.00,293.62" fill="none" stroke="#1c7ed6" stroke-width="2"/>
<line x1="70" x2="70" y1="70" y2="450" stroke="#444"/>
<line x1="70" x2="910" y1="450" y2="450" stroke="#444"/>
</svg>